<svg id="Capa_1" data-name="Capa 1" xmlns="http://www.w3.org/2000/svg" xmlns:xlink="http://www.w3.org/1999/xlink" viewBox="0 0 1600 151"><defs><radialGradient id="Degradado_sin_nombre_35" cx="803.02" cy="-3452.78" fx="789.8649142627975" fy="-2855.897299304904" r="597.03" gradientTransform="translate(-1.51 1051.85) scale(1 0.28)" gradientUnits="userSpaceOnUse"><stop offset="0" stop-color="#00b2ff"/><stop offset="1" stop-color="#006ee7"/></radialGradient><clipPath id="clip-path"><rect x="0.5" width="1600" height="151" fill="none"/></clipPath></defs><title>banner_cobertura</title><g opacity="0.78"><rect x="0.5" width="1600" height="151" fill="url(#Degradado_sin_nombre_35)"/><g opacity="0.17"><g clip-path="url(#clip-path)"><path d="M510.39,34.73c-3.76-1.42-7.34-2.67-10.83-4.12-13.71-5.72-27.15-12-39.28-20.66A44.63,44.63,0,0,1,444.54-9.94c-4-9.91,1.89-23.23,11-28.1,10.33-5.52,22.3-2.82,30.24,5.56,1.42,1.5,2.72,3.11,4.43,5.09.65-2.71,1-5.07,1.77-7.29,3.37-10,9.43-17.32,20.31-19.45,7.22-1.41,13.35,1.29,18.64,5.89,6.18,5.37,8.12,12.51,7.52,20.44-.57,7.6-2.91,14.79-5.88,21.72-5.84,13.66-13.45,26.39-21,39.16A19.82,19.82,0,0,1,510.39,34.73ZM492.05-22.2l-1.08.11-1.32-1.76c-2.13-2.79-4-5.8-6.43-8.3a22.19,22.19,0,0,0-16.93-6.77A20.1,20.1,0,0,0,450.37-31c-5.05,6.42-6.6,13.44-3.57,21.22,2.72,7,7.51,12.38,13.27,17s12.4,8.09,19,11.54c10,5.25,20.17,10.1,31,13.4,3.62-6.42,7.26-12.72,10.75-19.1C526,3.5,531.26-6.13,534.19-16.75c1.69-6.13,2.92-12.27,1.82-18.82-2.07-12.29-19-22.85-32-13-7.85,6-11.23,14-11.6,23.56C492.37-24,492.17-23.13,492.05-22.2Z" fill="#fff"/><path d="M1519.85,119.61c4.63,4.13,8.6,7.65,12.54,11.2,1.67,1.5,1.74,2.1.19,3.63a120.28,120.28,0,0,1-19.83,16.09c-2.6-.3-3-1.82-2.5-3.86,2.28-8.53,4.3-17.14,7-25.54,1.25-3.88,3.68-7.43,5.88-10.95Q1531.44,97,1540,83.93a32.79,32.79,0,0,1,5.67-6.37c-1.87,5.18-5.46,9.3-8.34,13.85-3,4.73-6,9.42-9,14.17S1522.6,115.08,1519.85,119.61Zm10.7,12.33c-3.58-4.14-8.08-7.67-11.69-9.18-1.36,4.81-2.71,9.61-4,14.24l5.85,3.53Zm-17.68,13.44.87.51,5.83-4.26-5.79-2.07C1513.42,141.9,1513.14,143.64,1512.87,145.38Z" fill="#fff"/><path d="M1545,75.64c2.07-5,3.39-9.53,7.52-12.6,3.41-2.54,9.08-2.91,12-.82,4.22,3,6.13,7.41,4.42,12.25-1.33,3.76-3.45,7.24-5.16,10.88-.59,1.25-.89,2.64-1.53,3.87a55.31,55.31,0,0,1-3.78,6.67q-10.48,14.77-21.17,29.42a43.67,43.67,0,0,1-3.22,3.59l-.84-.61a51.32,51.32,0,0,1,3.2-5A296.57,296.57,0,0,0,1557.87,93a17.74,17.74,0,0,0,1.18-2c1-2.2.75-2.55-1.42-3.94-3.4-2.17-6.71-4.47-10-6.75-.36-.24-.55-.75-1.27-1.8,3.41.25,5.15,2.16,7.14,3.54s4.08,2.76,6.37,4.31l1.86-2.8c-.47-.3-.81-.5-1.13-.72-2.87-2-5.7-4.08-8.64-6C1550,75.58,1548.18,73.13,1545,75.64Zm3.57-3.53c2.75,2,5,3.65,7.39,5.26,1.82,1.25,3.68,2.45,5.58,3.57a1.93,1.93,0,0,0,3-.77c1.47-2.9,2.9-5.81,2.83-9.21a8.06,8.06,0,0,0-11.21-7.51C1552.1,65,1549.86,68.21,1548.58,72.11Z" fill="#fff"/><path d="M911.39-2.77a30.51,30.51,0,0,1,12.54-1,162.66,162.66,0,0,1,31.28,6.19,243.68,243.68,0,0,1,34.31,12.75,55.76,55.76,0,0,1,4.93,2.9l-.33.85a23,23,0,0,1-3-.91A253.67,253.67,0,0,0,942.62,1.15a113.3,113.3,0,0,0-22.75-3.06c-1.93-.06-3.87.38-5.81.5a21,21,0,0,1-2.74-.2C911.34-2,911.37-2.38,911.39-2.77Z" fill="#fff"/><path d="M543.65-1.47c3.45-.35,6.9-.9,10.36-1,20.84-.72,41.56,1.12,62.26,3.23.27,0,.5.52.83.89-1.23,1.6-2.91,1-4.31.86C606.58,2,600.38,1.32,594.17.72,579.77-.67,565.33-.55,550.89-.36,548.46-.33,546,.65,543.65-1.47Z" fill="#fff"/><path d="M976.82,20.75c9.19-.16,17.95,3,27.28,4.34-1.75-6-5.64-10.73-6.68-16.91,2.25,1.75,7.92,12.65,10.53,20-5.53-1.18-10.75-2.36-16-3.41S981.71,22.91,976.58,22Z" fill="#fff"/><path d="M1599.34,138.21l10.29-15.39.85.52c-1.74,5.54-5.5,9.94-8.76,14.62-.33.47-1.17.59-1.77.87Z" fill="#fff"/><path d="M1600.16,50.35c-2.4-1-10.56-9.25-13.47-13.42C1590.78,38.27,1598.36,45.66,1600.16,50.35Z" fill="#fff"/><path d="M1591.07,146.64c-2.82,5-7.32,7.54-12.31,9.46.82-2.95,3.74-3.42,5.71-5S1588.86,148.12,1591.07,146.64Z" fill="#fff"/><path d="M1369.79.16c-.64-3.2,2.45-7.51,8.11-11.33C1377.47-9.28,1372.66-2.56,1369.79.16Z" fill="#fff"/><path d="M1197.06,115.66l-1.63.41a3.55,3.55,0,0,1,.45-1.22,70.14,70.14,0,0,1,5.31-5.32,6.48,6.48,0,0,1,3.42-1.29c6-.48,12-.9,18-1.14q19.32-.76,38.65-1.31c5.23-.15,10.47,0,15.71-.16a17.84,17.84,0,0,0,3.64-1,4.75,4.75,0,0,1,.58,1.57c.7,9.45,1.25,18.91,2,28.34.47,5.68,1.37,11.33,1.89,17,.34,3.75.2,7.56.55,11.32.74,7.88,1.62,15.76,2.51,23.63.3,2.59.83,5.15,1.19,7.73.08.52,0,1.42-.25,1.57-2.28,1.24-1,2.8-.4,4.61-2.87.44-5.68,1.08-8.51,1.27-9.09.62-18.18,1.1-27.28,1.58s-18.19.87-27.29,1.35c-3.77.2-7.53.55-11.3.75a6,6,0,0,0-3.21,1c-3.16,2.1-5.93,1.21-6.93-2.5a48.92,48.92,0,0,1-1.33-9.44c-.65-10.24-1-20.5-1.78-30.72-.51-6.65-1.58-13.25-2.33-19.88s-1.53-13.07-2-19.62a74.23,74.23,0,0,1,.31-8.68c1.55-.32,1.51.69,1.47,1.73a67.11,67.11,0,0,0-.21,7.22c.27,4.24.78,8.47,1.23,12.71q.59,5.63,1.26,11.25c.64,5.38,1.55,10.74,1.93,16.14.7,10.05,1.06,20.13,1.67,30.2a73,73,0,0,0,1.13,8.58,2.53,2.53,0,0,0,2.61,2.38,7.14,7.14,0,0,0,.12-1.14c-.17-4-.37-7.93-.54-11.9-.45-10.17-.81-20.34-1.35-30.5-.55-10.45-1.28-20.89-1.93-31.34-.1-1.64-.2-3.29-.31-4.93-.29-4.35-.61-8.7-.85-13.06a2,2,0,0,1,1.31-2.49c.94,16,2.14,31.67,2.89,47.36.77,15.87,1.59,31.74,2.36,47.22a10.5,10.5,0,0,1,2.54-.9c3.08-.35,6.17-.6,9.27-.77,3.77-.22,7.55-.31,11.33-.47l23.24-1.06c.77,0,1.54-.11,2.32-.16,4.93-.33,9.86-.63,14.79-1,4.51-.34,9-.79,13.73-1.2-.25-1.92-.52-3.53-.64-5.16q-.86-11.44-1.63-22.91c-.35-5-.6-10.05-1-15.07-.64-7.52-1.48-15-2.1-22.55-.61-7.34-1-14.7-1.57-22-.12-1.59-.48-3.17-.76-4.93-7.1.19-13.88.34-20.66.57q-17.73.6-35.46,1.28c-5,.19-10.07.6-15.11.58S1199.8,112,1197.06,115.66Z" fill="#fff"/><path d="M1243.79,131.88c1.16.23,2,.48,2.86.56a4.63,4.63,0,0,1,4.29,3.73,4.92,4.92,0,0,1-2.13,5.59,18,18,0,0,1-4.43,2c-1.82.61-3.72.95-5.51,1.38-.25-.21-.51-.32-.51-.44,0-4.83-2.37-9.12-3.2-13.77-.37-2.06-.31-4,1.4-5.26,2-1.48,4.27-2.26,6.79-1.2a3.36,3.36,0,0,1,1.9,5C1244.88,130.23,1244.37,130.93,1243.79,131.88Zm-4.24,2.47c-.11-.3-.23-.59-.34-.89.76-.68,1.54-1.35,2.28-2.06a15.63,15.63,0,0,0,2-2.07,2.25,2.25,0,0,0-1.44-3.71c-3.33-.78-6.16,1.67-5.41,5,.92,4.1,2.23,8.12,3.47,12.54a46.35,46.35,0,0,0,5.61-1.46,7.36,7.36,0,0,0,2.93-2.26c1.8-2.31.79-4.93-2.09-5.43a20.06,20.06,0,0,0-4.31,0C1241.35,134.08,1240.45,134.24,1239.55,134.35Z" fill="#fff"/><path d="M1225.44,138.19c-2.6.51-5,.92-7.32,1.47-2.55.59-2.87,1.1-2.92,3.83,0,1.54,0,3.1-.14,4.64-.08.88-.07,1.94-1.34,2.54a3.5,3.5,0,0,1-.38-1.1c.28-4.33.55-8.66.92-13a34.31,34.31,0,0,1,.85-5.13,4.66,4.66,0,0,1,3.83-3.88c2.11-.36,3.53.84,4.56,2.45a41.42,41.42,0,0,1,2.77,5.07,2.34,2.34,0,0,0,2.86,1.56l-1.74,1.53a30.24,30.24,0,0,0,1.8,4.63,3.51,3.51,0,0,1-.44,4.37C1226.84,144.55,1226.84,141.24,1225.44,138.19Zm-.69-1.44a12.05,12.05,0,0,0-3-6.42c-1.67-2-3.69-1.76-4.81.61a12.49,12.49,0,0,0-1.08,7.63Z" fill="#fff"/><path d="M1274.31,136.61a6.2,6.2,0,0,1-4.1,5.13c-5.08,2.07-11.42-1-13.3-6.15s1.69-11.55,6.8-12.91a7.77,7.77,0,0,1,6.16.77c.33.19.46.7,1,1.62a22.63,22.63,0,0,0-4.27-1.13,7.76,7.76,0,0,0-3.62.7,9.37,9.37,0,0,0-3.14,2.48,10.28,10.28,0,0,0-1.65,3.35,7.84,7.84,0,0,0,3.68,9C1266.13,141.94,1269.24,141.31,1274.31,136.61Z" fill="#fff"/><path d="M78.61,148.6c5.8-3.53,11-6.67,16.17-9.86,1.38-.86,2.61-.63,3.22.72,4,8.85,8,17.7,10.26,27.21a1.4,1.4,0,0,1,0,.4c-1.4,1.83-3,1.44-4.64.38-6.12-3.93-12.06-8.16-18.38-11.73-8.78-5-14.39-13-20.63-20.39-5.94-7-11.65-14.29-17.36-21.52-1.64-2.07-3.3-4.21-3.6-7.06C55.3,120.81,66.56,135.16,78.61,148.6ZM94.84,141c-4.91,2.9-9.89,5.2-13.83,9.42l14.07,9.38,5.55-5.3C98.69,150,96.87,145.72,94.84,141Zm8.88,24.29a16.85,16.85,0,0,0-2.6-8.83L97,161.24Z" fill="#fff"/><path d="M44.89,105.52c3.43-4.36,8.9-6.43,13-11l-2.34-2.28c-4.15,3-7.86,5.6-11.44,8.36-1.87,1.44-3.92,2.95-3,6.71C35.51,102.69,30.69,98.64,30,91.71a10.48,10.48,0,0,1,4.69-10.1,10.47,10.47,0,0,1,11.39-1c4.67,2.31,8,6.2,11.34,10,1.09,1.22,1.74,3,3.83,3,.39,0,.84.55,1.15.94,10.48,13.08,21,26.12,29.67,40.51.42.71.71,1.49,1.07,2.24l-.67.49a34.89,34.89,0,0,1-2.67-3.05c-4-5.74-7.83-11.66-12-17.27-4.9-6.55-10.07-12.9-15.26-19.22-2.21-2.71-2.49-2.5-5.24-.26-3.32,2.71-6.75,5.28-10.17,7.87a5.66,5.66,0,0,1-1.65.59Zm9-15.65c-3.12-3.79-5.57-5.89-8.45-7.34A8.66,8.66,0,0,0,35,84a8.39,8.39,0,0,0-2.69,9.13A17.21,17.21,0,0,0,39,102.61C43.4,97.71,49.86,95.42,53.89,89.87Z" fill="#fff"/><path d="M322.91,51.52a1.11,1.11,0,0,1-.3-.17l-35.67-28.3a1.14,1.14,0,0,1,.72-2l46.26.49a1.1,1.1,0,0,1,.74.28l34.87,30.41a1.15,1.15,0,0,1-.82,2l-45.46-2.61A1.37,1.37,0,0,1,322.91,51.52ZM291,23.33l32.77,26,41.76,2.39-32-27.94Z" fill="#fff"/><path d="M322.86,29.59a1.14,1.14,0,0,1-.74-1.08,1.15,1.15,0,0,1,1.16-1.14l17.59.19a1.15,1.15,0,1,1,0,2.29l-17.6-.19A1,1,0,0,1,322.86,29.59Z" fill="#fff"/><path d="M316.23,69.07a72.41,72.41,0,0,1-23.59-14.95,4.17,4.17,0,0,1-1-4.48l7-18.34a1.12,1.12,0,0,1,.76-.69,1.17,1.17,0,0,1,1,.2l23.34,18.52L353.49,51a1.16,1.16,0,0,1,.9.52,1.14,1.14,0,0,1,.11,1l-7,18.34a4.16,4.16,0,0,1-3.72,2.68A72.41,72.41,0,0,1,316.23,69.07Zm-16-35.49-6.43,16.87a1.87,1.87,0,0,0,.45,2A69.82,69.82,0,0,0,317,66.93a69.9,69.9,0,0,0,26.66,4.38,1.86,1.86,0,0,0,1.67-1.2l6.43-16.88-28.55-1.64a1.14,1.14,0,0,1-.64-.24Z" fill="#fff"/><path d="M311.45,58.62a72.26,72.26,0,0,1-16.12-11.57,4.15,4.15,0,0,1-1-4.47,1.16,1.16,0,0,1,1.48-.67,1.15,1.15,0,0,1,.66,1.48,1.87,1.87,0,0,0,.45,2,70,70,0,0,0,15.47,11.13,1.14,1.14,0,0,1-.94,2.08Z" fill="#fff"/><path d="M350.87,80.28a1.15,1.15,0,0,1-.66-1.48l10.12-26.57a1.14,1.14,0,1,1,2.14.81L352.35,79.62A1.15,1.15,0,0,1,350.87,80.28Z" fill="#fff"/><path d="M346.09,92.82a7.85,7.85,0,1,1,10.14-4.55A7.87,7.87,0,0,1,346.09,92.82Zm4.78-12.54a5.56,5.56,0,1,0,3.22,7.18A5.57,5.57,0,0,0,350.87,80.28Z" fill="#fff"/><path d="M346.09,92.82a7.85,7.85,0,1,1,10.14-4.55A7.87,7.87,0,0,1,346.09,92.82Zm4.78-12.54a5.56,5.56,0,1,0,3.22,7.18A5.57,5.57,0,0,0,350.87,80.28Z" fill="#fff"/><path d="M342.51,115.1,334,111.84a4.15,4.15,0,0,1-2.2-5.84l9.88-18.64a1.13,1.13,0,0,1,.91-.6,1.17,1.17,0,0,1,1.19.72,5.48,5.48,0,0,0,7.68,2.93,1.15,1.15,0,0,1,1.36.23,1.2,1.2,0,0,1,.29,1.07l-5,20.49a4.16,4.16,0,0,1-5.53,2.9Zm.17-24.84-8.91,16.81a1.87,1.87,0,0,0,1,2.63l8.56,3.27a1.9,1.9,0,0,0,2.5-1.31l4.52-18.48A8,8,0,0,1,342.68,90.26Z" fill="#fff"/><path d="M1329.23,1.13a1,1,0,0,1-1.39,0,28,28,0,0,0-37.19.91A27.4,27.4,0,0,0,1288,39.2a1,1,0,0,1-.16,1.45,1,1,0,0,1-1.46-.16,29.74,29.74,0,0,1,42.81-40.9,1,1,0,0,1,.11,1.46Z" fill="#fff"/><path d="M1284,43.2a1.05,1.05,0,0,1-1.53-.11,34.61,34.61,0,0,1-5.5-32.32,1,1,0,0,1,2,.65,32.56,32.56,0,0,0,5.17,30.4A1,1,0,0,1,1284,43.2Z" fill="#fff"/><path d="M1319.72,10.21a1,1,0,0,1-1.43,0c-7.09-6.82-15.11-11.49-21.53-12.55A27.66,27.66,0,0,0,1286,8c.76,6.46,5.06,14.69,11.55,22.08a1,1,0,0,1-.1,1.46,1,1,0,0,1-1.46-.1c-6.87-7.83-11.39-16.64-12.08-23.57a1,1,0,0,1,.13-.62,29.93,29.93,0,0,1,12.1-11.56,1.06,1.06,0,0,1,.63-.1c6.89,1,15.48,5.93,23,13.16a1,1,0,0,1,0,1.46Z" fill="#fff"/><path d="M1297.45,31.48a1,1,0,0,1-1.5-.07c-6.87-7.83-11.39-16.64-12.08-23.57a1,1,0,0,1,.13-.62,29.93,29.93,0,0,1,12.1-11.56,1.06,1.06,0,0,1,.63-.1c6.81,1,15,5.58,22.38,12.57a1,1,0,1,1-1.42,1.5c-6.88-6.49-14.68-10.94-20.93-12A27.66,27.66,0,0,0,1286,8c.76,6.46,5.06,14.69,11.55,22.08A1.05,1.05,0,0,1,1297.45,31.48Z" fill="#fff"/><path d="M1308.58,20.85a1,1,0,0,1-1.46,0L1289.19,2a1,1,0,0,1,0-1.47,1,1,0,0,1,1.46,0l17.93,18.77A1,1,0,0,1,1308.58,20.85Z" fill="#fff"/><path d="M1287.91,40.59a1.05,1.05,0,0,1-1.52-.1,27.64,27.64,0,0,1-3.05-4.76,1,1,0,0,1-.1-.63c1.13-7.65,6.78-17,15.12-25S1316.29-3,1324-3.81a1,1,0,0,1,1.13.92,1,1,0,0,1-.92,1.13c-7.15.72-16.51,5.86-24.41,13.4S1286.5,28,1285.34,35.08A25,25,0,0,0,1288,39.2,1,1,0,0,1,1287.91,40.59Z" fill="#fff"/><path d="M1338.09,51.74a1,1,0,0,1-.52.27l-3.71.7a16.45,16.45,0,0,0-8.28,4.26l-16,15.26a1,1,0,0,1-1.47,0l-23.47-24.57a1,1,0,0,1,0-1.46l16-15.26a18.49,18.49,0,0,1,9.32-4.79l3.06-.58.71-3a18.54,18.54,0,0,1,5.22-9.1l16-15.25a1,1,0,0,1,1.46,0l23.47,24.58a1,1,0,0,1,0,1.46l-16,15.25a16.36,16.36,0,0,0-4.63,8.08l-.88,3.67A1,1,0,0,1,1338.09,51.74ZM1308.93,70l15.22-14.54a18.46,18.46,0,0,1,9.32-4.8l3.06-.57.71-3a18.51,18.51,0,0,1,5.22-9.09l15.22-14.54-22-23.08-15.22,14.54a16.31,16.31,0,0,0-4.63,8.08l-.88,3.67a1,1,0,0,1-.81.78l-3.71.7a16.37,16.37,0,0,0-8.28,4.26l-15.23,14.54Z" fill="#fff"/><path d="M1341.68,55.5a1.08,1.08,0,0,1-.52.27l-4.18.79a18.57,18.57,0,0,0-9.39,4.83l-18,17.16a1,1,0,0,1-1.47,0l-11.31-11.85a1,1,0,0,1,1.49-1.43l10.61,11.1,17.22-16.45a20.63,20.63,0,0,1,10.44-5.36l3.51-.67.83-3.48a20.69,20.69,0,0,1,5.84-10.18L1364,23.75l-10.6-11.1a1,1,0,0,1,1.5-1.43l11.31,11.85a1,1,0,0,1,0,1.46l-18,17.17a18.57,18.57,0,0,0-5.25,9.16L1342,55A1.08,1.08,0,0,1,1341.68,55.5Z" fill="#fff"/><path d="M1338.09,51.74a1,1,0,0,1-1.46,0l-12.34-12.92a1,1,0,0,1,0-1.47,1,1,0,0,1,1.46,0l12.34,12.92A1,1,0,0,1,1338.09,51.74Z" fill="#fff"/><path d="M1321,33.84a1,1,0,0,1-1.46,0l-6.37-6.66a1,1,0,0,1,1.5-1.43l6.36,6.67A1,1,0,0,1,1321,33.84Z" fill="#fff"/><path d="M1306.61,37.62l-11.7,11.18a1.05,1.05,0,0,1-1.47,0,1,1,0,0,1,0-1.46l11.7-11.18a1,1,0,1,1,1.43,1.49Z" fill="#fff"/><path d="M1311,42.19l-11.7,11.18a1,1,0,0,1-1.43-1.5l11.7-11.18a1,1,0,0,1,1.47,0A1,1,0,0,1,1311,42.19Z" fill="#fff"/><path d="M1315.33,46.75l-11.7,11.18a1,1,0,0,1-1.43-1.49l11.71-11.18a1,1,0,1,1,1.42,1.49Z" fill="#fff"/><path d="M1319.69,51.32,1308,62.5a1,1,0,0,1-1.43-1.5l11.71-11.18a1,1,0,1,1,1.42,1.5Z" fill="#fff"/><path d="M1337.14,8.47l-11.71,11.18a1,1,0,0,1-1.43-1.5L1335.71,7a1,1,0,0,1,1.43,1.5Z" fill="#fff"/><path d="M1341.5,13l-11.71,11.18a1,1,0,0,1-1.43-1.5l11.71-11.18a1,1,0,0,1,1.46,0A1.05,1.05,0,0,1,1341.5,13Z" fill="#fff"/><path d="M1345.86,17.6l-11.71,11.18a1,1,0,0,1-1.43-1.49l11.71-11.18a1,1,0,1,1,1.43,1.49Z" fill="#fff"/><path d="M1350.22,22.17l-11.71,11.18a1,1,0,0,1-1.43-1.5l11.71-11.18a1,1,0,0,1,1.43,1.5Z" fill="#fff"/><path d="M684,120.9q-.83.34-1.68.66" fill="none" stroke="#fff" stroke-miterlimit="10" stroke-width="1.2"/><path d="M678.9,122.73c-19.19,6.1-41.92,4-57.36-11.17C615.34,104.45,611,96,611.36,85.84c.55-9.2,7.86-20.49,17.53-17,9.84,4.5,10.59,15.52,6.91,24.21-8.65,15.57-25.79,22.36-43.37,20.1a48.41,48.41,0,0,0-7.38-1.85A86.47,86.47,0,0,1,553.1,95.16c-10.56-8.44-17.3-19.17-25.54-28" fill="none" stroke="#fff" stroke-miterlimit="10" stroke-width="1.2" stroke-dasharray="3.59 3.59"/><path d="M526.32,65.87c-.42-.43-.84-.86-1.27-1.28" fill="none" stroke="#fff" stroke-miterlimit="10" stroke-width="1.2"/><path d="M1479.43,85.44l-4.74,3.44a1,1,0,0,1-1.44-.22l-35.19-48.33-32.59,23.73a1,1,0,0,1-1.45-.22l-3.14-4.32a1,1,0,0,1,.23-1.45l38.16-27.78a1,1,0,0,1,1.44.22l39,53.48A1,1,0,0,1,1479.43,85.44Zm-5.12,1.16,3.07-2.23-37.73-51.8-36.49,26.57,1.93,2.64,32.59-23.73a1,1,0,0,1,1.44.23Z" fill="#fff"/><path d="M1476.25,101l-38.16,27.79a1,1,0,0,1-1.45-.23L1397.7,75.05a1,1,0,0,1,.23-1.44l38.16-27.79a1,1,0,0,1,1.44.22l38.94,53.48A1,1,0,0,1,1476.25,101Zm-38.54,25.51,36.48-26.58-37.72-51.8L1400,74.67Z" fill="#fff"/><path d="M1477.84,93.2l-4.74,3.45a1,1,0,0,1-1.44-.23L1436.47,48.1l-32.59,23.73a1,1,0,0,1-1.45-.23l-3.14-4.32a1,1,0,0,1,.23-1.44l38.16-27.79a1,1,0,0,1,1.44.23l39,53.48A1,1,0,0,1,1477.84,93.2Zm-5.12,1.17,3.07-2.23-37.73-51.81L1401.57,66.9l1.93,2.65,32.59-23.73a1,1,0,0,1,1.44.22Z" fill="#fff"/><path d="M1440.27,82.65l-15.82,11.52a3.43,3.43,0,0,1-4-5.54l15.82-11.52a3.43,3.43,0,1,1,4,5.54Zm-18.63,7.66a1.35,1.35,0,1,0,1.59,2.19L1439.06,81a1.36,1.36,0,0,0-1.6-2.2Z" fill="#fff"/><path d="M1436.2,79.7l-4.6,3.35a1,1,0,0,1-1.21,0l-4-2.9,1.52,4.74a1,1,0,0,1-.38,1.15l-4.6,3.35a1,1,0,0,1-1.6-.57l-5.08-19.32a2.07,2.07,0,0,1,3.12-2.26L1436.15,78a1,1,0,0,1,.47.84A1,1,0,0,1,1436.2,79.7ZM1431,80.93l2.77-2L1418.21,69l4.69,17.85,2.77-2-2.24-7a1,1,0,0,1,1.58-1.16Z" fill="#fff"/><path d="M1445.86,86.09l-5,3.61a1,1,0,0,1-1.21,0l-5.2-3.73a1,1,0,0,1-.43-.83,1,1,0,0,1,.42-.84l4.76-3.47a1,1,0,0,1,1.18,0l5.4,3.58a1,1,0,0,1,.46.83A1,1,0,0,1,1445.86,86.09Zm-5.58,1.5,3.16-2.29-3.57-2.36-3,2.2Z" fill="#fff"/><path d="M1431,96.93l-5,3.61a1,1,0,0,1-1.61-.55l-1.74-6.25a1,1,0,0,1,.38-1.11l4.76-3.46a1,1,0,0,1,1.59.52l1.95,6.09A1,1,0,0,1,1431,96.93ZM1426,98l3.16-2.29-1.29-4-3,2.2Z" fill="#fff"/><path d="M1457.69,87.31l-26.91,19.59a1,1,0,0,1-1.44-.22,1,1,0,0,1,.22-1.45l26.92-19.6a1,1,0,0,1,1.21,1.68Z" fill="#fff"/><path d="M1461.32,92.28l-26.91,19.6a1,1,0,0,1-1.45-.22,1,1,0,0,1,.23-1.45l26.91-19.6a1,1,0,0,1,1.44.23A1,1,0,0,1,1461.32,92.28Z" fill="#fff"/><path d="M1464.94,97.26,1438,116.86a1,1,0,0,1-1.22-1.67l26.92-19.6a1,1,0,0,1,1.44.23A1,1,0,0,1,1464.94,97.26Z" fill="#fff"/><path d="M139.38,74.23,87,53.86a1,1,0,0,1-.35-1.7,33.74,33.74,0,0,0,9.9-25.48,1.07,1.07,0,0,1,.43-.89,1,1,0,0,1,1-.12l49.88,19.39a1,1,0,0,1-.75,1.93L98.65,28.16a35.87,35.87,0,0,1-9.46,24.33L140.13,72.3A13.06,13.06,0,0,0,157,64.86a1,1,0,0,1,1.93.75A15.14,15.14,0,0,1,139.38,74.23Z" fill="#fff"/><path d="M145.62,50.74,97.05,31.86a1,1,0,0,1,.75-1.93l48.57,18.88a1,1,0,0,1-.75,1.93Z" fill="#fff"/><path d="M140.84,70.48,89.91,50.68a1,1,0,0,1,.75-1.93l50.92,19.8a9,9,0,0,0,11.69-5.14,1,1,0,0,1,1.93.74A11.11,11.11,0,0,1,140.84,70.48Z" fill="#fff"/><path d="M131.75,60l-29-11.27a1,1,0,0,1,.75-1.93L132.5,58a1,1,0,1,1-.75,1.93Z" fill="#fff"/><path d="M139.5,55.34l-29-11.27a1,1,0,0,1,.75-1.93l29,11.27a1,1,0,0,1-.74,1.93Z" fill="#fff"/><path d="M147.09,47l-34-13.21a1,1,0,0,1-.59-1.33l3.32-8.55a12,12,0,0,1,12.55-7.58,41.2,41.2,0,0,1,19.2,7.47,12,12,0,0,1,4.14,14.06l-3.33,8.55A1,1,0,0,1,147.09,47ZM114.84,32.21l32,12.46,2.95-7.59a9.91,9.91,0,0,0-3.42-11.63,39,39,0,0,0-18.23-7.09,9.91,9.91,0,0,0-10.38,6.26Z" fill="#fff"/><path d="M150.41,38.42a1.07,1.07,0,0,1-.47-.37,1.05,1.05,0,0,1-.12-1,9.91,9.91,0,0,0-3.42-11.63,39,39,0,0,0-18.23-7.09,9.91,9.91,0,0,0-10.38,6.26,1,1,0,0,1-.74.64,1.07,1.07,0,0,1-.94-.26L102.36,11.89a1,1,0,0,1,.55-1.77l40.9-6.42a1,1,0,0,1,1,.37l25.82,32.36a1,1,0,0,1-.78,1.68l-19,.38A1.09,1.09,0,0,1,150.41,38.42ZM138.49,18.81a40.9,40.9,0,0,1,9.12,5,12,12,0,0,1,4.6,12.62l15.46-.3L143.53,5.83l-38.23,6,11.19,10.68a12,12,0,0,1,11.92-6.21A41,41,0,0,1,138.49,18.81Z" fill="#fff"/><path d="M158.33,44.84a1,1,0,0,1-.59-1.34l2.58-6.63a1,1,0,0,1,1.93.75l-2.58,6.63A1,1,0,0,1,158.33,44.84Z" fill="#fff"/><path d="M156.8,59.49l-7.23-2.81a1,1,0,0,1-.59-1.34l3.75-9.63a4.91,4.91,0,0,1,9.15,3.55l-3.75,9.64A1,1,0,0,1,156.8,59.49Zm-5.52-4.36,5.3,2.06L160,48.52a2.84,2.84,0,1,0-5.3-2.06Z" fill="#fff"/><path d="M159.92,51.45l-7.23-2.81a1,1,0,0,1,.75-1.93l7.23,2.81a1,1,0,0,1-.75,1.93Z" fill="#fff"/><path d="M143.56,38.48,122,30.08a1,1,0,1,1,.75-1.92l21.59,8.39a1,1,0,1,1-.75,1.93Z" fill="#fff"/><path d="M1157.11,25.31l-36.43,11.85a1,1,0,0,1-1.3-.66L1117,29A20.29,20.29,0,0,1,1121,9.41a1,1,0,0,1,1.55,1.37,18.22,18.22,0,0,0-3.67,17.62l2.11,6.47,34.46-11.2-2.1-6.47a18.24,18.24,0,0,0-13.33-12.1,1,1,0,1,1,.44-2,20.3,20.3,0,0,1,14.85,13.48l2.43,7.45A1,1,0,0,1,1157.11,25.31Z" fill="#fff"/><path d="M1129.28,1.67a10.75,10.75,0,0,1-13.53-6.89,10.75,10.75,0,0,1,6.89-13.53,10.76,10.76,0,0,1,13.54,6.89A10.75,10.75,0,0,1,1129.28,1.67Zm-6-18.46a8.68,8.68,0,0,0-5.56,10.93,8.69,8.69,0,0,0,10.93,5.57,8.69,8.69,0,0,0,5.56-10.93A8.68,8.68,0,0,0,1123.28-16.79Z" fill="#fff"/><path d="M1191.6,14.1l-74.45,24.21a1,1,0,0,1-.64-2L1191,12.13a1,1,0,0,1,.64,2Z" fill="#fff"/><path d="M1193.64,20.37l-74.45,24.21a1,1,0,0,1-.64-2L1193,18.41a1,1,0,0,1,.64,2Z" fill="#fff"/><path d="M1186.86,15.64,1170,21.12a4.78,4.78,0,1,1-3-9.1l16.86-5.48a1,1,0,0,1,.64,2L1167.67,14a2.72,2.72,0,0,0,1.69,5.17l16.86-5.49a1,1,0,0,1,.64,2Z" fill="#fff"/><path d="M1183.29,1,1166.42,6.5a4.79,4.79,0,0,1-3-9.11l16.87-5.48a1,1,0,0,1,1.3.66,1,1,0,0,1-.66,1.31L1164.1-.64a2.72,2.72,0,1,0,1.69,5.17l16.86-5.48a1,1,0,0,1,1.3.66A1,1,0,0,1,1183.29,1Z" fill="#fff"/><path d="M1179.36,10.19l-16.87,5.48a1,1,0,0,1-.64-2l16.87-5.48A2.72,2.72,0,1,0,1177,3.05l-16.87,5.48a1,1,0,1,1-.64-2l16.87-5.49a4.79,4.79,0,0,1,3,9.11Z" fill="#fff"/><path d="M1173.16,8.26l-10.22,3.32a1,1,0,0,1-.63-2l10.21-3.32a1,1,0,1,1,.64,2Z" fill="#fff"/><path d="M1180.34-2,1172.67.52a1,1,0,0,1-1.3-.66,1,1,0,0,1,.66-1.3l7.67-2.5a1,1,0,0,1,1.31.66A1,1,0,0,1,1180.34-2Z" fill="#fff"/><path d="M1183.16,12.9l-7.68,2.49a1,1,0,1,1-.64-2l7.68-2.5a1,1,0,0,1,.64,2Z" fill="#fff"/><path d="M490.23,158.44,450.49,118a12.17,12.17,0,0,1,.16-17.2,1,1,0,0,1,1.47,0l55.32,56.36a1,1,0,0,1,0,1.47A12.17,12.17,0,0,1,490.23,158.44ZM451.4,103A10.09,10.09,0,0,0,452,116.5L491.72,157a10.11,10.11,0,0,0,13.48.82Z" fill="#fff"/><path d="M503.31,155.88l-50-50.95a1,1,0,0,1,0-1.47l28.53-28a4.16,4.16,0,0,1,5.88,0L503,91a1,1,0,0,1-1.49,1.46L486.23,77a2.08,2.08,0,0,0-2.94,0L455.5,104.22l48.57,49.47,27.79-27.29a2.07,2.07,0,0,0,0-2.94l-15.25-15.54a1,1,0,1,1,1.48-1.45L533.37,122a4.15,4.15,0,0,1-.06,5.87l-28.53,28A1,1,0,0,1,503.31,155.88Z" fill="#fff"/><path d="M502.75,146.54l-40.14-40.88a1,1,0,0,1,0-1.47l21.68-21.28a1,1,0,0,1,1.46,0l13.77,14a1,1,0,1,1-1.48,1.45L485,85.12l-20.2,19.82,38.69,39.41,20.19-19.83-12.86-13.1a1,1,0,0,1,0-1.47,1,1,0,0,1,1.46,0l13.59,13.84a1,1,0,0,1,0,1.47l-21.68,21.28A1,1,0,0,1,502.75,146.54Z" fill="#fff"/><path d="M481.79,141.9l-14.92-15.19a4.76,4.76,0,0,1,.06-6.71l1.33-1.3a1,1,0,0,1,1.47,0l20.1,20.48a1,1,0,0,1,0,1.47l-1.33,1.3A4.75,4.75,0,0,1,481.79,141.9Zm-12.81-21-.59.58a2.66,2.66,0,0,0,0,3.76l14.92,15.19a2.66,2.66,0,0,0,3.76,0l.59-.58Z" fill="#fff"/><path d="M498.75,127.53,481.55,110a1,1,0,0,1,0-1.47l3.59-3.52a13.37,13.37,0,0,1,12.79-3.36,1,1,0,1,1-.54,2,11.29,11.29,0,0,0-10.8,2.83l-2.84,2.79,15.75,16,2.84-2.8a11.3,11.3,0,0,0,3-10.74,1,1,0,1,1,2-.5A13.37,13.37,0,0,1,503.81,124l-3.59,3.52A1,1,0,0,1,498.75,127.53Z" fill="#fff"/><path d="M504.37,104.81a7.27,7.27,0,1,1,10.27.09A7.27,7.27,0,0,1,504.37,104.81Zm8.89-8.72a5.18,5.18,0,1,0-.07,7.33A5.2,5.2,0,0,0,513.26,96.09Z" fill="#fff"/><path d="M516.56,92.84a1,1,0,0,1,0-1.46l4.27-4.19a1,1,0,0,1,1.45,1.48L518,92.86A1,1,0,0,1,516.56,92.84Z" fill="#fff"/><path d="M519.62,101.49a1,1,0,0,1-.3-.83,1,1,0,0,1,1.14-.93l5.94.58a1,1,0,1,1-.2,2.06l-5.94-.57A1.05,1.05,0,0,1,519.62,101.49Z" fill="#fff"/><path d="M508,89.63a1,1,0,0,1-.3-.65l-.46-6a1,1,0,0,1,2.07-.17l.47,6a1,1,0,0,1-1.78.81Z" fill="#fff"/><path d="M503,131.8l-25.59-26.06a1,1,0,1,1,1.48-1.46l25.59,26.07a1,1,0,0,1,0,1.47A1,1,0,0,1,503,131.8Z" fill="#fff"/><path d="M502.42,138.17l-31.44-32a1,1,0,0,1,1.48-1.46l31.44,32a1,1,0,1,1-1.48,1.45Z" fill="#fff"/><path d="M738.75,93.61l-23.19,9a1.44,1.44,0,0,1-1.86-.82l-1.18-3.08a17,17,0,0,0-10.38-9.82,31,31,0,1,1,37.3-14.37,16.85,16.85,0,0,0-1.06,14.2l1.19,3.08A1.43,1.43,0,0,1,738.75,93.61Zm-22.89,5.77,20.52-7.92-.67-1.75a19.68,19.68,0,0,1,1.22-16.61,28.18,28.18,0,1,0-33.86,13,19.82,19.82,0,0,1,12.12,11.5Z" fill="#fff"/><path d="M743,100l-26.38,10.19a5.18,5.18,0,0,1-3.73-9.66l26.38-10.18A5.17,5.17,0,0,1,743,100ZM714,103.18a2.31,2.31,0,1,0,1.66,4.31L742,97.31A2.31,2.31,0,1,0,740.34,93Z" fill="#fff"/><path d="M748.43,113.94l-26.38,10.19a5.18,5.18,0,0,1-3.73-9.66l26.38-10.18a5.17,5.17,0,0,1,3.73,9.65Zm-29.07,3.21a2.31,2.31,0,1,0,1.66,4.31l26.38-10.19a2.31,2.31,0,1,0-1.67-4.31Z" fill="#fff"/><path d="M744,107.62l-23,8.87a1.45,1.45,0,0,1-1.85-.82l-2.69-7a1.44,1.44,0,0,1,.82-1.86l23-8.86a1.42,1.42,0,0,1,1.85.82l2.7,7A1.44,1.44,0,0,1,744,107.62Zm-22.66,5.68,20.29-7.84-1.67-4.3L719.71,109Z" fill="#fff"/><path d="M731.21,96.52a1.48,1.48,0,0,1-1.92-1l-7-34.85-1.75,2.5a1.44,1.44,0,0,1-1.46.58l-5.65-1.13L710,67.21a1.44,1.44,0,0,1-1.47.55l-3-.68,18.24,30.51a1.43,1.43,0,0,1-2.46,1.47l-20-33.39a1.46,1.46,0,0,1,.07-1.58,1.44,1.44,0,0,1,1.48-.56l5.33,1.22,3.41-4.61a1.44,1.44,0,0,1,1.44-.56l5.62,1.13,3.13-4.49a1.43,1.43,0,0,1,2.58.54L732.1,94.9A1.43,1.43,0,0,1,731.21,96.52Z" fill="#fff"/><path d="M699.23,25.77a1.42,1.42,0,0,1-1.85-.82L695,18.69a1.43,1.43,0,0,1,2.67-1l2.42,6.26A1.43,1.43,0,0,1,699.23,25.77Z" fill="#fff"/><path d="M715.36,23.33a1.4,1.4,0,0,1-.61.09,1.44,1.44,0,0,1-1.34-1.53l.46-6.69a1.43,1.43,0,1,1,2.86.19l-.46,6.7A1.45,1.45,0,0,1,715.36,23.33Z" fill="#fff"/><path d="M731,27.93a1.43,1.43,0,0,1-1.77-2L732.49,20a1.43,1.43,0,1,1,2.5,1.39l-3.24,5.88A1.44,1.44,0,0,1,731,27.93Z" fill="#fff"/><path d="M743.25,38.72a1.44,1.44,0,0,1-1.36-2.5l5.43-3.95a1.43,1.43,0,0,1,2,.31,1.44,1.44,0,0,1-.31,2l-5.43,4A1.74,1.74,0,0,1,743.25,38.72Z" fill="#fff"/><path d="M756.38,52.37c-.24.07-6.83,1.37-6.83,1.37a1.44,1.44,0,0,1-.55-2.82l6.58-1.29a1.43,1.43,0,0,1,.8,2.74Z" fill="#fff"/><path d="M755.91,71.59a1.4,1.4,0,0,1-.86,0L748.53,70a1.43,1.43,0,0,1,.69-2.78l6.52,1.61a1.43,1.43,0,0,1,.17,2.73Z" fill="#fff"/><path d="M685.64,34.8a1.42,1.42,0,0,1-1.51-.3l-4.84-4.65a1.44,1.44,0,0,1,2-2.07l4.84,4.65a1.44,1.44,0,0,1,0,2A1.34,1.34,0,0,1,685.64,34.8Z" fill="#fff"/><path d="M677.14,48.73a1.43,1.43,0,0,1-1,0l-6.35-2.17a1.43,1.43,0,0,1,.93-2.71L677.09,46a1.43,1.43,0,0,1,0,2.69Z" fill="#fff"/><path d="M675.33,65A1.43,1.43,0,0,1,675,65l-6.67.72a1.43,1.43,0,1,1-.3-2.85l6.67-.72a1.44,1.44,0,0,1,.67,2.77Z" fill="#fff"/><path d="M674.79,83.88a1.44,1.44,0,0,1-1.26-2.57l5.75-3.47a1.44,1.44,0,0,1,1.48,2.46L675,83.77Z" fill="#fff"/><path d="M688.05,97.79a1.42,1.42,0,0,1-1.32-.14,1.44,1.44,0,0,1-.39-2l3.74-5.58a1.43,1.43,0,1,1,2.38,1.6l-3.74,5.58A1.43,1.43,0,0,1,688.05,97.79Z" fill="#fff"/><path d="M1037.38,137l-70.71-18.18a1.36,1.36,0,0,1-.36-2.48l89-52.76a1.36,1.36,0,0,1,2,1.51L1039,136A1.36,1.36,0,0,1,1037.38,137Zm-66.87-20,66.23,17,17.08-66.44Z" fill="#fff"/><path d="M1027.51,120.89l-31.35-8.06a1.36,1.36,0,0,1-.36-2.48L1035.25,87a1.35,1.35,0,0,1,2,1.5l-8.09,31.45A1.35,1.35,0,0,1,1027.51,120.89ZM1000,111l26.89,6.91,6.93-27Z" fill="#fff"/><path d="M1039.87,127.32l-4.41-1.13a1.36,1.36,0,0,1,.68-2.63l4.4,1.14a1.35,1.35,0,1,1-.67,2.62Z" fill="#fff"/><path d="M1043.65,112.6l-4.4-1.14a1.35,1.35,0,1,1,.67-2.62l4.41,1.13a1.36,1.36,0,0,1-.68,2.63Z" fill="#fff"/><path d="M1047.44,97.87,1043,96.74a1.36,1.36,0,0,1,.68-2.63l4.4,1.14a1.35,1.35,0,1,1-.67,2.62Z" fill="#fff"/><path d="M1051.22,83.15l-4.4-1.14a1.35,1.35,0,1,1,.67-2.62l4.41,1.13a1.36,1.36,0,0,1-.68,2.63Z" fill="#fff"/><path d="M981.67,122.67a1.35,1.35,0,0,1-1-1.65l1.13-4.4a1.36,1.36,0,1,1,2.63.67l-1.14,4.41A1.35,1.35,0,0,1,981.67,122.67Z" fill="#fff"/><path d="M996.4,126.46a1.36,1.36,0,0,1-1-1.65l1.14-4.4a1.35,1.35,0,1,1,2.62.67l-1.13,4.4A1.36,1.36,0,0,1,996.4,126.46Z" fill="#fff"/><path d="M1011.13,130.25a1.36,1.36,0,0,1-1-1.65l1.13-4.41a1.36,1.36,0,0,1,2.63.68l-1.13,4.4A1.36,1.36,0,0,1,1011.13,130.25Z" fill="#fff"/><path d="M1025.85,134a1.37,1.37,0,0,1-1-1.65L1026,128a1.35,1.35,0,1,1,2.62.67l-1.13,4.41A1.35,1.35,0,0,1,1025.85,134Z" fill="#fff"/><path d="M1066.58,144.5l-18.25-4.69a1.36,1.36,0,0,1-1-1.65l18.24-70.94a1.35,1.35,0,0,1,1.65-1l18.25,4.69a1.36,1.36,0,0,1,1,1.65l-18.23,70.94A1.36,1.36,0,0,1,1066.58,144.5Zm-16.26-7,15.62,4,17.56-68.31-15.62-4Z" fill="#fff"/><path d="M1059.82,122.72a1.35,1.35,0,0,1-1-1.65l13.4-52.13a1.36,1.36,0,0,1,2.63.67l-13.41,52.14A1.35,1.35,0,0,1,1059.82,122.72Z" fill="#fff"/><path d="M1083.12,80.14l-4-1a1.36,1.36,0,1,1,.67-2.63l4.06,1a1.36,1.36,0,0,1-.68,2.63Z" fill="#fff"/><path d="M1081,88.39l-4-1a1.35,1.35,0,1,1,.67-2.62l4.06,1a1.35,1.35,0,1,1-.68,2.62Z" fill="#fff"/><path d="M1078.88,96.65l-4.06-1a1.36,1.36,0,0,1,.68-2.63l4,1a1.35,1.35,0,1,1-.67,2.62Z" fill="#fff"/><path d="M1076.76,104.91l-4.06-1a1.35,1.35,0,0,1,.68-2.62l4,1a1.36,1.36,0,0,1-.67,2.63Z" fill="#fff"/><path d="M1074.63,113.16l-4.05-1a1.36,1.36,0,1,1,.67-2.63l4.06,1.05a1.35,1.35,0,1,1-.68,2.62Z" fill="#fff"/><path d="M1072.51,121.42l-4-1a1.35,1.35,0,1,1,.67-2.62l4.06,1a1.36,1.36,0,0,1-.68,2.63Z" fill="#fff"/><path d="M1070.39,129.67l-4.06-1A1.35,1.35,0,0,1,1067,126l4,1a1.35,1.35,0,1,1-.67,2.62Z" fill="#fff"/><path d="M1068.27,137.93l-4.06-1a1.36,1.36,0,0,1,.68-2.63l4,1a1.36,1.36,0,1,1-.67,2.63Z" fill="#fff"/><path d="M1250.62,74.58a15.44,15.44,0,0,0-1.8,0" fill="none" stroke="#fff" stroke-miterlimit="10" stroke-width="1.2"/><path d="M1245.28,75c-3,.39-6.09.74-9.53-.42-43.66-17.37-87.91-15.21-126.79,5.66" fill="none" stroke="#fff" stroke-miterlimit="10" stroke-width="1.2" stroke-dasharray="3.56 3.56"/><path d="M1107.39,81.07l-1.57.88" fill="none" stroke="#fff" stroke-miterlimit="10" stroke-width="1.2"/><path d="M951.6,138.67c-.86.35-1.72.69-2.6,1" fill="none" stroke="#fff" stroke-miterlimit="10" stroke-width="1.86"/><path d="M943.71,141.46c-39.92,12.1-96.78.88-103.21-47.5-1.53-11.47.92-25.57,11.13-32.59,9.22-6.34,19.71-1.54,24.26,7.85,8.45,17.48-4.46,37.75-18.82,47.55-20.27,13.83-45.61,12.09-68.14,5.35" fill="none" stroke="#fff" stroke-miterlimit="10" stroke-width="1.86" stroke-dasharray="5.58 5.58"/><path d="M786.27,121.29q-1.34-.42-2.64-.87" fill="none" stroke="#fff" stroke-miterlimit="10" stroke-width="1.86"/><path d="M313.64,79.2c-.54.61-1.09,1.22-1.64,1.82" fill="none" stroke="#fff" stroke-miterlimit="10" stroke-width="1.63"/><path d="M308.58,84.5c-19.67,19-48.59,30.26-76.57,21.12-11.85-4.9-22.28-12.49-28-25.13-4.9-11.54-2.84-29.71,11.06-31.29,14.7-.47,22.28,12.49,23.07,25.29-1.11,24.17-17.87,42.82-40.62,50.71a67.28,67.28,0,0,0-10.11,2.21,117.38,117.38,0,0,1-48.67-.32c-18-3.88-32.65-12.86-48-18.61" fill="none" stroke="#fff" stroke-miterlimit="10" stroke-width="1.63" stroke-dasharray="4.88 4.88"/><path d="M88.47,107.65l-2.32-.79" fill="none" stroke="#fff" stroke-miterlimit="10" stroke-width="1.63"/><path d="M472.37,51.54s-30.35-19-63.53-5.72" fill="none" stroke="#fff" stroke-miterlimit="10" stroke-width="1.2" stroke-dasharray="3.6"/></g></g></g><path d="M304.29,136a13.21,13.21,0,0,1-12.14-7.88c-2-3.9-2.95-9-2.95-15.66.05-21.18,10.31-53.23,22-68.61,4.84-6.32,9.55-9.44,14.42-9.55h0a11.63,11.63,0,0,1,8.93,4.29A24.93,24.93,0,0,1,339,46.73a70.42,70.42,0,0,1,3.43,17.06,4.58,4.58,0,0,1-4.21,5.08h-.34a4.62,4.62,0,0,1-4.59-4c0-.07,0-.13,0-.2-.65-7.55-2.63-16.66-5.59-20-1-1.07-1.53-1.18-2.07-1.19-.89,0-3.56,1.23-7.11,5.88a86.24,86.24,0,0,0-9.7,17.91c-6.29,15.21-10.35,32.94-10.35,45.17,0,6.36,1.06,9.79,2,11.55,1.21,2.29,2.4,2.74,4,2.74h.09c4.51,0,10-3.69,16.75-11.28,7.36-8.28,16.25-21,26.26-35.65l.06-.08a4.66,4.66,0,0,1,6.33-1.11l.11.08a4.59,4.59,0,0,1,1.07,6.34c-10.59,15.45-19.29,27.94-27,36.54-8.85,9.91-16.15,14.36-23.68,14.41h-.12Z" fill="#006db7"/><path d="M352.23,93.72l-.31,0a7.2,7.2,0,0,1-4.78-2.16,6.84,6.84,0,0,1-1.81-4.77,16.19,16.19,0,0,1,10.18-13.29l.16,0a11.39,11.39,0,0,1,2.72-.34,11.79,11.79,0,0,1,4.92,1.17l.1,0a4.67,4.67,0,0,1,2.48,5,30,30,0,0,0,5.46-2.2,4.57,4.57,0,0,1,2-.48,4.68,4.68,0,0,1,4,2.32c.06.1.1.19.15.29a4.66,4.66,0,0,1-1.89,6l-.19.1c-5,2.5-9.51,3.77-13.41,3.77-.25,0-.5,0-.76,0a11.87,11.87,0,0,1-8.74,4.67h-.35Z" fill="#006db7"/><path d="M374.11,101.78a5,5,0,0,1-3.82-1.71A5.12,5.12,0,0,1,369,96.59a2.44,2.44,0,0,1,0-.27,8.46,8.46,0,0,1,.92-3.17,4.77,4.77,0,0,1-.83-2.33c0-.08,0-.17,0-.25,0-.47,0-.93,0-1.39s0-1,0-1.55c0-13.26,3.51-27,5.59-34,.86-2.93,2.4-6.94,4.83-9.29a6.19,6.19,0,0,1,4.11-1.9h.19a5.58,5.58,0,0,1,3.6,1.4,1.29,1.29,0,0,1,.17.16,6.76,6.76,0,0,1,1.41,2.16,3.65,3.65,0,0,1,.14.35,14.45,14.45,0,0,1,.58,4.44c0,1.31-.1,2.84-.3,4.81a59.67,59.67,0,0,1-5.43,17.86,7.16,7.16,0,0,1,3.17,2.91,10.41,10.41,0,0,1,1.06,2.66,52.76,52.76,0,0,1,10.06-2.66,4.78,4.78,0,0,1,.84-.08,4.66,4.66,0,0,1,4.5,3.7c0,.08,0,.15,0,.23a4.62,4.62,0,0,1-3.92,5.21,40.51,40.51,0,0,0-13,4.33,27.9,27.9,0,0,1-8.52,10.41l-.19.14-.24.16a6.69,6.69,0,0,1-3.58,1.12Z" fill="#006db7"/><path d="M403.1,92.49a11.48,11.48,0,0,1-6.91-1.92A7.54,7.54,0,0,1,393,84.25a9.9,9.9,0,0,1,.55-3.1c0-.09.07-.18.1-.26a12,12,0,0,1,.88-1.67A12.75,12.75,0,0,1,399,75l.11-.06a10.68,10.68,0,0,1,5.11-1.49,6.43,6.43,0,0,1,3.84,1.17,5.64,5.64,0,0,1,2.3,4.49c0,.08,0,.16,0,.23a6.29,6.29,0,0,1-.86,2.77A81.48,81.48,0,0,0,422,76.87a4.48,4.48,0,0,1,2-.48,4.63,4.63,0,0,1,4.09,2.47.41.41,0,0,1,.05.09,4.59,4.59,0,0,1-2,6.11l-.08,0C416.26,90.07,408.74,92.49,403.1,92.49Z" fill="#006db7"/><path d="M429.06,94.62a5.88,5.88,0,0,1-4.53-2.06l-.1-.12a6.91,6.91,0,0,1-1.37-4.25v-.1a14.71,14.71,0,0,1,.32-2.46,5.86,5.86,0,0,1-2.49-1.31,6.13,6.13,0,0,1-2.14-4.8,9.43,9.43,0,0,1,.51-3,.78.78,0,0,1,.05-.14,4.67,4.67,0,0,1,4.33-3,4.64,4.64,0,0,1,4,2.36l.51-.28.19-.1a4.74,4.74,0,0,1,2.11-.5,4.52,4.52,0,0,1,3.15,1.25,4.6,4.6,0,0,1,1.11,5.1l-.06.14-.43,1,2-1.36a69.12,69.12,0,0,1,6.34-4.09,4.58,4.58,0,0,1,2.18-.55,4.65,4.65,0,0,1,4,2.3c.05.1.11.2.15.3a4.62,4.62,0,0,1-2,6.06c-1.3.69-3.14,2-5.1,3.32A72.88,72.88,0,0,1,434.42,93a11.24,11.24,0,0,1-5.31,1.62Z" fill="#006db7"/><path d="M446.73,95.57A6.4,6.4,0,0,1,441,91.78a11.38,11.38,0,0,1-.91-4.87,52.1,52.1,0,0,1,2-12.19,4.3,4.3,0,0,1-.61,0,4.63,4.63,0,0,1-4.55-3.88,4.69,4.69,0,0,1,3.63-5.26l.23,0,4.15-.6c.33-1,.65-2,1-2.91a4.54,4.54,0,0,1,4.36-3.17,4.4,4.4,0,0,1,1.3.19c.1,0,.19.06.29.09a4.64,4.64,0,0,1,3,4.65,4.61,4.61,0,0,1-.44,9l-2.35.35a73.73,73.73,0,0,0-2.66,12.15,46.23,46.23,0,0,0,9.34-7.59,4.53,4.53,0,0,1,3.39-1.51,4.67,4.67,0,0,1,2.95,1,4.62,4.62,0,0,1,.62,6.48l-.13.15c-1.09,1.18-10.84,11.54-18.67,11.62h-.12Z" fill="#006db7"/><path d="M462.88,94.81A6.09,6.09,0,0,1,458,92.39a7.37,7.37,0,0,1-1.46-4.72c0-2.77,1-6.26,3.12-11.29a.3.3,0,0,1,0-.08A4.6,4.6,0,0,1,465.82,74a4.7,4.7,0,0,1,2.44,2.68,4.47,4.47,0,0,1-.16,3.37c-.2.46-.38.9-.55,1.32A22.91,22.91,0,0,0,470,77.87a.41.41,0,0,1,.05-.09,4.65,4.65,0,0,1,4-2.24,4.57,4.57,0,0,1,4.48,5.56,11.25,11.25,0,0,0-.24,1.66,14.2,14.2,0,0,0,2.5-1.1,43.44,43.44,0,0,0,6.09-4.28,4.65,4.65,0,0,1,2.92-1,4.62,4.62,0,0,1,3,8.18,47.2,47.2,0,0,1-7.62,5.21,16.93,16.93,0,0,1-8,2.48,8,8,0,0,1-5.34-1.92l-.3.28c-2.47,2.16-5.22,4.17-8.5,4.25h-.12Z" fill="#006db7"/><path d="M494.9,94.62a5.88,5.88,0,0,1-4.53-2.06l-.1-.12a6.91,6.91,0,0,1-1.37-4.25s0-.07,0-.1a13.66,13.66,0,0,1,.31-2.46,5.92,5.92,0,0,1-2.49-1.31,6.13,6.13,0,0,1-2.14-4.8,9.48,9.48,0,0,1,.51-3s0-.09,0-.14a4.68,4.68,0,0,1,4.33-3,4.66,4.66,0,0,1,4,2.36l.51-.28.18-.1a4.75,4.75,0,0,1,2.12-.5,4.52,4.52,0,0,1,3.14,1.25,4.6,4.6,0,0,1,1.11,5.1l-.06.14-.43,1L502,81a67.82,67.82,0,0,1,6.35-4.09,4.51,4.51,0,0,1,2.17-.55,4.65,4.65,0,0,1,4,2.3,2.1,2.1,0,0,1,.15.3,4.62,4.62,0,0,1-2,6.06c-1.29.69-3.14,2-5.1,3.32A72.88,72.88,0,0,1,500.26,93,11.24,11.24,0,0,1,495,94.62Z" fill="#006db7"/><path d="M508.59,93.62a5.49,5.49,0,0,1-4.53-2.41,6.54,6.54,0,0,1-1-3.54,15.83,15.83,0,0,1,3.59-8.89c2.76-3.58,6.32-5.58,10-5.64h0a10.81,10.81,0,0,1,4.73,1.14,4.52,4.52,0,0,1,2.37,2.66,4.59,4.59,0,0,1-.27,3.5,4.18,4.18,0,0,1-.7,1,1.78,1.78,0,0,0,.09.33,1,1,0,0,0,.42.28h.24a12.15,12.15,0,0,0,4.26-1.37A36.24,36.24,0,0,0,532.59,78l1.36-.87a4.51,4.51,0,0,1,2.55-.78,4.64,4.64,0,0,1,3.73,1.89l.08.12a4.61,4.61,0,0,1-1.18,6.37A58.28,58.28,0,0,1,534,87.9c-2.68,1.46-6.7,3.4-10.58,3.4a10.3,10.3,0,0,1-2.94-.43l-.12,0a10.74,10.74,0,0,1-3.52-2c-.62.63-1.21,1.2-1.78,1.71-1.65,1.46-3.63,3-6.3,3.12h-.21Z" fill="#006db7"/><path d="M556.1,94.29a5.51,5.51,0,0,1-4.88-3,8.08,8.08,0,0,1-.78-3.22c0-.12,0-.24,0-.35A18.69,18.69,0,0,1,556,75.48l.06-.06a8.79,8.79,0,0,1,4.66-2.18,130.82,130.82,0,0,1,4-18.82q2-6.54,5.06-9.32a2.43,2.43,0,0,1,.25-.2,6.55,6.55,0,0,1,4-1.53,5.85,5.85,0,0,1,5.34,3.82,13.17,13.17,0,0,1,.7,4.69,27.89,27.89,0,0,1-.27,4,59,59,0,0,1-10,25.36,5.63,5.63,0,0,0,.3,1.14c.75-.13,3.29-.88,8.29-5a4.44,4.44,0,0,1,2.91-1.07,4.53,4.53,0,0,1,3.61,1.78,4.6,4.6,0,0,1-.68,6.4c-6.08,4.9-10.35,7-14.31,7.07h-.17a8.48,8.48,0,0,1-5.83-2.3c-.42.51-.83,1-1.23,1.4l-.09.1c-1.7,1.7-3.59,3.36-6.36,3.46h-.16Z" fill="#006db7"/><path d="M585.47,92.49a11.44,11.44,0,0,1-6.91-1.92,7.54,7.54,0,0,1-3.16-6.32,9.62,9.62,0,0,1,.55-3.1,2,2,0,0,1,.1-.26,11.3,11.3,0,0,1,.87-1.67A12.92,12.92,0,0,1,581.38,75l.12-.06a10.68,10.68,0,0,1,5.11-1.49,6.43,6.43,0,0,1,3.84,1.17,5.66,5.66,0,0,1,2.29,4.49,1.69,1.69,0,0,1,0,.23,6,6,0,0,1-.86,2.77,81.07,81.07,0,0,0,12.49-5.22,4.49,4.49,0,0,1,2-.48,4.64,4.64,0,0,1,4.09,2.47l0,.09a4.6,4.6,0,0,1-2,6.11l-.08,0C598.62,90.07,591.1,92.49,585.47,92.49Z" fill="#006db7"/><path d="M632.36,91.3a9,9,0,0,1-8.21-5.22,19.85,19.85,0,0,1-1.67-8.74c0-8.85,3.39-21,6.59-27.6l0-.08a20.31,20.31,0,0,1,2.56-4l.07-.07A7,7,0,0,1,636.63,43h.14a5.56,5.56,0,0,1,5.1,3.61,10.48,10.48,0,0,1,.7,3.75c0,.05,0,.1,0,.15a22.14,22.14,0,0,1-.34,3.59c-.66,4.48-3.25,19.21-9.66,28,.21,0,2.64-.19,8.16-4.69a4.58,4.58,0,0,1,2.89-1,4.51,4.51,0,0,1,3.59,1.78,4.6,4.6,0,0,1-.68,6.4c-5.73,4.66-10.07,6.74-14.08,6.74Z" fill="#006db7"/><path d="M641.65,93.62a5.48,5.48,0,0,1-4.53-2.41,6.46,6.46,0,0,1-1-3.54,15.92,15.92,0,0,1,3.6-8.89c2.75-3.58,6.31-5.58,10-5.64h0a10.82,10.82,0,0,1,4.74,1.14,4.63,4.63,0,0,1,1.4,7.21,1.78,1.78,0,0,0,.09.33,1,1,0,0,0,.41.28h.25a12.15,12.15,0,0,0,4.26-1.37A36.91,36.91,0,0,0,665.65,78l1.35-.87a4.51,4.51,0,0,1,2.55-.78,4.66,4.66,0,0,1,3.74,1.89.83.83,0,0,0,.08.12,4.61,4.61,0,0,1-1.19,6.37,57.34,57.34,0,0,1-5.08,3.13c-2.69,1.46-6.7,3.4-10.58,3.4a10.3,10.3,0,0,1-2.94-.43l-.12,0a10.64,10.64,0,0,1-3.52-2c-.62.63-1.21,1.2-1.78,1.71-1.65,1.46-3.63,3-6.3,3.12h-.21Z" fill="#006db7"/><path d="M698.77,136.53a11.31,11.31,0,0,1-9.58-5,18.17,18.17,0,0,1-2.71-10.33c0-8.07,3.3-17.91,9-27A68.83,68.83,0,0,1,707.5,80a21.2,21.2,0,0,1-7.86-2.44,10.61,10.61,0,0,1-5.92-9.27c0-3.46,1.45-7.18,4.41-11.39a55,55,0,0,1,9.5-10.08c4.12-3.38,14.72-11.2,24.66-11.27a13.12,13.12,0,0,1,8.73,3,14,14,0,0,1,4.55,9,4.59,4.59,0,0,1-3.87,5.2,4.82,4.82,0,0,1-.65,0,4.63,4.63,0,0,1-4.56-4,5.53,5.53,0,0,0-1.44-3.3,4.22,4.22,0,0,0-2.74-.76h-.12c-3.37,0-8.48,2-13.65,5.42a49.38,49.38,0,0,0-12.91,12c-2,2.76-2.69,4.9-2.71,6,0,.22.12.67,1.27,1.35.77.44,3.24,1.52,8.41,1.52a55.14,55.14,0,0,0,10.31-1.08,5.34,5.34,0,0,1,.83-.07,4.59,4.59,0,0,1,2,8.76,56.21,56.21,0,0,0-22.42,20.36c-4.7,7.42-7.62,15.88-7.62,22.07,0,3.12.75,4.63,1.1,5.17a2.07,2.07,0,0,0,2.05,1h.09c1.31,0,6.33-.7,16.19-9.73,8.92-8.22,19.34-20.93,30.95-37.78a.18.18,0,0,0,.05-.07,4.65,4.65,0,0,1,3.73-1.89,4.47,4.47,0,0,1,2.61.82,4.67,4.67,0,0,1,1.93,3,4.58,4.58,0,0,1-.76,3.41c-12,17.43-22.87,30.67-32.32,39.33-8.88,8.11-16.22,12.07-22.44,12.13h-.08Z" fill="#006db7"/><path d="M750.07,94.29a5.52,5.52,0,0,1-4.88-3,7.87,7.87,0,0,1-.77-3.22c0-.12,0-.24,0-.35A18.74,18.74,0,0,1,750,75.48l.06-.06a8.79,8.79,0,0,1,4.66-2.18,129.16,129.16,0,0,1,4-18.82c1.33-4.36,3-7.47,5-9.32a2.43,2.43,0,0,1,.25-.2,6.55,6.55,0,0,1,4-1.53,5.84,5.84,0,0,1,5.34,3.82,12.93,12.93,0,0,1,.71,4.69,29.14,29.14,0,0,1-.27,4,59.11,59.11,0,0,1-10.06,25.37,6.14,6.14,0,0,0,.31,1.14c.74-.13,3.28-.88,8.28-5a4.44,4.44,0,0,1,2.91-1.07,4.52,4.52,0,0,1,3.61,1.78,4.6,4.6,0,0,1-.67,6.4c-6.08,4.9-10.36,7-14.32,7.07h-.17a8.48,8.48,0,0,1-5.83-2.3c-.42.51-.83,1-1.22,1.4l-.1.1c-1.7,1.7-3.58,3.36-6.36,3.46h-.16Z" fill="#006db7"/><path d="M776,94.81a6.09,6.09,0,0,1-4.87-2.42,7.37,7.37,0,0,1-1.46-4.72c0-2.77,1-6.26,3.12-11.29a.3.3,0,0,1,0-.08,4.61,4.61,0,0,1,8.55.4,4.47,4.47,0,0,1-.16,3.37c-.2.46-.38.9-.55,1.32a22.91,22.91,0,0,0,2.46-3.52l.05-.09a4.66,4.66,0,0,1,4-2.24,4.57,4.57,0,0,1,4.47,5.56,11.25,11.25,0,0,0-.24,1.66,14.2,14.2,0,0,0,2.5-1.1A42.86,42.86,0,0,0,800,77.38a4.65,4.65,0,0,1,2.92-1,4.62,4.62,0,0,1,3,8.18,47.2,47.2,0,0,1-7.62,5.21,16.93,16.93,0,0,1-8,2.48A8,8,0,0,1,785,90.28c-.06.06-.26.24-.29.28-2.48,2.16-5.23,4.17-8.51,4.25H776Z" fill="#006db7"/><path d="M804.31,95a9.9,9.9,0,0,1-6.13-1.83l-.08-.07a7.46,7.46,0,0,1-2.72-5.85c.06-3.1,1.65-6.36,4.47-9.25s6.42-4.67,9.81-4.67a9.43,9.43,0,0,1,4.18,1,4.53,4.53,0,0,1,2.35,2.62,4.6,4.6,0,0,1-6.39,5.64l0,0h-.2a6,6,0,0,0-3.19,1.9,8.11,8.11,0,0,0-1.07,1.31c2.38-.27,8.46-1.74,21.09-8.76a4.74,4.74,0,0,1,2.26-.59,4.58,4.58,0,0,1,4,2.37,4.54,4.54,0,0,1,.38,3.55,4.65,4.65,0,0,1-2.1,2.65C818.52,91.82,810.08,95,804.31,95Z" fill="#006db7"/><path d="M826.71,93.62a5.48,5.48,0,0,1-4.52-2.41,6.46,6.46,0,0,1-1-3.54,15.92,15.92,0,0,1,3.6-8.89c2.75-3.58,6.31-5.58,10-5.64h0a10.85,10.85,0,0,1,4.74,1.14,4.51,4.51,0,0,1,2.36,2.66,4.58,4.58,0,0,1-.26,3.5,4.51,4.51,0,0,1-.71,1,3.18,3.18,0,0,0,.1.33.9.9,0,0,0,.41.28h.24A12,12,0,0,0,846,80.73,37.15,37.15,0,0,0,850.72,78l1.35-.87a4.51,4.51,0,0,1,2.55-.78,4.64,4.64,0,0,1,3.73,1.89.83.83,0,0,1,.08.12,4.61,4.61,0,0,1-1.18,6.37,56.59,56.59,0,0,1-5.09,3.13c-2.68,1.46-6.69,3.4-10.57,3.4a10.2,10.2,0,0,1-2.94-.43l-.12,0a10.64,10.64,0,0,1-3.52-2c-.62.63-1.22,1.2-1.79,1.71-1.64,1.46-3.63,3-6.29,3.12h-.22Z" fill="#006db7"/><path d="M855.89,95a9.92,9.92,0,0,1-6.13-1.83l-.08-.07A7.46,7.46,0,0,1,847,87.25c.06-3.1,1.65-6.36,4.47-9.25s6.43-4.67,9.82-4.67a9.39,9.39,0,0,1,4.17,1,4.5,4.5,0,0,1,2.35,2.62A4.61,4.61,0,0,1,863.42,83a4.56,4.56,0,0,1-2-.48l0,0h-.2a6.06,6.06,0,0,0-3.19,1.9,8,8,0,0,0-1.06,1.31C859.27,85.47,865.35,84,878,77a4.8,4.8,0,0,1,2.27-.59,4.61,4.61,0,0,1,4.38,5.92A4.67,4.67,0,0,1,882.52,85C870.11,91.82,861.67,95,855.89,95Z" fill="#006db7"/><path d="M885.83,91.3a10.3,10.3,0,0,1-2.94-.43l-.15-.05a9.71,9.71,0,0,1-5.58-5,12.06,12.06,0,0,1-1-5.17,16.31,16.31,0,0,1,.15-2.15h0a3.4,3.4,0,0,1,.08-.46,4.5,4.5,0,0,1,.77-1.69,4.63,4.63,0,0,1,.83-5.9l.63-.53a4.55,4.55,0,0,1,3-1.13A4.61,4.61,0,0,1,885,70.28l.11.12a4.61,4.61,0,0,1-.35,6.23,4.51,4.51,0,0,1,.58,3.22c0,.1,0,.2,0,.31s0,.27,0,.45a2.83,2.83,0,0,0,.17,1.19l.09.2s0,0,.13.1h.22a11.88,11.88,0,0,0,4.18-1.36l.08,0A37.88,37.88,0,0,0,895,78l1.19-.79a4.68,4.68,0,0,1,2.65-.83,4.62,4.62,0,0,1,3.74,1.9.44.44,0,0,1,.08.11,4.63,4.63,0,0,1-1.11,6.33l-.27.17-.18.12c-.75.5-2.5,1.68-4.71,2.88C893.72,89.36,889.71,91.3,885.83,91.3Z" fill="#006db7"/><path d="M901.94,95.94a9.41,9.41,0,0,1-3.23-.58c-3.75-1.4-5.6-4.88-4.85-9.07a18.11,18.11,0,0,1,7.53-10.88,3.48,3.48,0,0,1,0-.57,4.67,4.67,0,0,1,2.29-4,16.26,16.26,0,0,1,1.94-1l.14-.06A34.12,34.12,0,0,0,910,67.66,4.71,4.71,0,0,1,914.18,65a4.56,4.56,0,0,1,3.4,1.49,4.77,4.77,0,0,1,1.23,3.63c0,.11,0,.22,0,.33-.54,2.88-3.27,4.85-6,6.3a4.31,4.31,0,0,1,.12,1,1.55,1.55,0,0,1,0,.22,9.31,9.31,0,0,1,.8,8.23C912.17,90.93,907.55,95.94,901.94,95.94Zm2.76-11.48a9.74,9.74,0,0,0-1.14,1.47,4.48,4.48,0,0,0,.37-.38A6.11,6.11,0,0,0,904.7,84.46Z" fill="#006db7"/><path d="M915,92.82a4.27,4.27,0,0,1-2.09-.53A4.57,4.57,0,0,1,910.57,87l2.92-10a4.66,4.66,0,0,1,4.44-3.29,4.6,4.6,0,0,1,1.33.19,4.5,4.5,0,0,1,2.2,1.43,7,7,0,0,1,2-.39h.27a5.65,5.65,0,0,1,5,3.24,6.81,6.81,0,0,1,.65,3.12A60.55,60.55,0,0,0,937,77.23a4.52,4.52,0,0,1,2.47-.73,4.62,4.62,0,0,1,4.48,5.65,4.52,4.52,0,0,1-2.14,2.9c-7.42,4.55-11.44,6.28-14.76,6.34h-.21a6.53,6.53,0,0,1-5.59-3,.75.75,0,0,1-.07-.12L921,88c-.5.63-.94,1.21-1.28,1.66-.52.67-.79,1.1-.8,1.1l-.09.14A4.64,4.64,0,0,1,915,92.82Z" fill="#006db7"/><path d="M964.21,92.49a11.48,11.48,0,0,1-6.91-1.92,7.54,7.54,0,0,1-3.16-6.32,9.9,9.9,0,0,1,.55-3.1c0-.09.07-.18.1-.26a12,12,0,0,1,.88-1.67A12.75,12.75,0,0,1,960.13,75l.11-.06a10.68,10.68,0,0,1,5.11-1.49,6.43,6.43,0,0,1,3.84,1.17,5.64,5.64,0,0,1,2.3,4.49c0,.08,0,.16,0,.23a6.29,6.29,0,0,1-.86,2.77,81.48,81.48,0,0,0,12.49-5.22,4.48,4.48,0,0,1,2-.48,4.63,4.63,0,0,1,4.09,2.47.41.41,0,0,1,0,.09,4.59,4.59,0,0,1-2,6.11l-.08,0C977.37,90.07,969.85,92.49,964.21,92.49Z" fill="#006db7"/><path d="M983.44,92.82a4.27,4.27,0,0,1-2.09-.53A4.57,4.57,0,0,1,979,87l2.92-10a4.68,4.68,0,0,1,4.44-3.29,4.6,4.6,0,0,1,1.33.19,4.5,4.5,0,0,1,2.2,1.43,7,7,0,0,1,2-.39h.27a5.64,5.64,0,0,1,5,3.24,6.81,6.81,0,0,1,.65,3.12,60.55,60.55,0,0,0,7.53-4.12,4.52,4.52,0,0,1,2.47-.73,4.62,4.62,0,0,1,4.48,5.65,4.52,4.52,0,0,1-2.14,2.9c-7.42,4.55-11.44,6.28-14.76,6.34h-.2a6.53,6.53,0,0,1-5.6-3,.75.75,0,0,1-.07-.12l-.16-.31c-.5.63-.94,1.21-1.28,1.66-.52.67-.79,1.1-.8,1.1l-.09.14A4.63,4.63,0,0,1,983.44,92.82Z" fill="#006db7"/><path d="M1045.26,147.25a4.09,4.09,0,0,1-1.17-.17,4.61,4.61,0,0,1-3.37-5.13s0-.06,0-.09c.26-1.52.91-4.74,1.81-9.21,3.91-19.37,12-59.67,12.64-80.26a.49.49,0,0,1,0-.12c0-.6,0-1.19,0-1.81a24.85,24.85,0,0,0-.55-6,13.73,13.73,0,0,0-1.82,1.5,55.18,55.18,0,0,0-6.09,7.22,133.67,133.67,0,0,0-9.68,15.44,4.62,4.62,0,0,1-4.09,2.49,4.78,4.78,0,0,1-2-.44l-.29-.15a4.67,4.67,0,0,1-1.89-6l.09-.17c3.1-5.82,10.76-18.53,17.61-25,2.45-2.25,5.39-4.51,9-4.59h.17c3.16,0,5.95,2.08,7.27,5.42,1,2.45,1.51,5.76,1.51,10.35,0,.68,0,1.44-.05,2.25-.16,5.16-.77,11.45-1.62,18.16,4.48-10.06,9-17.72,13.37-22.67,4.2-4.66,8.24-7,12.39-7h0a10.87,10.87,0,0,1,8,3.58,21.13,21.13,0,0,1,4.47,7.77c2.17,6.12,3.28,14.44,3.28,24.75,0,13-1.81,28.77-5.23,45.71a4.66,4.66,0,0,1-4.51,3.7,4.21,4.21,0,0,1-1-.12,4.58,4.58,0,0,1-3.5-5.43c3.29-16.19,5-31.36,5-43.86,0-15.43-2.75-23.73-5.17-26.15-.76-.76-1.13-.76-1.29-.76s-2.2.11-5.56,3.93c-3.13,3.55-6.56,9.13-9.91,16.15-8,16.6-16,41.92-23.35,73.22A4.62,4.62,0,0,1,1045.26,147.25Z" fill="#006db7"/><path d="M1117.54,91.3a10.3,10.3,0,0,1-2.94-.43l-.15-.05a9.66,9.66,0,0,1-5.57-5,12.09,12.09,0,0,1-1-5.17,14.22,14.22,0,0,1,.16-2.15h0a2.32,2.32,0,0,1,.07-.46,4.5,4.5,0,0,1,.77-1.69,4.63,4.63,0,0,1,.83-5.9l.63-.53a4.57,4.57,0,0,1,3-1.13,4.65,4.65,0,0,1,3.43,1.53l.1.12a4.61,4.61,0,0,1-.34,6.23,4.62,4.62,0,0,1,.58,3.22c0,.1,0,.2,0,.31s0,.27,0,.45a3,3,0,0,0,.16,1.19l.09.2s0,0,.13.1h.22a11.82,11.82,0,0,0,4.18-1.36l.09,0a38.39,38.39,0,0,0,4.8-2.69c.74-.48,1.17-.78,1.19-.79a4.71,4.71,0,0,1,2.65-.83,4.63,4.63,0,0,1,3.75,1.9l.07.11a4.62,4.62,0,0,1-1.11,6.33,1.78,1.78,0,0,1-.27.17l-.17.12c-.75.5-2.51,1.68-4.71,2.88C1125.43,89.36,1121.42,91.3,1117.54,91.3Z" fill="#006db7"/><path d="M1131.85,95a9.88,9.88,0,0,1-6.13-1.83.27.27,0,0,1-.08-.07,7.47,7.47,0,0,1-2.73-5.85c.07-3.1,1.65-6.36,4.47-9.25s6.43-4.67,9.82-4.67a9.43,9.43,0,0,1,4.18,1,4.56,4.56,0,0,1,2.35,2.62,4.6,4.6,0,0,1-6.39,5.64l0,0h-.19a6.07,6.07,0,0,0-3.2,1.9,8.58,8.58,0,0,0-1.06,1.31c2.38-.27,8.45-1.74,21.08-8.76a4.8,4.8,0,0,1,2.27-.59,4.59,4.59,0,0,1,2.27,8.57C1146.06,91.82,1137.62,95,1131.85,95Z" fill="#006db7"/><path d="M1154.25,93.62a5.49,5.49,0,0,1-4.53-2.41,6.54,6.54,0,0,1-1-3.54,15.83,15.83,0,0,1,3.59-8.89c2.76-3.58,6.32-5.58,10-5.64h0a10.78,10.78,0,0,1,4.73,1.14,4.49,4.49,0,0,1,2.37,2.66,4.63,4.63,0,0,1-.26,3.5,4.51,4.51,0,0,1-.71,1,1.8,1.8,0,0,0,.1.33c.05.08.14.16.41.28h.24a12.15,12.15,0,0,0,4.26-1.37,37.15,37.15,0,0,0,4.77-2.69l1.35-.87a4.51,4.51,0,0,1,2.55-.78,4.64,4.64,0,0,1,3.73,1.89l.08.12a4.61,4.61,0,0,1-1.18,6.37,56.59,56.59,0,0,1-5.09,3.13c-2.68,1.46-6.7,3.4-10.57,3.4a10.2,10.2,0,0,1-2.94-.43l-.13,0a10.85,10.85,0,0,1-3.52-2c-.62.63-1.21,1.2-1.78,1.71-1.65,1.46-3.63,3-6.29,3.12h-.22Z" fill="#006db7"/><path d="M1187.17,94.62a5.89,5.89,0,0,1-4.53-2.06l-.1-.12a6.9,6.9,0,0,1-1.36-4.25v-.1a13.66,13.66,0,0,1,.31-2.46,5.92,5.92,0,0,1-2.49-1.31,6.13,6.13,0,0,1-2.13-4.8,9.42,9.42,0,0,1,.5-3l.05-.14a4.68,4.68,0,0,1,4.33-3,4.66,4.66,0,0,1,4,2.36l.51-.28.18-.1a4.75,4.75,0,0,1,2.12-.5,4.52,4.52,0,0,1,3.14,1.25,4.6,4.6,0,0,1,1.11,5.1l-.06.14c-.15.33-.29.66-.42,1l2-1.36a67.82,67.82,0,0,1,6.35-4.09,4.55,4.55,0,0,1,2.18-.55,4.64,4.64,0,0,1,4,2.3,2.1,2.1,0,0,1,.15.3,4.61,4.61,0,0,1-2,6.06c-1.29.69-3.14,2-5.1,3.32a73.93,73.93,0,0,1-7.34,4.71,11.28,11.28,0,0,1-5.32,1.62Z" fill="#006db7"/><path d="M1200.86,93.62a5.49,5.49,0,0,1-4.53-2.41,6.54,6.54,0,0,1-1-3.54,15.83,15.83,0,0,1,3.59-8.89c2.76-3.58,6.32-5.58,10-5.64h0a10.78,10.78,0,0,1,4.73,1.14,4.52,4.52,0,0,1,2.37,2.66,4.61,4.61,0,0,1-.27,3.51,4.32,4.32,0,0,1-.7,1,3.18,3.18,0,0,0,.09.33,1,1,0,0,0,.42.28h.24a12.15,12.15,0,0,0,4.26-1.37,37.15,37.15,0,0,0,4.77-2.69l1.35-.87a4.51,4.51,0,0,1,2.55-.78,4.64,4.64,0,0,1,3.73,1.89l.08.12a4.61,4.61,0,0,1-1.18,6.37,56.59,56.59,0,0,1-5.09,3.13c-2.68,1.46-6.7,3.4-10.57,3.4a10.2,10.2,0,0,1-2.94-.43l-.13,0a10.85,10.85,0,0,1-3.52-2c-.62.63-1.21,1.2-1.78,1.71-1.65,1.46-3.63,3-6.29,3.12h-.22Z" fill="#006db7"/><path d="M1228.43,129.13a8.72,8.72,0,0,1-7.57-4.37,15.58,15.58,0,0,1-1.88-8c0-7.16,3-15.77,8.2-23.13h-.43a5.56,5.56,0,0,1-4.51-2.42,6.49,6.49,0,0,1-1-3.58,15.8,15.8,0,0,1,3.59-8.85c2.8-3.63,6.27-5.58,10-5.64h0a10.78,10.78,0,0,1,4.73,1.14A4.64,4.64,0,0,1,1242,77a4.51,4.51,0,0,1-.21,3.29,39.38,39.38,0,0,1,11.55-4.18,4.72,4.72,0,0,1,.9-.09h0a4.58,4.58,0,0,1,4.48,3.66,4.64,4.64,0,0,1-.72,3.6,4.57,4.57,0,0,1-3,1.87,30.45,30.45,0,0,0-13,6c.11,2.58.17,5.2.17,7.66a94.91,94.91,0,0,1-.94,14.23c-.92,5.52-2.38,9.35-4.6,12.09a10,10,0,0,1-7.95,4Zm4.49-27.45c-3.46,5.91-4.75,11.62-4.75,15.06a7.46,7.46,0,0,0,.55,3.18c.23,0,.42-.15.78-.58a10.81,10.81,0,0,0,1.85-4.26A59.63,59.63,0,0,0,1232.92,101.68Z" fill="#006db7"/><path d="M1254.53,94.81a6.09,6.09,0,0,1-4.87-2.42,7.37,7.37,0,0,1-1.46-4.72c0-2.77,1-6.26,3.12-11.29l0-.08a4.64,4.64,0,0,1,4.2-2.7,4.58,4.58,0,0,1,1.92.42,4.7,4.7,0,0,1,2.44,2.68,4.44,4.44,0,0,1-.16,3.36c-.2.47-.38.91-.55,1.33a22.91,22.91,0,0,0,2.46-3.52l0-.09a4.65,4.65,0,0,1,4-2.24,4.57,4.57,0,0,1,4.48,5.56,11.25,11.25,0,0,0-.24,1.66,14.2,14.2,0,0,0,2.5-1.1,43.44,43.44,0,0,0,6.09-4.28,4.65,4.65,0,0,1,2.92-1,4.62,4.62,0,0,1,3,8.18,47.2,47.2,0,0,1-7.62,5.21,16.93,16.93,0,0,1-8,2.48,8,8,0,0,1-5.34-1.92l-.3.28c-2.47,2.16-5.22,4.17-8.5,4.25h-.12Z" fill="#006db7"/><path d="M1279.59,93.62a5.49,5.49,0,0,1-4.53-2.41,6.55,6.55,0,0,1-1-3.54,15.92,15.92,0,0,1,3.6-8.89c2.75-3.58,6.31-5.58,10-5.64h0a10.81,10.81,0,0,1,4.73,1.14,4.55,4.55,0,0,1,2.37,2.66,4.72,4.72,0,0,1-1,4.55,1.78,1.78,0,0,0,.09.33,1,1,0,0,0,.41.28h.25a12.15,12.15,0,0,0,4.26-1.37,36.24,36.24,0,0,0,4.76-2.69l1.35-.87a4.54,4.54,0,0,1,2.56-.78,4.65,4.65,0,0,1,3.73,1.89l.08.12a4.61,4.61,0,0,1-1.19,6.37A55.7,55.7,0,0,1,1305,87.9c-2.69,1.46-6.7,3.4-10.58,3.4a10.3,10.3,0,0,1-2.94-.43l-.12,0a10.64,10.64,0,0,1-3.52-2c-.62.63-1.21,1.2-1.78,1.71-1.65,1.46-3.63,3-6.3,3.12h-.21Z" fill="#006db7"/><path d="M295.49,126.39c-1.85-3.65-2.61-8.53-2.61-14.17.05-20.68,10.14-51.87,21.27-66.57,3.74-4.88,7.62-8.1,11.79-8.2a8.32,8.32,0,0,1,6.3,3.13,21.59,21.59,0,0,1,3.79,7,69.69,69.69,0,0,1,3.27,16.31,1.19,1.19,0,0,1-1.09,1.32,1.25,1.25,0,0,1-1.33-1.09c-.57-6.63-2.41-17.44-6.44-22a6,6,0,0,0-4.5-2.32c-2.75,0-6.34,2.56-9.9,7.21a89.26,89.26,0,0,0-10.13,18.67c-6.16,14.89-10.61,33.19-10.61,46.47,0,5.45.76,10,2.32,13.08s3.74,4.6,7.06,4.6c5.77,0,12-4.13,19.37-12.42s15.86-20.44,26.52-36a1.26,1.26,0,0,1,1.71-.28,1.21,1.21,0,0,1,.28,1.66c-10.66,15.55-19.18,27.78-26.71,36.22s-14.16,13.23-21.17,13.27h-.1A9.9,9.9,0,0,1,295.49,126.39Z" fill="#fff"/><path d="M352.52,90.08a4,4,0,0,1-2.6-1.1,3.5,3.5,0,0,1-.9-2.46,11,11,0,0,1,2.51-6,11.13,11.13,0,0,1,5.25-4.08,8.09,8.09,0,0,1,1.9-.24,8.53,8.53,0,0,1,3.5.85,1.25,1.25,0,0,1,.57,1.62,1.21,1.21,0,0,1-1.23.66,2.45,2.45,0,0,1,.14,1v.57a12,12,0,0,1-.52,2,9.4,9.4,0,0,0,1.23.05c2.51,0,6.11-.8,10.8-3.18a1.25,1.25,0,0,1,1.61.53,1.3,1.3,0,0,1-.52,1.66c-4.93,2.46-8.86,3.41-11.89,3.41a12.34,12.34,0,0,1-2.37-.24c-1.89,3.23-4.73,4.84-7.2,4.89Zm.9-8.06a8.68,8.68,0,0,0-2,4.5,1,1,0,0,0,.24.81,1.48,1.48,0,0,0,1,.33h.14a6.76,6.76,0,0,0,4.93-3.27c-.05,0-.05,0-.09,0a3.73,3.73,0,0,1-1.95-3.08A2.52,2.52,0,0,1,356,80a4.46,4.46,0,0,1,.48-.76A11,11,0,0,0,353.42,82Zm4.74-1a.49.49,0,0,0-.05.24c0,.19.09.52.71.95a7.66,7.66,0,0,0,.43-1.62v-.38A1.5,1.5,0,0,0,358.16,81Z" fill="#fff"/><path d="M373.13,97.57a1.72,1.72,0,0,1-.48-1.24,7.57,7.57,0,0,1,1.85-3.88,26.17,26.17,0,0,1,4.92-4.74,25.46,25.46,0,0,1,2.89-2A11.13,11.13,0,0,0,383,82a5.57,5.57,0,0,0-.62-2.75c-.38-.57-.61-.67-.95-.67S380,79,378.71,81a32.5,32.5,0,0,0-3.55,9.58,1.23,1.23,0,0,1-2.41-.24c0-1-.05-1.94-.05-2.94,0-12.8,3.41-26.17,5.45-33,1-3.56,2.41-6.36,3.93-7.83a2.9,2.9,0,0,1,1.94-.94,2.21,2.21,0,0,1,1.37.56,3.76,3.76,0,0,1,.71,1.14,11,11,0,0,1,.43,3.42c0,1.23-.1,2.65-.28,4.45a55,55,0,0,1-10.9,26c0,.38-.05.71-.05,1.09a16.61,16.61,0,0,1,1.43-2.65c1.42-2.19,2.93-3.42,4.68-3.47a3.59,3.59,0,0,1,3,1.85,8.06,8.06,0,0,1,.94,4,16.06,16.06,0,0,1-.19,2.08,46.52,46.52,0,0,1,13.88-4.45,1.22,1.22,0,0,1,1.42,1,1.23,1.23,0,0,1-1,1.38,42.77,42.77,0,0,0-15.16,5.31,23.73,23.73,0,0,1-7.91,10.09l-.14.1a3.27,3.27,0,0,1-1.8.61h-.05A1.6,1.6,0,0,1,373.13,97.57Zm3.26-3.65a9.76,9.76,0,0,0-.66.94,23.32,23.32,0,0,0,4.22-4.5A22.37,22.37,0,0,0,376.39,93.92Zm7.34-45.61a6.43,6.43,0,0,0-1,1.37A21.47,21.47,0,0,0,380.47,55a137.1,137.1,0,0,0-4.6,21.33,52.54,52.54,0,0,0,8-21.47,38.85,38.85,0,0,0,.28-4.17,7,7,0,0,0-.28-2.52Z" fill="#fff"/><path d="M398.47,87.56a4.15,4.15,0,0,1-1.76-3.51,6.63,6.63,0,0,1,.38-2.08,9.57,9.57,0,0,1,.62-1.19A9.68,9.68,0,0,1,401,77.65a7.64,7.64,0,0,1,3.51-1.09,3.2,3.2,0,0,1,1.85.52,2.32,2.32,0,0,1,.9,1.76c-.1,1.37-1.09,2.32-2.51,3a13.92,13.92,0,0,1-5.45,1.19,1.94,1.94,0,0,0-.19,1,1.76,1.76,0,0,0,.76,1.57,6,6,0,0,0,3.5.8c3.74,0,10.33-1.7,20.42-6.77a1.22,1.22,0,0,1,1.61.56,1.24,1.24,0,0,1-.57,1.62c-10.23,5.16-17,7-21.46,7A8.16,8.16,0,0,1,398.47,87.56Zm3.74-7.77a7.7,7.7,0,0,0-.95.61,6.49,6.49,0,0,0,2-.52,3.35,3.35,0,0,0,1.42-.9h-.19A4.89,4.89,0,0,0,402.21,79.79Z" fill="#fff"/><path d="M427.41,90.12a3.5,3.5,0,0,1-.66-2.18,20.45,20.45,0,0,1,1.65-6.35,9.63,9.63,0,0,1-2.89.62,3,3,0,0,1-2.13-.72,2.77,2.77,0,0,1-.94-2.22,5.91,5.91,0,0,1,.33-2,1.24,1.24,0,0,1,1.51-.76,1.21,1.21,0,0,1,.81,1.52,3.64,3.64,0,0,0-.24,1.19c0,.38,0,.38.1.38s.14.14.56.14a11.49,11.49,0,0,0,4.65-1.66,1.22,1.22,0,0,1,1.7,1.56c-1.94,4.32-2.7,7-2.7,8.25a2.14,2.14,0,0,0,.1.62h.14a7.65,7.65,0,0,0,2.65-1,40,40,0,0,0,4-2.51c2.93-2,6-4.27,8.33-5.5a1.23,1.23,0,0,1,1.66.47,1.25,1.25,0,0,1-.52,1.66c-3.13,1.66-8.43,5.93-12.41,8A8.15,8.15,0,0,1,429.4,91h0A2.52,2.52,0,0,1,427.41,90.12Z" fill="#fff"/><path d="M444.37,90.12a7.81,7.81,0,0,1-.62-3.46c0-4.26,1.56-10.62,3.27-16.31l-5.12.76a1.22,1.22,0,0,1-1.37-1,1.28,1.28,0,0,1,1-1.43l6.26-.9c.57-1.8,1.09-3.46,1.61-4.88a1.19,1.19,0,0,1,1.51-.81,1.28,1.28,0,0,1,.76,1.57c-.38,1.09-.8,2.37-1.23,3.7l3.36-.53a1.23,1.23,0,0,1,1.38,1,1.19,1.19,0,0,1-1,1.37l-4.5.67c-1.8,5.92-3.5,12.75-3.5,16.73a5.59,5.59,0,0,0,.38,2.42c.23.43.23.38.56.43,2,.23,7.49-2.75,14.35-9.68a1.21,1.21,0,0,1,1.85,1.57c-3.83,4.17-11.32,10.48-16.2,10.52H447A3,3,0,0,1,444.37,90.12Z" fill="#fff"/><path d="M461,90.08a4.12,4.12,0,0,1-.75-2.66c0-2.18.85-5.31,2.84-10a1.21,1.21,0,0,1,1.61-.61,1.17,1.17,0,0,1,.61,1.56c-1.94,4.51-2.65,7.49-2.65,9a2.18,2.18,0,0,0,.24,1.19c.09.09.05.09.33.14.76,0,2.79-1,4.69-2.8a27.4,27.4,0,0,0,5.35-6.68,1.25,1.25,0,0,1,1.47-.53,1.18,1.18,0,0,1,.76,1.38,14.12,14.12,0,0,0-.34,2.89,3.77,3.77,0,0,0,.67,2.51,1.9,1.9,0,0,0,1.61.62,12.63,12.63,0,0,0,5.26-1.75,48.11,48.11,0,0,0,6.63-4.65,1.23,1.23,0,0,1,1.56,1.9,44.83,44.83,0,0,1-7.06,4.83,14.12,14.12,0,0,1-6.39,2.09A4.6,4.6,0,0,1,474,87.14a5.71,5.71,0,0,1-1.14-2.9,38.27,38.27,0,0,1-3.26,3.51c-2.23,2-4.27,3.37-6.35,3.42h-.05A2.75,2.75,0,0,1,461,90.08Z" fill="#fff"/><path d="M493.25,90.12a3.5,3.5,0,0,1-.66-2.18,20.54,20.54,0,0,1,1.66-6.35,9.69,9.69,0,0,1-2.89.62,3,3,0,0,1-2.14-.72,2.77,2.77,0,0,1-.94-2.22,5.91,5.91,0,0,1,.33-2,1.25,1.25,0,0,1,1.51-.76,1.21,1.21,0,0,1,.81,1.52,3.64,3.64,0,0,0-.24,1.19c0,.38.05.38.1.38s.14.14.57.14A11.51,11.51,0,0,0,496,78.13a1.22,1.22,0,0,1,1.7,1.56c-1.94,4.32-2.7,7-2.7,8.25a2.14,2.14,0,0,0,.1.62h.14a7.59,7.59,0,0,0,2.65-1,38.93,38.93,0,0,0,4-2.51c2.93-2,6-4.27,8.33-5.5a1.21,1.21,0,1,1,1.14,2.13c-3.13,1.66-8.43,5.93-12.41,8A8.11,8.11,0,0,1,495.24,91h-.05A2.52,2.52,0,0,1,493.25,90.12Z" fill="#fff"/><path d="M507.18,89.08a3.12,3.12,0,0,1-.43-1.66,12.79,12.79,0,0,1,2.89-6.83c1.75-2.27,4.26-4.26,7.39-4.31a7.53,7.53,0,0,1,3.22.8,1.15,1.15,0,0,1,.52,1.62,1.17,1.17,0,0,1-1.09.66,1.37,1.37,0,0,1,.1.76l0,.14c0,.14-.05.38-.05.62a5.37,5.37,0,0,0,.52,2.27,4.18,4.18,0,0,0,2.42,1.95,4,4,0,0,0,1.13.14,14.49,14.49,0,0,0,5.83-1.71,39.31,39.31,0,0,0,5.21-2.94l1.33-.85a1.19,1.19,0,0,1,1.65.28,1.22,1.22,0,0,1-.28,1.71,53.8,53.8,0,0,1-4.78,2.94c-2.7,1.47-6,3-9,3a6.65,6.65,0,0,1-1.94-.29,6.34,6.34,0,0,1-3.74-3.13A4,4,0,0,1,517.6,83a46.52,46.52,0,0,1-4.45,4.7c-1.66,1.46-2.85,2.22-4.17,2.27h-.1A2.13,2.13,0,0,1,507.18,89.08Zm4.35-7a10.44,10.44,0,0,0-2.36,5.36v.1a7,7,0,0,0,2.41-1.62,53.35,53.35,0,0,0,6.06-6.78.66.66,0,0,1,.34-.28,3.41,3.41,0,0,0-1-.14h0C515,78.7,513.05,80.12,511.53,82.06Z" fill="#fff"/><path d="M554.55,89.51a4.58,4.58,0,0,1-.43-2,15.3,15.3,0,0,1,4.45-9.81,5.13,5.13,0,0,1,3.32-1.42,4.76,4.76,0,0,1,2.22.61c.29-7.25,2.7-16.45,4.22-21.85,1.09-3.56,2.51-6.31,4.07-7.73a3.3,3.3,0,0,1,2-.85,2.45,2.45,0,0,1,2.18,1.66,10,10,0,0,1,.47,3.46,25.42,25.42,0,0,1-.23,3.55,55.57,55.57,0,0,1-10.23,24.94,10.71,10.71,0,0,0,.85,3.65,2.82,2.82,0,0,0,2.75,1.8c1.94,0,5.54-1.56,10.7-5.78a1.15,1.15,0,0,1,1.66.19,1.2,1.2,0,0,1-.14,1.7C577,86,573.25,87.94,570.18,88a5.17,5.17,0,0,1-4.88-3.13,10.15,10.15,0,0,1-.71-1.85,50.58,50.58,0,0,1-4.08,5.17c-1.56,1.56-2.65,2.42-4.07,2.46h-.05A2.11,2.11,0,0,1,554.55,89.51Zm5.58-10a9.93,9.93,0,0,0-1.8,2.32,13.67,13.67,0,0,0-1.8,5.69,1.76,1.76,0,0,0,.1.62c.09-.05.24-.1.47-.24a11.71,11.71,0,0,0,1.66-1.47,47.17,47.17,0,0,0,5.07-6.64,2.74,2.74,0,0,0-1.94-1.09A3.08,3.08,0,0,0,560.13,79.55ZM574,49.21a4.82,4.82,0,0,0-1.09,1.33,21.05,21.05,0,0,0-2.27,5.21c-1.42,5-3.6,13.42-4.07,20.1a53.69,53.69,0,0,0,7.86-20.95,31.58,31.58,0,0,0,.19-3.27A7,7,0,0,0,574.3,49,1.23,1.23,0,0,0,574,49.21Z" fill="#fff"/><path d="M580.83,87.56a4.14,4.14,0,0,1-1.75-3.51,6.36,6.36,0,0,1,.38-2.08,8.21,8.21,0,0,1,.62-1.19,9.59,9.59,0,0,1,3.31-3.13,7.61,7.61,0,0,1,3.51-1.09,3.17,3.17,0,0,1,1.84.52,2.32,2.32,0,0,1,.9,1.76c-.09,1.37-1.09,2.32-2.51,3a13.91,13.91,0,0,1-5.44,1.19,1.84,1.84,0,0,0-.19,1,1.77,1.77,0,0,0,.75,1.57,6.05,6.05,0,0,0,3.51.8c3.74,0,10.32-1.7,20.41-6.77a1.22,1.22,0,0,1,1.61.56,1.23,1.23,0,0,1-.56,1.62c-10.24,5.16-17,7-21.46,7A8.21,8.21,0,0,1,580.83,87.56Zm3.75-7.77a6.44,6.44,0,0,0-1,.61,6.56,6.56,0,0,0,2-.52,3.42,3.42,0,0,0,1.42-.9h-.19A4.85,4.85,0,0,0,584.58,79.79Z" fill="#fff"/><path d="M627.49,84.34a16.8,16.8,0,0,1-1.32-7.26c0-8.62,3.41-20.24,6.25-26.12a17.12,17.12,0,0,1,2.08-3.32,3.69,3.69,0,0,1,2.56-1.47A2.17,2.17,0,0,1,639,47.64a7.15,7.15,0,0,1,.48,2.66,18.94,18.94,0,0,1-.29,3c-1,7.07-4.07,21-10.18,27.93a7.62,7.62,0,0,0,.66,2,3.23,3.23,0,0,0,3.08,2c2,.05,5.54-1.47,10.42-5.45a1.15,1.15,0,0,1,1.66.19,1.2,1.2,0,0,1-.14,1.7c-5.07,4.13-8.81,6-11.94,6h-.1A5.69,5.69,0,0,1,627.49,84.34Zm8.86-35.08a11.81,11.81,0,0,0-1.75,2.79c-2.7,5.41-6,17-6,25v.76c4.6-6.63,7.34-18.63,8.24-24.84a22.9,22.9,0,0,0,.24-2.7,5.48,5.48,0,0,0-.19-1.57A2.9,2.9,0,0,0,636.35,49.26Z" fill="#fff"/><path d="M640.23,89.08a3.11,3.11,0,0,1-.42-1.66,12.71,12.71,0,0,1,2.89-6.83c1.75-2.27,4.26-4.26,7.39-4.31a7.53,7.53,0,0,1,3.22.8,1.16,1.16,0,0,1,.52,1.62,1.17,1.17,0,0,1-1.09.66,1.37,1.37,0,0,1,.09.76l0,.14c0,.14,0,.38,0,.62a5.37,5.37,0,0,0,.52,2.27,3.89,3.89,0,0,0,3.55,2.09,14.53,14.53,0,0,0,5.83-1.71,40.65,40.65,0,0,0,5.21-2.94l1.32-.85a1.21,1.21,0,0,1,1.38,2,55,55,0,0,1-4.79,2.94c-2.7,1.47-6,3-9,3a6.65,6.65,0,0,1-1.94-.29,6.31,6.31,0,0,1-3.74-3.13,4.36,4.36,0,0,1-.48-1.23,45.42,45.42,0,0,1-4.45,4.7c-1.66,1.46-2.84,2.22-4.17,2.27h-.09A2.13,2.13,0,0,1,640.23,89.08Zm4.36-7a10.57,10.57,0,0,0-2.37,5.36v.1a7.1,7.1,0,0,0,2.42-1.62,54.14,54.14,0,0,0,6.06-6.78.68.68,0,0,1,.33-.28,3.3,3.3,0,0,0-.94-.14H650C648.1,78.7,646.11,80.12,644.59,82.06Z" fill="#fff"/><path d="M692.29,129.38a15,15,0,0,1-2.13-8.44c0-7.11,2.94-16.36,8.53-25.18a63.09,63.09,0,0,1,19-19.29,43.39,43.39,0,0,1-4.84.24c-4.92,0-8.66-.81-11.32-2.33a7.21,7.21,0,0,1-4.16-6.3c0-3,1.51-6.21,3.79-9.44a51.36,51.36,0,0,1,8.9-9.43c7.1-5.83,15.68-10.43,22.5-10.48a9.8,9.8,0,0,1,6.49,2.13,10.65,10.65,0,0,1,3.41,6.93,1.19,1.19,0,0,1-1,1.37,1.22,1.22,0,0,1-1.37-1,8.58,8.58,0,0,0-2.61-5.41,7.4,7.4,0,0,0-4.92-1.56c-4.31,0-10.14,2.37-15.63,6a52.68,52.68,0,0,0-13.83,13c-2.13,3-3.32,5.87-3.32,8,0,1.56.85,3,2.94,4.22s5.49,2,10.13,2a58.31,58.31,0,0,0,10.94-1.14,1.26,1.26,0,0,1,1.38.81,1.24,1.24,0,0,1-.62,1.47A59.29,59.29,0,0,0,700.72,97c-5.4,8.54-8.14,17.45-8.14,23.9a12.91,12.91,0,0,0,1.7,7.11,5.47,5.47,0,0,0,4.83,2.42c3.93.05,10.18-2.94,18.57-10.62s18.8-20,31.45-38.36a1.2,1.2,0,0,1,1.65-.28,1.18,1.18,0,0,1,.34,1.66c-12.7,18.44-23.26,30.91-31.83,38.78s-15.11,11.19-20.18,11.24h-.05A7.92,7.92,0,0,1,692.29,129.38Z" fill="#fff"/><path d="M748.52,89.51a4.73,4.73,0,0,1-.43-2,15.35,15.35,0,0,1,4.45-9.81,5.13,5.13,0,0,1,3.32-1.42,4.76,4.76,0,0,1,2.23.61c.28-7.25,2.7-16.45,4.21-21.85,1.09-3.56,2.51-6.31,4.07-7.73a3.3,3.3,0,0,1,2-.85,2.44,2.44,0,0,1,2.18,1.66,10,10,0,0,1,.48,3.46,25.6,25.6,0,0,1-.24,3.55,55.45,55.45,0,0,1-10.23,24.94,10.71,10.71,0,0,0,.85,3.65,2.83,2.83,0,0,0,2.75,1.8c1.94,0,5.54-1.56,10.7-5.78a1.15,1.15,0,0,1,1.66.19,1.19,1.19,0,0,1-.14,1.7C771,86,767.23,87.94,764.15,88a5.17,5.17,0,0,1-4.88-3.13,10.94,10.94,0,0,1-.71-1.85,52.18,52.18,0,0,1-4.07,5.17c-1.57,1.56-2.66,2.42-4.08,2.46h0A2.11,2.11,0,0,1,748.52,89.51Zm5.59-10a9.42,9.42,0,0,0-1.8,2.32,13.52,13.52,0,0,0-1.8,5.69,1.8,1.8,0,0,0,.09.62,5.08,5.08,0,0,0,.48-.24,12.36,12.36,0,0,0,1.65-1.47,46.41,46.41,0,0,0,5.07-6.64,2.72,2.72,0,0,0-1.94-1.09A3,3,0,0,0,754.11,79.55ZM768,49.21a4.64,4.64,0,0,0-1.08,1.33,20.66,20.66,0,0,0-2.28,5.21c-1.42,5-3.6,13.42-4.07,20.1a53.69,53.69,0,0,0,7.86-20.95,31.58,31.58,0,0,0,.19-3.27,6.8,6.8,0,0,0-.33-2.66A1.23,1.23,0,0,0,768,49.21Z" fill="#fff"/><path d="M774.14,90.08a4.18,4.18,0,0,1-.75-2.66c0-2.18.85-5.31,2.84-10a1.21,1.21,0,0,1,1.61-.61,1.17,1.17,0,0,1,.61,1.56c-1.94,4.51-2.65,7.49-2.65,9a2.18,2.18,0,0,0,.24,1.19c.09.09.05.09.33.14.76,0,2.79-1,4.69-2.8a27.4,27.4,0,0,0,5.35-6.68,1.26,1.26,0,0,1,1.47-.53,1.18,1.18,0,0,1,.76,1.38,14,14,0,0,0-.33,2.89,3.78,3.78,0,0,0,.66,2.51,1.9,1.9,0,0,0,1.61.62,12.63,12.63,0,0,0,5.26-1.75,48.11,48.11,0,0,0,6.63-4.65,1.23,1.23,0,0,1,1.56,1.9A44.83,44.83,0,0,1,797,86.47a14.12,14.12,0,0,1-6.39,2.09,4.6,4.6,0,0,1-3.46-1.42,5.8,5.8,0,0,1-1.14-2.9,38.27,38.27,0,0,1-3.26,3.51c-2.23,2-4.27,3.37-6.35,3.42h0A2.76,2.76,0,0,1,774.14,90.08Z" fill="#fff"/><path d="M800.53,90.22A4.13,4.13,0,0,1,799.06,87c.05-2.37,1.52-4.83,3.51-6.87s4.59-3.65,7.38-3.65a6.15,6.15,0,0,1,2.7.61,1.2,1.2,0,0,1,.57,1.62,1.21,1.21,0,0,1-1.61.57,3.23,3.23,0,0,0-1.66-.38c-1.75,0-4,1.18-5.68,2.89s-2.79,3.93-2.79,5.21a1.66,1.66,0,0,0,.56,1.33,4,4,0,0,0,2.56.62c3.74,0,11.28-2.33,23.73-9.25a1.2,1.2,0,1,1,1.19,2.09c-12.7,7-20.32,9.58-24.92,9.58A6.58,6.58,0,0,1,800.53,90.22Z" fill="#fff"/><path d="M825.3,89.08a3.11,3.11,0,0,1-.42-1.66,12.69,12.69,0,0,1,2.88-6.83c1.76-2.27,4.27-4.26,7.39-4.31a7.5,7.5,0,0,1,3.22.8,1.21,1.21,0,0,1-.57,2.28,1.29,1.29,0,0,1,.1.76l0,.14c0,.14-.05.38-.05.62a5.39,5.39,0,0,0,.53,2.27,3.89,3.89,0,0,0,3.55,2.09,14.49,14.49,0,0,0,5.82-1.71,39.31,39.31,0,0,0,5.21-2.94l1.33-.85a1.21,1.21,0,1,1,1.37,2,53.8,53.8,0,0,1-4.78,2.94c-2.7,1.47-6,3-9,3a6.55,6.55,0,0,1-1.94-.29,6.28,6.28,0,0,1-3.74-3.13,4.36,4.36,0,0,1-.48-1.23,45.42,45.42,0,0,1-4.45,4.7c-1.66,1.46-2.84,2.22-4.17,2.27H827A2.13,2.13,0,0,1,825.3,89.08Zm4.36-7a10.39,10.39,0,0,0-2.37,5.36v.1a7.1,7.1,0,0,0,2.42-1.62,55,55,0,0,0,6.06-6.78.64.64,0,0,1,.33-.28,3.31,3.31,0,0,0-1-.14h0C833.16,78.7,831.17,80.12,829.66,82.06Z" fill="#fff"/><path d="M852.11,90.22A4.16,4.16,0,0,1,850.64,87c.05-2.37,1.52-4.83,3.51-6.87s4.59-3.65,7.39-3.65a6.18,6.18,0,0,1,2.7.61,1.21,1.21,0,0,1-1,2.19,3.27,3.27,0,0,0-1.66-.38c-1.75,0-4,1.18-5.69,2.89s-2.79,3.93-2.79,5.21a1.67,1.67,0,0,0,.57,1.33,4,4,0,0,0,2.56.62c3.74,0,11.27-2.33,23.72-9.25a1.2,1.2,0,1,1,1.19,2.09c-12.7,7-20.32,9.58-24.91,9.58A6.61,6.61,0,0,1,852.11,90.22Z" fill="#fff"/><path d="M884.18,87.37a6.28,6.28,0,0,1-3.65-3.27,8.91,8.91,0,0,1-.71-3.74,13.49,13.49,0,0,1,.14-1.85,1.27,1.27,0,0,1,1.42-1,1.22,1.22,0,0,1,1,1.42,1.52,1.52,0,0,0,0,.38,5.52,5.52,0,0,0,0,1,6.18,6.18,0,0,0,.52,2.7,3.57,3.57,0,0,0,2.22,2,3.93,3.93,0,0,0,1.14.14,14.12,14.12,0,0,0,5.78-1.71,41,41,0,0,0,5.26-2.94c.8-.52,1.28-.85,1.28-.85a1.22,1.22,0,0,1,1.42,2c-.05,0-2.09,1.47-4.79,2.94s-6,3-9,3A6.6,6.6,0,0,1,884.18,87.37Zm-3.79-13a1.24,1.24,0,0,1,.14-1.7l.57-.48a1.19,1.19,0,1,1,1.56,1.8l-.56.52a1.09,1.09,0,0,1-.76.29A1.26,1.26,0,0,1,880.39,74.38Z" fill="#fff"/><path d="M908.53,76.25a1.27,1.27,0,0,1,1.25,1.26,1.41,1.41,0,0,1-.51,1c5.43,3.83-1.94,16-9.09,13.39S901.09,76.25,908.53,76.25Zm-2,2.86c-4.85,1.77-9,9-5.43,10.41,5.09,2,10.47-7.49,6.18-9.15A1.37,1.37,0,0,1,906.52,79.11Zm-.8-5.61a17.94,17.94,0,0,1,1.72-.86c2.4-1.08,5.72-2.63,5.83-3.6a1.35,1.35,0,0,1,1.2-.92,1.3,1.3,0,0,1,1.26,1.43c-.46,2.41-5.15,4.41-7.55,5.5l-1.2.57a1.22,1.22,0,0,1-1.94-1A1.28,1.28,0,0,1,905.72,73.5Z" fill="#fff"/><path d="M914.81,89a1.2,1.2,0,0,1-.66-1.42L917,77.75a1.25,1.25,0,0,1,1.52-.81,1.19,1.19,0,0,1,.8,1.52l-1.09,3.79a23.52,23.52,0,0,1,2.42-2.46c1-.86,1.89-1.61,3.22-1.66h.14A2.22,2.22,0,0,1,926,79.41a3.93,3.93,0,0,1,.33,1.89c0,.86-.09,1.76-.09,2.47a2.53,2.53,0,0,0,.23,1.33c.1.09.1.19.76.23,1.38,0,5.07-1.28,11.84-5.5a1.19,1.19,0,0,1,1.66.38,1.17,1.17,0,0,1-.38,1.66c-7,4.27-10.61,5.84-13.12,5.88a3.22,3.22,0,0,1-2.84-1.37,5.29,5.29,0,0,1-.57-2.61c0-.9.1-1.8.1-2.47v-.66s0,0,0-.09a.73.73,0,0,0-.24.09c-.19.1-.42.24-.71.43a15.37,15.37,0,0,0-1.94,1.8,50.06,50.06,0,0,0-3.69,4.46c-.62.8-.95,1.32-.95,1.32a1.25,1.25,0,0,1-1,.52A1,1,0,0,1,914.81,89Z" fill="#fff"/><path d="M959.58,87.56a4.15,4.15,0,0,1-1.76-3.51A6.63,6.63,0,0,1,958.2,82a9.57,9.57,0,0,1,.62-1.19,9.68,9.68,0,0,1,3.31-3.13,7.64,7.64,0,0,1,3.51-1.09,3.22,3.22,0,0,1,1.85.52,2.32,2.32,0,0,1,.9,1.76c-.1,1.37-1.09,2.32-2.51,3a13.92,13.92,0,0,1-5.45,1.19,1.94,1.94,0,0,0-.19,1,1.76,1.76,0,0,0,.76,1.57,6,6,0,0,0,3.5.8c3.74,0,10.33-1.7,20.42-6.77a1.22,1.22,0,0,1,1.61.56,1.24,1.24,0,0,1-.57,1.62c-10.23,5.16-17,7-21.46,7A8.16,8.16,0,0,1,959.58,87.56Zm3.74-7.77a7,7,0,0,0-1,.61,6.49,6.49,0,0,0,2-.52,3.35,3.35,0,0,0,1.42-.9h-.19A4.89,4.89,0,0,0,963.32,79.79Z" fill="#fff"/><path d="M983.21,89a1.19,1.19,0,0,1-.66-1.42l2.89-9.86a1.25,1.25,0,0,1,1.52-.81,1.19,1.19,0,0,1,.8,1.52l-1.09,3.79a23.52,23.52,0,0,1,2.42-2.46c1-.86,1.89-1.61,3.22-1.66h.14a2.22,2.22,0,0,1,1.94,1.28,3.93,3.93,0,0,1,.33,1.89c0,.86-.09,1.76-.09,2.47a2.41,2.41,0,0,0,.24,1.33c.09.09.09.19.75.23,1.38,0,5.07-1.28,11.84-5.5a1.19,1.19,0,0,1,1.66.38,1.17,1.17,0,0,1-.38,1.66c-7,4.27-10.61,5.84-13.12,5.88a3.22,3.22,0,0,1-2.84-1.37,5.29,5.29,0,0,1-.57-2.61c0-.9.1-1.8.1-2.47v-.66s0,0,0-.09a.73.73,0,0,0-.24.09c-.19.1-.42.24-.71.43a15.37,15.37,0,0,0-1.94,1.8,50.06,50.06,0,0,0-3.69,4.46c-.62.8-.95,1.32-.95,1.32a1.25,1.25,0,0,1-1,.52A.92.92,0,0,1,983.21,89Z" fill="#fff"/><path d="M1045.31,143.55a1.2,1.2,0,0,1-1-1.37c1.33-7.78,13.74-64.19,14.5-89.94,0-.71,0-1.37,0-2,0-4-.42-6.63-1.08-8.15s-1.24-1.75-2-1.8c-1,0-2.94,1-5,3a58.89,58.89,0,0,0-6.49,7.68,135.93,135.93,0,0,0-10,15.88,1.25,1.25,0,0,1-1.66.52,1.29,1.29,0,0,1-.52-1.66c2.65-5,10.28-17.83,17-24.18,2.27-2.08,4.4-3.6,6.68-3.65,1.84,0,3.41,1.23,4.21,3.27s1.28,5,1.28,9.1c0,.67,0,1.38,0,2.09-.42,13.51-3.88,35-7.39,53.71,8.86-29.44,17.53-47.31,25.06-55.8,3.41-3.79,6.68-5.83,9.9-5.87a7.45,7.45,0,0,1,5.45,2.51,18.21,18.21,0,0,1,3.74,6.59c2,5.59,3.08,13.56,3.08,23.61,0,12.18-1.61,27.45-5.17,45a1.21,1.21,0,0,1-2.37-.48c3.56-17.44,5.12-32.57,5.12-44.56,0-14.79-2.51-24.89-6.16-28.54a5.1,5.1,0,0,0-3.69-1.76c-2.09,0-4.93,1.47-8.1,5.08S1074,61,1070.32,68.74c-7.44,15.5-15.58,39.63-23.59,73.91a1.21,1.21,0,0,1-1.18.95A.51.51,0,0,1,1045.31,143.55Z" fill="#fff"/><path d="M1115.89,87.37a6.28,6.28,0,0,1-3.65-3.27,8.91,8.91,0,0,1-.71-3.74,12.61,12.61,0,0,1,.15-1.85,1.26,1.26,0,0,1,1.42-1A1.21,1.21,0,0,1,1114,79a1.52,1.52,0,0,0,0,.38,5.52,5.52,0,0,0,0,1,6.18,6.18,0,0,0,.52,2.7,3.56,3.56,0,0,0,2.23,2,3.8,3.8,0,0,0,1.13.14,14.12,14.12,0,0,0,5.78-1.71,40.33,40.33,0,0,0,5.26-2.94c.8-.52,1.28-.85,1.28-.85a1.22,1.22,0,0,1,1.42,2s-2.09,1.47-4.78,2.94-6,3-9,3A6.65,6.65,0,0,1,1115.89,87.37Zm-3.79-13a1.25,1.25,0,0,1,.14-1.7l.57-.48a1.19,1.19,0,1,1,1.57,1.8l-.57.52a1.09,1.09,0,0,1-.76.29A1.26,1.26,0,0,1,1112.1,74.38Z" fill="#fff"/><path d="M1128.07,90.22A4.13,4.13,0,0,1,1126.6,87c0-2.37,1.51-4.83,3.5-6.87s4.6-3.65,7.39-3.65a6.15,6.15,0,0,1,2.7.61,1.21,1.21,0,0,1,.57,1.62,1.22,1.22,0,0,1-1.61.57,3.23,3.23,0,0,0-1.66-.38c-1.75,0-4,1.18-5.68,2.89S1129,85.71,1129,87a1.67,1.67,0,0,0,.57,1.33,4,4,0,0,0,2.56.62c3.74,0,11.27-2.33,23.73-9.25a1.2,1.2,0,1,1,1.18,2.09c-12.69,7-20.32,9.58-24.91,9.58A6.56,6.56,0,0,1,1128.07,90.22Z" fill="#fff"/><path d="M1152.84,89.08a3.12,3.12,0,0,1-.43-1.66,12.79,12.79,0,0,1,2.89-6.83c1.75-2.27,4.26-4.26,7.39-4.31a7.53,7.53,0,0,1,3.22.8,1.21,1.21,0,0,1-.57,2.28,1.37,1.37,0,0,1,.1.76l0,.14c0,.14-.05.38-.05.62a5.37,5.37,0,0,0,.52,2.27,4.22,4.22,0,0,0,2.42,1.95,4.07,4.07,0,0,0,1.14.14,14.49,14.49,0,0,0,5.82-1.71,39.31,39.31,0,0,0,5.21-2.94l1.33-.85a1.21,1.21,0,0,1,1.66.28,1.23,1.23,0,0,1-.29,1.71,53.8,53.8,0,0,1-4.78,2.94c-2.7,1.47-6,3-8.95,3a6.67,6.67,0,0,1-2-.29,6.34,6.34,0,0,1-3.74-3.13,4.32,4.32,0,0,1-.47-1.23,45.42,45.42,0,0,1-4.45,4.7c-1.66,1.46-2.85,2.22-4.17,2.27h-.1A2.13,2.13,0,0,1,1152.84,89.08Zm4.36-7a10.39,10.39,0,0,0-2.37,5.36v.1a7,7,0,0,0,2.41-1.62,54,54,0,0,0,6.07-6.78.64.64,0,0,1,.33-.28,3.36,3.36,0,0,0-1-.14h0C1160.7,78.7,1158.71,80.12,1157.2,82.06Z" fill="#fff"/><path d="M1185.52,90.12a3.5,3.5,0,0,1-.66-2.18,20.83,20.83,0,0,1,1.66-6.35,9.69,9.69,0,0,1-2.89.62,3,3,0,0,1-2.13-.72,2.75,2.75,0,0,1-1-2.22,5.91,5.91,0,0,1,.33-2,1.25,1.25,0,0,1,1.52-.76,1.21,1.21,0,0,1,.8,1.52,3.64,3.64,0,0,0-.24,1.19c0,.38,0,.38.1.38s.14.14.57.14a11.51,11.51,0,0,0,4.64-1.66,1.22,1.22,0,0,1,1.7,1.56c-1.94,4.32-2.7,7-2.7,8.25a2.14,2.14,0,0,0,.1.62h.14a7.59,7.59,0,0,0,2.65-1,38.93,38.93,0,0,0,4-2.51c2.94-2,6-4.27,8.34-5.5a1.22,1.22,0,0,1,1.65.47,1.24,1.24,0,0,1-.52,1.66c-3.12,1.66-8.43,5.93-12.41,8a8.11,8.11,0,0,1-3.74,1.24h0A2.52,2.52,0,0,1,1185.52,90.12Z" fill="#fff"/><path d="M1199.45,89.08a3.12,3.12,0,0,1-.43-1.66,12.79,12.79,0,0,1,2.89-6.83c1.75-2.27,4.26-4.26,7.39-4.31a7.53,7.53,0,0,1,3.22.8,1.21,1.21,0,0,1-.57,2.28,1.37,1.37,0,0,1,.1.76l0,.14c0,.14,0,.38,0,.62a5.37,5.37,0,0,0,.52,2.27,4.22,4.22,0,0,0,2.42,1.95,4.07,4.07,0,0,0,1.14.14,14.49,14.49,0,0,0,5.82-1.71,39.31,39.31,0,0,0,5.21-2.94l1.33-.85A1.19,1.19,0,0,1,1230,80a1.22,1.22,0,0,1-.28,1.71,53.8,53.8,0,0,1-4.78,2.94c-2.7,1.47-6,3-9,3a6.67,6.67,0,0,1-2-.29,6.34,6.34,0,0,1-3.74-3.13,4.32,4.32,0,0,1-.47-1.23,45.42,45.42,0,0,1-4.45,4.7c-1.66,1.46-2.85,2.22-4.17,2.27h-.1A2.13,2.13,0,0,1,1199.45,89.08Zm4.36-7a10.39,10.39,0,0,0-2.37,5.36v.1a7,7,0,0,0,2.41-1.62,54,54,0,0,0,6.07-6.78.64.64,0,0,1,.33-.28,3.36,3.36,0,0,0-1-.14h0C1207.31,78.7,1205.32,80.12,1203.81,82.06Z" fill="#fff"/><path d="M1224.08,122.79a12.35,12.35,0,0,1-1.42-6.31c0-6.07,2.65-14.27,7.86-21.57a41.86,41.86,0,0,1,5.78-6.54c0-1-.14-1.9-.19-2.75-.09-1-.14-1.94-.24-2.7a43.22,43.22,0,0,1-4.54,4.79c-1.66,1.46-2.84,2.22-4.17,2.27a2.11,2.11,0,0,1-1.8-.9,3.18,3.18,0,0,1-.43-1.71,12.65,12.65,0,0,1,2.89-6.78c1.75-2.27,4.26-4.26,7.39-4.31a7.53,7.53,0,0,1,3.22.8,1.19,1.19,0,0,1,.52,1.62,1.16,1.16,0,0,1-1.09.66.89.89,0,0,1,.1.33s.33,2.71.61,6.73a36.48,36.48,0,0,1,15.68-7.2,1.19,1.19,0,0,1,1.42,1,1.17,1.17,0,0,1-1,1.42,34,34,0,0,0-15.91,7.77c.14,2.8.24,6,.24,9.2a92.39,92.39,0,0,1-.9,13.7c-.71,4.27-1.85,8-3.89,10.48a6.64,6.64,0,0,1-5.44,2.75h-.1A5.38,5.38,0,0,1,1224.08,122.79Zm8.43-26.5c-5,6.92-7.43,14.79-7.43,20.19a10.08,10.08,0,0,0,1.08,5,2.82,2.82,0,0,0,2.66,1.56,4.34,4.34,0,0,0,3.6-1.85,14.45,14.45,0,0,0,2.51-5.54c1.28-4.74,1.7-11.1,1.7-17.12,0-2.42-.05-4.79-.14-7A46,46,0,0,0,1232.51,96.29Zm-2.79-14.23a10.44,10.44,0,0,0-2.37,5.31v.15a7,7,0,0,0,2.41-1.62,54,54,0,0,0,6.07-6.78.64.64,0,0,1,.33-.28,3.31,3.31,0,0,0-1-.14h0C1233.22,78.7,1231.19,80.12,1229.72,82.06Z" fill="#fff"/><path d="M1252.64,90.08a4.12,4.12,0,0,1-.76-2.66c0-2.18.86-5.31,2.85-10a1.21,1.21,0,0,1,1.61-.61,1.17,1.17,0,0,1,.61,1.56c-1.94,4.51-2.65,7.49-2.65,9a2.18,2.18,0,0,0,.24,1.19c.09.09,0,.09.33.14.76,0,2.79-1,4.69-2.8a27.4,27.4,0,0,0,5.35-6.68,1.25,1.25,0,0,1,1.47-.53,1.18,1.18,0,0,1,.76,1.38,14.12,14.12,0,0,0-.34,2.89,3.77,3.77,0,0,0,.67,2.51,1.88,1.88,0,0,0,1.61.62,12.55,12.55,0,0,0,5.25-1.75,47.57,47.57,0,0,0,6.64-4.65,1.23,1.23,0,0,1,1.56,1.9,44.83,44.83,0,0,1-7.06,4.83,14.12,14.12,0,0,1-6.39,2.09,4.6,4.6,0,0,1-3.46-1.42,5.71,5.71,0,0,1-1.14-2.9,38.34,38.34,0,0,1-3.27,3.51c-2.22,2-4.26,3.37-6.34,3.42h0A2.75,2.75,0,0,1,1252.64,90.08Z" fill="#fff"/><path d="M1278.18,89.08a3,3,0,0,1-.43-1.66,12.79,12.79,0,0,1,2.89-6.83c1.75-2.27,4.26-4.26,7.39-4.31a7.53,7.53,0,0,1,3.22.8,1.16,1.16,0,0,1,.52,1.62,1.17,1.17,0,0,1-1.09.66,1.37,1.37,0,0,1,.09.76l0,.14c0,.14,0,.38,0,.62a5.37,5.37,0,0,0,.52,2.27,4.18,4.18,0,0,0,2.42,1.95,4,4,0,0,0,1.13.14,14.53,14.53,0,0,0,5.83-1.71,40,40,0,0,0,5.21-2.94l1.32-.85a1.21,1.21,0,0,1,1.38,2,55,55,0,0,1-4.79,2.94c-2.7,1.47-6,3-9,3a6.65,6.65,0,0,1-1.94-.29,6.31,6.31,0,0,1-3.74-3.13,4,4,0,0,1-.47-1.23,45.34,45.34,0,0,1-4.46,4.7c-1.65,1.46-2.84,2.22-4.17,2.27h-.09A2.1,2.1,0,0,1,1278.18,89.08Zm4.35-7a10.57,10.57,0,0,0-2.37,5.36v.1a7.1,7.1,0,0,0,2.42-1.62,54.14,54.14,0,0,0,6.06-6.78.68.68,0,0,1,.33-.28,3.3,3.3,0,0,0-.94-.14h0C1286,78.7,1284.05,80.12,1282.53,82.06Z" fill="#fff"/></svg>