<?xml version="1.0" encoding="utf-8"?>
<!-- Generator: Adobe Illustrator 24.0.2, SVG Export Plug-In . SVG Version: 6.00 Build 0)  -->
<!DOCTYPE svg PUBLIC "-//W3C//DTD SVG 1.1//EN" "http://www.w3.org/Graphics/SVG/1.1/DTD/svg11.dtd" [
	<!ENTITY ns_extend "http://ns.adobe.com/Extensibility/1.0/">
	<!ENTITY ns_ai "http://ns.adobe.com/AdobeIllustrator/10.0/">
	<!ENTITY ns_graphs "http://ns.adobe.com/Graphs/1.0/">
	<!ENTITY ns_vars "http://ns.adobe.com/Variables/1.0/">
	<!ENTITY ns_imrep "http://ns.adobe.com/ImageReplacement/1.0/">
	<!ENTITY ns_sfw "http://ns.adobe.com/SaveForWeb/1.0/">
	<!ENTITY ns_custom "http://ns.adobe.com/GenericCustomNamespace/1.0/">
	<!ENTITY ns_adobe_xpath "http://ns.adobe.com/XPath/1.0/">
]>
<svg version="1.1" id="OBJECTS" xmlns:x="&ns_extend;" xmlns:i="&ns_ai;" xmlns:graph="&ns_graphs;"
	 xmlns="http://www.w3.org/2000/svg" xmlns:xlink="http://www.w3.org/1999/xlink" x="0px" y="0px" viewBox="0 0 197.3 52"
	 style="enable-background:new 0 0 197.3 52;" xml:space="preserve">
<style type="text/css">
	.st0{fill:#FFFFFF;stroke:#005CD5;stroke-width:0.5844;stroke-miterlimit:10;}
	.st1{fill:#1E86FF;}
	.st2{fill:#005CD5;}
	.st3{fill:#FFFFFF;}
</style>
<metadata>
	<sfw  xmlns="&ns_sfw;">
		<slices></slices>
		<sliceSourceBounds  bottomLeftOrigin="true" height="40" width="188.7" x="4.2" y="3.2"></sliceSourceBounds>
		<optimizationSettings>
			<targetSettings  fileFormat="JPEGFormat" targetSettingsID="0">
				
					<JPEGFormat  blurAmount="0" embedICCProfile="false" matteColor="#FFFFFF" noMatteColor="false" optimized="true" progressive="true" quality="80">
					</JPEGFormat>
			</targetSettings>
		</optimizationSettings>
	</sfw>
</metadata>
<g>
	<path class="st0" d="M173.7,48.5H24.9c-10.5,0-19-8.5-19-19v-1.4c0-10.5,8.5-19,19-19h148.7c10.5,0,19,8.5,19,19v1.4
		C192.7,40,184.1,48.5,173.7,48.5z"/>
	<g>
		<path class="st1" d="M23.2,8.9h148.5c10.5,0,19,8.5,19,19l0,0c0,10.5-8.5,19-19,19H23.2c-10.5,0-19-8.5-19-19l0,0
			C4.2,17.4,12.7,8.9,23.2,8.9z"/>
		<path class="st2" d="M23.2,8.9h18.9v38H23.2c-10.5,0-19-8.5-19-19l0,0C4.2,17.4,12.7,8.9,23.2,8.9z"/>
	</g>
	<g id="XMLID_78_">
		<g id="XMLID_82_">
			<path id="XMLID_533_" class="st3" d="M19.7,43c-1.3,0-2.7-0.3-3.9-1.1C9.7,38,12.7,27.6,16,22c0.1-0.1,0.2-0.3,0.3-0.4
				c3.2-4.9,9.7-6.4,14.7-3.2c2.4,1.5,4,3.9,4.6,6.7s0.1,5.6-1.4,8l0,0c-0.1,0.1-0.2,0.3-0.3,0.4C30.9,37.6,25,43,19.7,43z
				 M25.2,18.3c-2.9,0-5.8,1.4-7.5,4.1c-0.1,0.1-0.1,0.2-0.2,0.4c-2.4,4.1-5.9,14.3-0.7,17.6c5.2,3.3,13-4.1,15.7-8
				c0.1-0.1,0.2-0.2,0.2-0.4l0,0c1.3-2,1.7-4.4,1.2-6.7S32,21,30,19.7C28.5,18.8,26.9,18.3,25.2,18.3z"/>
		</g>
		<g id="XMLID_81_">
			<path id="XMLID_530_" class="st3" d="M32.5,33.7c-3.2,0-6.6-1-9.6-3c-3.2-2.1-5.7-5-7-8.1l-0.2-0.4l0.2-0.4
				c0.1-0.1,0.2-0.3,0.3-0.4c3.2-4.9,9.7-6.4,14.7-3.2c2.4,1.5,4,3.9,4.6,6.7s0.1,5.6-1.4,8l0,0c-0.1,0.1-0.2,0.3-0.3,0.4l-0.2,0.3
				h-0.4C33,33.7,32.7,33.7,32.5,33.7z M17.7,22.4c1.2,2.7,3.3,5.1,6.1,6.9s5.9,2.7,8.8,2.7l0,0l0,0c1.3-2,1.7-4.4,1.2-6.7
				C33.4,23,32,21,30,19.7C25.9,17.1,20.4,18.3,17.7,22.4L17.7,22.4z"/>
		</g>
		<g id="XMLID_80_">
			<path id="XMLID_527_" class="st3" d="M25.6,29.1c-0.4,0-0.9-0.1-1.2-0.4l-0.2-0.1c-1.1-0.7-1.4-2.1-0.7-3.1l3.1-4.8
				c0.3-0.5,0.8-0.9,1.4-1s1.2,0,1.7,0.3l0.2,0.1c0.5,0.3,0.9,0.8,1,1.4s0,1.2-0.3,1.7L27.5,28c-0.3,0.5-0.8,0.9-1.4,1
				C25.9,29.1,25.8,29.1,25.6,29.1z M28.5,21.3h-0.1c-0.1,0-0.3,0.1-0.4,0.2l-3.1,4.8c-0.2,0.3-0.1,0.6,0.2,0.8l0.2,0.1
				c0.1,0.1,0.3,0.1,0.4,0.1s0.3-0.1,0.4-0.2l3.1-4.8c0.1-0.1,0.1-0.3,0.1-0.4s-0.1-0.3-0.2-0.4l-0.2-0.1
				C28.7,21.4,28.6,21.3,28.5,21.3z"/>
		</g>
		<g id="XMLID_79_">
			<path id="XMLID_526_" class="st3" d="M23.4,30.9c-0.2,0-0.3,0-0.5-0.1c-0.4-0.3-0.5-0.8-0.3-1.2l1.1-1.8c0.3-0.4,0.8-0.5,1.2-0.3
				c0.4,0.3,0.5,0.8,0.3,1.2l-1.1,1.8C23.9,30.8,23.7,30.9,23.4,30.9z"/>
		</g>
		<g id="XMLID_96_">
			<path id="XMLID_525_" class="st3" d="M69.4,19L69.4,19c-4.9,0.1-8.6-1.4-12.5-2.9c-3.5-1.4-7.2-2.8-11.8-3.1
				c-9.1-0.6-13,5-13.3,5.5l-0.6,1.2c-0.1,0.3-0.5,0.4-0.7,0.3c-0.3-0.1-0.4-0.5-0.3-0.7l0.6-1.3c0.2-0.3,4.3-6.6,14.3-6
				c4.8,0.3,8.5,1.7,12.1,3.1c3.8,1.5,7.4,2.9,12.1,2.8c0.3,0,0.6,0.2,0.6,0.5C69.9,18.7,69.7,18.9,69.4,19z"/>
		</g>
	</g>
</g>
<g>
	<path class="st3" d="M51.7,34.7l3.5-10.9h2.7l-5,14h-2.3l-5-14h2.7L51.7,34.7z"/>
	<path class="st3" d="M59.3,24.7c0-0.4,0.1-0.7,0.3-0.9c0.2-0.2,0.6-0.4,1-0.4s0.7,0.1,1,0.4c0.2,0.2,0.3,0.5,0.3,0.9
		c0,0.4-0.1,0.6-0.3,0.9c-0.2,0.2-0.6,0.3-1,0.3s-0.7-0.1-1-0.3S59.3,25,59.3,24.7z M61.7,37.7h-2.3V27.4h2.3V37.7z"/>
	<path class="st3" d="M70.1,34.9c0-0.4-0.2-0.7-0.5-0.9c-0.3-0.2-0.9-0.4-1.7-0.6s-1.5-0.4-2-0.6c-1.2-0.6-1.7-1.4-1.7-2.4
		c0-0.9,0.4-1.6,1.1-2.2c0.8-0.6,1.7-0.9,2.9-0.9c1.2,0,2.2,0.3,3,0.9c0.8,0.6,1.1,1.4,1.1,2.4H70c0-0.4-0.2-0.8-0.5-1.1
		c-0.3-0.3-0.8-0.4-1.3-0.4c-0.5,0-0.9,0.1-1.3,0.4s-0.5,0.6-0.5,0.9c0,0.4,0.2,0.6,0.5,0.8s0.9,0.4,1.8,0.6
		c0.9,0.2,1.6,0.4,2.2,0.7s0.9,0.6,1.2,1c0.3,0.4,0.4,0.9,0.4,1.4c0,0.9-0.4,1.7-1.2,2.3c-0.8,0.6-1.8,0.9-3,0.9
		c-0.9,0-1.6-0.2-2.3-0.5c-0.7-0.3-1.2-0.7-1.6-1.3c-0.4-0.5-0.6-1.1-0.6-1.7h2.3c0,0.5,0.2,1,0.6,1.3c0.4,0.3,0.9,0.4,1.5,0.4
		c0.6,0,1.1-0.1,1.4-0.3C69.9,35.6,70.1,35.3,70.1,34.9z"/>
	<path class="st3" d="M74.4,24.7c0-0.4,0.1-0.7,0.3-0.9c0.2-0.2,0.6-0.4,1-0.4s0.7,0.1,1,0.4c0.2,0.2,0.3,0.5,0.3,0.9
		c0,0.4-0.1,0.6-0.3,0.9c-0.2,0.2-0.6,0.3-1,0.3s-0.7-0.1-1-0.3S74.4,25,74.4,24.7z M76.9,37.7h-2.3V27.4h2.3V37.7z"/>
	<path class="st3" d="M82.3,24.8v2.5h1.8v1.7h-1.8v5.8c0,0.4,0.1,0.7,0.2,0.9S83,36,83.4,36c0.3,0,0.5,0,0.8-0.1v1.8
		c-0.5,0.1-1,0.2-1.5,0.2c-1.8,0-2.7-1-2.7-3v-5.9h-1.7v-1.7H80v-2.5H82.3z"/>
	<path class="st3" d="M92.1,37.7c-0.1-0.2-0.2-0.5-0.3-1c-0.7,0.8-1.6,1.2-2.7,1.2c-1,0-1.9-0.3-2.6-0.9c-0.7-0.6-1-1.3-1-2.2
		c0-1.1,0.4-2,1.2-2.5c0.8-0.6,2-0.9,3.5-0.9h1.4v-0.7c0-0.5-0.1-1-0.5-1.3c-0.3-0.3-0.8-0.5-1.4-0.5c-0.5,0-1,0.1-1.3,0.4
		c-0.3,0.3-0.5,0.6-0.5,1h-2.3c0-0.6,0.2-1.1,0.6-1.6c0.4-0.5,0.9-0.9,1.5-1.2c0.6-0.3,1.4-0.4,2.2-0.4c1.2,0,2.2,0.3,2.9,0.9
		c0.7,0.6,1.1,1.5,1.1,2.6v4.7c0,0.9,0.1,1.7,0.4,2.2v0.2H92.1z M89.6,36.1c0.5,0,0.9-0.1,1.3-0.3c0.4-0.2,0.7-0.5,0.9-0.9v-2h-1.3
		c-0.9,0-1.5,0.2-1.9,0.5c-0.4,0.3-0.7,0.7-0.7,1.3c0,0.4,0.1,0.8,0.4,1.1C88.7,35.9,89.1,36.1,89.6,36.1z"/>
	<path class="st3" d="M102,29.5c-0.3-0.1-0.6-0.1-0.9-0.1c-1.1,0-1.8,0.4-2.2,1.2v7.1h-2.3V27.4h2.2l0.1,1.2
		c0.6-0.9,1.3-1.4,2.3-1.4c0.3,0,0.6,0,0.8,0.1L102,29.5z"/>
	<path class="st3" d="M114.2,34.9c0-0.4-0.2-0.7-0.5-0.9c-0.3-0.2-0.9-0.4-1.7-0.6c-0.8-0.2-1.5-0.4-2-0.6c-1.2-0.6-1.7-1.4-1.7-2.4
		c0-0.9,0.4-1.6,1.1-2.2c0.8-0.6,1.7-0.9,2.9-0.9c1.2,0,2.2,0.3,3,0.9c0.8,0.6,1.1,1.4,1.1,2.4h-2.3c0-0.4-0.2-0.8-0.5-1.1
		s-0.8-0.4-1.3-0.4c-0.5,0-0.9,0.1-1.3,0.4c-0.3,0.2-0.5,0.6-0.5,0.9c0,0.4,0.2,0.6,0.5,0.8c0.3,0.2,0.9,0.4,1.8,0.6
		c0.9,0.2,1.6,0.4,2.2,0.7c0.5,0.3,0.9,0.6,1.2,1c0.3,0.4,0.4,0.9,0.4,1.4c0,0.9-0.4,1.7-1.2,2.3c-0.8,0.6-1.8,0.9-3,0.9
		c-0.9,0-1.6-0.2-2.3-0.5c-0.7-0.3-1.2-0.7-1.6-1.3c-0.4-0.5-0.6-1.1-0.6-1.7h2.3c0,0.5,0.2,1,0.6,1.3c0.4,0.3,0.9,0.4,1.5,0.4
		c0.6,0,1.1-0.1,1.4-0.3C114,35.6,114.2,35.3,114.2,34.9z"/>
	<path class="st3" d="M118.5,24.7c0-0.4,0.1-0.7,0.3-0.9c0.2-0.2,0.6-0.4,1-0.4s0.7,0.1,1,0.4c0.2,0.2,0.3,0.5,0.3,0.9
		c0,0.4-0.1,0.6-0.3,0.9s-0.6,0.3-1,0.3s-0.7-0.1-1-0.3C118.6,25.3,118.5,25,118.5,24.7z M121,37.7h-2.3V27.4h2.3V37.7z"/>
	<path class="st3" d="M126.4,24.8v2.5h1.8v1.7h-1.8v5.8c0,0.4,0.1,0.7,0.2,0.9c0.2,0.2,0.4,0.3,0.8,0.3c0.3,0,0.5,0,0.8-0.1v1.8
		c-0.5,0.1-1,0.2-1.5,0.2c-1.8,0-2.7-1-2.7-3v-5.9h-1.7v-1.7h1.7v-2.5H126.4z"/>
	<path class="st3" d="M130,24.7c0-0.4,0.1-0.7,0.3-0.9c0.2-0.2,0.6-0.4,1-0.4s0.7,0.1,1,0.4c0.2,0.2,0.3,0.5,0.3,0.9
		c0,0.4-0.1,0.6-0.3,0.9c-0.2,0.2-0.6,0.3-1,0.3s-0.7-0.1-1-0.3S130,25,130,24.7z M132.5,37.7h-2.3V27.4h2.3V37.7z"/>
	<path class="st3" d="M134.6,32.5c0-1,0.2-1.9,0.6-2.7c0.4-0.8,1-1.4,1.7-1.9c0.7-0.4,1.6-0.7,2.5-0.7c1.4,0,2.5,0.5,3.4,1.4
		c0.9,0.9,1.3,2.1,1.4,3.6l0,0.5c0,1-0.2,1.9-0.6,2.7s-1,1.4-1.7,1.9c-0.7,0.4-1.6,0.7-2.5,0.7c-1.5,0-2.6-0.5-3.5-1.5
		s-1.3-2.3-1.3-3.9V32.5z M137,32.7c0,1.1,0.2,1.9,0.7,2.5c0.4,0.6,1.1,0.9,1.8,0.9c0.8,0,1.4-0.3,1.8-0.9c0.4-0.6,0.7-1.5,0.7-2.7
		c0-1-0.2-1.9-0.7-2.5c-0.5-0.6-1.1-0.9-1.8-0.9c-0.8,0-1.4,0.3-1.8,0.9S137,31.5,137,32.7z"/>
	<path class="st3" d="M160.2,34.5l1.6-7.2h2.3l-2.8,10.4h-1.9l-2.2-7.1l-2.2,7.1h-1.9l-2.8-10.4h2.3l1.7,7.1l2.1-7.1h1.8L160.2,34.5
		z"/>
	<path class="st3" d="M170.3,37.9c-1.5,0-2.7-0.5-3.6-1.4c-0.9-0.9-1.4-2.2-1.4-3.7v-0.3c0-1,0.2-2,0.6-2.8c0.4-0.8,1-1.4,1.7-1.9
		c0.7-0.5,1.5-0.7,2.4-0.7c1.4,0,2.5,0.5,3.3,1.4c0.8,0.9,1.2,2.2,1.2,3.8v0.9h-6.8c0.1,0.9,0.4,1.5,0.9,2c0.5,0.5,1.1,0.7,1.9,0.7
		c1.1,0,1.9-0.4,2.6-1.3l1.3,1.2c-0.4,0.6-1,1.1-1.7,1.4C171.9,37.8,171.2,37.9,170.3,37.9z M170,29c-0.6,0-1.2,0.2-1.5,0.7
		c-0.4,0.4-0.6,1.1-0.8,1.9h4.4v-0.2c-0.1-0.8-0.3-1.4-0.6-1.8C171.2,29.2,170.7,29,170,29z"/>
	<path class="st3" d="M185.4,32.7c0,1.6-0.4,2.9-1.1,3.8c-0.7,1-1.7,1.4-3,1.4c-1.2,0-2.2-0.4-2.8-1.3l-0.1,1.1h-2.1V23h2.3v5.4
		c0.7-0.8,1.6-1.2,2.7-1.2c1.3,0,2.3,0.5,3,1.4s1.1,2.3,1.1,3.9V32.7z M183,32.5c0-1.1-0.2-2-0.6-2.5c-0.4-0.6-1-0.8-1.7-0.8
		c-1,0-1.7,0.4-2.1,1.3v4.3c0.4,0.9,1.1,1.4,2.1,1.4c0.7,0,1.3-0.3,1.7-0.8c0.4-0.5,0.6-1.4,0.6-2.5V32.5z"/>
</g>
</svg>
