<?xml version="1.0" encoding="utf-8"?>
<!-- Generator: Adobe Illustrator 24.0.2, SVG Export Plug-In . SVG Version: 6.00 Build 0)  -->
<svg version="1.1" id="Capa_1" xmlns="http://www.w3.org/2000/svg" xmlns:xlink="http://www.w3.org/1999/xlink" x="0px" y="0px"
	 viewBox="0 0 550 69" style="enable-background:new 0 0 550 69;" xml:space="preserve">
<style type="text/css">
	.st0{opacity:0.15;fill:#143F8B;enable-background:new    ;}
	.st1{fill:#E3007E;}
	.st2{fill:#FFFFFF;}
	.st3{fill:#606060;}
	.st4{fill:#105B83;}
	.st5{fill:#8EB22C;}
</style>
<title>banner_pw</title>
<g>
	<g>
		<path class="st0" d="M419.2,20h76.2c3,0,5.4,6.9,5.4,15.5v1c0,8.5-2.4,15.5-5.4,15.5h-76.2c-3,0-5.4-6.9-5.4-15.5v-1
			C413.9,26.9,416.3,20,419.2,20z"/>
		<circle class="st1" cx="403" cy="34.7" r="29"/>
		<g>
			<g>
				<path class="st2" d="M389.6,46.1c-1.5,0-3,0-4.4,0c-0.3,0-0.5,0.1-0.7,0c-0.3-0.2-0.8-0.4-0.9-0.7c-0.1-0.3,0-0.9,0.3-1.1
					c3.7-3.6,5.2-8.2,5.6-13.1c0.3-2.8,0.1-5.6,0.2-8.5c0-1.1,0.3-1.4,1.4-1.4c1.5,0,3.1,0,4.6,0c0,0,0.1,0,0.2-0.1
					c0.2-0.7-0.2-2,1.1-1.9c1.3,0,0.9,1.2,1.1,2c1.7,0,3.4,0,5.1,0c0.1-0.8-0.2-2,1.1-2c1.3,0,1,1.1,1,2c1.7,0,3.4,0,5.2,0
					c0.2-0.8-0.2-2.1,1.2-2c1.2,0.1,0.9,1.1,0.9,2c0.2,0,0.5,0,0.7,0c1.4,0,2.8,0,4.1,0c0.9,0,1.3,0.4,1.3,1.3c0,8.8,0,17.6,0,26.4
					c0,0.9-0.4,1.3-1.5,1.3c-7.2,0-14.3,0-21.5,0c-1.5,0-3.1,0-4.6,0c-1.2,0-1.5-0.3-1.5-1.5C389.6,47.8,389.6,47,389.6,46.1z
					 M386.8,44c0.3,0,0.5,0,0.7,0c7.6,0,15.2,0,22.8,0c0.4,0,0.8-0.2,1-0.5c2.5-2.7,3.9-6,4.6-9.6c0.3-1.4,0.4-2.9,0.6-4.4
					c-8.4,0-16.7,0-25,0C391.4,34.8,390,39.7,386.8,44z M405.2,23.4c-0.1,0.8,0.2,1.9-1,2c-1.4,0.1-1-1.2-1.1-2c-1.7,0-3.4,0-5.1,0
					c-0.2,0.8,0.2,1.9-1,2c-1.4,0.1-1-1.2-1.2-2c-1.4,0-2.7,0-4.1,0c0,1.4,0,2.7,0,4c8.3,0,16.6,0,24.8,0c0-1.4,0-2.7,0-4
					c-1.4,0-2.7,0-4,0c-0.1,0.8,0.2,2-1.1,2c-1.3,0-0.9-1.2-1-2C408.6,23.4,406.9,23.4,405.2,23.4z M416.5,39.6L416.5,39.6
					c-0.2,0.2-0.3,0.4-0.4,0.5c-0.9,1.9-2.1,3.7-3.6,5.3c-0.5,0.5-1,0.7-1.7,0.7c-6.1,0-12.2,0-18.3,0c-0.3,0-0.6,0-0.9,0
					c0,0.7,0,1.4,0,2c8.3,0,16.6,0,24.9,0C416.5,45.2,416.5,42.3,416.5,39.6z"/>
			</g>
		</g>
		<g>
			<path class="st3" d="M436.9,43.8v-1.6l6.8-6.6c0.6-0.6,1.1-1.1,1.4-1.5c0.3-0.4,0.5-0.8,0.6-1.2c0.1-0.4,0.2-0.7,0.2-1.1
				c0-0.9-0.3-1.5-0.9-2c-0.6-0.5-1.5-0.7-2.7-0.7c-0.9,0-1.7,0.1-2.4,0.4s-1.3,0.8-1.9,1.4l-1.6-1.4c0.6-0.8,1.5-1.4,2.6-1.9
				c1.1-0.4,2.3-0.7,3.6-0.7c1.2,0,2.2,0.2,3,0.6c0.9,0.4,1.5,0.9,2,1.6c0.5,0.7,0.7,1.5,0.7,2.5c0,0.5-0.1,1.1-0.2,1.6
				c-0.1,0.5-0.4,1.1-0.8,1.7c-0.4,0.6-1,1.3-1.7,2l-6.1,5.9l-0.6-0.9h10.2v2.1H436.9z"/>
			<path class="st3" d="M457.8,44c-1.3,0-2.5-0.3-3.5-1c-1-0.7-1.8-1.6-2.4-2.9c-0.6-1.3-0.9-2.8-0.9-4.7c0-1.8,0.3-3.4,0.9-4.7
				s1.4-2.3,2.4-2.9c1-0.7,2.2-1,3.5-1c1.3,0,2.5,0.3,3.5,1c1,0.7,1.9,1.6,2.4,2.9s0.9,2.8,0.9,4.7c0,1.8-0.3,3.4-0.9,4.7
				c-0.6,1.3-1.4,2.3-2.4,2.9C460.2,43.7,459.1,44,457.8,44z M457.8,41.9c0.9,0,1.7-0.2,2.3-0.7c0.7-0.5,1.2-1.2,1.6-2.2
				s0.6-2.2,0.6-3.6c0-1.4-0.2-2.6-0.6-3.6s-0.9-1.7-1.6-2.2c-0.7-0.5-1.4-0.7-2.3-0.7s-1.7,0.2-2.3,0.7c-0.7,0.5-1.2,1.2-1.6,2.2
				c-0.4,1-0.6,2.2-0.6,3.6c0,1.4,0.2,2.6,0.6,3.6c0.4,1,0.9,1.7,1.6,2.2C456.1,41.6,456.9,41.9,457.8,41.9z"/>
			<path class="st3" d="M466.6,43.8v-1.6l6.8-6.6c0.6-0.6,1.1-1.1,1.4-1.5c0.3-0.4,0.5-0.8,0.6-1.2c0.1-0.4,0.2-0.7,0.2-1.1
				c0-0.9-0.3-1.5-0.9-2c-0.6-0.5-1.5-0.7-2.7-0.7c-0.9,0-1.7,0.1-2.4,0.4s-1.3,0.8-1.9,1.4l-1.6-1.4c0.6-0.8,1.5-1.4,2.6-1.9
				c1.1-0.4,2.3-0.7,3.6-0.7c1.2,0,2.2,0.2,3,0.6c0.9,0.4,1.5,0.9,2,1.6c0.5,0.7,0.7,1.5,0.7,2.5c0,0.5-0.1,1.1-0.2,1.6
				c-0.1,0.5-0.4,1.1-0.8,1.7c-0.4,0.6-1,1.3-1.7,2l-6.1,5.9l-0.6-0.9h10.2v2.1H466.6z"/>
			<path class="st3" d="M483.5,43.8V28l1,1.1h-4.8V27h6.2v16.8H483.5z"/>
		</g>
	</g>
	<g>
		<g>
			<path class="st0" d="M134,22.5h216c8.5,0,15.3,6.9,15.3,15.3v1.3c0,8.5-6.9,15.3-15.3,15.3H134c-8.5,0-15.3-6.9-15.3-15.3v-1.3
				C118.6,29.4,125.5,22.5,134,22.5z"/>
			<circle class="st4" cx="77.8" cy="31.7" r="28.6"/>
			<circle class="st5" cx="114.4" cy="37.3" r="29"/>
			<path class="st2" d="M109.2,58.5H99.1c-0.8,0-1-0.2-1-0.9c0-2.6,0-5.3,0-7.9c0-0.3,0.1-0.6,0.3-0.8c1.5-1.7,3-3.4,4.5-5.1
				c0.2-0.2,0.5-0.3,0.7-0.3c3.7,0,7.3,0,10.9,0c0.3,0,0.6,0.1,0.8,0.3c1.5,1.7,3,3.3,4.5,5c0.3,0.3,0.4,0.6,0.4,1
				c0,2.6,0,5.2,0,7.8c0,0.8-0.2,1-1,1L109.2,58.5z M99.4,57.2h9.9v-7.1h-9.9V57.2z M113.4,44.8h-0.2c-3,0-6,0-9,0
				c-0.2,0-0.4,0.1-0.5,0.3c-1.1,1-2.1,2.2-3.2,3.4c-0.1,0.1-0.2,0.2-0.3,0.3h0.1h9.1c0.2,0,0.3-0.1,0.4-0.2
				c0.7-0.8,1.4-1.5,2.1-2.3L113.4,44.8z M110.7,50.1v7.1h1.9c0-1.3,0-2.6,0-3.9c0-0.6,0.2-0.8,0.8-0.8h2.9c0.6,0,0.8,0.2,0.8,0.8
				v3.5c0,0.2,0,0.3,0,0.4h1.9v-7.1H110.7z M114.9,45l-3.4,3.8h6.7L114.9,45z M113.9,57.2h2v-3.4h-2V57.2z"/>
			<path class="st2" d="M124.4,31.1l2.5-2.1c0.5-0.4,0.7-0.4,1.2,0c1.1,0.9,2.1,1.8,3.2,2.7c0.3,0.2,0.4,0.5,0.4,0.9
				c0,1.1,0,2.2,0,3.4v0.5h8.5c0.2,0,0.4,0,0.5,0.1s0.4,0.4,0.4,0.6s-0.3,0.4-0.5,0.6c-0.2,0.2-0.3,0-0.5,0H99
				c-0.5,0-0.8-0.2-0.8-0.6c0-0.4,0.3-0.6,0.8-0.6h24.4v-3.1c0-0.5,0-1,0-1.5c0-0.2-0.1-0.3-0.3-0.4l-7.5-6c-0.5-0.4-1-0.8-1.4-1.2
				c-2.3-2-5.8-1.8-8,0.3c-2.1,1.9-4.3,3.9-6.4,5.8L99.3,31c-0.2,0.2-0.6,0.3-0.8,0l0,0c-0.2-0.2-0.2-0.6,0-0.9c0,0,0,0,0.1-0.1
				c0.8-0.7,1.6-1.4,2.3-2.1l4.6-4.1c2.7-2.5,6.7-2.6,9.6-0.3c3.1,2.5,6.1,4.9,9.2,7.4L124.4,31.1z M125.8,36.3v-1.8
				c0-0.5,0.2-0.8,0.8-0.8h1.9c0.6,0,0.8,0.2,0.8,0.8v1.7h1.2v-3.6c0-0.1,0-0.2-0.1-0.2l-2.8-2.4c-0.9,0.8-1.8,1.5-2.7,2.3
				c-0.1,0.1-0.2,0.3-0.2,0.5c0,0.8,0,1.6,0,2.4v1.1H125.8z M128,36.3v-1.2h-0.9v1.2H128z"/>
			<path class="st2" d="M128.5,17.9l1.4-0.6c0.1-0.1,0.3-0.1,0.4-0.3c0.8-1.5,2.6-2,4-1.3c0.4,0.2,0.7,0.5,1,0.8
				c0.1,0.1,0.2,0.2,0.4,0.2c1.2-0.1,2.3,0.7,2.6,1.9c0.3,1.2-0.2,2.5-1.2,3.2c-0.5,0.4-1.2,0.5-1.8,0.5h-3c-0.2,0-0.4,0.1-0.5,0.3
				c-0.5,1-1.5,1.6-2.7,1.6c-1.7,0-3.3,0-4.9,0c-1.4,0-2.5-1.1-2.5-2.5c0-1.2,0.8-2.2,2-2.5c0.1,0,0.3-0.1,0.4-0.2
				C125.2,17.3,126.7,16.9,128.5,17.9z M132.9,21.1c0.8,0,1.6,0,2.4,0c0.7,0,1.4-0.4,1.7-1.1c0.2-0.5,0.1-1.1-0.2-1.5
				c-0.3-0.4-0.9-0.6-1.4-0.4c-0.3,0.1-0.7,0-0.8-0.3l0,0c-0.3-0.7-1-1.1-1.8-1c-0.8,0.1-1.4,0.6-1.6,1.3c-0.1,0.3-0.4,0.6-0.8,0.5
				c-0.7-0.1-1.3,0.4-1.4,1.1c0,0.1,0,0.1,0,0.2c0,0.7,0.6,1.3,1.3,1.3h0.1C131.3,21.1,132.1,21.1,132.9,21.1z M130.5,22.4h-0.3
				c-1.4-0.1-2.4-1.3-2.4-2.6c0-0.1,0-0.2,0-0.4c0-0.2-0.1-0.3-0.2-0.4c-0.8-0.5-1.9-0.2-2.4,0.6c-0.1,0.1-0.1,0.3-0.2,0.4
				c-0.2,0.4-0.3,0.6-0.8,0.6c-0.7-0.1-1.3,0.4-1.4,1.1v0.1c0,0.7,0.6,1.3,1.3,1.3c0,0,0,0,0.1,0c1.6,0,3.3,0,4.9,0
				C129.7,23.1,130.2,22.8,130.5,22.4z"/>
			<path class="st2" d="M134.1,48.8h2.4c0.5,0,0.8,0.2,0.8,0.6c0,0.4-0.3,0.6-0.8,0.6h-4.8c-0.5,0-0.8-0.2-0.8-0.6
				c0-0.4,0.3-0.6,0.8-0.6H134.1z"/>
			<path class="st2" d="M128.6,54.3h-1.5c-0.5,0-0.8-0.3-0.8-0.6c0-0.4,0.3-0.7,0.7-0.6l0,0h3.1c0.4,0,0.7,0.3,0.7,0.6
				c0,0.3-0.3,0.6-0.7,0.6H128.6z"/>
			<path class="st2" d="M134.7,41.8h-1.5c-0.4,0-0.7-0.3-0.7-0.7c0-0.3,0.3-0.6,0.6-0.6c0,0,0,0,0.1,0h3.1c0.4,0,0.7,0.3,0.7,0.7
				c0,0.3-0.3,0.6-0.6,0.6c0,0,0,0-0.1,0H134.7z"/>
			<path class="st2" d="M133.3,57.3h1.5c0.4,0,0.7,0.2,0.7,0.6c0,0.4-0.3,0.6-0.7,0.6h-3.1c-0.5,0-0.7-0.3-0.7-0.6
				c0-0.3,0.3-0.6,0.7-0.6C131.7,57.3,133.3,57.3,133.3,57.3z"/>
			<path class="st2" d="M124.4,46c-0.3,0-0.7,0-1,0s-0.6-0.3-0.6-0.6c0-0.3,0.3-0.6,0.6-0.6l0,0h2.1c0.3,0,0.6,0.2,0.6,0.5
				c0,0,0,0,0,0.1c0,0.4-0.2,0.6-0.7,0.7L124.4,46L124.4,46z"/>
			<path class="st2" d="M118.3,42h-1c-0.4,0-0.7-0.2-0.7-0.6c0-0.4,0.2-0.7,0.6-0.7c0.1,0,0.1,0,0.2,0h2c0.5,0,0.7,0.3,0.7,0.7
				s-0.3,0.6-0.7,0.6H118.3z"/>
			<path class="st2" d="M81.3,9.2h1.3v1.9l3.8-0.8v13.9h1.2v-3.7h1.3v-2.5h1.3v2.5h1.3v3.8h1.1v2.5h1.3v18.8h1.2v1.3h-39v-1.2h2.5
				v-2.6c-2.6-0.8-3.2-4.2-1.7-6.2c0.8-1.3,2.5-1.7,3.8-0.8c0.1,0.1,0.2,0.1,0.2,0.2l0.2,0.1v-0.9c-0.9-0.2-1.7-0.6-2.3-1.3
				c-2-2.2-1.9-5.6,0.3-7.6c0.3-0.2,0.5-0.5,0.8-0.6c0.7-0.4,1.6-0.5,2.4-0.4v-7.5h-1.2v-1.3h11.3v-3.7l3.8-0.8V9.2h1.3V12
				c0.4-0.1,0.8-0.1,1.1-0.2c0.1-0.1,0.2-0.2,0.2-0.3c0-1,0-2.1,0-3.1V7.9h1.3v3.6l1.3-0.3L81.3,9.2z M66.2,37.3c0,0.4,0,0.7,0,1.1
				c0,0.3-0.1,0.6-0.3,0.8c-1.1,1.3-2.2,2.6-3.3,3.8c-0.1,0.1-0.2,0.2-0.2,0.3c0,0.7,0,1.5,0,2.2H65c-0.3-1.4,0.5-2.8,1.7-3.4
				c1.2-0.6,2.7-0.3,3.7,0.7c0.4,0.4,0.5,0.3,0.8-0.1c0.3-0.4,0.6-0.8,1-1.2c0.2-0.1,0.3-0.4,0.3-0.6c0-7.5,0-15.1,0-22.6v-0.4h-8.8
				c0,2.4,0,4.8,0,7.2c0,0.5,0.1,0.9,0.6,1.2c0.1,0.1,0.2,0.2,0.3,0.3c0.3,0.5,0.9,0.8,1.6,0.8c0.5,0.1,0.9,0.2,1.3,0.4v-1h1.2v1.3
				h-0.9c1.7,1.2,2.5,3.4,2.1,5.4C69.6,35.5,68.1,37,66.2,37.3z M85.1,11.9L85.1,11.9c-3.7,0.7-7.2,1.4-10.9,2.1
				c-0.3,0.1-0.4,0.2-0.4,0.5c0,8.6,0,17.2,0,25.8v0.5c0.9-0.3,1.8-0.3,2.6,0c0.8,0.3,1.5,0.8,2.1,1.4l1.6-0.4v-15h1.3v-2.5h3.7
				V11.9z M88.3,44.6l-0.1-0.4c-0.5-1.7-2.2-2.7-3.9-2.2c-0.9,0.2-1.6,0.8-2,1.7c-0.1,0.2-0.2,0.3-0.3,0.5c-0.4-0.6-1.1-1-1.9-1.1
				c-0.8,0.1-1.4,0.5-1.9,1.1c-0.7-1.5-1.7-2.5-3.4-2.3c-1.5,0.1-2.8,1.2-3,2.8c-0.4-0.1-0.9-0.2-1.4-0.2c-0.3,0.1-0.7-0.1-0.8-0.4
				c-0.5-0.7-1.4-1-2.2-0.7c-0.8,0.3-1.3,1.1-1.2,1.9c0,0.3,0,0.5,0.5,0.5c8.3,0,16.6,0,25,0H92C91.1,44.5,89.6,44.1,88.3,44.6z
				 M92.6,28.1H81.3c0,0.1,0,0.2,0,0.2v13.6c0,0,0,0.1,0,0.2c0,0.1,0.1,0.2,0.2,0.2s0.2,0,0.3-0.1c0.2-0.2,0.3-0.3,0.5-0.5
				c0.2-0.2,0.3-0.4,0.3-0.7c0-3.7,0-7.5,0-11.2v-0.5h8.8v6.8c0,2.4,0,4.7,0,7.1c0,0.1,0,0.3,0.1,0.4c0.3,0.3,0.7,0.5,1.1,0.8V28.1z
				 M62.4,34.2c0.6-0.1,1.1-0.5,1.5-0.9c1.4-1.6,1.4-4,0-5.5c-1-1.2-2.7-1.3-3.8-0.4c-1.7,1.5-1.9,4.2-0.4,5.9
				c0.2,0.2,0.4,0.4,0.6,0.5c0.3,0.2,0.6,0.3,0.9,0.5v-4.3h1.3L62.4,34.2z M87.6,30.6v0.1c0,3.5,0,7,0,10.5c0,0.1,0.1,0.2,0.2,0.3
				c0.4,0.5,0.8,1,1.2,1.4c0.1,0.1,0.2,0.2,0.3,0.2c0.3,0,0.5,0,0.8,0V30.6H87.6z M86.3,40.7V30.6h-2.5v10.2
				c0.4-0.1,0.8-0.1,1.2-0.1C85.5,40.6,85.9,40.7,86.3,40.7z M65.9,28.7c0.9,2.5-0.1,5.2-2.4,6.5c1,1.2,2.7,1.3,3.9,0.3
				c0.2-0.1,0.3-0.3,0.4-0.4c1.3-1.6,1.3-3.8,0-5.4C67.3,29.2,66.6,28.8,65.9,28.7L65.9,28.7z M57.4,39.3c0,0.7,0.2,1.5,0.7,2
				c0.5,0.6,1.5,0.7,2.1,0.2c0.1,0,0.1-0.1,0.2-0.2c1-1.1,1-2.9,0-4c-0.5-0.6-1.5-0.7-2.2-0.2c-0.1,0.1-0.1,0.1-0.2,0.2
				C57.6,37.8,57.4,38.6,57.4,39.3z M91.4,25.5h-8.8v1.2h8.8V25.5z M62.5,41.3c0.7-0.8,1.3-1.6,2-2.3c0.4-0.4,0.6-1.1,0.5-1.7
				c-1-0.2-1.8-0.7-2.5-1.4V41.3z M61.1,45.6v-3.1l-1.2,0.7v2.5L61.1,45.6z M90.1,24.2v-2.5h-1.3v2.5H90.1z"/>
			<path class="st2" d="M66.2,20.5H65v-1.2h1.2V20.5z"/>
			<path class="st2" d="M68.7,20.5h-1.2v-1.2h1.2V20.5z"/>
			<path class="st2" d="M70,19.3h1.2v1.2H70V19.3z"/>
			<path class="st2" d="M65,23v-1.2h1.2V23H65z"/>
			<path class="st2" d="M68.7,23h-1.2v-1.2h1.2V23z"/>
			<path class="st2" d="M71.2,23H70v-1.2h1.2V23z"/>
			<path class="st2" d="M71.2,24.3v1.2H70v-1.2H71.2z"/>
			<path class="st2" d="M71.2,28H70v-1.2h1.2V28z"/>
			<path class="st2" d="M66.2,24.3v1.2H65v-1.2H66.2z"/>
			<path class="st2" d="M68.7,25.5h-1.2v-1.2h1.2V25.5z"/>
			<path class="st2" d="M78.8,20.5h-3.7v-5h3.7V20.5z M76.3,16.8v2.4h1.2v-2.5L76.3,16.8z"/>
			<path class="st2" d="M80.1,15.5h3.7v5h-3.7V15.5z M81.3,19.2h1.3v-2.5h-1.3V19.2z"/>
			<path class="st2" d="M75.1,21.8h3.7v5h-3.7V21.8z M76.3,23v2.5h1.2V23H76.3z"/>
			<path class="st2" d="M78.8,33h-3.7v-5h3.7V33z M76.3,31.8h1.2v-2.5h-1.2V31.8z"/>
			<path class="st2" d="M75,39.3v-5h3.7v5H75z M76.3,35.6v2.5h1.2v-2.5H76.3z"/>
		</g>
		<g>
			<g>
				<path class="st3" d="M155,42.9h9.8V45h-12.2V28.2h11.9v2.1H155V42.9z M154.8,35.4h8.6v2h-8.6V35.4z"/>
				<path class="st3" d="M173.5,44.4c-1.2,0-2.3-0.3-3.3-0.8c-1-0.5-1.7-1.2-2.3-2.2c-0.6-0.9-0.9-2-0.9-3.2c0-1.2,0.3-2.3,0.9-3.2
					c0.6-0.9,1.3-1.6,2.3-2.1c1-0.5,2.1-0.8,3.3-0.8c1.1,0,2.1,0.2,3,0.7c0.9,0.4,1.6,1.1,2.1,2c0.5,0.9,0.8,2.1,0.8,3.5
					c0,1.4-0.3,2.5-0.8,3.4s-1.3,1.6-2.1,2.1S174.6,44.4,173.5,44.4z M173.8,49.8c-1.2,0-2.3-0.2-3.4-0.5c-1.1-0.3-2-0.8-2.7-1.4
					l1.1-1.8c0.6,0.5,1.3,0.9,2.2,1.2c0.9,0.3,1.8,0.4,2.7,0.4c1.5,0,2.6-0.4,3.3-1.1c0.7-0.7,1.1-1.8,1.1-3.2v-2.7l0.2-2.5
					l-0.1-2.5v-3.5h2.2v11c0,2.2-0.6,3.9-1.7,4.9C177.6,49.2,175.9,49.8,173.8,49.8z M173.7,42.4c0.8,0,1.6-0.2,2.3-0.5
					c0.7-0.4,1.2-0.8,1.5-1.5c0.4-0.6,0.6-1.3,0.6-2.2c0-0.8-0.2-1.5-0.6-2.2c-0.4-0.6-0.9-1.1-1.5-1.5c-0.7-0.3-1.4-0.5-2.3-0.5
					c-0.8,0-1.6,0.2-2.3,0.5c-0.7,0.3-1.2,0.8-1.6,1.5s-0.6,1.3-0.6,2.2c0,0.8,0.2,1.5,0.6,2.2s0.9,1.1,1.6,1.5
					C172.1,42.2,172.9,42.4,173.7,42.4z"/>
				<path class="st3" d="M184.7,45V32.2h2.2v3.5l-0.2-0.9c0.4-0.9,0.9-1.6,1.8-2c0.8-0.5,1.9-0.7,3.1-0.7v2.2c-0.1,0-0.2,0-0.3,0
					c-0.1,0-0.2,0-0.3,0c-1.2,0-2.2,0.4-2.9,1.1c-0.7,0.7-1.1,1.8-1.1,3.2V45H184.7z"/>
				<path class="st3" d="M200,45.1c-1.4,0-2.6-0.3-3.6-0.8c-1-0.6-1.8-1.3-2.4-2.3c-0.6-1-0.9-2.1-0.9-3.4c0-1.3,0.3-2.4,0.8-3.4
					c0.6-1,1.3-1.7,2.3-2.3c1-0.6,2.1-0.8,3.3-0.8c1.2,0,2.3,0.3,3.3,0.8c0.9,0.5,1.7,1.3,2.2,2.3c0.5,1,0.8,2.1,0.8,3.4
					c0,0.1,0,0.2,0,0.3s0,0.2,0,0.4h-10.8v-1.7h9.6l-0.9,0.6c0-0.8-0.2-1.5-0.5-2.2c-0.4-0.6-0.8-1.1-1.5-1.5
					c-0.6-0.4-1.3-0.5-2.1-0.5c-0.8,0-1.5,0.2-2.1,0.5c-0.6,0.4-1.1,0.9-1.5,1.5c-0.4,0.6-0.5,1.4-0.5,2.2v0.4
					c0,0.8,0.2,1.6,0.6,2.3c0.4,0.7,0.9,1.2,1.6,1.5c0.7,0.4,1.5,0.6,2.4,0.6c0.8,0,1.4-0.1,2.1-0.4s1.2-0.6,1.6-1.2L205,43
					c-0.6,0.7-1.3,1.2-2.1,1.5S201,45.1,200,45.1z"/>
				<path class="st3" d="M212.6,45.1c-1.1,0-2.1-0.1-3-0.4c-1-0.3-1.7-0.6-2.2-1.1l1-1.8c0.5,0.4,1.2,0.7,2,0.9
					c0.8,0.3,1.6,0.4,2.4,0.4c1.1,0,1.8-0.2,2.3-0.5c0.5-0.3,0.7-0.7,0.7-1.3c0-0.4-0.1-0.7-0.4-0.9c-0.3-0.2-0.7-0.4-1.1-0.5
					c-0.5-0.1-1-0.2-1.6-0.3c-0.6-0.1-1.2-0.2-1.7-0.3c-0.6-0.1-1.1-0.3-1.6-0.6c-0.5-0.2-0.9-0.6-1.2-1s-0.4-1-0.4-1.8
					c0-0.8,0.2-1.4,0.6-2c0.4-0.6,1-1,1.8-1.3c0.8-0.3,1.7-0.5,2.8-0.5c0.8,0,1.7,0.1,2.5,0.3c0.9,0.2,1.6,0.5,2.1,0.9l-1,1.8
					c-0.6-0.4-1.2-0.6-1.8-0.8c-0.6-0.1-1.2-0.2-1.9-0.2c-1,0-1.8,0.2-2.3,0.5s-0.7,0.7-0.7,1.3c0,0.4,0.1,0.8,0.4,1
					c0.3,0.2,0.7,0.4,1.2,0.5c0.5,0.1,1,0.2,1.6,0.3c0.6,0.1,1.2,0.2,1.7,0.3s1.1,0.3,1.6,0.6c0.5,0.2,0.9,0.6,1.2,1
					c0.3,0.4,0.4,1,0.4,1.7c0,0.8-0.2,1.4-0.7,2c-0.4,0.6-1.1,1-1.9,1.3C214.7,44.9,213.8,45.1,212.6,45.1z"/>
				<path class="st3" d="M226.5,45.1c-1.3,0-2.4-0.3-3.4-0.8c-1-0.6-1.8-1.3-2.4-2.3c-0.6-1-0.9-2.1-0.9-3.3c0-1.3,0.3-2.4,0.9-3.4
					c0.6-1,1.4-1.7,2.4-2.3c1-0.6,2.1-0.8,3.4-0.8c1.3,0,2.4,0.3,3.4,0.8c1,0.6,1.8,1.3,2.4,2.3c0.6,1,0.9,2.1,0.9,3.4
					c0,1.3-0.3,2.4-0.9,3.4c-0.6,1-1.4,1.7-2.4,2.3C228.9,44.8,227.7,45.1,226.5,45.1z M226.5,43.1c0.8,0,1.5-0.2,2.2-0.6
					c0.6-0.4,1.2-0.9,1.5-1.6c0.4-0.7,0.6-1.5,0.6-2.4c0-0.9-0.2-1.7-0.6-2.4s-0.9-1.2-1.5-1.5c-0.6-0.4-1.4-0.6-2.2-0.6
					c-0.8,0-1.5,0.2-2.2,0.6c-0.6,0.4-1.2,0.9-1.5,1.5s-0.6,1.5-0.6,2.4c0,0.9,0.2,1.7,0.6,2.4c0.4,0.7,0.9,1.2,1.5,1.6
					C224.9,42.9,225.6,43.1,226.5,43.1z"/>
				<path class="st3" d="M242.7,49.6V32.2h2.2v3.4l-0.1,3l0.2,3v8H242.7z M249.4,45.1c-1.1,0-2-0.2-2.9-0.7s-1.6-1.2-2.1-2.2
					c-0.5-1-0.8-2.2-0.8-3.6c0-1.4,0.3-2.6,0.8-3.6c0.5-1,1.2-1.7,2.1-2.2c0.9-0.5,1.9-0.7,2.9-0.7c1.2,0,2.4,0.3,3.3,0.8
					c1,0.5,1.7,1.3,2.3,2.3c0.6,1,0.8,2.1,0.8,3.4S255.6,41,255,42c-0.6,1-1.3,1.7-2.3,2.3S250.7,45.1,249.4,45.1z M249.3,43.1
					c0.8,0,1.5-0.2,2.2-0.6c0.6-0.4,1.2-0.9,1.5-1.6c0.4-0.7,0.6-1.5,0.6-2.4c0-0.9-0.2-1.7-0.6-2.4s-0.9-1.2-1.5-1.5
					c-0.6-0.4-1.4-0.6-2.2-0.6c-0.8,0-1.5,0.2-2.2,0.6c-0.6,0.4-1.2,0.9-1.5,1.5c-0.4,0.7-0.6,1.5-0.6,2.4c0,0.9,0.2,1.7,0.6,2.4
					c0.4,0.7,0.9,1.2,1.5,1.6C247.7,42.9,248.5,43.1,249.3,43.1z"/>
				<path class="st3" d="M264.5,45.1c-1.3,0-2.4-0.3-3.4-0.8c-1-0.6-1.8-1.3-2.4-2.3c-0.6-1-0.9-2.1-0.9-3.3c0-1.3,0.3-2.4,0.9-3.4
					c0.6-1,1.4-1.7,2.4-2.3c1-0.6,2.1-0.8,3.4-0.8c1.3,0,2.4,0.3,3.4,0.8c1,0.6,1.8,1.3,2.4,2.3c0.6,1,0.9,2.1,0.9,3.4
					c0,1.3-0.3,2.4-0.9,3.4c-0.6,1-1.4,1.7-2.4,2.3C266.9,44.8,265.8,45.1,264.5,45.1z M264.5,43.1c0.8,0,1.5-0.2,2.2-0.6
					c0.6-0.4,1.2-0.9,1.5-1.6c0.4-0.7,0.6-1.5,0.6-2.4c0-0.9-0.2-1.7-0.6-2.4s-0.9-1.2-1.5-1.5c-0.6-0.4-1.4-0.6-2.2-0.6
					c-0.8,0-1.5,0.2-2.2,0.6c-0.6,0.4-1.2,0.9-1.5,1.5s-0.6,1.5-0.6,2.4c0,0.9,0.2,1.7,0.6,2.4c0.4,0.7,0.9,1.2,1.5,1.6
					C263,42.9,263.7,43.1,264.5,43.1z"/>
				<path class="st3" d="M274.3,45V32.2h2.2v3.5l-0.2-0.9c0.4-0.9,0.9-1.6,1.8-2s1.9-0.7,3.1-0.7v2.2c-0.1,0-0.2,0-0.3,0
					s-0.2,0-0.3,0c-1.2,0-2.2,0.4-2.9,1.1c-0.7,0.7-1.1,1.8-1.1,3.2V45H274.3z"/>
				<path class="st3" d="M289.5,45v-1.6l11.3-14l0.3,0.9h-11.4v-2.1h13.6v1.6l-11.3,14l-0.3-0.9h11.9V45H289.5z"/>
				<path class="st3" d="M311.5,45.1c-1.3,0-2.4-0.3-3.4-0.8c-1-0.6-1.8-1.3-2.4-2.3c-0.6-1-0.9-2.1-0.9-3.3c0-1.3,0.3-2.4,0.9-3.4
					c0.6-1,1.4-1.7,2.4-2.3c1-0.6,2.1-0.8,3.4-0.8c1.3,0,2.4,0.3,3.4,0.8c1,0.6,1.8,1.3,2.4,2.3c0.6,1,0.9,2.1,0.9,3.4
					c0,1.3-0.3,2.4-0.9,3.4c-0.6,1-1.4,1.7-2.4,2.3C313.9,44.8,312.8,45.1,311.5,45.1z M311.5,43.1c0.8,0,1.5-0.2,2.2-0.6
					c0.6-0.4,1.2-0.9,1.5-1.6c0.4-0.7,0.6-1.5,0.6-2.4c0-0.9-0.2-1.7-0.6-2.4s-0.9-1.2-1.5-1.5c-0.6-0.4-1.4-0.6-2.2-0.6
					c-0.8,0-1.5,0.2-2.2,0.6c-0.6,0.4-1.2,0.9-1.5,1.5s-0.6,1.5-0.6,2.4c0,0.9,0.2,1.7,0.6,2.4c0.4,0.7,0.9,1.2,1.5,1.6
					C310,42.9,310.7,43.1,311.5,43.1z"/>
				<path class="st3" d="M328.1,32.1c1,0,2,0.2,2.7,0.6c0.8,0.4,1.4,1,1.9,1.8c0.4,0.8,0.7,1.8,0.7,3.1V45h-2.3v-7.1
					c0-1.2-0.3-2.2-0.9-2.8c-0.6-0.6-1.4-0.9-2.5-0.9c-0.8,0-1.5,0.2-2.1,0.5s-1.1,0.8-1.4,1.4c-0.3,0.6-0.5,1.4-0.5,2.3V45h-2.3
					V32.2h2.2v3.4l-0.4-0.9c0.4-0.8,1.1-1.5,1.9-1.9S327,32.1,328.1,32.1z"/>
				<path class="st3" d="M341.4,45.1c-0.9,0-1.8-0.2-2.5-0.5s-1.3-0.8-1.6-1.3c-0.4-0.6-0.6-1.2-0.6-1.9c0-0.7,0.2-1.3,0.5-1.9
					c0.3-0.6,0.9-1,1.6-1.3s1.7-0.5,3-0.5h4v1.7h-3.9c-1.2,0-1.9,0.2-2.3,0.6c-0.4,0.4-0.6,0.8-0.6,1.4c0,0.6,0.2,1.1,0.7,1.5
					c0.5,0.4,1.2,0.6,2.1,0.6c0.9,0,1.6-0.2,2.3-0.6c0.6-0.4,1.1-0.9,1.4-1.7l0.5,1.6c-0.3,0.8-0.8,1.3-1.6,1.8
					C343.5,44.9,342.6,45.1,341.4,45.1z M345.6,45v-2.7l-0.1-0.5v-4.6c0-1-0.3-1.7-0.9-2.3c-0.6-0.5-1.4-0.8-2.6-0.8
					c-0.8,0-1.5,0.1-2.2,0.4c-0.7,0.2-1.3,0.6-1.8,1l-1-1.7c0.7-0.5,1.4-0.9,2.4-1.2s1.9-0.4,2.9-0.4c1.7,0,3.1,0.4,4,1.3
					c0.9,0.8,1.4,2.1,1.4,3.9V45H345.6z"/>
			</g>
		</g>
	</g>
</g>
</svg>
