<?xml version="1.0" encoding="utf-8"?>
<!-- Generator: Adobe Illustrator 24.0.2, SVG Export Plug-In . SVG Version: 6.00 Build 0)  -->
<svg version="1.1" id="Capa_1" xmlns="http://www.w3.org/2000/svg" xmlns:xlink="http://www.w3.org/1999/xlink" x="0px" y="0px"
	 viewBox="0 0 550 71" style="enable-background:new 0 0 550 71;" xml:space="preserve">
<style type="text/css">
	.st0{opacity:0.15;fill:#143F8B;enable-background:new    ;}
	.st1{fill:#E3007E;}
	.st2{fill:#FFFFFF;}
	.st3{fill:#606060;}
	.st4{fill:#00AEEF;}
	.st5{clip-path:url(#SVGID_2_);}
</style>
<g>
	<g>
		<path class="st0" d="M442.3,20.8h76.2c3,0,5.4,6.9,5.4,15.5v1c0,8.5-2.4,15.5-5.4,15.5h-76.2c-3,0-5.4-6.9-5.4-15.5v-1
			C437,27.7,439.4,20.8,442.3,20.8z"/>
		<circle class="st1" cx="426.1" cy="35.5" r="29"/>
		<g>
			<g>
				<path class="st2" d="M412.7,46.9c-1.5,0-3,0-4.4,0c-0.3,0-0.5,0.1-0.7,0c-0.3-0.2-0.8-0.4-0.9-0.7s0-0.9,0.3-1.1
					c3.7-3.6,5.2-8.2,5.6-13.1c0.3-2.8,0.1-5.6,0.2-8.5c0-1.1,0.3-1.4,1.4-1.4c1.5,0,3.1,0,4.6,0c0,0,0.1,0,0.2-0.1
					c0.2-0.7-0.2-2,1.1-1.9c1.3,0,0.9,1.2,1.1,2c1.7,0,3.4,0,5.1,0c0.1-0.8-0.2-2,1.1-2c1.3,0,1,1.1,1,2c1.7,0,3.4,0,5.2,0
					c0.2-0.8-0.2-2.1,1.2-2c1.2,0.1,0.9,1.1,0.9,2c0.2,0,0.5,0,0.7,0c1.4,0,2.8,0,4.1,0c0.9,0,1.3,0.4,1.3,1.3c0,8.8,0,17.6,0,26.4
					c0,0.9-0.4,1.3-1.5,1.3c-7.2,0-14.3,0-21.5,0c-1.5,0-3.1,0-4.6,0c-1.2,0-1.5-0.3-1.5-1.5C412.7,48.7,412.7,47.8,412.7,46.9z
					 M409.9,44.8c0.3,0,0.5,0,0.7,0c7.6,0,15.2,0,22.8,0c0.4,0,0.8-0.2,1-0.5c2.5-2.7,3.9-6,4.6-9.6c0.3-1.4,0.4-2.9,0.6-4.4
					c-8.4,0-16.7,0-25,0C414.5,35.6,413.1,40.5,409.9,44.8z M428.3,24.2c-0.1,0.8,0.2,1.9-1,2c-1.4,0.1-1-1.2-1.1-2
					c-1.7,0-3.4,0-5.1,0c-0.2,0.8,0.2,1.9-1,2c-1.4,0.1-1-1.2-1.2-2c-1.4,0-2.7,0-4.1,0c0,1.4,0,2.7,0,4c8.3,0,16.6,0,24.8,0
					c0-1.4,0-2.7,0-4c-1.4,0-2.7,0-4,0c-0.1,0.8,0.2,2-1.1,2c-1.3,0-0.9-1.2-1-2C431.7,24.2,430,24.2,428.3,24.2z M439.6,40.4
					L439.6,40.4c-0.2,0.2-0.3,0.4-0.4,0.5c-0.9,1.9-2.1,3.7-3.6,5.3c-0.5,0.5-1,0.7-1.7,0.7c-6.1,0-12.2,0-18.3,0
					c-0.3,0-0.6,0-0.9,0c0,0.7,0,1.4,0,2c8.3,0,16.6,0,24.9,0C439.6,46,439.6,43.2,439.6,40.4z"/>
			</g>
		</g>
		<g>
			<path class="st3" d="M460,44.7V43l6.8-6.6c0.6-0.6,1.1-1.1,1.4-1.5s0.5-0.8,0.6-1.2c0.1-0.4,0.2-0.7,0.2-1.1c0-0.9-0.3-1.5-0.9-2
				c-0.6-0.5-1.5-0.7-2.7-0.7c-0.9,0-1.7,0.1-2.4,0.4c-0.7,0.3-1.3,0.8-1.9,1.4l-1.6-1.4c0.6-0.8,1.5-1.4,2.6-1.9
				c1.1-0.4,2.3-0.7,3.6-0.7c1.2,0,2.2,0.2,3,0.6s1.5,0.9,2,1.6s0.7,1.5,0.7,2.5c0,0.5-0.1,1.1-0.2,1.6c-0.1,0.5-0.4,1.1-0.8,1.7
				c-0.4,0.6-1,1.3-1.7,2l-6.1,5.9l-0.6-0.9h10.2v2.1H460z"/>
			<path class="st3" d="M480.9,44.8c-1.3,0-2.5-0.3-3.5-1c-1-0.7-1.8-1.6-2.4-2.9c-0.6-1.3-0.9-2.8-0.9-4.7c0-1.8,0.3-3.4,0.9-4.7
				c0.6-1.3,1.4-2.3,2.4-2.9c1-0.7,2.2-1,3.5-1c1.3,0,2.5,0.3,3.5,1c1,0.7,1.9,1.6,2.4,2.9s0.9,2.8,0.9,4.7c0,1.8-0.3,3.4-0.9,4.7
				c-0.6,1.3-1.4,2.3-2.4,2.9C483.3,44.5,482.2,44.8,480.9,44.8z M480.9,42.7c0.9,0,1.7-0.2,2.3-0.7c0.7-0.5,1.2-1.2,1.6-2.2
				c0.4-1,0.6-2.2,0.6-3.6c0-1.4-0.2-2.6-0.6-3.6c-0.4-1-0.9-1.7-1.6-2.2c-0.7-0.5-1.4-0.7-2.3-0.7c-0.9,0-1.7,0.2-2.3,0.7
				c-0.7,0.5-1.2,1.2-1.6,2.2s-0.6,2.2-0.6,3.6c0,1.4,0.2,2.6,0.6,3.6s0.9,1.7,1.6,2.2C479.2,42.5,480,42.7,480.9,42.7z"/>
			<path class="st3" d="M489.8,44.7V43l6.8-6.6c0.6-0.6,1.1-1.1,1.4-1.5s0.5-0.8,0.6-1.2c0.1-0.4,0.2-0.7,0.2-1.1
				c0-0.9-0.3-1.5-0.9-2c-0.6-0.5-1.5-0.7-2.7-0.7c-0.9,0-1.7,0.1-2.4,0.4c-0.7,0.3-1.3,0.8-1.9,1.4l-1.6-1.4
				c0.6-0.8,1.5-1.4,2.6-1.9c1.1-0.4,2.3-0.7,3.6-0.7c1.2,0,2.2,0.2,3,0.6s1.5,0.9,2,1.6s0.7,1.5,0.7,2.5c0,0.5-0.1,1.1-0.2,1.6
				c-0.1,0.5-0.4,1.1-0.8,1.7c-0.4,0.6-1,1.3-1.7,2l-6.1,5.9l-0.6-0.9h10.2v2.1H489.8z"/>
			<path class="st3" d="M506.6,44.7V28.8l1,1.1h-4.8v-2.1h6.2v16.8H506.6z"/>
		</g>
	</g>
	<g>
		<path class="st0" d="M85.1,19.7h278.3c10.7,0,19.5,6.9,19.5,15.5v1c0,8.5-8.8,15.5-19.5,15.5H85.1c-10.7,0-19.5-6.9-19.5-15.5v-1
			C65.6,26.6,74.3,19.7,85.1,19.7z"/>
		<g>
			<circle class="st4" cx="59.5" cy="35.5" r="33.4"/>
			<path class="st2" d="M81.5,44.6c0.4-0.1,0.9-0.1,1.3-0.1c0.8,0,1.1-0.3,1.1-1c0-2.8,0.3-4-3-4h-32c-6.3-0.1-17-1.7-17,7.6
				c0,3.8,2.8,7.1,6.6,7.7c1.6,0.2,3.3,0.1,4.9,0.1h0.7v0.8c0,0.5,0.3,0.9,0.8,0.9c0.3,0,0.6-0.1,0.7-0.3l1.1-1.2
				c0.4-0.4,1.1-0.4,1.5,0l1.2,1.2c0.3,0.4,0.9,0.4,1.2,0.1c0.2-0.2,0.3-0.5,0.3-0.7c0-0.3,0-0.5,0-0.8h31.5c0.2,0,0.4,0,0.5,0
				c0.5,0,0.8-0.4,0.9-0.8l0,0c0-1.2,0-2.3,0-3.5c0-0.5-0.3-0.9-0.8-0.9c0,0,0,0-0.1,0c-0.3,0-0.7,0-1,0c-1.3-0.1-2.3-1-2.4-2.3
				C79.4,46.1,80.2,44.9,81.5,44.6z M40.5,53.1c-2.2,0.3-4.5-0.7-5.8-2.5c-1.5-1.9-1.6-4.4-0.4-6.5c1.2-2.2,3.6-3.5,6.1-3.1v1.7
				c-1.6-0.2-3.2,0.4-4.2,1.7c-0.7,0.8-1,1.9-0.9,3c0.1,2.5,1.9,3.8,5.2,4.1C40.5,51.5,40.5,53.1,40.5,53.1z M44,53.1h-1.7v-1.7H44
				V53.1z M49.2,53.7c-0.4-0.4-0.6-0.7-1-1c-0.3-0.4-0.8-0.5-1.2-0.2c-0.1,0.1-0.2,0.1-0.2,0.2c-0.3,0.3-0.6,0.6-1,1V48h3.4V53.7z
				 M39.7,46.2v1.7H44v1.7c-0.1,0-0.3,0-0.4,0h-3.8c-1.4,0-2.6-1.2-2.6-2.6s1.2-2.6,2.6-2.6l0,0h38.8l-0.7,1.8H39.7z M51,48h26.9
				l0.8,1.7H51V48z M82.1,51.5v1.7H51v-1.7H82.1z M42.4,42.7V41h39.8v1.7H42.4z"/>
			<g>
				<g>
					<g>
						<g>
							<defs>
								<rect id="SVGID_1_" x="31.9" y="9.1" width="55" height="29.4"/>
							</defs>
							<clipPath id="SVGID_2_">
								<use xlink:href="#SVGID_1_"  style="overflow:visible;"/>
							</clipPath>
							<g class="st5">
								<path class="st2" d="M81.7,26.5c-0.1-0.3-0.2-0.5-0.3-0.7c-0.8-1.6-2.8-2.4-4.6-2.5c1.7-2.3,1.3-5.6-0.9-7.4
									c-2.4-1.6-5.6-1.1-7.3,1.3c-2.4-1.3-5.4-0.6-6.9,1.6c-1.3-0.5-2.8-0.6-4.2-0.3c-0.3,0.1-0.6,0.1-0.8,0.1
									c-0.2-0.1-0.5-0.3-0.6-0.5c-1.6-1.7-4.1-2.1-6.2-1c-0.5-0.5-1-0.9-1.5-1.4c-2.2-1.6-5.4-1.1-7,1.1c-0.3,0.4-0.5,0.8-0.6,1.2
									c-0.6,1.8-0.3,3.7,0.9,5.1c-1.9-0.5-3.9,1-4.7,2.8c-0.7,1.8-1,3.8-0.9,5.8c-0.1,1.2,0,2.5,0.5,3.6c0.5,1.2,1.8,1.8,3,1.4
									v6.8c-0.1,0.7,0,1.4,0.3,2c0.5,1.3,2,1.9,3.3,1.3c0.5-0.2,0.9-0.5,1.1-0.9c0.8-1.2,0.4-2.8,0.4-4.3c0-0.7,0.4-1.5,1-1.4
									s0.8,0.9,0.8,1.5l-0.1,3.1c-0.1,0.9,0.1,1.8,0.4,2.6c0.8,1.2,2.5,1.5,3.7,0.7c0.3-0.2,0.5-0.4,0.7-0.7
									c0.8-1.3,0.3-2.9,0.4-4.3c0-0.6,0.3-1.3,0.9-1.3c0.6,0,0.9,0.9,0.9,1.6v3.1c-0.1,0.9,0.1,1.9,0.5,2.7
									c0.8,1.2,2.4,1.5,3.6,0.6c0.2-0.1,0.3-0.3,0.5-0.4c1-1.3,0.5-3.1,0.6-4.6c0-0.5,0.2-1,0.6-1.2c0.7-0.2,1.1,0.8,1.1,1.5
									c0,1.5-0.4,3,0.5,4.3c0.9,1.1,2.5,1.4,3.6,0.5c0.1-0.1,0.3-0.2,0.4-0.4c0.6-1,0.8-2.2,0.7-3.3l-0.1-2.5
									c-0.1-0.4,0-0.9,0.2-1.3c0.2-0.4,0.7-0.6,1.1-0.4c0.2,0.2,0.4,0.5,0.4,0.8c0.3,1.7-0.4,3.7,0.7,5c0.9,1.1,2.5,1.2,3.6,0.3
									c0.1-0.1,0.1-0.1,0.2-0.2c0.7-1,0.9-2.2,0.8-3.4l-0.5-2.4c0-0.8,0.3-1.8,1-1.7c0.5,0.1,0.7,0.7,0.7,1.2
									c0.1,1.6-0.4,3.4,0.6,4.7c0.9,1.1,2.6,1.2,3.6,0.2c0.1-0.1,0.2-0.2,0.3-0.3c0.5-0.9,0.7-1.9,0.6-3v-6.4
									c1.3,0.4,2.6-0.3,3.2-1.5c0.2-0.7,0.3-1.4,0.2-2.1l-0.2-4.4C81.9,28,81.9,27.3,81.7,26.5z M74.4,16.9c1.6,1,2.1,3.1,1.2,4.7
									c-0.9,1.4-2.6,2-4.2,1.4c-0.2-0.1-0.4-0.2-0.4-0.5c0.3-1.4-0.1-2.9-1-4l-0.2-0.2C70.7,16.7,72.7,16,74.4,16.9z M67.6,18.6
									c1.6,0.9,2.2,3,1.3,4.6c-0.9,1.5-2.7,2.1-4.3,1.5c-0.2-0.1-0.5-0.2-0.4-0.5c0.3-1.5-0.1-3.1-1.2-4.2
									C63.9,18.4,66,17.8,67.6,18.6z M59.2,19.9c1.9,0,3.4,1.6,3.4,3.4c0,1.9-1.6,3.4-3.4,3.4c-1.9,0-3.4-1.6-3.4-3.4
									C55.8,21.4,57.3,19.9,59.2,19.9z M51.1,18.4c1.6-0.6,3.4,0,4.2,1.5c-1,1.2-1.4,2.7-1.2,4.3c0,0.1-0.2,0.4-0.4,0.5
									c-1.7,0.8-3.7,0.1-4.5-1.6c0,0,0-0.1-0.1-0.1c-0.7-1.7,0.1-3.7,1.8-4.5C51,18.5,51.1,18.5,51.1,18.4z M42.2,19.2
									c0.2-1.3,1.2-2.3,2.5-2.6c1.5-0.4,3.1,0.3,3.8,1.7c-1,1.2-1.4,2.7-1.2,4.3c0,0.1-0.2,0.4-0.4,0.5c-1.7,0.8-3.7,0-4.5-1.7
									C42.1,20.7,42,19.9,42.2,19.2L42.2,19.2z M44.1,39.1c-0.7,0.4-1.2,1.2-1.2,2.1c0,1.1,0,2.1,0,3.2c0,0.7-0.3,1.1-0.9,1.1
									c-0.6,0-0.8-0.4-0.8-1.1V28.5h-1.7V34c0,0.1,0,0.3,0,0.4c0,0.5-0.4,0.8-0.8,0.8c-0.5,0-0.8-0.3-0.9-0.8c0,0,0,0,0-0.1
									c0-2.1-0.1-4.2,0-6.3c0.1-1.7,1.6-3.1,3.3-3.1c1.3,0,2.5,0,3.7,0c1.1,0.1,2.2-0.2,3.1-0.7l0.4,0.6c-0.6,0.1-1.1,0.2-1.7,0.3
									c-2.2,0.6-3.8,2.5-3.8,4.8c0,2,0,3.9,0,5.9c-0.1,1.2,0.7,2.2,1.8,2.6l0.2,0.1C44.7,38.8,44.4,38.9,44.1,39.1z M51.4,40.6
									c-1,0.4-1.7,1.3-1.6,2.4c0,1.1,0,2.1,0,3.2c0,0.7-0.3,1.1-0.9,1.1c-0.6,0-0.8-0.4-0.8-1.1c0-5.1,0-10.2,0-15.3v-0.7h-1.7
									v5.7c0,0.7-0.3,1.1-0.8,1.1s-0.9-0.4-0.9-1.1c0-1.9,0-3.8,0-5.6c0-1.9,1.4-3.4,3.3-3.5h0.1c1,0,2,0,3,0
									c1.3,0.1,2.6-0.1,3.7-0.7l0.4,0.6c-0.6,0.1-1.2,0.1-1.7,0.3c-2.2,0.6-3.7,2.5-3.8,4.7c0,2.1,0,4.1,0,6.2
									c0,1.2,0.9,2.3,2.1,2.5L51.4,40.6z M65.9,38.7c-0.5,0-0.8-0.4-0.8-1c0-1.7,0-3.5,0-5.2v-0.6h-1.7v16c0,0.6-0.3,1-0.8,1
									s-0.9-0.4-0.9-0.8c0-0.1,0-0.1,0-0.2c0-1.1,0-2.2,0-3.3c0-1.4-1.1-2.5-2.6-2.5c-1.4,0-2.5,1.1-2.5,2.5c0,1.1,0,2.2,0,3.3
									c0,0.7-0.3,1.1-0.8,1.1s-0.9-0.5-0.9-1.2c0-5.1,0-10.2,0-15.3v-0.7h-1.7v5.8c0.1,0.5-0.3,0.9-0.7,1h-0.1
									c-0.5,0-0.9-0.4-0.9-1c0-2,0-4,0-5.9c0-1.8,1.5-3.3,3.4-3.3c2.9,0,5.8,0,8.6,0c1.9,0,3.4,1.5,3.4,3.4c0,2,0,3.9,0,5.9
									C66.8,38.3,66.5,38.7,65.9,38.7z M71.9,35.9c0-1.7,0-3.5,0-5.2v-0.6h-1.7v15.6c0,0.1,0,0.3,0,0.4c0.1,0.5-0.3,0.9-0.8,1
									h-0.1c-0.5,0-0.9-0.4-0.9-0.9c0,0,0,0,0-0.1c0-0.9,0-1.9,0-2.8c0.2-1.4-0.7-2.7-2.1-3c1.4-0.3,2.3-1.7,2.1-3.1
									c0-1.7,0-3.4,0-5.1c0.2-2.8-2-5.3-4.8-5.4c-0.2,0-0.3,0-0.5,0h-0.2l0.5-0.6c1.1,0.6,2.4,0.8,3.7,0.7c1,0,2,0,3,0
									c1.9,0,3.4,1.5,3.5,3.3v0.1c0,1.9,0,3.8,0,5.7c0,0.7-0.3,1.1-0.9,1S71.9,36.6,71.9,35.9z M80.4,34.3c0,0.6-0.3,1-0.8,1
									s-0.8-0.4-0.8-1c0-1.7,0-3.4,0-5.2v-0.6h-1.7v15.6c0,0.2,0,0.3,0,0.5c0,0.5-0.4,0.9-0.8,0.9c-0.5,0-0.9-0.3-0.9-0.8
									c0,0,0,0,0-0.1c0-1,0-2,0-3c0.2-1.4-0.7-2.6-2.1-3l0.5-0.2c0.9-0.4,1.6-1.3,1.6-2.3c0-2.1,0-4.2,0-6.2
									c-0.1-2.7-2.2-4.8-4.9-4.9h-0.6l0.5-0.6c1.3,0.8,2.7,0.7,4.1,0.7c0.9,0,1.8,0,2.7,0c1.8,0,3.3,1.5,3.4,3.4
									C80.5,30.3,80.5,32.3,80.4,34.3z"/>
							</g>
						</g>
					</g>
				</g>
			</g>
		</g>
		<g>
			<g>
				<g>
					<g>
						<path class="st3" d="M105,39.7h9.8v2.1h-12.2V25h11.9v2.1H105V39.7z M104.8,32.3h8.6v2h-8.6V32.3z"/>
						<path class="st3" d="M123.5,41.3c-1.2,0-2.3-0.3-3.3-0.8c-1-0.5-1.7-1.2-2.3-2.2c-0.6-0.9-0.9-2-0.9-3.2
							c0-1.2,0.3-2.3,0.9-3.2s1.3-1.6,2.3-2.1c1-0.5,2.1-0.8,3.3-0.8c1.1,0,2.1,0.2,3,0.7c0.9,0.4,1.6,1.1,2.1,2s0.8,2.1,0.8,3.5
							c0,1.4-0.3,2.5-0.8,3.4s-1.3,1.6-2.1,2.1S124.6,41.3,123.5,41.3z M123.8,46.6c-1.2,0-2.3-0.2-3.4-0.5c-1.1-0.3-2-0.8-2.7-1.4
							l1.1-1.8c0.6,0.5,1.3,0.9,2.2,1.2c0.9,0.3,1.8,0.4,2.7,0.4c1.5,0,2.6-0.4,3.3-1.1c0.7-0.7,1.1-1.8,1.1-3.2v-2.7l0.2-2.5
							l-0.1-2.5v-3.5h2.2v11c0,2.2-0.6,3.9-1.7,4.9C127.6,46.1,125.9,46.6,123.8,46.6z M123.7,39.3c0.8,0,1.6-0.2,2.3-0.5
							c0.7-0.4,1.2-0.8,1.5-1.5c0.4-0.6,0.6-1.3,0.6-2.2c0-0.8-0.2-1.5-0.6-2.2c-0.4-0.6-0.9-1.1-1.5-1.5c-0.7-0.3-1.4-0.5-2.3-0.5
							c-0.8,0-1.6,0.2-2.3,0.5c-0.7,0.3-1.2,0.8-1.6,1.5s-0.6,1.3-0.6,2.2c0,0.8,0.2,1.5,0.6,2.2s0.9,1.1,1.6,1.5
							C122.1,39.1,122.9,39.3,123.7,39.3z"/>
						<path class="st3" d="M134.8,41.8V29.1h2.2v3.5l-0.2-0.9c0.4-0.9,0.9-1.6,1.8-2c0.8-0.5,1.9-0.7,3.1-0.7v2.2
							c-0.1,0-0.2,0-0.3,0c-0.1,0-0.2,0-0.3,0c-1.2,0-2.2,0.4-2.9,1.1c-0.7,0.7-1.1,1.8-1.1,3.2v6.3H134.8z"/>
						<path class="st3" d="M150,41.9c-1.4,0-2.6-0.3-3.6-0.8c-1-0.6-1.8-1.3-2.4-2.3c-0.6-1-0.9-2.1-0.9-3.4c0-1.3,0.3-2.4,0.8-3.4
							c0.6-1,1.3-1.7,2.3-2.3c1-0.6,2.1-0.8,3.3-0.8c1.2,0,2.3,0.3,3.3,0.8c0.9,0.5,1.7,1.3,2.2,2.3c0.5,1,0.8,2.1,0.8,3.4
							c0,0.1,0,0.2,0,0.3s0,0.2,0,0.4h-10.8v-1.7h9.6l-0.9,0.6c0-0.8-0.2-1.5-0.5-2.2c-0.4-0.6-0.8-1.1-1.5-1.5
							c-0.6-0.4-1.3-0.5-2.1-0.5c-0.8,0-1.5,0.2-2.1,0.5c-0.6,0.4-1.1,0.9-1.5,1.5c-0.4,0.6-0.5,1.4-0.5,2.2v0.4
							c0,0.8,0.2,1.6,0.6,2.3c0.4,0.7,0.9,1.2,1.6,1.5c0.7,0.4,1.5,0.6,2.4,0.6c0.8,0,1.4-0.1,2.1-0.4s1.2-0.6,1.6-1.2l1.3,1.5
							c-0.6,0.7-1.3,1.2-2.1,1.5S151,41.9,150,41.9z"/>
						<path class="st3" d="M162.6,41.9c-1.1,0-2.1-0.1-3-0.4c-1-0.3-1.7-0.6-2.2-1.1l1-1.8c0.5,0.4,1.2,0.7,2,0.9
							c0.8,0.3,1.6,0.4,2.4,0.4c1.1,0,1.8-0.2,2.3-0.5c0.5-0.3,0.7-0.7,0.7-1.3c0-0.4-0.1-0.7-0.4-0.9c-0.3-0.2-0.7-0.4-1.1-0.5
							c-0.5-0.1-1-0.2-1.6-0.3c-0.6-0.1-1.2-0.2-1.7-0.3c-0.6-0.1-1.1-0.3-1.6-0.6c-0.5-0.2-0.9-0.6-1.2-1s-0.4-1-0.4-1.8
							c0-0.8,0.2-1.4,0.6-2c0.4-0.6,1-1,1.8-1.3c0.8-0.3,1.7-0.5,2.8-0.5c0.8,0,1.7,0.1,2.5,0.3c0.9,0.2,1.6,0.5,2.1,0.9l-1,1.8
							c-0.6-0.4-1.2-0.6-1.8-0.8c-0.6-0.1-1.2-0.2-1.9-0.2c-1,0-1.8,0.2-2.3,0.5s-0.7,0.7-0.7,1.3c0,0.4,0.1,0.8,0.4,1
							c0.3,0.2,0.7,0.4,1.2,0.5c0.5,0.1,1,0.2,1.6,0.3c0.6,0.1,1.2,0.2,1.7,0.3s1.1,0.3,1.6,0.6c0.5,0.2,0.9,0.6,1.2,1
							c0.3,0.4,0.4,1,0.4,1.7c0,0.8-0.2,1.4-0.7,2c-0.4,0.6-1.1,1-1.9,1.3C164.8,41.8,163.8,41.9,162.6,41.9z"/>
						<path class="st3" d="M176.5,41.9c-1.3,0-2.4-0.3-3.4-0.8c-1-0.6-1.8-1.3-2.4-2.3c-0.6-1-0.9-2.1-0.9-3.3
							c0-1.3,0.3-2.4,0.9-3.4s1.4-1.7,2.4-2.3c1-0.6,2.1-0.8,3.4-0.8c1.3,0,2.4,0.3,3.4,0.8c1,0.6,1.8,1.3,2.4,2.3
							c0.6,1,0.9,2.1,0.9,3.4c0,1.3-0.3,2.4-0.9,3.4c-0.6,1-1.4,1.7-2.4,2.3C178.9,41.7,177.7,41.9,176.5,41.9z M176.5,39.9
							c0.8,0,1.5-0.2,2.2-0.6c0.6-0.4,1.2-0.9,1.5-1.6c0.4-0.7,0.6-1.5,0.6-2.4c0-0.9-0.2-1.7-0.6-2.4s-0.9-1.2-1.5-1.5
							c-0.6-0.4-1.4-0.6-2.2-0.6c-0.8,0-1.5,0.2-2.2,0.6c-0.6,0.4-1.2,0.9-1.5,1.5s-0.6,1.5-0.6,2.4c0,0.9,0.2,1.7,0.6,2.4
							c0.4,0.7,0.9,1.2,1.5,1.6C174.9,39.7,175.7,39.9,176.5,39.9z"/>
						<path class="st3" d="M198,41.9c-1.2,0-2.3-0.3-3.3-0.8s-1.7-1.3-2.3-2.3c-0.6-1-0.8-2.1-0.8-3.4c0-1.3,0.3-2.4,0.8-3.4
							c0.6-1,1.3-1.7,2.3-2.3c1-0.5,2.1-0.8,3.3-0.8c1.1,0,2,0.2,2.9,0.7c0.9,0.5,1.6,1.2,2.1,2.2c0.5,1,0.8,2.2,0.8,3.6
							c0,1.4-0.3,2.6-0.8,3.6s-1.2,1.7-2.1,2.2C200.1,41.7,199.1,41.9,198,41.9z M198.2,39.9c0.8,0,1.5-0.2,2.2-0.6
							c0.6-0.4,1.2-0.9,1.5-1.6c0.4-0.7,0.6-1.5,0.6-2.4c0-0.9-0.2-1.7-0.6-2.4s-0.9-1.2-1.5-1.5c-0.6-0.4-1.4-0.6-2.2-0.6
							c-0.8,0-1.5,0.2-2.2,0.6c-0.6,0.4-1.2,0.9-1.5,1.5s-0.6,1.5-0.6,2.4c0,0.9,0.2,1.7,0.6,2.4c0.4,0.7,0.9,1.2,1.5,1.6
							C196.6,39.7,197.3,39.9,198.2,39.9z M202.5,41.8v-3.4l0.1-3l-0.2-3V24h2.3v17.8H202.5z"/>
						<path class="st3" d="M214.7,41.9c-1.4,0-2.6-0.3-3.6-0.8c-1-0.6-1.8-1.3-2.4-2.3c-0.6-1-0.9-2.1-0.9-3.4
							c0-1.3,0.3-2.4,0.8-3.4s1.3-1.7,2.3-2.3c1-0.6,2.1-0.8,3.3-0.8c1.2,0,2.3,0.3,3.3,0.8c0.9,0.5,1.7,1.3,2.2,2.3
							c0.5,1,0.8,2.1,0.8,3.4c0,0.1,0,0.2,0,0.3s0,0.2,0,0.4h-10.8v-1.7h9.6l-0.9,0.6c0-0.8-0.2-1.5-0.5-2.2
							c-0.4-0.6-0.8-1.1-1.5-1.5c-0.6-0.4-1.3-0.5-2.1-0.5c-0.8,0-1.5,0.2-2.1,0.5c-0.6,0.4-1.1,0.9-1.5,1.5
							c-0.4,0.6-0.5,1.4-0.5,2.2v0.4c0,0.8,0.2,1.6,0.6,2.3c0.4,0.7,0.9,1.2,1.6,1.5s1.5,0.6,2.4,0.6c0.8,0,1.4-0.1,2.1-0.4
							s1.2-0.6,1.6-1.2l1.3,1.5c-0.6,0.7-1.3,1.2-2.1,1.5S215.8,41.9,214.7,41.9z"/>
						<path class="st3" d="M233,39.7h9.8v2.1h-12.2V25h11.9v2.1H233V39.7z M232.7,32.3h8.6v2h-8.6V32.3z"/>
						<path class="st3" d="M249.8,41.9c-1.1,0-2.1-0.1-3-0.4c-1-0.3-1.7-0.6-2.2-1.1l1-1.8c0.5,0.4,1.2,0.7,2,0.9
							c0.8,0.3,1.6,0.4,2.4,0.4c1.1,0,1.8-0.2,2.3-0.5c0.5-0.3,0.7-0.7,0.7-1.3c0-0.4-0.1-0.7-0.4-0.9c-0.3-0.2-0.7-0.4-1.1-0.5
							c-0.5-0.1-1-0.2-1.6-0.3c-0.6-0.1-1.2-0.2-1.7-0.3c-0.6-0.1-1.1-0.3-1.6-0.6c-0.5-0.2-0.9-0.6-1.2-1s-0.4-1-0.4-1.8
							c0-0.8,0.2-1.4,0.6-2c0.4-0.6,1-1,1.8-1.3c0.8-0.3,1.7-0.5,2.8-0.5c0.8,0,1.7,0.1,2.5,0.3c0.9,0.2,1.6,0.5,2.1,0.9l-1,1.8
							c-0.6-0.4-1.2-0.6-1.8-0.8c-0.6-0.1-1.2-0.2-1.9-0.2c-1,0-1.8,0.2-2.3,0.5s-0.7,0.7-0.7,1.3c0,0.4,0.1,0.8,0.4,1
							c0.3,0.2,0.7,0.4,1.2,0.5c0.5,0.1,1,0.2,1.6,0.3c0.6,0.1,1.2,0.2,1.7,0.3s1.1,0.3,1.6,0.6c0.5,0.2,0.9,0.6,1.2,1
							c0.3,0.4,0.4,1,0.4,1.7c0,0.8-0.2,1.4-0.7,2c-0.4,0.6-1.1,1-1.9,1.3C251.9,41.8,250.9,41.9,249.8,41.9z"/>
						<path class="st3" d="M256.3,31v-1.9h8.1V31H256.3z M262.5,41.9c-1.3,0-2.3-0.3-3-1c-0.7-0.7-1.1-1.7-1.1-3V26.3h2.3v11.6
							c0,0.7,0.2,1.2,0.5,1.6s0.8,0.6,1.5,0.6c0.7,0,1.3-0.2,1.8-0.6l0.7,1.7c-0.4,0.3-0.8,0.5-1.3,0.7
							C263.6,41.9,263.1,41.9,262.5,41.9z"/>
						<path class="st3" d="M273.5,41.9c-1.1,0-2-0.2-2.9-0.6c-0.8-0.4-1.5-1-1.9-1.8s-0.7-1.9-0.7-3.1v-7.3h2.3v7.1
							c0,1.2,0.3,2.2,0.9,2.8c0.6,0.6,1.4,0.9,2.5,0.9c0.8,0,1.5-0.2,2.1-0.5s1-0.8,1.4-1.4s0.5-1.4,0.5-2.3v-6.6h2.3v12.7h-2.2
							v-3.4l0.4,0.9c-0.4,0.8-1,1.5-1.9,2S274.5,41.9,273.5,41.9z"/>
						<path class="st3" d="M289.6,41.9c-1.2,0-2.3-0.3-3.3-0.8s-1.7-1.3-2.3-2.3c-0.6-1-0.8-2.1-0.8-3.4c0-1.3,0.3-2.4,0.8-3.4
							c0.6-1,1.3-1.7,2.3-2.3c1-0.5,2.1-0.8,3.3-0.8c1.1,0,2,0.2,2.9,0.7c0.9,0.5,1.6,1.2,2.1,2.2c0.5,1,0.8,2.2,0.8,3.6
							c0,1.4-0.3,2.6-0.8,3.6s-1.2,1.7-2.1,2.2C291.7,41.7,290.7,41.9,289.6,41.9z M289.8,39.9c0.8,0,1.5-0.2,2.2-0.6
							c0.6-0.4,1.2-0.9,1.5-1.6c0.4-0.7,0.6-1.5,0.6-2.4c0-0.9-0.2-1.7-0.6-2.4s-0.9-1.2-1.5-1.5c-0.6-0.4-1.4-0.6-2.2-0.6
							c-0.8,0-1.5,0.2-2.2,0.6c-0.6,0.4-1.2,0.9-1.5,1.5s-0.6,1.5-0.6,2.4c0,0.9,0.2,1.7,0.6,2.4c0.4,0.7,0.9,1.2,1.5,1.6
							C288.3,39.7,289,39.9,289.8,39.9z M294.1,41.8v-3.4l0.1-3l-0.2-3V24h2.3v17.8H294.1z"/>
						<path class="st3" d="M301.9,26.6c-0.4,0-0.8-0.1-1.1-0.4s-0.4-0.6-0.4-1.1c0-0.4,0.1-0.8,0.4-1.1c0.3-0.3,0.7-0.4,1.1-0.4
							s0.8,0.1,1.1,0.4c0.3,0.3,0.4,0.6,0.4,1c0,0.4-0.1,0.8-0.4,1.1C302.7,26.5,302.3,26.6,301.9,26.6z M300.7,41.8V29.1h2.3v12.7
							H300.7z"/>
						<path class="st3" d="M311.1,41.9c-0.9,0-1.8-0.2-2.5-0.5s-1.3-0.8-1.6-1.3c-0.4-0.6-0.6-1.2-0.6-1.9c0-0.7,0.2-1.3,0.5-1.9
							c0.3-0.6,0.9-1,1.6-1.3s1.7-0.5,3-0.5h4v1.7h-3.9c-1.2,0-1.9,0.2-2.3,0.6c-0.4,0.4-0.6,0.8-0.6,1.4c0,0.6,0.2,1.1,0.7,1.5
							c0.5,0.4,1.2,0.6,2.1,0.6c0.9,0,1.6-0.2,2.3-0.6c0.6-0.4,1.1-0.9,1.4-1.7l0.5,1.6c-0.3,0.8-0.8,1.3-1.6,1.8
							C313.3,41.7,312.3,41.9,311.1,41.9z M315.3,41.8v-2.7l-0.1-0.5V34c0-1-0.3-1.7-0.9-2.3c-0.6-0.5-1.4-0.8-2.6-0.8
							c-0.8,0-1.5,0.1-2.2,0.4c-0.7,0.2-1.3,0.6-1.8,1l-1-1.7c0.7-0.5,1.4-0.9,2.4-1.2S311,29,312,29c1.7,0,3.1,0.4,4,1.3
							c0.9,0.8,1.4,2.1,1.4,3.9v7.7H315.3z"/>
						<path class="st3" d="M328.6,29c1,0,2,0.2,2.7,0.6c0.8,0.4,1.4,1,1.9,1.8s0.7,1.8,0.7,3.1v7.3h-2.3v-7.1c0-1.2-0.3-2.2-0.9-2.8
							c-0.6-0.6-1.4-0.9-2.5-0.9c-0.8,0-1.5,0.2-2.1,0.5s-1.1,0.8-1.4,1.4c-0.3,0.6-0.5,1.4-0.5,2.3v6.6h-2.3V29.1h2.2v3.4l-0.4-0.9
							c0.4-0.8,1.1-1.5,1.9-1.9S327.4,29,328.6,29z"/>
						<path class="st3" d="M336.3,31v-1.9h8.1V31H336.3z M342.5,41.9c-1.3,0-2.3-0.3-3-1c-0.7-0.7-1.1-1.7-1.1-3V26.3h2.3v11.6
							c0,0.7,0.2,1.2,0.5,1.6s0.8,0.6,1.5,0.6c0.7,0,1.3-0.2,1.8-0.6l0.7,1.7c-0.4,0.3-0.8,0.5-1.3,0.7
							C343.5,41.9,343,41.9,342.5,41.9z"/>
						<path class="st3" d="M353.3,41.9c-1.4,0-2.6-0.3-3.6-0.8c-1-0.6-1.8-1.3-2.4-2.3c-0.6-1-0.9-2.1-0.9-3.4
							c0-1.3,0.3-2.4,0.8-3.4s1.3-1.7,2.3-2.3c1-0.6,2.1-0.8,3.3-0.8c1.2,0,2.3,0.3,3.3,0.8c0.9,0.5,1.7,1.3,2.2,2.3
							c0.5,1,0.8,2.1,0.8,3.4c0,0.1,0,0.2,0,0.3s0,0.2,0,0.4h-10.8v-1.7h9.6l-0.9,0.6c0-0.8-0.2-1.5-0.5-2.2
							c-0.4-0.6-0.8-1.1-1.5-1.5c-0.6-0.4-1.3-0.5-2.1-0.5c-0.8,0-1.5,0.2-2.1,0.5c-0.6,0.4-1.1,0.9-1.5,1.5
							c-0.4,0.6-0.5,1.4-0.5,2.2v0.4c0,0.8,0.2,1.6,0.6,2.3c0.4,0.7,0.9,1.2,1.6,1.5s1.5,0.6,2.4,0.6c0.8,0,1.4-0.1,2.1-0.4
							s1.2-0.6,1.6-1.2l1.3,1.5c-0.6,0.7-1.3,1.2-2.1,1.5S354.3,41.9,353.3,41.9z"/>
						<path class="st3" d="M365.9,41.9c-1.1,0-2.1-0.1-3-0.4c-1-0.3-1.7-0.6-2.2-1.1l1-1.8c0.5,0.4,1.2,0.7,2,0.9
							c0.8,0.3,1.6,0.4,2.4,0.4c1.1,0,1.8-0.2,2.3-0.5c0.5-0.3,0.7-0.7,0.7-1.3c0-0.4-0.1-0.7-0.4-0.9c-0.3-0.2-0.7-0.4-1.1-0.5
							c-0.5-0.1-1-0.2-1.6-0.3c-0.6-0.1-1.2-0.2-1.7-0.3c-0.6-0.1-1.1-0.3-1.6-0.6c-0.5-0.2-0.9-0.6-1.2-1s-0.4-1-0.4-1.8
							c0-0.8,0.2-1.4,0.6-2c0.4-0.6,1-1,1.8-1.3c0.8-0.3,1.7-0.5,2.8-0.5c0.8,0,1.7,0.1,2.5,0.3c0.9,0.2,1.6,0.5,2.1,0.9l-1,1.8
							c-0.6-0.4-1.2-0.6-1.8-0.8c-0.6-0.1-1.2-0.2-1.9-0.2c-1,0-1.8,0.2-2.3,0.5s-0.7,0.7-0.7,1.3c0,0.4,0.1,0.8,0.4,1
							c0.3,0.2,0.7,0.4,1.2,0.5c0.5,0.1,1,0.2,1.6,0.3c0.6,0.1,1.2,0.2,1.7,0.3s1.1,0.3,1.6,0.6c0.5,0.2,0.9,0.6,1.2,1
							c0.3,0.4,0.4,1,0.4,1.7c0,0.8-0.2,1.4-0.7,2c-0.4,0.6-1.1,1-1.9,1.3C368.1,41.8,367.1,41.9,365.9,41.9z"/>
					</g>
				</g>
			</g>
		</g>
	</g>
</g>
</svg>
