<?xml version="1.0" encoding="utf-8"?>
<!-- Generator: Adobe Illustrator 24.0.2, SVG Export Plug-In . SVG Version: 6.00 Build 0)  -->
<svg version="1.1" id="Capa_1" xmlns="http://www.w3.org/2000/svg" xmlns:xlink="http://www.w3.org/1999/xlink" x="0px" y="0px"
	 viewBox="0 0 550 69" style="enable-background:new 0 0 550 69;" xml:space="preserve">
<style type="text/css">
	.st0{opacity:0.15;fill:#143F8B;enable-background:new    ;}
	.st1{fill:#E3007E;}
	.st2{fill:#FFFFFF;}
	.st3{fill:#606060;}
	.st4{fill:#105B83;}
	.st5{fill:#ECD015;}
</style>
<title>banner_pw</title>
<g>
	<g>
		<path class="st0" d="M410.8,20.3H487c3,0,5.4,6.9,5.4,15.5v1c0,8.5-2.4,15.5-5.4,15.5h-76.2c-3,0-5.4-6.9-5.4-15.5v-1
			C405.5,27.2,407.9,20.3,410.8,20.3z"/>
		<circle class="st1" cx="394.6" cy="35" r="29"/>
		<g>
			<g>
				<path class="st2" d="M381.2,46.4c-1.5,0-3,0-4.4,0c-0.3,0-0.5,0.1-0.7,0c-0.3-0.2-0.8-0.4-0.9-0.7s0-0.9,0.3-1.1
					c3.7-3.6,5.2-8.2,5.6-13.1c0.3-2.8,0.1-5.6,0.2-8.5c0-1.1,0.3-1.4,1.4-1.4c1.5,0,3.1,0,4.6,0c0,0,0.1,0,0.2-0.1
					c0.2-0.7-0.2-2,1.1-1.9c1.3,0,0.9,1.2,1.1,2c1.7,0,3.4,0,5.1,0c0.1-0.8-0.2-2,1.1-2c1.3,0,1,1.1,1,2c1.7,0,3.4,0,5.2,0
					c0.2-0.8-0.2-2.1,1.2-2c1.2,0.1,0.9,1.1,0.9,2c0.2,0,0.5,0,0.7,0c1.4,0,2.8,0,4.1,0c0.9,0,1.3,0.4,1.3,1.3c0,8.8,0,17.6,0,26.4
					c0,0.9-0.4,1.3-1.5,1.3c-7.2,0-14.3,0-21.5,0c-1.5,0-3.1,0-4.6,0c-1.2,0-1.5-0.3-1.5-1.5C381.2,48.2,381.2,47.3,381.2,46.4z
					 M378.4,44.3c0.3,0,0.5,0,0.7,0c7.6,0,15.2,0,22.8,0c0.4,0,0.8-0.2,1-0.5c2.5-2.7,3.9-6,4.6-9.6c0.3-1.4,0.4-2.9,0.6-4.4
					c-8.4,0-16.7,0-25,0C383,35.1,381.6,40,378.4,44.3z M396.8,23.7c-0.1,0.8,0.2,1.9-1,2c-1.4,0.1-1-1.2-1.1-2c-1.7,0-3.4,0-5.1,0
					c-0.2,0.8,0.2,1.9-1,2c-1.4,0.1-1-1.2-1.2-2c-1.4,0-2.7,0-4.1,0c0,1.4,0,2.7,0,4c8.3,0,16.6,0,24.8,0c0-1.4,0-2.7,0-4
					c-1.4,0-2.7,0-4,0c-0.1,0.8,0.2,2-1.1,2c-1.3,0-0.9-1.2-1-2C400.2,23.7,398.5,23.7,396.8,23.7z M408.1,39.9L408.1,39.9
					c-0.2,0.2-0.3,0.4-0.4,0.5c-0.9,1.9-2.1,3.7-3.6,5.3c-0.5,0.5-1,0.7-1.7,0.7c-6.1,0-12.2,0-18.3,0c-0.3,0-0.6,0-0.9,0
					c0,0.7,0,1.4,0,2c8.3,0,16.6,0,24.9,0C408.1,45.5,408.1,42.7,408.1,39.9z"/>
			</g>
		</g>
		<g>
			<path class="st3" d="M428.5,44.1v-1.6l6.8-6.6c0.6-0.6,1.1-1.1,1.4-1.5s0.5-0.8,0.6-1.2c0.1-0.4,0.2-0.7,0.2-1.1
				c0-0.9-0.3-1.5-0.9-2c-0.6-0.5-1.5-0.7-2.7-0.7c-0.9,0-1.7,0.1-2.4,0.4c-0.7,0.3-1.3,0.8-1.9,1.4l-1.6-1.4
				c0.6-0.8,1.5-1.4,2.6-1.9c1.1-0.4,2.3-0.7,3.6-0.7c1.2,0,2.2,0.2,3,0.6s1.5,0.9,2,1.6s0.7,1.5,0.7,2.5c0,0.5-0.1,1.1-0.2,1.6
				c-0.1,0.5-0.4,1.1-0.8,1.7c-0.4,0.6-1,1.3-1.7,2l-6.1,5.9l-0.6-0.9h10.2v2.1H428.5z"/>
			<path class="st3" d="M449.4,44.3c-1.3,0-2.5-0.3-3.5-1c-1-0.7-1.8-1.6-2.4-2.9c-0.6-1.3-0.9-2.8-0.9-4.7c0-1.8,0.3-3.4,0.9-4.7
				c0.6-1.3,1.4-2.3,2.4-2.9c1-0.7,2.2-1,3.5-1c1.3,0,2.5,0.3,3.5,1c1,0.7,1.9,1.6,2.4,2.9s0.9,2.8,0.9,4.7c0,1.8-0.3,3.4-0.9,4.7
				c-0.6,1.3-1.4,2.3-2.4,2.9C451.8,44,450.7,44.3,449.4,44.3z M449.4,42.2c0.9,0,1.7-0.2,2.3-0.7c0.7-0.5,1.2-1.2,1.6-2.2
				c0.4-1,0.6-2.2,0.6-3.6c0-1.4-0.2-2.6-0.6-3.6c-0.4-1-0.9-1.7-1.6-2.2c-0.7-0.5-1.4-0.7-2.3-0.7c-0.9,0-1.7,0.2-2.3,0.7
				c-0.7,0.5-1.2,1.2-1.6,2.2s-0.6,2.2-0.6,3.6c0,1.4,0.2,2.6,0.6,3.6s0.9,1.7,1.6,2.2C447.7,41.9,448.5,42.2,449.4,42.2z"/>
			<path class="st3" d="M458.3,44.1v-1.6l6.8-6.6c0.6-0.6,1.1-1.1,1.4-1.5s0.5-0.8,0.6-1.2c0.1-0.4,0.2-0.7,0.2-1.1
				c0-0.9-0.3-1.5-0.9-2c-0.6-0.5-1.5-0.7-2.7-0.7c-0.9,0-1.7,0.1-2.4,0.4c-0.7,0.3-1.3,0.8-1.9,1.4l-1.6-1.4
				c0.6-0.8,1.5-1.4,2.6-1.9c1.1-0.4,2.3-0.7,3.6-0.7c1.2,0,2.2,0.2,3,0.6s1.5,0.9,2,1.6s0.7,1.5,0.7,2.5c0,0.5-0.1,1.1-0.2,1.6
				c-0.1,0.5-0.4,1.1-0.8,1.7c-0.4,0.6-1,1.3-1.7,2l-6.1,5.9l-0.6-0.9h10.2v2.1H458.3z"/>
			<path class="st3" d="M475.1,44.1V28.3l1,1.1h-4.8v-2.1h6.2v16.8H475.1z"/>
		</g>
	</g>
	<g>
		<path class="st0" d="M142,22.5h202.7c7.8,0,14.2,6.9,14.2,15.5v1c0,8.5-6.4,15.5-14.2,15.5H142c-7.8,0-14.2-6.9-14.2-15.5v-1
			C127.8,29.4,134.1,22.5,142,22.5z"/>
		<circle class="st4" cx="86.2" cy="32" r="28.6"/>
		<circle class="st5" cx="117.8" cy="37.5" r="29"/>
		<path class="st2" d="M89.8,9.9c0.2,0.1,0.4,0.1,0.6,0.2c2.9,0.7,4.6,3.6,3.9,6.5c-0.8,2.9-3.7,4.6-6.5,3.9
			c-2.9-0.7-4.6-3.6-3.9-6.5c0.5-1.9,2-3.4,3.9-3.9c0.2,0,0.4-0.1,0.6-0.2C88.4,9.9,89.8,9.9,89.8,9.9z M89.1,19.4
			c2.3,0,4.1-1.9,4-4.1c0-2.3-1.9-4.1-4.1-4c-2.3,0-4.1,1.9-4,4.1l0,0C85.1,17.6,86.9,19.3,89.1,19.4L89.1,19.4z"/>
		<path class="st2" d="M94.9,37.8c0.3,4.5,0.7,8.9,1,13.4c0.1,1,0.1,2.1,0,3.1c-0.3,1.6-1.7,2.7-3.3,2.6c-1.5-0.1-2.8-1.2-3-2.8
			c-0.2-2-0.3-3.9-0.6-5.9c-0.1,1.6-0.2,3.2-0.4,4.8c0,0.6-0.1,1.1-0.3,1.7c-0.6,1.7-2.4,2.6-4.1,2.1c-1.4-0.5-2.3-1.8-2.2-3.3
			c0.2-3.6,0.5-7.1,0.8-10.7c0.1-1.7,0.3-3.3,0.4-5.1c-0.2,0.3-0.3,0.4-0.3,0.5c-0.6,1.5-2.2,2.3-3.7,1.7s-2.3-2.2-1.7-3.7
			c0.5-1.6,0.9-3.2,1.4-4.7c0.4-1.4,0.8-2.7,1.2-4.1c1-3.3,4.1-5.7,7.6-5.7c1.6-0.1,3.3,0,4.9,0.4c2.7,0.7,4.8,2.7,5.5,5.4
			c0.9,2.9,1.8,5.8,2.7,8.7c0.6,1.5-0.2,3.2-1.7,3.8H99c-1.5,0.5-3.2-0.3-3.7-1.8c0-0.1,0-0.1-0.1-0.2C95.1,37.8,95,37.8,94.9,37.8
			L94.9,37.8z M89.1,22.8V23c-0.2,0-0.4,0-0.6,0c-3.5-0.2-6.7,2.1-7.5,5.5c-0.6,2.6-1.5,5.1-2.3,7.6c-0.4,1.4-0.1,2.4,1,2.7
			c1.1,0.3,1.8-0.4,2.2-1.8c0.5-2.3,1.1-4.6,1.6-6.8c0.1-0.4,0.1-1,0.8-0.9s0.6,0.6,0.5,1c-0.1,1.6-0.2,3.2-0.3,4.8
			c-0.3,4.1-0.6,8.2-0.9,12.3c-0.1,2-0.3,4-0.4,6.1c-0.1,1.1,0.7,2,1.7,2.1c1.1,0.1,2.2-0.6,2.3-1.8c0-0.1,0-0.2,0-0.3
			c0.2-1.8,0.3-3.5,0.4-5.3c0.2-2.3,0.3-4.6,0.5-6.9c0-0.5,0.3-0.9,0.8-0.9s0.8,0.4,0.9,0.9c0,0.7,0.1,1.4,0.2,2.2
			c0.3,3.4,0.5,6.9,0.8,10.3c0.1,1.1,1,2,2.1,1.9c0,0,0,0,0.1,0c1.1-0.1,1.9-1.1,1.8-2.2l0,0c-0.3-3.6-0.5-7.1-0.8-10.7
			c-0.3-4.2-0.5-8.3-0.8-12.5c0-0.4-0.1-0.9,0.5-0.9c0.6,0,0.7,0.3,0.8,0.8c0.6,2.4,1.1,4.8,1.7,7.2c0.1,0.9,0.9,1.6,1.9,1.5h0.1
			c0.9-0.2,1.5-1.1,1.3-2c0-0.1,0-0.2-0.1-0.2c-0.9-3-1.7-6-2.7-9c-0.6-2-2.1-3.5-4.1-4.2C91.5,23,90.3,22.8,89.1,22.8L89.1,22.8z"
			/>
		<path class="st2" d="M124.5,49.1c0.1,1.8,0.3,3.5,0.3,5.2c0.1,1.8-1.3,3.3-3,3.4c-1.7,0.1-3.1-1.1-3.4-2.7
			c-0.2-1.1-0.2-2.2-0.3-3.3c0-0.8-0.2-1.7-0.4-2.5c-0.1,1.3-0.2,2.7-0.3,4c0,0.5-0.1,1-0.1,1.5c-0.2,1.8-1.8,3.1-3.5,2.9l0,0
			c-1.8-0.2-3.1-1.8-2.9-3.6c0,0,0,0,0-0.1c0.1-1.5,0.2-3.1,0.3-4.6c0-0.1-0.1-0.2-0.1-0.3h-1c-0.8,0-1-0.3-0.9-1.1
			c0.4-2.1,0.8-4.1,1.2-6.2c0.1-0.4,0.2-0.7-0.4-0.8c-2.9-0.8-3.6-1.8-3-4.7c0.6-2.9,1.3-5.8,2.1-8.6c0.6-2.5,2.7-4.4,5.2-4.8
			c0.7,0,1.4,0,2.1,0.1c0.8,0.2,1.7,0.2,2.6,0.1c2.4-0.9,5.5,0.5,6.7,2.6c0.5,0.8,0.9,1.7,1.1,2.6c0.7,2.6,1.3,5.3,1.9,8
			c0.1,0.6,0.2,1.3,0.1,1.9c0,1.3-0.9,2.4-2.2,2.7c-1.4,0.4-1.4,0.4-1.2,1.8l1,5.3c0.2,0.8-0.1,1.1-0.9,1.1L124.5,49.1z M110.5,47.8
			c0.3,0,0.5,0.1,0.7,0.1c1.2,0,1.3,0.1,1.2,1.3c-0.1,1.6-0.3,3.2-0.4,4.9c-0.3,1.1,0.4,2.2,1.5,2.4c0.1,0,0.2,0,0.3,0
			c1.1,0.1,2.1-0.6,2.2-1.7c0-0.1,0-0.2,0-0.3c0.2-1.8,0.3-3.6,0.4-5.4c0.1-0.9,0.4-1.2,1.3-1.2c1,0,1.4,0.3,1.4,1.4
			c0.1,1.7,0.2,3.4,0.4,5c0.1,0.6,0.3,1.2,0.7,1.7c0.5,0.6,1.4,0.8,2.1,0.4c0.8-0.3,1.3-1.1,1.2-1.9c-0.1-1.8-0.3-3.6-0.3-5.3
			c-0.1-1.2,0-1.2,1.1-1.3c0.2,0,0.5,0,0.7-0.1c-0.1-0.4-0.1-0.7-0.2-1c-1-5.2-1.9-10.5-2.9-15.7c-0.1-0.4-0.1-0.8,0.4-1
			s0.7,0.3,0.8,0.7c0.2,1,0.4,2,0.6,3c0.4,2,0.8,4.1,1.2,6.1c2-0.1,2.7-0.8,2.5-2.7c0-0.2,0-0.4-0.1-0.6c-0.6-2.7-1.2-5.4-1.9-8.1
			c-0.3-0.9-0.7-1.7-1.2-2.5c-1.1-1.6-3.1-2.3-5-1.7c-1.1,0.3-2.2,0.3-3.3-0.1c-0.5-0.2-1.1-0.2-1.6-0.1c-2.4,0.4-3.7,2.1-4.3,4.3
			c-0.5,1.6-0.9,3.2-1.3,4.9c-0.3,1.4-0.6,2.9-0.7,4.3c-0.1,1.3,0.3,1.8,1.6,2l1,0.2c0.1-0.3,0.2-0.7,0.2-1l1.5-8.1
			c0.1-0.4,0.2-0.9,0.8-0.8s0.5,0.5,0.5,1c-0.3,1.7-0.6,3.4-1,5.1C112,40,111.3,43.8,110.5,47.8L110.5,47.8z"/>
		<path class="st2" d="M112.5,17c0-2.9,2.4-5.3,5.3-5.4c2.9,0,5.3,2.4,5.4,5.3c0,2.9-2.4,5.3-5.3,5.4
			C114.9,22.3,112.5,19.9,112.5,17L112.5,17z M117.9,12.9c-2.3,0-4.1,1.7-4.2,4c0,2.3,1.7,4.1,4,4.2c2.3,0.1,4.1-1.7,4.2-4
			c0-0.1,0-0.1,0-0.2C121.8,14.8,120,12.9,117.9,12.9z"/>
		<g>
			<g>
				<g>
					<path class="st3" d="M156.4,44.3h9.8v2.1H154V29.6h11.9v2.1h-9.5V44.3z M156.2,36.8h8.6v2h-8.6V36.8z"/>
					<path class="st3" d="M174.8,45.8c-1.2,0-2.3-0.3-3.3-0.8c-1-0.5-1.7-1.2-2.3-2.2c-0.6-0.9-0.9-2-0.9-3.2c0-1.2,0.3-2.3,0.9-3.2
						s1.3-1.6,2.3-2.1c1-0.5,2.1-0.8,3.3-0.8c1.1,0,2.1,0.2,3,0.7c0.9,0.4,1.6,1.1,2.1,2s0.8,2.1,0.8,3.5c0,1.4-0.3,2.5-0.8,3.4
						s-1.3,1.6-2.1,2.1S175.9,45.8,174.8,45.8z M175.1,51.1c-1.2,0-2.3-0.2-3.4-0.5c-1.1-0.3-2-0.8-2.7-1.4l1.1-1.8
						c0.6,0.5,1.3,0.9,2.2,1.2c0.9,0.3,1.8,0.4,2.7,0.4c1.5,0,2.6-0.4,3.3-1.1c0.7-0.7,1.1-1.8,1.1-3.2v-2.7l0.2-2.5l-0.1-2.5v-3.5
						h2.2v11c0,2.2-0.6,3.9-1.7,4.9C178.9,50.6,177.3,51.1,175.1,51.1z M175.1,43.8c0.8,0,1.6-0.2,2.3-0.5c0.7-0.4,1.2-0.8,1.5-1.5
						c0.4-0.6,0.6-1.3,0.6-2.2c0-0.8-0.2-1.5-0.6-2.2c-0.4-0.6-0.9-1.1-1.5-1.5c-0.7-0.3-1.4-0.5-2.3-0.5c-0.8,0-1.6,0.2-2.3,0.5
						c-0.7,0.3-1.2,0.8-1.6,1.5s-0.6,1.3-0.6,2.2c0,0.8,0.2,1.5,0.6,2.2s0.9,1.1,1.6,1.5C173.5,43.6,174.2,43.8,175.1,43.8z"/>
					<path class="st3" d="M186.1,46.3V33.6h2.2v3.5l-0.2-0.9c0.4-0.9,0.9-1.6,1.8-2c0.8-0.5,1.9-0.7,3.1-0.7v2.2c-0.1,0-0.2,0-0.3,0
						c-0.1,0-0.2,0-0.3,0c-1.2,0-2.2,0.4-2.9,1.1c-0.7,0.7-1.1,1.8-1.1,3.2v6.3H186.1z"/>
					<path class="st3" d="M201.3,46.5c-1.4,0-2.6-0.3-3.6-0.8c-1-0.6-1.8-1.3-2.4-2.3c-0.6-1-0.9-2.1-0.9-3.4c0-1.3,0.3-2.4,0.8-3.4
						c0.6-1,1.3-1.7,2.3-2.3c1-0.6,2.1-0.8,3.3-0.8c1.2,0,2.3,0.3,3.3,0.8c0.9,0.5,1.7,1.3,2.2,2.3c0.5,1,0.8,2.1,0.8,3.4
						c0,0.1,0,0.2,0,0.3s0,0.2,0,0.4h-10.8v-1.7h9.6l-0.9,0.6c0-0.8-0.2-1.5-0.5-2.2c-0.4-0.6-0.8-1.1-1.5-1.5
						c-0.6-0.4-1.3-0.5-2.1-0.5c-0.8,0-1.5,0.2-2.1,0.5c-0.6,0.4-1.1,0.9-1.5,1.5c-0.4,0.6-0.5,1.4-0.5,2.2v0.4
						c0,0.8,0.2,1.6,0.6,2.3c0.4,0.7,0.9,1.2,1.6,1.5c0.7,0.4,1.5,0.6,2.4,0.6c0.8,0,1.4-0.1,2.1-0.4s1.2-0.6,1.6-1.2l1.3,1.5
						c-0.6,0.7-1.3,1.2-2.1,1.5S202.4,46.5,201.3,46.5z"/>
					<path class="st3" d="M214,46.5c-1.1,0-2.1-0.1-3-0.4c-1-0.3-1.7-0.6-2.2-1.1l1-1.8c0.5,0.4,1.2,0.7,2,0.9
						c0.8,0.3,1.6,0.4,2.4,0.4c1.1,0,1.8-0.2,2.3-0.5c0.5-0.3,0.7-0.7,0.7-1.3c0-0.4-0.1-0.7-0.4-0.9c-0.3-0.2-0.7-0.4-1.1-0.5
						c-0.5-0.1-1-0.2-1.6-0.3c-0.6-0.1-1.2-0.2-1.7-0.3c-0.6-0.1-1.1-0.3-1.6-0.6c-0.5-0.2-0.9-0.6-1.2-1s-0.4-1-0.4-1.8
						c0-0.8,0.2-1.4,0.6-2c0.4-0.6,1-1,1.8-1.3c0.8-0.3,1.7-0.5,2.8-0.5c0.8,0,1.7,0.1,2.5,0.3c0.9,0.2,1.6,0.5,2.1,0.9l-1,1.8
						c-0.6-0.4-1.2-0.6-1.8-0.8c-0.6-0.1-1.2-0.2-1.9-0.2c-1,0-1.8,0.2-2.3,0.5s-0.7,0.7-0.7,1.3c0,0.4,0.1,0.8,0.4,1
						c0.3,0.2,0.7,0.4,1.2,0.5c0.5,0.1,1,0.2,1.6,0.3c0.6,0.1,1.2,0.2,1.7,0.3s1.1,0.3,1.6,0.6c0.5,0.2,0.9,0.6,1.2,1
						c0.3,0.4,0.4,1,0.4,1.7c0,0.8-0.2,1.4-0.7,2c-0.4,0.6-1.1,1-1.9,1.3C216.1,46.3,215.1,46.5,214,46.5z"/>
					<path class="st3" d="M227.8,46.5c-1.3,0-2.4-0.3-3.4-0.8c-1-0.6-1.8-1.3-2.4-2.3c-0.6-1-0.9-2.1-0.9-3.3c0-1.3,0.3-2.4,0.9-3.4
						s1.4-1.7,2.4-2.3c1-0.6,2.1-0.8,3.4-0.8c1.3,0,2.4,0.3,3.4,0.8c1,0.6,1.8,1.3,2.4,2.3c0.6,1,0.9,2.1,0.9,3.4
						c0,1.3-0.3,2.4-0.9,3.4c-0.6,1-1.4,1.7-2.4,2.3C230.2,46.2,229.1,46.5,227.8,46.5z M227.8,44.5c0.8,0,1.5-0.2,2.2-0.6
						c0.6-0.4,1.2-0.9,1.5-1.6c0.4-0.7,0.6-1.5,0.6-2.4c0-0.9-0.2-1.7-0.6-2.4s-0.9-1.2-1.5-1.5c-0.6-0.4-1.4-0.6-2.2-0.6
						c-0.8,0-1.5,0.2-2.2,0.6c-0.6,0.4-1.2,0.9-1.5,1.5s-0.6,1.5-0.6,2.4c0,0.9,0.2,1.7,0.6,2.4c0.4,0.7,0.9,1.2,1.5,1.6
						C226.3,44.3,227,44.5,227.8,44.5z"/>
					<path class="st3" d="M244.1,51V33.6h2.2v3.4l-0.1,3l0.2,3v8H244.1z M250.8,46.5c-1.1,0-2-0.2-2.9-0.7s-1.6-1.2-2.1-2.2
						c-0.5-1-0.8-2.2-0.8-3.6c0-1.4,0.3-2.6,0.8-3.6s1.2-1.7,2.1-2.2c0.9-0.5,1.9-0.7,2.9-0.7c1.2,0,2.4,0.3,3.3,0.8
						c1,0.5,1.7,1.3,2.3,2.3c0.6,1,0.8,2.1,0.8,3.4s-0.3,2.4-0.8,3.4c-0.6,1-1.3,1.7-2.3,2.3S252.1,46.5,250.8,46.5z M250.6,44.5
						c0.8,0,1.5-0.2,2.2-0.6c0.6-0.4,1.2-0.9,1.5-1.6c0.4-0.7,0.6-1.5,0.6-2.4c0-0.9-0.2-1.7-0.6-2.4s-0.9-1.2-1.5-1.5
						c-0.6-0.4-1.4-0.6-2.2-0.6c-0.8,0-1.5,0.2-2.2,0.6c-0.6,0.4-1.2,0.9-1.5,1.5c-0.4,0.7-0.6,1.5-0.6,2.4c0,0.9,0.2,1.7,0.6,2.4
						c0.4,0.7,0.9,1.2,1.5,1.6C249.1,44.3,249.8,44.5,250.6,44.5z"/>
					<path class="st3" d="M265.9,46.5c-1.3,0-2.4-0.3-3.4-0.8c-1-0.6-1.8-1.3-2.4-2.3c-0.6-1-0.9-2.1-0.9-3.3c0-1.3,0.3-2.4,0.9-3.4
						s1.4-1.7,2.4-2.3c1-0.6,2.1-0.8,3.4-0.8c1.3,0,2.4,0.3,3.4,0.8c1,0.6,1.8,1.3,2.4,2.3c0.6,1,0.9,2.1,0.9,3.4
						c0,1.3-0.3,2.4-0.9,3.4c-0.6,1-1.4,1.7-2.4,2.3C268.3,46.2,267.1,46.5,265.9,46.5z M265.9,44.5c0.8,0,1.5-0.2,2.2-0.6
						c0.6-0.4,1.2-0.9,1.5-1.6c0.4-0.7,0.6-1.5,0.6-2.4c0-0.9-0.2-1.7-0.6-2.4s-0.9-1.2-1.5-1.5c-0.6-0.4-1.4-0.6-2.2-0.6
						c-0.8,0-1.5,0.2-2.2,0.6c-0.6,0.4-1.2,0.9-1.5,1.5s-0.6,1.5-0.6,2.4c0,0.9,0.2,1.7,0.6,2.4c0.4,0.7,0.9,1.2,1.5,1.6
						C264.3,44.3,265.1,44.5,265.9,44.5z"/>
					<path class="st3" d="M275.7,46.3V33.6h2.2v3.5l-0.2-0.9c0.4-0.9,0.9-1.6,1.8-2s1.9-0.7,3.1-0.7v2.2c-0.1,0-0.2,0-0.3,0
						s-0.2,0-0.3,0c-1.2,0-2.2,0.4-2.9,1.1c-0.7,0.7-1.1,1.8-1.1,3.2v6.3H275.7z"/>
					<path class="st3" d="M297.2,46.5c-1.3,0-2.5-0.2-3.7-0.6c-1.2-0.4-2.1-0.9-2.8-1.5l0.9-1.9c0.6,0.6,1.5,1,2.4,1.4
						c1,0.4,2,0.6,3.1,0.6c1,0,1.8-0.1,2.4-0.3c0.6-0.2,1.1-0.5,1.3-0.9c0.3-0.4,0.4-0.8,0.4-1.3c0-0.6-0.2-1-0.6-1.4
						c-0.4-0.4-0.9-0.6-1.5-0.9c-0.6-0.2-1.3-0.4-2-0.6c-0.7-0.2-1.4-0.3-2.2-0.6c-0.7-0.2-1.4-0.5-2-0.8c-0.6-0.3-1.1-0.8-1.5-1.4
						c-0.4-0.6-0.6-1.3-0.6-2.2c0-0.9,0.2-1.7,0.7-2.4c0.5-0.7,1.2-1.3,2.1-1.8c1-0.4,2.2-0.7,3.6-0.7c1,0,1.9,0.1,2.9,0.4
						c1,0.3,1.8,0.6,2.5,1.1l-0.8,1.9c-0.7-0.5-1.5-0.8-2.3-1c-0.8-0.2-1.6-0.3-2.3-0.3c-0.9,0-1.7,0.1-2.3,0.4
						c-0.6,0.2-1.1,0.6-1.3,1c-0.3,0.4-0.4,0.8-0.4,1.3c0,0.6,0.2,1.1,0.6,1.4c0.4,0.4,0.9,0.6,1.5,0.8c0.6,0.2,1.3,0.4,2,0.6
						s1.4,0.4,2.2,0.6c0.7,0.2,1.4,0.5,2,0.8s1.1,0.8,1.5,1.3c0.4,0.6,0.6,1.3,0.6,2.2c0,0.8-0.2,1.6-0.7,2.4
						c-0.5,0.7-1.2,1.3-2.1,1.8C299.9,46.3,298.7,46.5,297.2,46.5z"/>
					<path class="st3" d="M312.5,46.5c-1.4,0-2.6-0.3-3.6-0.8c-1-0.6-1.8-1.3-2.4-2.3c-0.6-1-0.9-2.1-0.9-3.4c0-1.3,0.3-2.4,0.8-3.4
						s1.3-1.7,2.3-2.3c1-0.6,2.1-0.8,3.3-0.8c1.2,0,2.3,0.3,3.3,0.8c0.9,0.5,1.7,1.3,2.2,2.3c0.5,1,0.8,2.1,0.8,3.4
						c0,0.1,0,0.2,0,0.3s0,0.2,0,0.4h-10.8v-1.7h9.6l-0.9,0.6c0-0.8-0.2-1.5-0.5-2.2c-0.4-0.6-0.8-1.1-1.5-1.5
						c-0.6-0.4-1.3-0.5-2.1-0.5c-0.8,0-1.5,0.2-2.1,0.5c-0.6,0.4-1.1,0.9-1.5,1.5c-0.4,0.6-0.5,1.4-0.5,2.2v0.4
						c0,0.8,0.2,1.6,0.6,2.3c0.4,0.7,0.9,1.2,1.6,1.5s1.5,0.6,2.4,0.6c0.8,0,1.4-0.1,2.1-0.4s1.2-0.6,1.6-1.2l1.3,1.5
						c-0.6,0.7-1.3,1.2-2.1,1.5S313.6,46.5,312.5,46.5z"/>
					<path class="st3" d="M319.4,46.3l5.5-7.1l0,1.2l-5.2-6.8h2.6l4,5.2h-1l4-5.2h2.5l-5.3,6.8l0-1.2l5.5,7.1h-2.6l-4.2-5.6l0.9,0.1
						l-4.1,5.4H319.4z"/>
					<path class="st3" d="M339.5,46.5c-1.3,0-2.4-0.3-3.4-0.8c-1-0.6-1.8-1.3-2.4-2.3c-0.6-1-0.9-2.1-0.9-3.3c0-1.3,0.3-2.4,0.9-3.4
						s1.4-1.7,2.4-2.3c1-0.6,2.1-0.8,3.4-0.8c1.3,0,2.4,0.3,3.4,0.8c1,0.6,1.8,1.3,2.4,2.3c0.6,1,0.9,2.1,0.9,3.4
						c0,1.3-0.3,2.4-0.9,3.4c-0.6,1-1.4,1.7-2.4,2.3C341.9,46.2,340.7,46.5,339.5,46.5z M339.5,44.5c0.8,0,1.5-0.2,2.2-0.6
						c0.6-0.4,1.2-0.9,1.5-1.6c0.4-0.7,0.6-1.5,0.6-2.4c0-0.9-0.2-1.7-0.6-2.4s-0.9-1.2-1.5-1.5c-0.6-0.4-1.4-0.6-2.2-0.6
						c-0.8,0-1.5,0.2-2.2,0.6c-0.6,0.4-1.2,0.9-1.5,1.5s-0.6,1.5-0.6,2.4c0,0.9,0.2,1.7,0.6,2.4c0.4,0.7,0.9,1.2,1.5,1.6
						C337.9,44.3,338.7,44.5,339.5,44.5z"/>
				</g>
			</g>
		</g>
	</g>
</g>
</svg>
