<?xml version="1.0" encoding="utf-8"?>
<!-- Generator: Adobe Illustrator 24.0.2, SVG Export Plug-In . SVG Version: 6.00 Build 0)  -->
<svg version="1.1" id="Capa_1" xmlns="http://www.w3.org/2000/svg" xmlns:xlink="http://www.w3.org/1999/xlink" x="0px" y="0px"
	 viewBox="0 0 550 74" style="enable-background:new 0 0 550 74;" xml:space="preserve">
<style type="text/css">
	.st0{opacity:0.15;fill:#143F8B;enable-background:new    ;}
	.st1{fill:#00AEEF;}
	.st2{fill:#FFFFFF;}
	.st3{enable-background:new    ;}
	.st4{fill:#606060;}
</style>
<g>
	<path class="st0" d="M169.3,23h261.5c10.1,0,18.2,7,18.2,15.6v0.8c0,8.6-8.2,15.6-18.2,15.6H169.3c-10.1,0-18.2-7-18.2-15.6v-0.8
		C151.1,30,159.2,23,169.3,23z"/>
	<g>
		
			<ellipse transform="matrix(0.1091 -0.994 0.994 0.1091 83.0654 166.2826)" class="st1" cx="134.3" cy="36.8" rx="33.4" ry="33.4"/>
		<path class="st2" d="M153.9,42.6c-0.2,0.3-0.5,0.4-0.8,0.4h-36.5c-0.1,0-0.2,0-0.3,0c-0.3,0-0.5-0.3-0.5-0.5
			c0-0.3,0.2-0.5,0.5-0.5l0,0c0.4,0,0.8,0,1.2,0V26.3c-0.4,0-0.7,0-1,0c-0.7,0-0.9-0.4-0.6-1c1.3-2.1,2.7-4.2,4-6.3
			c0.2-0.3,0.5-0.5,0.9-0.4h10.4c0.3,0,0.5-0.1,0.7-0.3c0.7-0.7,1.4-1.4,2.1-2.1c0.2-0.2,0.3-0.4,0.3-0.7c0-2.2,0-4.5,0-6.7
			c0-0.1,0-0.3,0-0.4c0-0.3,0.3-0.5,0.5-0.5c0.3,0,0.5,0.2,0.5,0.4l0,0c0,0.2,0,0.4,0,0.7h5.2c0.3,0,0.6,0,0.7,0.3
			c0.1,0.3,0.1,0.6-0.1,0.8c-0.2,0.2-0.3,0.5-0.5,0.7c-0.4,0.6-0.4,0.6,0,1.2c0.2,0.3,0.4,0.5,0.5,0.8c0.3,0.5,0.1,0.9-0.5,0.9h-5.2
			c0,0.5,0,1,0,1.5c-0.1,0.5,0.1,0.9,0.5,1.2c0.6,0.6,1.3,1.2,1.9,1.9c0.2,0.2,0.4,0.3,0.7,0.3c3.4,0,6.9,0,10.3,0
			c0.5,0,0.9,0.2,1.1,0.6c1.3,2,2.6,4.1,3.9,6.1c0,0.1,0.1,0.1,0.2,0.2V26c-0.2,0.3-0.5,0.4-0.8,0.3c-0.3,0-0.6,0-0.9,0v15.5
			c0.3,0,0.7,0,1,0s0.6,0.1,0.8,0.4L153.9,42.6z M150.9,26.3h-0.5c-1.9,0-3.9,0-5.8,0c-0.3,0-0.7-0.1-0.9-0.4
			c-2.9-2.9-5.8-5.8-8.7-8.6l-0.3-0.3c-0.1,0.1-0.2,0.3-0.3,0.4l-8.6,8.6c-0.2,0.2-0.5,0.4-0.9,0.4c-2,0-3.9,0-5.8,0h-0.4v15.5h12
			v-7.5c-0.1-1,0.5-1.9,1.5-2c0.2,0,0.3,0,0.5,0h4.4c0.2,0,0.4,0,0.6,0.1c0.9,0.2,1.4,1,1.3,1.9c0,2.4,0,4.7,0,7.1v0.4h12
			L150.9,26.3z M130.4,19.7h-0.3H121c-0.2,0-0.3,0.1-0.4,0.3c-1,1.6-2.1,3.2-3.1,4.9l-0.2,0.3h0.3c2.4,0,4.7,0,7.1,0
			c0.2,0,0.4-0.1,0.5-0.2c1.7-1.6,3.3-3.3,4.9-4.9C130.2,19.9,130.3,19.9,130.4,19.7z M139.2,19.7l0.2,0.3c1.7,1.7,3.3,3.4,5,5
			c0.2,0.1,0.3,0.2,0.5,0.2h6.9h0.4l-0.1-0.3c-1-1.6-2.1-3.3-3.1-4.9c-0.1-0.2-0.3-0.3-0.5-0.3L139.2,19.7L139.2,19.7z M134.2,35.9
			h-2.4v6h2.4V35.9z M137.7,41.9v-6h-2.4v6H137.7z M139.6,10.2h-4.3v2.4h4.3l-0.4-0.7c-0.3-0.5-0.3-0.6,0-1
			C139.4,10.7,139.5,10.5,139.6,10.2L139.6,10.2z M131.8,34.7h6c0-0.2,0-0.5,0-0.7c0-0.3-0.3-0.6-0.6-0.5l0,0h-4.8
			c-0.3,0-0.6,0.2-0.6,0.5l0,0C131.8,34.2,131.8,34.5,131.8,34.7z"/>
		<path class="st2" d="M134.8,22.2c2.3,0,4.1,1.9,4.1,4.2s-1.9,4.1-4.2,4.1s-4.1-1.9-4.1-4.2C130.7,24,132.6,22.2,134.8,22.2z
			 M134.7,23.3c-1.7,0.1-2.9,1.4-2.9,3.1c0.1,1.7,1.4,3,3.1,2.9s3-1.4,2.9-3.1C137.7,24.6,136.3,23.3,134.7,23.3L134.7,23.3z"/>
		<path class="st2" d="M124,30.9v1.9c0,0.5-0.2,0.7-0.7,0.7h-2.7c-0.5,0-0.7-0.2-0.7-0.7v-3.6c0-0.6,0.3-0.9,0.9-0.9s1.5,0,2.3,0
			s0.9,0.3,0.9,0.9L124,30.9z M121,30.5h1.8v-1.2h-1.7L121,30.5z M122.9,31.7h-1.8v0.6h1.8V31.7z"/>
		<path class="st2" d="M129.4,30.9v1.9c0,0.5-0.2,0.7-0.7,0.7H126c-0.5,0-0.7-0.2-0.7-0.7c0-1.2,0-2.5,0-3.7
			c-0.1-0.4,0.2-0.8,0.6-0.9c0.1,0,0.2,0,0.2,0c0.8,0,1.6,0,2.3,0c0.6,0,0.9,0.3,0.9,0.9v1.8H129.4z M126.4,29.3v1.2h1.8v-1.2H126.4
			z M128.2,31.7h-1.8v0.6h1.8V31.7z"/>
		<path class="st2" d="M144.3,30.9v1.8c0,0.5-0.2,0.7-0.7,0.7h-2.7c-0.5,0-0.7-0.2-0.7-0.7c0-1.2,0-2.5,0-3.7c0-0.6,0.3-0.9,0.9-0.9
			c0.8,0,1.6,0,2.3,0c0.6,0,0.9,0.3,0.9,0.9V30.9z M141.3,30.5h1.8v-1.2h-1.8V30.5z M143.1,31.7h-1.8v0.6h1.8V31.7z"/>
		<path class="st2" d="M145.6,30.9c0-0.6,0-1.2,0-1.9s0.3-0.9,0.8-0.9c0.8,0,1.6,0,2.4,0c0.4-0.1,0.8,0.2,0.9,0.7c0,0.1,0,0.1,0,0.2
			c0,1.3,0,2.5,0,3.7c0,0.5-0.2,0.7-0.7,0.7h-2.7c-0.5,0-0.7-0.2-0.7-0.7S145.6,31.5,145.6,30.9z M148.6,29.3h-1.9v1.2h1.8
			L148.6,29.3z M148.6,31.7h-1.9v0.6h1.8L148.6,31.7z"/>
		<path class="st2" d="M124,37.7v1.6c0,0.5-0.2,0.7-0.7,0.7h-2.7c-0.5,0-0.7-0.2-0.7-0.7V36c0-0.5,0.2-0.7,0.7-0.7h2.8
			c0.4,0,0.6,0.2,0.6,0.7L124,37.7z M122.9,37.1v-0.6h-1.8v0.6H122.9z M122.9,38.3h-1.8v0.6h1.8V38.3z"/>
		<path class="st2" d="M129.4,37.7v1.6c0,0.5-0.2,0.7-0.7,0.7H126c-0.5,0-0.7-0.2-0.7-0.7c0-1.1,0-2.2,0-3.3c0-0.5,0.2-0.7,0.7-0.7
			h2.8c0.3,0,0.6,0.2,0.6,0.5v0.1L129.4,37.7L129.4,37.7z M126.4,37.1h1.8v-0.6h-1.8L126.4,37.1z M126.4,38.9h1.8v-0.6h-1.8
			L126.4,38.9z"/>
		<path class="st2" d="M140.2,37.6c0-0.6,0-1.1,0-1.7s0.2-0.6,0.6-0.7h2.8c0.3,0,0.6,0.2,0.6,0.5c0,0,0,0.1,0,0.2c0,1.2,0,2.3,0,3.5
			c0,0.3-0.2,0.6-0.5,0.6h-0.1c-0.9,0-1.9,0-2.8,0c-0.3,0-0.6-0.2-0.6-0.5c0,0,0-0.1,0-0.2C140.2,38.8,140.2,38.2,140.2,37.6z
			 M141.3,37.1h1.8v-0.6h-1.8V37.1z M143.2,38.2h-1.8v0.6h1.8V38.2z"/>
		<path class="st2" d="M145.6,37.6c0-0.5,0-1.1,0-1.7s0.2-0.6,0.6-0.6h2.8c0.5,0,0.7,0.2,0.7,0.7c0,1.1,0,2.2,0,3.3
			c0,0.5-0.2,0.7-0.7,0.7h-2.7c-0.5,0-0.7-0.2-0.7-0.7S145.6,38.2,145.6,37.6z M146.7,37.1h1.8v-0.6h-1.8V37.1z M146.7,38.3v0.6h1.8
			v-0.6H146.7z"/>
		<path class="st2" d="M134.2,25.8c0-0.4,0-0.8,0-1.1s0.2-0.6,0.6-0.6c0.4,0,0.5,0.2,0.5,0.6s0,1.1,0,1.6s-0.2,0.6-0.6,0.6
			s-1.1,0-1.7,0c-0.4,0-0.6-0.2-0.6-0.6c0-0.3,0.2-0.5,0.6-0.5H134.2z"/>
		<path class="st2" d="M153.1,48.6c0.4-0.1,0.7-0.1,1.1-0.1c0.6,0,0.9-0.3,0.9-0.9c0-2.3,0.2-3.4-2.5-3.4h-26.8
			c-5.3,0-14.1-1.3-14.1,6.4c0,3.2,2.3,5.9,5.5,6.4c1.4,0.1,2.7,0.1,4.1,0.1h0.5v0.6c0,0.3,0.2,0.6,0.5,0.7c0.3,0.1,0.6,0,0.8-0.2
			l1-1c0.4-0.3,0.9-0.3,1.3,0l0.9,1c0.2,0.2,0.5,0.3,0.8,0.2s0.5-0.4,0.5-0.8c0-0.2,0-0.4,0-0.6h26.7c0.4,0,0.7-0.3,0.7-0.7
			c0,0,0,0,0-0.1c0-1,0-1.9,0-2.9c0-0.4-0.3-0.7-0.7-0.7c0,0,0,0-0.1,0c-0.3,0-0.6,0-0.9,0c-1-0.1-1.9-0.9-2-1.9
			C151.4,49.9,152,48.8,153.1,48.6z M118.9,55.7c-1.9,0.3-3.7-0.6-4.8-2.1c-1.2-1.6-1.3-3.7-0.3-5.4c1-1.8,3-2.9,5.1-2.6V47
			c-1.3-0.2-2.7,0.3-3.5,1.4c-0.6,0.7-0.8,1.6-0.8,2.5c0.1,2,1.6,3.2,4.3,3.4C118.9,54.3,118.9,55.7,118.9,55.7z M121.8,55.7h-1.4
			v-1.4h1.4V55.7z M126.1,56.2c-0.3-0.3-0.5-0.6-0.8-0.8c-0.2-0.3-0.7-0.4-1-0.2c-0.1,0.1-0.1,0.1-0.2,0.2c-0.3,0.3-0.5,0.5-0.8,0.8
			v-4.7h2.8V56.2z M118.3,50v1.4h3.6v1.4h-0.3h-3.2c-1.2,0-2.2-1-2.2-2.2s1-2.2,2.2-2.2l0,0h32.4l-0.6,1.5L118.3,50z M127.6,51.4
			H150l0.6,1.4h-23L127.6,51.4z M153.6,54.3v1.4h-26v-1.4H153.6z M120.4,47v-1.4h33.2V47H120.4z"/>
	</g>
	<g class="st3">
		<path class="st4" d="M181.6,47.2c-1.3,0-2.5-0.2-3.5-0.6c-1.1-0.4-2-1-2.8-1.8c-0.8-0.8-1.4-1.7-1.9-2.7c-0.4-1-0.7-2.2-0.7-3.4
			s0.2-2.4,0.7-3.4c0.4-1,1.1-1.9,1.9-2.7s1.7-1.4,2.8-1.8c1.1-0.4,2.3-0.6,3.5-0.6c1.3,0,2.5,0.2,3.6,0.7c1.1,0.4,2,1.1,2.8,2
			l-1.6,1.5c-0.6-0.7-1.4-1.2-2.2-1.5c-0.8-0.3-1.7-0.5-2.6-0.5c-0.9,0-1.8,0.2-2.6,0.5c-0.8,0.3-1.5,0.8-2.1,1.3s-1.1,1.3-1.4,2.1
			c-0.3,0.8-0.5,1.7-0.5,2.6c0,0.9,0.2,1.8,0.5,2.6c0.3,0.8,0.8,1.5,1.4,2.1c0.6,0.6,1.3,1,2.1,1.3c0.8,0.3,1.7,0.5,2.6,0.5
			c0.9,0,1.8-0.2,2.6-0.5c0.8-0.3,1.5-0.8,2.2-1.5l1.6,1.5c-0.8,0.9-1.7,1.5-2.8,2C184.1,47,182.9,47.2,181.6,47.2z"/>
		<path class="st4" d="M196.2,47.1c-1.4,0-2.6-0.3-3.6-0.8c-1-0.6-1.8-1.3-2.4-2.3c-0.6-1-0.9-2.1-0.9-3.4c0-1.3,0.3-2.4,0.8-3.4
			c0.6-1,1.3-1.7,2.3-2.3c1-0.6,2.1-0.8,3.3-0.8c1.2,0,2.3,0.3,3.3,0.8c0.9,0.5,1.7,1.3,2.2,2.3c0.5,1,0.8,2.1,0.8,3.4
			c0,0.1,0,0.2,0,0.3c0,0.1,0,0.2,0,0.4h-10.8v-1.7h9.6l-0.9,0.6c0-0.8-0.2-1.5-0.5-2.2c-0.4-0.6-0.8-1.1-1.5-1.5
			c-0.6-0.4-1.3-0.5-2.1-0.5c-0.8,0-1.5,0.2-2.1,0.5c-0.6,0.4-1.1,0.9-1.5,1.5c-0.4,0.6-0.5,1.4-0.5,2.2v0.4c0,0.8,0.2,1.6,0.6,2.3
			c0.4,0.7,0.9,1.2,1.6,1.5c0.7,0.4,1.5,0.6,2.4,0.6c0.8,0,1.4-0.1,2.1-0.4c0.6-0.3,1.2-0.6,1.6-1.2l1.3,1.5
			c-0.6,0.7-1.3,1.2-2.1,1.5S197.3,47.1,196.2,47.1z"/>
		<path class="st4" d="M212,34.2c1,0,2,0.2,2.7,0.6c0.8,0.4,1.4,1,1.9,1.8c0.4,0.8,0.7,1.8,0.7,3.1V47H215v-7.1
			c0-1.2-0.3-2.2-0.9-2.8c-0.6-0.6-1.4-0.9-2.5-0.9c-0.8,0-1.5,0.2-2.1,0.5s-1.1,0.8-1.4,1.4c-0.3,0.6-0.5,1.4-0.5,2.3V47h-2.3V34.3
			h2.2v3.4l-0.4-0.9c0.4-0.8,1.1-1.5,1.9-1.9C209.9,34.4,210.9,34.2,212,34.2z"/>
		<path class="st4" d="M219.8,36.2v-1.9h8.1v1.9H219.8z M226,47.1c-1.3,0-2.3-0.3-3-1c-0.7-0.7-1.1-1.7-1.1-3V31.5h2.3v11.6
			c0,0.7,0.2,1.2,0.5,1.6s0.8,0.6,1.5,0.6c0.7,0,1.3-0.2,1.8-0.6l0.7,1.7c-0.4,0.3-0.8,0.5-1.3,0.7C227,47.1,226.5,47.1,226,47.1z"
			/>
		<path class="st4" d="M231.5,47V34.3h2.2v3.5l-0.2-0.9c0.4-0.9,0.9-1.6,1.8-2c0.8-0.5,1.9-0.7,3.1-0.7v2.2c-0.1,0-0.2,0-0.3,0
			c-0.1,0-0.2,0-0.3,0c-1.2,0-2.2,0.4-2.9,1.1c-0.7,0.7-1.1,1.8-1.1,3.2V47H231.5z"/>
		<path class="st4" d="M246.5,47.1c-1.3,0-2.4-0.3-3.4-0.8c-1-0.6-1.8-1.3-2.4-2.3c-0.6-1-0.9-2.1-0.9-3.3c0-1.3,0.3-2.4,0.9-3.4
			s1.4-1.7,2.4-2.3c1-0.6,2.1-0.8,3.4-0.8c1.3,0,2.4,0.3,3.4,0.8c1,0.6,1.8,1.3,2.4,2.3c0.6,1,0.9,2.1,0.9,3.4
			c0,1.3-0.3,2.4-0.9,3.4c-0.6,1-1.4,1.7-2.4,2.3C248.9,46.9,247.8,47.1,246.5,47.1z M246.5,45.1c0.8,0,1.5-0.2,2.2-0.6
			s1.2-0.9,1.5-1.6c0.4-0.7,0.6-1.5,0.6-2.4c0-0.9-0.2-1.7-0.6-2.4c-0.4-0.7-0.9-1.2-1.5-1.5c-0.6-0.4-1.4-0.6-2.2-0.6
			c-0.8,0-1.5,0.2-2.2,0.6c-0.6,0.4-1.2,0.9-1.5,1.5c-0.4,0.7-0.6,1.5-0.6,2.4c0,0.9,0.2,1.7,0.6,2.4c0.4,0.7,0.9,1.2,1.5,1.6
			C245,44.9,245.7,45.1,246.5,45.1z"/>
		<path class="st4" d="M260,47.1c-1.1,0-2.1-0.1-3-0.4s-1.7-0.6-2.2-1.1l1-1.8c0.5,0.4,1.2,0.7,2,0.9c0.8,0.3,1.6,0.4,2.4,0.4
			c1.1,0,1.8-0.2,2.3-0.5c0.5-0.3,0.7-0.7,0.7-1.3c0-0.4-0.1-0.7-0.4-0.9c-0.3-0.2-0.7-0.4-1.1-0.5c-0.5-0.1-1-0.2-1.6-0.3
			c-0.6-0.1-1.2-0.2-1.7-0.3c-0.6-0.1-1.1-0.3-1.6-0.6s-0.9-0.6-1.2-1s-0.4-1-0.4-1.8c0-0.8,0.2-1.4,0.6-2c0.4-0.6,1-1,1.8-1.3
			c0.8-0.3,1.7-0.5,2.8-0.5c0.8,0,1.7,0.1,2.5,0.3s1.6,0.5,2.1,0.9l-1,1.8c-0.6-0.4-1.2-0.6-1.8-0.8c-0.6-0.1-1.2-0.2-1.9-0.2
			c-1,0-1.8,0.2-2.3,0.5s-0.7,0.7-0.7,1.3c0,0.4,0.1,0.8,0.4,1c0.3,0.2,0.7,0.4,1.2,0.5c0.5,0.1,1,0.2,1.6,0.3
			c0.6,0.1,1.2,0.2,1.7,0.3c0.6,0.1,1.1,0.3,1.6,0.6c0.5,0.2,0.9,0.6,1.2,1c0.3,0.4,0.4,1,0.4,1.7c0,0.8-0.2,1.4-0.7,2
			c-0.4,0.6-1.1,1-1.9,1.3C262.1,47,261.1,47.1,260,47.1z"/>
		<path class="st4" d="M280.1,47.1c-1.2,0-2.3-0.3-3.3-0.8c-1-0.5-1.7-1.3-2.3-2.3c-0.6-1-0.8-2.1-0.8-3.4s0.3-2.4,0.8-3.4
			c0.6-1,1.3-1.7,2.3-2.3c1-0.5,2.1-0.8,3.3-0.8c1.1,0,2,0.2,2.9,0.7c0.9,0.5,1.6,1.2,2.1,2.2c0.5,1,0.8,2.2,0.8,3.6
			c0,1.4-0.3,2.6-0.8,3.6c-0.5,1-1.2,1.7-2.1,2.2S281.2,47.1,280.1,47.1z M280.3,45.1c0.8,0,1.5-0.2,2.2-0.6s1.2-0.9,1.5-1.6
			c0.4-0.7,0.6-1.5,0.6-2.4c0-0.9-0.2-1.7-0.6-2.4s-0.9-1.2-1.5-1.5c-0.6-0.4-1.4-0.6-2.2-0.6c-0.8,0-1.5,0.2-2.2,0.6
			c-0.6,0.4-1.2,0.9-1.5,1.5c-0.4,0.7-0.6,1.5-0.6,2.4c0,0.9,0.2,1.7,0.6,2.4c0.4,0.7,0.9,1.2,1.5,1.6
			C278.7,44.9,279.4,45.1,280.3,45.1z M284.6,47v-3.4l0.1-3l-0.2-3v-8.5h2.3V47H284.6z"/>
		<path class="st4" d="M296.8,47.1c-1.4,0-2.6-0.3-3.6-0.8c-1-0.6-1.8-1.3-2.4-2.3c-0.6-1-0.9-2.1-0.9-3.4c0-1.3,0.3-2.4,0.8-3.4
			c0.6-1,1.3-1.7,2.3-2.3c1-0.6,2.1-0.8,3.3-0.8c1.2,0,2.3,0.3,3.3,0.8c0.9,0.5,1.7,1.3,2.2,2.3c0.5,1,0.8,2.1,0.8,3.4
			c0,0.1,0,0.2,0,0.3s0,0.2,0,0.4h-10.8v-1.7h9.6l-0.9,0.6c0-0.8-0.2-1.5-0.5-2.2c-0.4-0.6-0.8-1.1-1.5-1.5
			c-0.6-0.4-1.3-0.5-2.1-0.5c-0.8,0-1.5,0.2-2.1,0.5c-0.6,0.4-1.1,0.9-1.5,1.5c-0.4,0.6-0.5,1.4-0.5,2.2v0.4c0,0.8,0.2,1.6,0.6,2.3
			c0.4,0.7,0.9,1.2,1.6,1.5s1.5,0.6,2.4,0.6c0.8,0,1.4-0.1,2.1-0.4c0.6-0.3,1.2-0.6,1.6-1.2l1.3,1.5c-0.6,0.7-1.3,1.2-2.1,1.5
			C298.8,47,297.9,47.1,296.8,47.1z"/>
		<path class="st4" d="M315.1,44.9h9.8V47h-12.2V30.2h11.9v2.1h-9.5V44.9z M314.8,37.4h8.6v2h-8.6V37.4z"/>
		<path class="st4" d="M333.5,47.1c-1.2,0-2.3-0.3-3.3-0.8s-1.7-1.3-2.3-2.3c-0.6-1-0.8-2.1-0.8-3.4s0.3-2.4,0.8-3.4
			c0.6-1,1.3-1.7,2.3-2.3c1-0.5,2.1-0.8,3.3-0.8c1.1,0,2,0.2,2.9,0.7c0.9,0.5,1.6,1.2,2.1,2.2c0.5,1,0.8,2.2,0.8,3.6
			c0,1.4-0.3,2.6-0.8,3.6c-0.5,1-1.2,1.7-2.1,2.2S334.6,47.1,333.5,47.1z M333.7,45.1c0.8,0,1.5-0.2,2.2-0.6s1.2-0.9,1.5-1.6
			c0.4-0.7,0.6-1.5,0.6-2.4c0-0.9-0.2-1.7-0.6-2.4s-0.9-1.2-1.5-1.5c-0.6-0.4-1.4-0.6-2.2-0.6c-0.8,0-1.5,0.2-2.2,0.6
			c-0.6,0.4-1.2,0.9-1.5,1.5c-0.4,0.7-0.6,1.5-0.6,2.4c0,0.9,0.2,1.7,0.6,2.4c0.4,0.7,0.9,1.2,1.5,1.6
			C332.1,44.9,332.9,45.1,333.7,45.1z M338,47v-3.4l0.1-3l-0.2-3v-8.5h2.3V47H338z"/>
		<path class="st4" d="M349.9,47.1c-1.1,0-2-0.2-2.9-0.6c-0.8-0.4-1.5-1-1.9-1.8s-0.7-1.9-0.7-3.1v-7.3h2.3v7.1
			c0,1.2,0.3,2.2,0.9,2.8c0.6,0.6,1.4,0.9,2.5,0.9c0.8,0,1.5-0.2,2.1-0.5c0.6-0.3,1-0.8,1.4-1.4s0.5-1.4,0.5-2.3v-6.6h2.3V47h-2.2
			v-3.4l0.4,0.9c-0.4,0.8-1,1.5-1.9,2C351.9,46.9,351,47.1,349.9,47.1z"/>
		<path class="st4" d="M366.4,47.1c-1.3,0-2.5-0.3-3.5-0.8c-1-0.6-1.8-1.3-2.4-2.3c-0.6-1-0.9-2.1-0.9-3.4c0-1.3,0.3-2.4,0.9-3.4
			s1.4-1.7,2.4-2.3c1-0.6,2.2-0.8,3.5-0.8c1.2,0,2.2,0.2,3.1,0.7s1.6,1.1,2.1,2l-1.8,1.1c-0.4-0.6-0.9-1.1-1.5-1.4s-1.2-0.4-1.9-0.4
			c-0.8,0-1.6,0.2-2.2,0.6c-0.7,0.4-1.2,0.9-1.6,1.5c-0.4,0.7-0.6,1.5-0.6,2.4s0.2,1.7,0.6,2.4c0.4,0.7,0.9,1.2,1.6,1.6
			s1.4,0.6,2.2,0.6c0.7,0,1.3-0.1,1.9-0.4c0.6-0.3,1.1-0.8,1.5-1.4l1.8,1.1c-0.5,0.9-1.2,1.6-2.1,2
			C368.6,46.9,367.5,47.1,366.4,47.1z"/>
		<path class="st4" d="M378.3,47.1c-0.9,0-1.8-0.2-2.5-0.5s-1.3-0.8-1.6-1.3c-0.4-0.6-0.6-1.2-0.6-1.9c0-0.7,0.2-1.3,0.5-1.9
			c0.3-0.6,0.9-1,1.6-1.3s1.7-0.5,3-0.5h4v1.7h-3.9c-1.2,0-1.9,0.2-2.3,0.6c-0.4,0.4-0.6,0.8-0.6,1.4c0,0.6,0.2,1.1,0.7,1.5
			c0.5,0.4,1.2,0.6,2.1,0.6c0.9,0,1.6-0.2,2.3-0.6c0.6-0.4,1.1-0.9,1.4-1.7l0.5,1.6c-0.3,0.8-0.8,1.3-1.6,1.8
			C380.4,46.9,379.4,47.1,378.3,47.1z M382.4,47v-2.7l-0.1-0.5v-4.6c0-1-0.3-1.7-0.9-2.3c-0.6-0.5-1.4-0.8-2.6-0.8
			c-0.8,0-1.5,0.1-2.2,0.4s-1.3,0.6-1.8,1l-1-1.7c0.7-0.5,1.4-0.9,2.4-1.2s1.9-0.4,2.9-0.4c1.7,0,3.1,0.4,4,1.3
			c0.9,0.8,1.4,2.1,1.4,3.9V47H382.4z"/>
		<path class="st4" d="M394.4,47.1c-1.3,0-2.5-0.3-3.5-0.8c-1-0.6-1.8-1.3-2.4-2.3c-0.6-1-0.9-2.1-0.9-3.4c0-1.3,0.3-2.4,0.9-3.4
			s1.4-1.7,2.4-2.3c1-0.6,2.2-0.8,3.5-0.8c1.2,0,2.2,0.2,3.1,0.7s1.6,1.1,2.1,2l-1.8,1.1c-0.4-0.6-0.9-1.1-1.5-1.4s-1.2-0.4-1.9-0.4
			c-0.8,0-1.6,0.2-2.2,0.6c-0.7,0.4-1.2,0.9-1.6,1.5c-0.4,0.7-0.6,1.5-0.6,2.4s0.2,1.7,0.6,2.4c0.4,0.7,0.9,1.2,1.6,1.6
			s1.4,0.6,2.2,0.6c0.7,0,1.3-0.1,1.9-0.4c0.6-0.3,1.1-0.8,1.5-1.4l1.8,1.1c-0.5,0.9-1.2,1.6-2.1,2
			C396.6,46.9,395.6,47.1,394.4,47.1z"/>
		<path class="st4" d="M403.6,31.8c-0.4,0-0.8-0.1-1.1-0.4c-0.3-0.3-0.4-0.6-0.4-1.1c0-0.4,0.1-0.8,0.4-1.1c0.3-0.3,0.7-0.4,1.1-0.4
			s0.8,0.1,1.1,0.4c0.3,0.3,0.4,0.6,0.4,1c0,0.4-0.1,0.8-0.4,1.1C404.4,31.7,404.1,31.8,403.6,31.8z M402.4,47V34.3h2.3V47H402.4z"
			/>
		<path class="st4" d="M414.6,47.1c-1.3,0-2.4-0.3-3.4-0.8c-1-0.6-1.8-1.3-2.4-2.3c-0.6-1-0.9-2.1-0.9-3.3c0-1.3,0.3-2.4,0.9-3.4
			s1.4-1.7,2.4-2.3c1-0.6,2.1-0.8,3.4-0.8c1.3,0,2.4,0.3,3.4,0.8c1,0.6,1.8,1.3,2.4,2.3c0.6,1,0.9,2.1,0.9,3.4
			c0,1.3-0.3,2.4-0.9,3.4c-0.6,1-1.4,1.7-2.4,2.3C417,46.9,415.8,47.1,414.6,47.1z M414.6,45.1c0.8,0,1.5-0.2,2.2-0.6
			c0.6-0.4,1.2-0.9,1.5-1.6c0.4-0.7,0.6-1.5,0.6-2.4c0-0.9-0.2-1.7-0.6-2.4s-0.9-1.2-1.5-1.5c-0.6-0.4-1.4-0.6-2.2-0.6
			s-1.5,0.2-2.2,0.6c-0.6,0.4-1.2,0.9-1.5,1.5c-0.4,0.7-0.6,1.5-0.6,2.4c0,0.9,0.2,1.7,0.6,2.4c0.4,0.7,0.9,1.2,1.5,1.6
			C413,44.9,413.8,45.1,414.6,45.1z M412.8,32.4l3.3-3.1h2.9l-4,3.1H412.8z"/>
		<path class="st4" d="M431.2,34.2c1,0,2,0.2,2.7,0.6c0.8,0.4,1.4,1,1.9,1.8s0.7,1.8,0.7,3.1V47h-2.3v-7.1c0-1.2-0.3-2.2-0.9-2.8
			c-0.6-0.6-1.4-0.9-2.5-0.9c-0.8,0-1.5,0.2-2.1,0.5c-0.6,0.3-1.1,0.8-1.4,1.4c-0.3,0.6-0.5,1.4-0.5,2.3V47h-2.3V34.3h2.2v3.4
			l-0.4-0.9c0.4-0.8,1.1-1.5,1.9-1.9S430,34.2,431.2,34.2z"/>
	</g>
</g>
</svg>
