<?xml version="1.0" encoding="utf-8"?>
<!-- Generator: Adobe Illustrator 24.0.2, SVG Export Plug-In . SVG Version: 6.00 Build 0)  -->
<!DOCTYPE svg PUBLIC "-//W3C//DTD SVG 1.1//EN" "http://www.w3.org/Graphics/SVG/1.1/DTD/svg11.dtd" [
	<!ENTITY ns_extend "http://ns.adobe.com/Extensibility/1.0/">
	<!ENTITY ns_ai "http://ns.adobe.com/AdobeIllustrator/10.0/">
	<!ENTITY ns_graphs "http://ns.adobe.com/Graphs/1.0/">
	<!ENTITY ns_vars "http://ns.adobe.com/Variables/1.0/">
	<!ENTITY ns_imrep "http://ns.adobe.com/ImageReplacement/1.0/">
	<!ENTITY ns_sfw "http://ns.adobe.com/SaveForWeb/1.0/">
	<!ENTITY ns_custom "http://ns.adobe.com/GenericCustomNamespace/1.0/">
	<!ENTITY ns_adobe_xpath "http://ns.adobe.com/XPath/1.0/">
]>
<svg version="1.1" id="Capa_1" xmlns:x="&ns_extend;" xmlns:i="&ns_ai;" xmlns:graph="&ns_graphs;"
	 xmlns="http://www.w3.org/2000/svg" xmlns:xlink="http://www.w3.org/1999/xlink" x="0px" y="0px" viewBox="0 0 550 69"
	 style="enable-background:new 0 0 550 69;" xml:space="preserve">
<style type="text/css">
	.st0{opacity:0.15;fill:#143F8B;enable-background:new    ;}
	.st1{fill:#105B83;}
	.st2{fill:#ECD015;}
	.st3{fill:#FFFFFF;}
	.st4{fill:#E3007E;}
	.st5{enable-background:new    ;}
	.st6{fill:#606060;}
</style>
<metadata>
	<sfw  xmlns="&ns_sfw;">
		<slices></slices>
		<sliceSourceBounds  bottomLeftOrigin="true" height="63.2" width="467.4" x="41.3" y="2"></sliceSourceBounds>
	</sfw>
</metadata>
<title>banner_pw</title>
<g>
	<g>
		<g>
			<path class="st0" d="M127.5,23h228.7c8.8,0,16,6.9,16,15.5v1c0,8.5-7.2,15.5-16,15.5H127.5c-8.8,0-16-6.9-16-15.5v-1
				C111.5,29.9,118.7,23,127.5,23z"/>
			<circle class="st1" cx="69.9" cy="32.4" r="28.6"/>
			<circle class="st2" cx="101.5" cy="38" r="29"/>
			<path class="st3" d="M73.5,10.4c0.2,0.1,0.4,0.1,0.6,0.2c2.9,0.7,4.6,3.6,3.9,6.5c-0.8,2.9-3.7,4.6-6.5,3.9
				c-2.9-0.7-4.6-3.6-3.9-6.5c0.5-1.9,2-3.4,3.9-3.9c0.2,0,0.4-0.1,0.6-0.2C72.1,10.4,73.5,10.4,73.5,10.4z M72.8,19.9
				c2.3,0,4.1-1.9,4-4.1c0-2.3-1.9-4.1-4.1-4c-2.3,0-4.1,1.9-4,4.1l0,0C68.8,18.1,70.6,19.8,72.8,19.9L72.8,19.9z"/>
			<path class="st3" d="M78.6,38.2c0.3,4.5,0.7,8.9,1,13.4c0.1,1,0.1,2.1,0,3.1c-0.3,1.6-1.7,2.7-3.3,2.6c-1.5-0.1-2.8-1.2-3-2.8
				c-0.2-2-0.3-3.9-0.6-5.9c-0.1,1.6-0.2,3.2-0.4,4.8c0,0.6-0.1,1.1-0.3,1.7c-0.6,1.7-2.4,2.6-4.1,2.1c-1.4-0.5-2.3-1.8-2.2-3.3
				c0.2-3.6,0.5-7.1,0.8-10.7c0.1-1.7,0.3-3.3,0.4-5.1c-0.2,0.3-0.3,0.4-0.3,0.5c-0.6,1.5-2.2,2.3-3.7,1.7s-2.3-2.2-1.7-3.7
				c0.5-1.6,0.9-3.2,1.4-4.7c0.4-1.4,0.8-2.7,1.2-4.1c1-3.3,4.1-5.7,7.6-5.7c1.6-0.1,3.3,0,4.9,0.4c2.7,0.7,4.8,2.7,5.5,5.4
				c0.9,2.9,1.8,5.8,2.7,8.7c0.6,1.5-0.2,3.2-1.7,3.8h-0.1c-1.5,0.5-3.2-0.3-3.7-1.8c0-0.1,0-0.1-0.1-0.2
				C78.8,38.3,78.7,38.3,78.6,38.2L78.6,38.2z M72.8,23.2v0.2c-0.2,0-0.4,0-0.6,0c-3.5-0.2-6.7,2.1-7.5,5.5
				c-0.6,2.6-1.5,5.1-2.3,7.6c-0.4,1.4-0.1,2.4,1,2.7c1.1,0.3,1.8-0.4,2.2-1.8c0.5-2.3,1.1-4.6,1.6-6.8c0.1-0.4,0.1-1,0.8-0.9
				c0.7,0.1,0.6,0.6,0.5,1c-0.1,1.6-0.2,3.2-0.3,4.8c-0.3,4.1-0.6,8.2-0.9,12.3c-0.1,2-0.3,4-0.4,6.1c-0.1,1.1,0.7,2,1.7,2.1
				c1.1,0.1,2.2-0.6,2.3-1.8c0-0.1,0-0.2,0-0.3c0.2-1.8,0.3-3.5,0.4-5.3c0.2-2.3,0.3-4.6,0.5-6.9c0-0.5,0.3-0.9,0.8-0.9
				s0.8,0.4,0.9,0.9c0,0.7,0.1,1.4,0.2,2.2c0.3,3.4,0.5,6.9,0.8,10.3c0.1,1.1,1,2,2.1,1.9c0,0,0,0,0.1,0c1.1-0.1,1.9-1.1,1.8-2.2
				l0,0c-0.3-3.6-0.5-7.1-0.8-10.7c-0.3-4.2-0.5-8.3-0.8-12.5c0-0.4-0.1-0.9,0.5-0.9s0.7,0.3,0.8,0.8c0.6,2.4,1.1,4.8,1.7,7.2
				c0.1,0.9,0.9,1.6,1.9,1.5h0.1c0.9-0.2,1.5-1.1,1.3-2c0-0.1,0-0.2-0.1-0.2c-0.9-3-1.7-6-2.7-9c-0.6-2-2.1-3.5-4.1-4.2
				C75.2,23.5,74,23.3,72.8,23.2L72.8,23.2z"/>
			<path class="st3" d="M108.2,49.6c0.1,1.8,0.3,3.5,0.3,5.2c0.1,1.8-1.3,3.3-3,3.4c-1.7,0.1-3.1-1.1-3.4-2.7
				c-0.2-1.1-0.2-2.2-0.3-3.3c0-0.8-0.2-1.7-0.4-2.5c-0.1,1.3-0.2,2.7-0.3,4c0,0.5-0.1,1-0.1,1.5c-0.2,1.8-1.8,3.1-3.5,2.9l0,0
				c-1.8-0.2-3.1-1.8-2.9-3.6c0,0,0,0,0-0.1c0.1-1.5,0.2-3.1,0.3-4.6c0-0.1-0.1-0.2-0.1-0.3h-1c-0.8,0-1-0.3-0.9-1.1
				c0.4-2.1,0.8-4.1,1.2-6.2c0.1-0.4,0.2-0.7-0.4-0.8c-2.9-0.8-3.6-1.8-3-4.7s1.3-5.8,2.1-8.6c0.6-2.5,2.7-4.4,5.2-4.8
				c0.7,0,1.4,0,2.1,0.1c0.8,0.2,1.7,0.2,2.6,0.1c2.4-0.9,5.5,0.5,6.7,2.6c0.5,0.8,0.9,1.7,1.1,2.6c0.7,2.6,1.3,5.3,1.9,8
				c0.1,0.6,0.2,1.3,0.1,1.9c0,1.3-0.9,2.4-2.2,2.7c-1.4,0.4-1.4,0.4-1.2,1.8l1,5.3c0.2,0.8-0.1,1.1-0.9,1.1L108.2,49.6z M94.2,48.3
				c0.3,0,0.5,0.1,0.7,0.1c1.2,0,1.3,0.1,1.2,1.3c-0.1,1.6-0.3,3.2-0.4,4.9c-0.3,1.1,0.4,2.2,1.5,2.4c0.1,0,0.2,0,0.3,0
				c1.1,0.1,2.1-0.6,2.2-1.7c0-0.1,0-0.2,0-0.3c0.2-1.8,0.3-3.6,0.4-5.4c0.1-0.9,0.4-1.2,1.3-1.2c1,0,1.4,0.3,1.4,1.4
				c0.1,1.7,0.2,3.4,0.4,5c0.1,0.6,0.3,1.2,0.7,1.7c0.5,0.6,1.4,0.8,2.1,0.4c0.8-0.3,1.3-1.1,1.2-1.9c-0.1-1.8-0.3-3.6-0.3-5.3
				c-0.1-1.2,0-1.2,1.1-1.3c0.2,0,0.5,0,0.7-0.1c-0.1-0.4-0.1-0.7-0.2-1c-1-5.2-1.9-10.5-2.9-15.7c-0.1-0.4-0.1-0.8,0.4-1
				s0.7,0.3,0.8,0.7c0.2,1,0.4,2,0.6,3c0.4,2,0.8,4.1,1.2,6.1c2-0.1,2.7-0.8,2.5-2.7c0-0.2,0-0.4-0.1-0.6c-0.6-2.7-1.2-5.4-1.9-8.1
				c-0.3-0.9-0.7-1.7-1.2-2.5c-1.1-1.6-3.1-2.3-5-1.7c-1.1,0.3-2.2,0.3-3.3-0.1c-0.5-0.2-1.1-0.2-1.6-0.1c-2.4,0.4-3.7,2.1-4.3,4.3
				c-0.5,1.6-0.9,3.2-1.3,4.9c-0.3,1.4-0.6,2.9-0.7,4.3c-0.1,1.3,0.3,1.8,1.6,2l1,0.2c0.1-0.3,0.2-0.7,0.2-1l1.5-8.1
				c0.1-0.4,0.2-0.9,0.8-0.8s0.5,0.5,0.5,1c-0.3,1.7-0.6,3.4-1,5.1C95.7,40.5,95,44.3,94.2,48.3L94.2,48.3z"/>
			<path class="st3" d="M96.2,17.5c0-2.9,2.4-5.3,5.3-5.4c2.9,0,5.3,2.4,5.4,5.3c0,2.9-2.4,5.3-5.3,5.4
				C98.6,22.8,96.2,20.4,96.2,17.5L96.2,17.5z M101.6,13.4c-2.3,0-4.1,1.7-4.2,4c0,2.3,1.7,4.1,4,4.2c2.3,0.1,4.1-1.7,4.2-4
				c0-0.1,0-0.1,0-0.2C105.5,15.2,103.7,13.4,101.6,13.4z"/>
		</g>
	</g>
	<g>
		<path class="st0" d="M427.1,19.8h76.2c3,0,5.4,6.9,5.4,15.5v1c0,8.5-2.4,15.5-5.4,15.5h-76.2c-3,0-5.4-6.9-5.4-15.5v-1
			C421.8,26.7,424.2,19.8,427.1,19.8z"/>
		<circle class="st4" cx="410.9" cy="34.5" r="29"/>
		<g>
			<g>
				<path class="st3" d="M397.5,45.9c-1.5,0-3,0-4.4,0c-0.3,0-0.5,0.1-0.7,0c-0.3-0.2-0.8-0.4-0.9-0.7s0-0.9,0.3-1.1
					c3.7-3.6,5.2-8.2,5.6-13.1c0.3-2.8,0.1-5.6,0.2-8.5c0-1.1,0.3-1.4,1.4-1.4c1.5,0,3.1,0,4.6,0c0,0,0.1,0,0.2-0.1
					c0.2-0.7-0.2-2,1.1-1.9c1.3,0,0.9,1.2,1.1,2c1.7,0,3.4,0,5.1,0c0.1-0.8-0.2-2,1.1-2c1.3,0,1,1.1,1,2c1.7,0,3.4,0,5.2,0
					c0.2-0.8-0.2-2.1,1.2-2c1.2,0.1,0.9,1.1,0.9,2c0.2,0,0.5,0,0.7,0c1.4,0,2.8,0,4.1,0c0.9,0,1.3,0.4,1.3,1.3c0,8.8,0,17.6,0,26.4
					c0,0.9-0.4,1.3-1.5,1.3c-7.2,0-14.3,0-21.5,0c-1.5,0-3.1,0-4.6,0c-1.2,0-1.5-0.3-1.5-1.5C397.5,47.7,397.5,46.8,397.5,45.9z
					 M394.7,43.8c0.3,0,0.5,0,0.7,0c7.6,0,15.2,0,22.8,0c0.4,0,0.8-0.2,1-0.5c2.5-2.7,3.9-6,4.6-9.6c0.3-1.4,0.4-2.9,0.6-4.4
					c-8.4,0-16.7,0-25,0C399.3,34.6,397.9,39.5,394.7,43.8z M413.1,23.2c-0.1,0.8,0.2,1.9-1,2c-1.4,0.1-1-1.2-1.1-2
					c-1.7,0-3.4,0-5.1,0c-0.2,0.8,0.2,1.9-1,2c-1.4,0.1-1-1.2-1.2-2c-1.4,0-2.7,0-4.1,0c0,1.4,0,2.7,0,4c8.3,0,16.6,0,24.8,0
					c0-1.4,0-2.7,0-4c-1.4,0-2.7,0-4,0c-0.1,0.8,0.2,2-1.1,2c-1.3,0-0.9-1.2-1-2C416.5,23.2,414.8,23.2,413.1,23.2z M424.4,39.4
					L424.4,39.4c-0.2,0.2-0.3,0.4-0.4,0.5c-0.9,1.9-2.1,3.7-3.6,5.3c-0.5,0.5-1,0.7-1.7,0.7c-6.1,0-12.2,0-18.3,0
					c-0.3,0-0.6,0-0.9,0c0,0.7,0,1.4,0,2c8.3,0,16.6,0,24.9,0C424.4,45,424.4,42.2,424.4,39.4z"/>
			</g>
		</g>
		<g class="st5">
			<path class="st6" d="M444.8,43.7V42l6.8-6.6c0.6-0.6,1.1-1.1,1.4-1.5s0.5-0.8,0.6-1.2s0.2-0.7,0.2-1.1c0-0.9-0.3-1.5-0.9-2
				s-1.5-0.7-2.7-0.7c-0.9,0-1.7,0.1-2.4,0.4c-0.7,0.3-1.3,0.8-1.9,1.4l-1.6-1.4c0.6-0.8,1.5-1.4,2.6-1.9c1.1-0.4,2.3-0.7,3.6-0.7
				c1.2,0,2.2,0.2,3,0.6s1.5,0.9,2,1.6s0.7,1.5,0.7,2.5c0,0.5-0.1,1.1-0.2,1.6s-0.4,1.1-0.8,1.7c-0.4,0.6-1,1.3-1.7,2l-6.1,5.9
				l-0.6-0.9H457v2.1L444.8,43.7L444.8,43.7z"/>
			<path class="st6" d="M465.7,43.8c-1.3,0-2.5-0.3-3.5-1s-1.8-1.6-2.4-2.9c-0.6-1.3-0.9-2.8-0.9-4.7c0-1.8,0.3-3.4,0.9-4.7
				c0.6-1.3,1.4-2.3,2.4-2.9c1-0.7,2.2-1,3.5-1s2.5,0.3,3.5,1s1.9,1.6,2.4,2.9s0.9,2.8,0.9,4.7c0,1.8-0.3,3.4-0.9,4.7
				s-1.4,2.3-2.4,2.9C468.2,43.5,467,43.8,465.7,43.8z M465.7,41.7c0.9,0,1.7-0.2,2.3-0.7c0.7-0.5,1.2-1.2,1.6-2.2s0.6-2.2,0.6-3.6
				c0-1.4-0.2-2.6-0.6-3.6c-0.4-1-0.9-1.7-1.6-2.2s-1.4-0.7-2.3-0.7s-1.7,0.2-2.3,0.7c-0.7,0.5-1.2,1.2-1.6,2.2
				c-0.4,1-0.6,2.2-0.6,3.6s0.2,2.6,0.6,3.6s0.9,1.7,1.6,2.2C464,41.5,464.8,41.7,465.7,41.7z"/>
			<path class="st6" d="M474.6,43.7V42l6.8-6.6c0.6-0.6,1.1-1.1,1.4-1.5s0.5-0.8,0.6-1.2s0.2-0.7,0.2-1.1c0-0.9-0.3-1.5-0.9-2
				s-1.5-0.7-2.7-0.7c-0.9,0-1.7,0.1-2.4,0.4c-0.7,0.3-1.3,0.8-1.9,1.4l-1.6-1.4c0.6-0.8,1.5-1.4,2.6-1.9c1.1-0.4,2.3-0.7,3.6-0.7
				c1.2,0,2.2,0.2,3,0.6s1.5,0.9,2,1.6s0.7,1.5,0.7,2.5c0,0.5-0.1,1.1-0.2,1.6s-0.4,1.1-0.8,1.7c-0.4,0.6-1,1.3-1.7,2l-6.1,5.9
				l-0.6-0.9h10.2v2.1L474.6,43.7L474.6,43.7z"/>
			<path class="st6" d="M491.4,43.7V27.8l1,1.1h-4.8v-2.1h6.2v16.8h-2.4V43.7z"/>
		</g>
	</g>
</g>
<g>
	<path class="st6" d="M152.1,47.7l0-12.2L146,45.6h-1.1l-6.1-10.1v12.2h-2.3V30.9h2l7,11.8l6.9-11.8h2l0,16.8H152.1z"/>
	<path class="st6" d="M169.2,40v7.7H167V46c-0.8,1.2-2.2,1.8-4.2,1.8c-2.9,0-4.7-1.5-4.7-3.7c0-2,1.3-3.7,5.1-3.7h3.6v-0.5
		c0-1.9-1.1-3.1-3.4-3.1c-1.5,0-3,0.5-4,1.4l-1-1.7c1.3-1.1,3.2-1.6,5.3-1.6C167.3,34.8,169.2,36.5,169.2,40z M166.9,43.8V42h-3.6
		c-2.3,0-2.9,0.9-2.9,2c0,1.3,1.1,2.1,2.8,2.1C165,46,166.4,45.3,166.9,43.8z"/>
	<path class="st6" d="M180.7,46.9c-0.7,0.6-1.8,0.9-2.8,0.9c-2.6,0-4-1.4-4-4v-7h-2.2V35h2.2v-2.8h2.3V35h3.6v1.9h-3.6v6.9
		c0,1.4,0.7,2.1,2,2.1c0.7,0,1.3-0.2,1.8-0.6L180.7,46.9z"/>
	<path class="st6" d="M190.3,34.8v2.2c-0.2,0-0.4,0-0.5,0c-2.5,0-4,1.5-4,4.3v6.3h-2.3V35h2.2v2.1C186.5,35.6,188,34.8,190.3,34.8z"
		/>
	<path class="st6" d="M195.7,30h2.9l-4,3.1h-2.2L195.7,30z M193.1,35h2.3v12.7h-2.3V35z"/>
	<path class="st6" d="M198.6,41.3c0-3.8,2.8-6.5,6.7-6.5c2.3,0,4.2,0.9,5.2,2.7l-1.8,1.1c-0.8-1.2-2.1-1.8-3.5-1.8
		c-2.5,0-4.4,1.8-4.4,4.5c0,2.8,1.9,4.5,4.4,4.5c1.4,0,2.6-0.6,3.5-1.8l1.8,1.1c-1,1.8-2.9,2.7-5.2,2.7
		C201.4,47.8,198.6,45.1,198.6,41.3z"/>
	<path class="st6" d="M225.4,35v12.7h-2.2v-1.9c-0.9,1.3-2.5,2.1-4.3,2.1c-3.3,0-5.5-1.8-5.5-5.5V35h2.3V42c0,2.5,1.2,3.7,3.4,3.7
		c2.4,0,3.9-1.5,3.9-4.2V35H225.4z"/>
	<path class="st6" d="M229.8,29.9h2.3v17.8h-2.3V29.9z"/>
	<path class="st6" d="M246.5,40v7.7h-2.2V46c-0.8,1.2-2.2,1.8-4.2,1.8c-2.9,0-4.7-1.5-4.7-3.7c0-2,1.3-3.7,5.1-3.7h3.6v-0.5
		c0-1.9-1.1-3.1-3.4-3.1c-1.5,0-3,0.5-4,1.4l-1-1.7c1.3-1.1,3.2-1.6,5.3-1.6C244.6,34.8,246.5,36.5,246.5,40z M244.2,43.8V42h-3.6
		c-2.3,0-2.9,0.9-2.9,2c0,1.3,1.1,2.1,2.8,2.1C242.3,46,243.7,45.3,244.2,43.8z"/>
	<path class="st6" d="M270.4,41.3c0,3.9-2.7,6.5-6.4,6.5c-1.8,0-3.4-0.7-4.4-2.1v6.6h-2.3V35h2.2v2c1-1.4,2.7-2.1,4.5-2.1
		C267.7,34.8,270.4,37.4,270.4,41.3z M268.1,41.3c0-2.7-1.8-4.5-4.3-4.5c-2.4,0-4.3,1.8-4.3,4.5c0,2.7,1.8,4.5,4.3,4.5
		C266.3,45.8,268.1,44,268.1,41.3z"/>
	<path class="st6" d="M272.5,41.3c0-3.8,2.8-6.5,6.6-6.5s6.6,2.7,6.6,6.5c0,3.8-2.8,6.5-6.6,6.5S272.5,45.1,272.5,41.3z M283.4,41.3
		c0-2.7-1.8-4.5-4.3-4.5s-4.3,1.8-4.3,4.5c0,2.7,1.8,4.5,4.3,4.5S283.4,44,283.4,41.3z"/>
	<path class="st6" d="M295.7,34.8v2.2c-0.2,0-0.4,0-0.5,0c-2.5,0-4,1.5-4,4.3v6.3h-2.3V35h2.2v2.1C291.9,35.6,293.5,34.8,295.7,34.8
		z"/>
	<path class="st6" d="M304,45.8l0.9-1.9c1.2,1.1,3.4,1.9,5.5,1.9c2.9,0,4.2-1.1,4.2-2.6c0-4.1-10.2-1.5-10.2-7.8
		c0-2.6,2-4.8,6.4-4.8c2,0,4,0.5,5.4,1.5l-0.8,1.9c-1.5-0.9-3.1-1.4-4.6-1.4c-2.9,0-4.1,1.2-4.1,2.7c0,4.1,10.2,1.5,10.2,7.7
		c0,2.6-2.1,4.8-6.5,4.8C307.8,47.9,305.3,47,304,45.8z"/>
	<path class="st6" d="M331.5,42.1h-10.3c0.3,2.2,2.1,3.7,4.6,3.7c1.5,0,2.7-0.5,3.7-1.5l1.3,1.5c-1.2,1.3-2.9,2.1-5,2.1
		c-4.1,0-6.8-2.7-6.8-6.5c0-3.8,2.7-6.5,6.4-6.5c3.7,0,6.3,2.6,6.3,6.6C331.6,41.6,331.5,41.9,331.5,42.1z M321.2,40.4h8.2
		c-0.2-2.1-1.8-3.6-4.1-3.6C323.1,36.8,321.4,38.3,321.2,40.4z"/>
	<path class="st6" d="M342.5,47.7l-3.7-4.9l-3.7,4.9h-2.6l5-6.5l-4.8-6.2h2.6l3.5,4.6l3.5-4.6h2.5l-4.8,6.2l5.1,6.5H342.5z"/>
	<path class="st6" d="M346,41.3c0-3.8,2.8-6.5,6.6-6.5s6.6,2.7,6.6,6.5c0,3.8-2.8,6.5-6.6,6.5S346,45.1,346,41.3z M356.9,41.3
		c0-2.7-1.8-4.5-4.3-4.5s-4.3,1.8-4.3,4.5c0,2.7,1.8,4.5,4.3,4.5S356.9,44,356.9,41.3z"/>
</g>
</svg>
