<?xml version="1.0" encoding="utf-8"?>
<!-- Generator: Adobe Illustrator 24.0.2, SVG Export Plug-In . SVG Version: 6.00 Build 0)  -->
<svg version="1.1" id="Capa_1" xmlns="http://www.w3.org/2000/svg" xmlns:xlink="http://www.w3.org/1999/xlink" x="0px" y="0px"
	 viewBox="0 0 593 73" style="enable-background:new 0 0 593 73;" xml:space="preserve">
<style type="text/css">
	.st0{display:none;}
	.st1{display:inline;fill:#606060;stroke:#606060;stroke-width:0.25;}
	.st2{opacity:0.15;fill:#143F8B;enable-background:new    ;}
	.st3{fill:#00AEEF;}
	.st4{fill:#FFFFFF;}
	.st5{fill:#606060;}
	.st6{fill:#E3007E;}
</style>
<title>banner_pw</title>
<g class="st0">
	<path class="st1" d="M182.1,45.5V31.1h5.4c1.2,0,2.3,0.2,3.1,0.6c0.8,0.4,1.6,1,2,1.7c0.5,0.7,0.7,1.6,0.7,2.7c0,1-0.2,1.9-0.7,2.6
		s-1.1,1.3-2,1.7s-1.9,0.6-3.1,0.6H183l0.7-0.7v5.3L182.1,45.5L182.1,45.5z M183.6,40.3l-0.7-0.7h4.5c1.4,0,2.5-0.3,3.3-0.9
		c0.7-0.6,1.1-1.5,1.1-2.6c0-1.2-0.4-2-1.1-2.7c-0.7-0.6-1.8-0.9-3.3-0.9h-4.5l0.7-0.7V40.3z"/>
	<path class="st1" d="M200.6,45.6c-1,0-2-0.2-2.8-0.7s-1.5-1.1-2-2s-0.7-1.8-0.7-2.8c0-1.1,0.2-2,0.7-2.9c0.5-0.8,1.1-1.5,2-1.9
		c0.8-0.5,1.8-0.7,2.8-0.7c1.1,0,2,0.2,2.8,0.7s1.5,1.1,2,1.9c0.5,0.8,0.7,1.8,0.7,2.9c0,1.1-0.2,2-0.7,2.8s-1.1,1.5-2,2
		C202.6,45.3,201.7,45.6,200.6,45.6z M200.6,44.3c0.8,0,1.5-0.2,2.1-0.5s1.1-0.8,1.4-1.5c0.3-0.6,0.5-1.4,0.5-2.2
		c0-0.9-0.2-1.6-0.5-2.2c-0.4-0.6-0.8-1.1-1.4-1.5c-0.6-0.3-1.3-0.5-2.1-0.5s-1.5,0.2-2.1,0.5s-1.1,0.8-1.4,1.5
		c-0.4,0.6-0.5,1.4-0.5,2.2s0.2,1.6,0.5,2.2c0.4,0.6,0.8,1.1,1.4,1.5C199.1,44.2,199.9,44.3,200.6,44.3z"/>
	<path class="st1" d="M209.1,45.5V30.2h1.5v7.7l-0.2,2.2l0.1,2.2v3.3h-1.4L209.1,45.5L209.1,45.5z M214.7,45.6
		c-0.9,0-1.8-0.2-2.6-0.6s-1.4-1.1-1.8-1.9c-0.4-0.8-0.7-1.8-0.7-3s0.2-2.2,0.7-3c0.4-0.8,1-1.4,1.8-1.9c0.8-0.4,1.6-0.6,2.5-0.6
		c1,0,2,0.2,2.8,0.7s1.5,1.1,1.9,1.9c0.5,0.8,0.7,1.8,0.7,2.9c0,1.1-0.2,2-0.7,2.9c-0.5,0.8-1.1,1.5-1.9,1.9
		C216.7,45.3,215.7,45.6,214.7,45.6z M214.6,44.3c0.8,0,1.5-0.2,2.1-0.5s1.1-0.8,1.4-1.5c0.4-0.6,0.5-1.4,0.5-2.2
		c0-0.9-0.2-1.6-0.5-2.2c-0.4-0.6-0.8-1.1-1.4-1.5c-0.6-0.4-1.3-0.5-2.1-0.5s-1.5,0.2-2.1,0.5s-1.1,0.8-1.4,1.5s-0.5,1.4-0.5,2.2
		s0.2,1.6,0.5,2.2s0.8,1.1,1.4,1.5C213.2,44.1,213.8,44.3,214.6,44.3z"/>
	<path class="st1" d="M223.1,45.5V30.2h1.5v15.3H223.1z"/>
	<path class="st1" d="M231.7,45.6c-0.8,0-1.5-0.1-2.1-0.4c-0.6-0.3-1.1-0.6-1.4-1.1s-0.5-1-0.5-1.6s0.1-1.1,0.4-1.5
		c0.3-0.5,0.7-0.8,1.3-1.1s1.4-0.4,2.5-0.4h3.7v1.1h-3.7c-1,0-1.8,0.2-2.2,0.6c-0.4,0.4-0.6,0.8-0.6,1.4c0,0.6,0.2,1.1,0.7,1.5
		s1.2,0.6,2,0.6s1.5-0.2,2.1-0.6c0.6-0.4,1-0.9,1.3-1.6l0.3,1c-0.3,0.7-0.8,1.3-1.4,1.7C233.5,45.4,232.7,45.6,231.7,45.6z
		 M235.4,45.5v-2.4l-0.1-0.4v-4c0-0.9-0.3-1.6-0.8-2.1s-1.3-0.7-2.3-0.7c-0.7,0-1.4,0.1-2,0.3s-1.2,0.5-1.6,0.9l-0.7-1.1
		c0.5-0.5,1.2-0.8,2-1.1s1.6-0.4,2.4-0.4c1.4,0,2.5,0.3,3.2,1c0.8,0.7,1.1,1.7,1.1,3.2v6.7L235.4,45.5L235.4,45.5z"/>
	<path class="st1" d="M245.2,45.6c-1.1,0-2-0.2-2.9-0.7c-0.8-0.5-1.5-1.1-2-2s-0.7-1.8-0.7-2.8c0-1.1,0.2-2,0.7-2.9
		c0.5-0.8,1.1-1.5,2-1.9c0.8-0.5,1.8-0.7,2.9-0.7c0.9,0,1.7,0.2,2.5,0.5c0.7,0.4,1.3,0.9,1.7,1.6l-1.1,0.7c-0.4-0.5-0.8-1-1.4-1.2
		c-0.5-0.3-1.1-0.4-1.8-0.4c-0.8,0-1.5,0.2-2.1,0.5s-1.1,0.8-1.5,1.5c-0.4,0.6-0.5,1.4-0.5,2.2s0.2,1.6,0.5,2.2
		c0.4,0.6,0.8,1.1,1.5,1.5c0.6,0.3,1.3,0.5,2.1,0.5c0.6,0,1.2-0.1,1.8-0.4c0.5-0.3,1-0.7,1.4-1.2l1.1,0.7c-0.4,0.7-1,1.2-1.7,1.6
		C247,45.4,246.2,45.6,245.2,45.6z"/>
	<path class="st1" d="M252.9,32.3c-0.3,0-0.6-0.1-0.8-0.3s-0.3-0.5-0.3-0.7c0-0.3,0.1-0.5,0.3-0.7s0.5-0.3,0.8-0.3s0.6,0.1,0.8,0.3
		c0.2,0.2,0.3,0.4,0.3,0.7c0,0.3-0.1,0.6-0.3,0.8C253.5,32.2,253.2,32.3,252.9,32.3z M252.2,45.5V34.7h1.5v10.8H252.2z"/>
	<path class="st1" d="M262.1,45.6c-1,0-2-0.2-2.8-0.7s-1.5-1.1-2-2s-0.7-1.8-0.7-2.8c0-1.1,0.2-2,0.7-2.9c0.5-0.8,1.1-1.5,2-1.9
		c0.8-0.5,1.8-0.7,2.8-0.7c1.1,0,2,0.2,2.8,0.7s1.5,1.1,2,1.9c0.5,0.8,0.7,1.8,0.7,2.9c0,1.1-0.2,2-0.7,2.8s-1.1,1.5-2,2
		C264.1,45.3,263.2,45.6,262.1,45.6z M262.1,44.3c0.8,0,1.5-0.2,2.1-0.5s1.1-0.8,1.4-1.5c0.3-0.6,0.5-1.4,0.5-2.2
		c0-0.9-0.2-1.6-0.5-2.2c-0.4-0.6-0.8-1.1-1.4-1.5c-0.6-0.3-1.3-0.5-2.1-0.5s-1.5,0.2-2.1,0.5s-1.1,0.8-1.4,1.5
		c-0.4,0.6-0.5,1.4-0.5,2.2s0.2,1.6,0.5,2.2c0.4,0.6,0.8,1.1,1.4,1.5S261.3,44.3,262.1,44.3z M260.8,33l2.8-2.6h2l-3.3,2.6H260.8z"
		/>
	<path class="st1" d="M276.1,34.6c0.9,0,1.6,0.2,2.3,0.5c0.7,0.3,1.2,0.8,1.6,1.5s0.6,1.5,0.6,2.6v6.3h-1.5v-6.1
		c0-1.1-0.3-2-0.9-2.6s-1.4-0.9-2.4-0.9c-0.8,0-1.4,0.2-2,0.5s-1,0.8-1.3,1.3c-0.3,0.6-0.5,1.3-0.5,2.1v5.7h-1.5V34.7h1.4v3
		l-0.2-0.6c0.3-0.8,0.9-1.4,1.6-1.8C274.2,34.8,275.1,34.6,276.1,34.6z"/>
	<path class="st1" d="M290.2,45.5V31.1h5.9c1.5,0,2.9,0.3,4,0.9c1.2,0.6,2.1,1.5,2.7,2.5c0.6,1.1,1,2.3,1,3.7s-0.3,2.7-1,3.7
		s-1.5,1.9-2.7,2.5s-2.5,0.9-4,0.9h-5.9V45.5z M291.7,44.2h4.3c1.3,0,2.4-0.3,3.3-0.8s1.7-1.2,2.2-2.1c0.5-0.9,0.8-1.9,0.8-3.1
		c0-1.2-0.3-2.2-0.8-3.1c-0.5-0.9-1.3-1.6-2.2-2.1s-2-0.8-3.3-0.8h-4.3V44.2z"/>
	<path class="st1" d="M311.3,45.6c-1,0-2-0.2-2.8-0.7s-1.5-1.1-2-2c-0.5-0.8-0.7-1.8-0.7-2.8c0-1.1,0.2-2,0.7-2.9
		c0.5-0.8,1.1-1.5,2-1.9c0.8-0.5,1.8-0.7,2.8-0.7c1.1,0,2,0.2,2.8,0.7s1.5,1.1,2,1.9c0.5,0.8,0.7,1.8,0.7,2.9c0,1.1-0.2,2-0.7,2.8
		s-1.1,1.5-2,2C313.3,45.3,312.3,45.6,311.3,45.6z M311.3,44.3c0.8,0,1.5-0.2,2.1-0.5s1.1-0.8,1.4-1.5s0.5-1.4,0.5-2.2
		c0-0.9-0.2-1.6-0.5-2.2c-0.3-0.6-0.8-1.1-1.4-1.5s-1.3-0.5-2.1-0.5c-0.8,0-1.5,0.2-2.1,0.5s-1.1,0.8-1.4,1.5s-0.5,1.4-0.5,2.2
		s0.2,1.6,0.5,2.2c0.3,0.6,0.8,1.1,1.4,1.5S310.5,44.3,311.3,44.3z"/>
	<path class="st1" d="M324.3,45.6c-1.1,0-2-0.2-2.9-0.7c-0.8-0.5-1.5-1.1-2-2c-0.5-0.8-0.7-1.8-0.7-2.8c0-1.1,0.2-2,0.7-2.9
		c0.5-0.8,1.1-1.5,2-1.9c0.8-0.5,1.8-0.7,2.9-0.7c0.9,0,1.7,0.2,2.5,0.5s1.3,0.9,1.7,1.6l-1.1,0.7c-0.4-0.5-0.8-1-1.4-1.2
		c-0.5-0.3-1.1-0.4-1.8-0.4c-0.8,0-1.5,0.2-2.1,0.5s-1.1,0.8-1.5,1.5s-0.5,1.4-0.5,2.2s0.2,1.6,0.5,2.2c0.4,0.6,0.8,1.1,1.5,1.5
		s1.3,0.5,2.1,0.5c0.6,0,1.2-0.1,1.8-0.4c0.5-0.3,1-0.7,1.4-1.2l1.1,0.7c-0.4,0.7-1,1.2-1.7,1.6C326.1,45.3,325.2,45.6,324.3,45.6z"
		/>
	<path class="st1" d="M335.8,45.6c-1.1,0-2.1-0.2-3-0.7s-1.5-1.1-2-2c-0.5-0.8-0.7-1.8-0.7-2.8s0.2-2,0.7-2.8s1.1-1.5,1.9-1.9
		s1.7-0.7,2.7-0.7s1.9,0.2,2.7,0.7c0.8,0.5,1.4,1.1,1.9,1.9c0.5,0.8,0.7,1.8,0.7,2.9c0,0.1,0,0.1,0,0.2s0,0.2,0,0.2h-9.4v-1.1h8.6
		l-0.6,0.4c0-0.8-0.2-1.5-0.5-2.1s-0.8-1.1-1.4-1.4c-0.6-0.3-1.2-0.5-2-0.5c-0.7,0-1.4,0.2-2,0.5s-1,0.8-1.4,1.4s-0.5,1.3-0.5,2.1
		v0.2c0,0.8,0.2,1.5,0.5,2.2s0.9,1.1,1.5,1.5c0.7,0.3,1.4,0.5,2.2,0.5c0.7,0,1.3-0.1,1.8-0.3c0.6-0.2,1.1-0.6,1.5-1.1l0.8,0.9
		c-0.5,0.6-1.1,1-1.8,1.3C337.4,45.4,336.6,45.6,335.8,45.6z"/>
	<path class="st1" d="M349.1,34.6c0.9,0,1.6,0.2,2.3,0.5c0.7,0.3,1.2,0.8,1.6,1.5s0.6,1.5,0.6,2.6v6.3h-1.5v-6.1
		c0-1.1-0.3-2-0.9-2.6s-1.4-0.9-2.4-0.9c-0.8,0-1.4,0.2-2,0.5s-1,0.8-1.3,1.3c-0.3,0.6-0.5,1.3-0.5,2.1v5.7h-1.5V34.7h1.4v3
		l-0.2-0.6c0.3-0.8,0.9-1.4,1.6-1.8C347.2,34.8,348.1,34.6,349.1,34.6z"/>
	<path class="st1" d="M355.8,35.9v-1.2h6.7v1.2H355.8z M360.9,45.6c-1,0-1.8-0.3-2.3-0.8s-0.8-1.3-0.8-2.3V32.3h1.5v10.1
		c0,0.6,0.2,1.1,0.5,1.5s0.8,0.5,1.4,0.5s1.2-0.2,1.6-0.6l0.5,1c-0.3,0.3-0.6,0.5-1,0.6C361.7,45.5,361.3,45.6,360.9,45.6z"/>
	<path class="st1" d="M370,45.6c-1.1,0-2.1-0.2-3-0.7s-1.5-1.1-2-2c-0.5-0.8-0.7-1.8-0.7-2.8s0.2-2,0.7-2.8s1.1-1.5,1.9-1.9
		s1.7-0.7,2.7-0.7s1.9,0.2,2.7,0.7c0.8,0.5,1.4,1.1,1.9,1.9c0.5,0.8,0.7,1.8,0.7,2.9c0,0.1,0,0.1,0,0.2s0,0.2,0,0.2h-9.4v-1.1h8.6
		l-0.6,0.4c0-0.8-0.2-1.5-0.5-2.1s-0.8-1.1-1.4-1.4c-0.6-0.3-1.2-0.5-2-0.5c-0.7,0-1.4,0.2-2,0.5s-1,0.8-1.4,1.4s-0.5,1.3-0.5,2.1
		v0.2c0,0.8,0.2,1.5,0.5,2.2s0.9,1.1,1.5,1.5c0.7,0.3,1.4,0.5,2.2,0.5c0.7,0,1.3-0.1,1.8-0.3c0.6-0.2,1.1-0.6,1.5-1.1l0.8,0.9
		c-0.5,0.6-1.1,1-1.8,1.3C371.7,45.4,370.9,45.6,370,45.6z"/>
	<path class="st1" d="M383.3,49.5V34.7h1.4v3.2l-0.1,2.2l0.2,2.2v7.2C384.8,49.5,383.3,49.5,383.3,49.5z M388.8,45.6
		c-0.9,0-1.8-0.2-2.5-0.6s-1.4-1.1-1.8-1.9c-0.4-0.8-0.7-1.8-0.7-3s0.2-2.2,0.7-3c0.4-0.8,1-1.4,1.8-1.9c0.8-0.4,1.6-0.6,2.6-0.6
		s2,0.2,2.8,0.7s1.5,1.1,1.9,1.9c0.5,0.8,0.7,1.8,0.7,2.9c0,1.1-0.2,2.1-0.7,2.9c-0.5,0.8-1.1,1.5-1.9,1.9
		C390.8,45.3,389.9,45.6,388.8,45.6z M388.7,44.3c0.8,0,1.5-0.2,2.1-0.5s1.1-0.8,1.4-1.5s0.5-1.4,0.5-2.2s-0.2-1.6-0.5-2.2
		c-0.4-0.6-0.8-1.1-1.4-1.5s-1.3-0.5-2.1-0.5c-0.8,0-1.5,0.2-2.1,0.5c-0.6,0.4-1.1,0.9-1.4,1.5s-0.5,1.4-0.5,2.2s0.2,1.6,0.5,2.2
		c0.4,0.6,0.8,1.1,1.4,1.5C387.3,44.1,388,44.3,388.7,44.3z"/>
	<path class="st1" d="M401.6,45.6c-1,0-2-0.2-2.8-0.7s-1.5-1.1-2-2c-0.5-0.8-0.7-1.8-0.7-2.8c0-1.1,0.2-2,0.7-2.9
		c0.5-0.8,1.1-1.5,2-1.9c0.8-0.5,1.8-0.7,2.8-0.7c1.1,0,2,0.2,2.8,0.7s1.5,1.1,2,1.9c0.5,0.8,0.7,1.8,0.7,2.9c0,1.1-0.2,2-0.7,2.8
		s-1.1,1.5-2,2C403.6,45.3,402.7,45.6,401.6,45.6z M401.6,44.3c0.8,0,1.5-0.2,2.1-0.5s1.1-0.8,1.4-1.5s0.5-1.4,0.5-2.2
		c0-0.9-0.2-1.6-0.5-2.2s-0.8-1.1-1.4-1.5s-1.3-0.5-2.1-0.5c-0.8,0-1.5,0.2-2.1,0.5s-1.1,0.8-1.4,1.5s-0.5,1.4-0.5,2.2
		s0.2,1.6,0.5,2.2s0.8,1.1,1.4,1.5S400.9,44.3,401.6,44.3z"/>
	<path class="st1" d="M410.1,45.5V34.7h1.4v2.9l-0.1-0.5c0.3-0.8,0.8-1.5,1.5-1.9s1.6-0.6,2.7-0.6V36c-0.1,0-0.1,0-0.2,0
		s-0.1,0-0.2,0c-1.1,0-2,0.3-2.7,1s-1,1.7-1,3v5.5H410.1z"/>
	<path class="st1" d="M430.4,45.6c-1.1,0-2.1-0.2-3-0.5c-0.9-0.4-1.7-0.9-2.4-1.5s-1.2-1.4-1.6-2.3c-0.4-0.9-0.6-1.9-0.6-2.9
		c0-1.1,0.2-2,0.6-2.9s0.9-1.7,1.6-2.3c0.7-0.7,1.5-1.2,2.4-1.5c0.9-0.4,1.9-0.5,3-0.5s2.1,0.2,3,0.5s1.7,0.9,2.3,1.6l-0.9,1
		c-0.6-0.6-1.3-1-2-1.3s-1.5-0.4-2.3-0.4c-0.9,0-1.7,0.1-2.5,0.4c-0.7,0.3-1.4,0.7-2,1.3c-0.6,0.5-1,1.2-1.3,1.9s-0.5,1.5-0.5,2.4
		s0.2,1.6,0.5,2.4c0.3,0.7,0.7,1.4,1.3,1.9c0.6,0.5,1.2,1,2,1.3c0.7,0.3,1.6,0.4,2.4,0.4s1.6-0.1,2.3-0.4c0.7-0.2,1.4-0.7,2-1.3
		l0.9,1.2c-0.7,0.6-1.5,1.1-2.4,1.4C432.3,45.4,431.4,45.6,430.4,45.6z M434.2,43.6v-5.3h1.5v5.5L434.2,43.6z"/>
	<path class="st1" d="M444.2,45.6c-1.1,0-2.1-0.2-3-0.7s-1.5-1.1-2-2c-0.5-0.8-0.7-1.8-0.7-2.8s0.2-2,0.7-2.8s1.1-1.5,1.9-1.9
		s1.7-0.7,2.7-0.7s1.9,0.2,2.7,0.7c0.8,0.5,1.4,1.1,1.9,1.9c0.5,0.8,0.7,1.8,0.7,2.9c0,0.1,0,0.1,0,0.2s0,0.2,0,0.2h-9.4v-1.1h8.6
		l-0.6,0.4c0-0.8-0.2-1.5-0.5-2.1s-0.8-1.1-1.4-1.4c-0.6-0.3-1.2-0.5-2-0.5c-0.7,0-1.4,0.2-2,0.5s-1,0.8-1.4,1.4s-0.5,1.3-0.5,2.1
		v0.2c0,0.8,0.2,1.5,0.5,2.2s0.9,1.1,1.5,1.5c0.7,0.3,1.4,0.5,2.2,0.5c0.7,0,1.3-0.1,1.8-0.3c0.6-0.2,1.1-0.6,1.5-1.1l0.8,0.9
		c-0.5,0.6-1.1,1-1.8,1.3C445.9,45.4,445.1,45.6,444.2,45.6z M442.5,33l2.8-2.6h2L444,33H442.5z"/>
	<path class="st1" d="M457.6,34.6c0.9,0,1.6,0.2,2.3,0.5c0.7,0.3,1.2,0.8,1.6,1.5s0.6,1.5,0.6,2.6v6.3h-1.5v-6.1
		c0-1.1-0.3-2-0.9-2.6s-1.4-0.9-2.4-0.9c-0.8,0-1.4,0.2-2,0.5s-1,0.8-1.3,1.3c-0.3,0.6-0.5,1.3-0.5,2.1v5.7h-1.4V34.7h1.4v3
		l-0.2-0.6c0.3-0.8,0.9-1.4,1.6-1.8C455.6,34.8,456.5,34.6,457.6,34.6z"/>
	<path class="st1" d="M470.6,45.6c-1.1,0-2.1-0.2-3-0.7s-1.5-1.1-2-2c-0.5-0.8-0.7-1.8-0.7-2.8s0.2-2,0.7-2.8s1.1-1.5,1.9-1.9
		s1.7-0.7,2.7-0.7s1.9,0.2,2.7,0.7c0.8,0.5,1.4,1.1,1.9,1.9c0.5,0.8,0.7,1.8,0.7,2.9c0,0.1,0,0.1,0,0.2s0,0.2,0,0.2h-9.4v-1.1h8.6
		l-0.6,0.4c0-0.8-0.2-1.5-0.5-2.1s-0.8-1.1-1.4-1.4c-0.6-0.3-1.2-0.5-2-0.5c-0.7,0-1.4,0.2-2,0.5s-1,0.8-1.4,1.4s-0.5,1.3-0.5,2.1
		v0.2c0,0.8,0.2,1.5,0.5,2.2s0.9,1.1,1.5,1.5c0.7,0.3,1.4,0.5,2.2,0.5c0.7,0,1.3-0.1,1.8-0.3c0.6-0.2,1.1-0.6,1.5-1.1l0.8,0.9
		c-0.5,0.6-1.1,1-1.8,1.3C472.2,45.4,471.4,45.6,470.6,45.6z"/>
	<path class="st1" d="M478.4,45.5V34.7h1.4v2.9l-0.1-0.5c0.3-0.8,0.8-1.5,1.5-1.9s1.6-0.6,2.7-0.6V36c-0.1,0-0.1,0-0.2,0
		s-0.1,0-0.2,0c-1.1,0-2,0.3-2.7,1s-1,1.7-1,3v5.5H478.4z"/>
	<path class="st1" d="M490.8,45.6c-1,0-2-0.2-2.8-0.7s-1.5-1.1-2-2c-0.5-0.8-0.7-1.8-0.7-2.8c0-1.1,0.2-2,0.7-2.9
		c0.5-0.8,1.1-1.5,2-1.9c0.8-0.5,1.8-0.7,2.8-0.7c1.1,0,2,0.2,2.8,0.7s1.5,1.1,2,1.9c0.5,0.8,0.7,1.8,0.7,2.9c0,1.1-0.2,2-0.7,2.8
		s-1.1,1.5-2,2C492.8,45.3,491.8,45.6,490.8,45.6z M490.8,44.3c0.8,0,1.5-0.2,2.1-0.5s1.1-0.8,1.4-1.5s0.5-1.4,0.5-2.2
		c0-0.9-0.2-1.6-0.5-2.2s-0.8-1.1-1.4-1.5s-1.3-0.5-2.1-0.5c-0.8,0-1.5,0.2-2.1,0.5s-1.1,0.8-1.4,1.5s-0.5,1.4-0.5,2.2
		s0.2,1.6,0.5,2.2s0.8,1.1,1.4,1.5S490,44.3,490.8,44.3z"/>
</g>
<g>
	<path class="st2" d="M62.2,22.8H424c9.8,0,17.8,7.6,17.8,17l0,0c0,9.4-8,17-17.8,17H62.2c-9.8,0-17.8-7.6-17.8-17l0,0
		C44.4,30.4,52.4,22.8,62.2,22.8z"/>
	<g>
		<circle class="st3" cx="44.4" cy="36.5" r="33.4"/>
		<path class="st4" d="M32.4,18.5c-0.5,0-0.9,0-1.4,0s-0.8-0.2-0.8-0.8c0-1,0-2,0-2.9c0-0.6,0.3-0.8,0.8-0.8h36.2
			c1,0,1.2,0.2,1.2,1.2v2.5c0,0.7-0.3,0.9-0.9,0.9h-1.2c0,0-0.1,0-0.1,0.1v20.5c0,1-0.2,1.2-1.2,1.2c-10.4,0-20.8,0-31.3,0
			c-1.1,0-1.4-0.2-1.3-1.3c0-0.1,0-0.1,0-0.2c-0.3,0.2-0.5,0.5-0.5,0.8c0,3.6,0,7.1,0,10.7c0,0.9-0.2,1.1-1.1,1.1h-9.5
			c-1,0-1.1-0.1-1.1-1.1v-0.6c-0.1,0-0.2,0-0.3,0c-1.1,0.2-2.2-0.5-2.5-1.6c0-0.2,0-0.4,0-0.6c0-3.2,0-6.4,0-9.6
			c0-1.8,1.2-3.4,3-3.9c0.9-0.3,1.8-0.6,2.7-0.8c0.3-0.1,0.5-0.4,0.4-0.7c0-0.1-0.1-0.2-0.2-0.3c-0.3-0.4-0.6-0.9-0.9-1.3
			c-0.1-0.1-0.2-0.2-0.4-0.3c-1-0.1-1.7-1.1-1.6-2.1c0-0.2,0.1-0.3,0.1-0.4c0.1-0.5,0.1-1.1,0.1-1.6c0-1.2,0.4-2.3,1.1-3.2
			c1.3-1.7,3.6-2.5,5.7-1.8s3.6,2.6,3.6,4.8c0,0.8,0.1,1.5,0.2,2.3c0.1,1-0.5,1.8-1.5,2c-0.2,0-0.4,0.2-0.5,0.4
			c-0.2,0.4-0.5,0.8-0.7,1.1c-0.4,0.5-0.3,0.9,0.3,1.1c0.5,0.2,0.9,0.3,1.4,0.3c0.8,0,1.5-0.4,1.9-1c0.1-0.1,0.1-0.2,0.1-0.4V18.7
			C32.4,18.7,32.4,18.6,32.4,18.5z M64.7,38.8V18.5H33.9V31c0.2-0.1,0.3-0.3,0.4-0.4c0.8-0.8,1.6-1.7,2.5-2.5c0.8-0.8,2.2-0.8,3.1,0
			s0.8,2.2,0,3.1l-0.1,0.1l-5.5,5.5c-0.1,0.1-0.2,0.3-0.3,0.5c0,0.4,0,0.9,0,1.4L64.7,38.8z M30.5,50v-0.6c0-3.3,0-6.6,0-9.9
			c0-0.6,0.2-1.1,0.6-1.5c2.5-2.5,4.9-4.9,7.4-7.4c0.1-0.1,0.3-0.3,0.4-0.4c0.2-0.3,0.2-0.7-0.1-0.9c-0.2-0.3-0.7-0.4-1-0.1
			c-0.1,0.1-0.2,0.1-0.3,0.2l-3.8,3.9C33,34,32.3,34.9,31.2,35c-0.8,0.1-1.5,0.5-1.9,1.2c-0.3,0.4-0.6,0.7-0.9,1
			c-0.1,0.1-0.2,0.3-0.3,0.3c-0.7,0.2-0.7,0.7-0.6,1.3c0.2,1.8,0.5,3.7,0.6,5.5c0,0.2,0,0.5-0.2,0.7c-0.4,0.7-0.9,1.3-1.3,2
			s-0.9,0.5-1.3,0c-0.4-0.6-0.9-1.2-1.2-1.8c-0.2-0.3-0.2-0.7-0.2-1c0.2-1.8,0.4-3.6,0.6-5.5c0-0.5,0.1-1-0.6-1.1
			c-0.1,0-0.2-0.2-0.3-0.3l-1-1.2c-0.7-0.8-0.7-0.8-1.7-0.5c-1.3,0.3-2.2,1.5-2.1,2.9c0,3,0,6.1,0,9.1c0,0.2,0,0.4,0.1,0.5
			c0.2,0.2,0.4,0.4,0.7,0.4c0.2,0,0.4-0.3,0.5-0.5c0.1-0.2,0-0.3,0-0.5c0-2.7,0-5.5,0-8.2c0-0.6,0.2-0.9,0.7-0.9s0.7,0.3,0.7,0.9
			c0,3.1,0,6.2,0,9.2v1.7L30.5,50z M67,15.3H31.6V17H67V15.3z M27.7,26.5c-1.2,0.7-2.6,1-4,1.1c0,0.8,0,1.7,0,2.5
			c0.2,1.2,1.4,2.1,2.7,1.9c1-0.2,1.8-1,1.9-2c0-0.7,0-1.5,0-2.1C28.4,27.3,28.1,26.8,27.7,26.5z M29.8,26.7
			c0.1-1.4-0.6-2.8-1.9-3.5s-2.9-0.6-4.1,0.3c-1.1,0.7-1.6,2-1.4,3.3c0.2-0.5,0.3-0.6,0.8-0.6c1.6,0.1,3.1-0.4,4.4-1.3
			c0.2-0.1,0.5-0.1,0.7,0C28.7,25.5,29.3,26.2,29.8,26.7z M26.1,45.4c0.2-0.5,0.6-0.9,0.6-1.4c-0.1-1.6-0.4-3.3-0.5-4.9
			c0-0.1-0.1-0.2-0.1-0.3c-0.1,0.2-0.2,0.3-0.2,0.5c-0.1,1.3-0.3,2.5-0.5,3.8C25.2,44,25.5,44.9,26.1,45.4z M27.1,33.4h-2.2l1.1,1.3
			L27.1,33.4z M23.4,34.7c0.3,0.3,0.5,0.5,0.7,0.8s0.5,0.4,0.8,0.1C24.3,34.6,24.1,34.5,23.4,34.7z M28.6,34.7
			c-0.7-0.3-1-0.1-1.5,0.9l0.5,0.3L28.6,34.7z M26.2,36.6h-0.3c-0.1,0.2-0.2,0.4-0.2,0.5s0.2,0.3,0.3,0.3c0.1,0,0.2-0.1,0.3-0.2
			C26.3,37,26.3,36.8,26.2,36.6L26.2,36.6z"/>
		<path class="st4" d="M38.5,50.3c-1.8-1.6-2.1-4.3-0.5-6.2s4.3-2.1,6.2-0.5s2.1,4.3,0.5,6.2c-0.2,0.2-0.3,0.4-0.5,0.5
			c0.6,0.3,1.1,0.6,1.7,1c1.8,1.3,2.8,3.3,2.8,5.5c0,0.5,0,0.9,0,1.4c0,0.7-0.2,1-1,1H35c-0.6,0-0.9-0.2-0.9-0.9
			c-0.1-1.2,0-2.5,0.4-3.7c0.6-1.8,1.9-3.2,3.7-4L38.5,50.3z M47.2,57.6c0.4-2.4-0.9-4.7-3-5.8c-1-0.4-2.1-0.6-3.2-0.6
			c-3,0-5.5,2.5-5.5,5.5c0,0.3,0,0.6,0.1,0.9C35.6,57.6,47.2,57.6,47.2,57.6z M41.3,49.8c1.6,0,2.9-1.2,3-2.8v-0.1
			c0.3-1.6-0.8-3.2-2.4-3.5s-3.2,0.8-3.5,2.4c-0.1,0.3-0.1,0.7,0,1C38.4,48.5,39.7,49.8,41.3,49.8L41.3,49.8z"/>
		<path class="st4" d="M54.4,50.3c-2-2.4-2-4.9-0.1-6.7c1.8-1.6,4.6-1.4,6.2,0.5c1.6,1.9,1.4,4.6-0.5,6.2l0,0c0.1,0,0.1,0.1,0.2,0.1
			c2.6,1.1,4.2,3.6,4.2,6.4c0,0.4,0,0.9,0,1.3c0,0.7-0.2,1-1,1H50.9c-0.7,0-0.9-0.2-0.9-0.9c-0.1-1.2,0-2.4,0.3-3.5
			c0.6-1.8,1.9-3.3,3.6-4.1L54.4,50.3z M51.4,57.6H63c0.2-1.4-0.2-2.9-1-4.1c-1.9-2.9-6.8-2.9-8.9-0.9
			C51.8,53.9,51.1,55.8,51.4,57.6z M57.2,49.8c1.6,0,2.9-1.2,3-2.8v-0.1c0-1.7-1.3-3-2.9-3.1c-1.7,0-3,1.3-3.1,2.9
			C54.1,48.4,55.5,49.8,57.2,49.8C57.1,49.8,57.2,49.8,57.2,49.8z"/>
		<path class="st4" d="M42.1,36c-0.4,0-0.7-0.3-0.7-0.6c0-0.1,0-0.3,0.1-0.4c0.3-0.8,0.5-1.6,0.8-2.4c1.2-3.6,2.5-7.1,3.7-10.7
			c0.1-0.4,0.3-0.7,0.7-0.7s0.6,0.3,0.8,0.7c1.5,4.3,3,8.6,4.5,12.9c0.2,0.5,0.1,0.9-0.3,1c-0.4,0.1-0.8,0-1-0.5
			c-0.4-1.1-0.8-2.3-1.2-3.4c0-0.3-0.3-0.5-0.6-0.5c-1.4,0-2.9,0-4.3,0c-0.3,0-0.5,0.1-0.6,0.4c-0.4,1.2-0.8,2.3-1.2,3.5
			C42.8,35.7,42.5,36,42.1,36z M46.8,24.1l-2.1,6h4.2L46.8,24.1z"/>
		<path class="st4" d="M59.8,34.8c-0.1,0-0.1,0.1-0.2,0.1c-1.1,1.3-3.1,1.4-4.4,0.2c-0.5-0.4-0.8-1-1-1.6c-0.6-1.9,0.3-3.9,2.1-4.6
			c1.7-0.5,3.5,0.6,3.9,2.3c0,0.1,0,0.2,0.1,0.3c0,0.5,0.1,0.9,0.2,1.4c0.2,0.6,0.5,1.2,0.8,1.8c0.3,0.3,0.3,0.7,0,1
			c-0.3,0.3-0.7,0.2-1-0.1l0,0c-0.1-0.1-0.2-0.3-0.3-0.4S59.9,35,59.8,34.8z M55.5,32.4c0,0.1,0,0.2,0,0.3c0.1,0.9,0.8,1.7,1.7,1.8
			c0.9,0,1.7-0.7,1.9-1.6c0.2-0.8,0-1.6-0.5-2.2c-0.5-0.7-1.5-0.9-2.2-0.3l-0.1,0.1C55.7,31.1,55.4,31.8,55.5,32.4L55.5,32.4z"/>
	</g>
	<g>
		<g>
			<path class="st5" d="M86.4,47.8V31H93c1.5,0,2.7,0.2,3.8,0.7c1,0.5,1.8,1.1,2.4,2c0.6,0.9,0.8,1.9,0.8,3.1c0,1.2-0.3,2.3-0.8,3.1
				c-0.6,0.9-1.4,1.5-2.4,2s-2.3,0.7-3.8,0.7h-5.2l1.1-1.1v6.2H86.4z M88.8,41.8l-1.1-1.2h5.2c1.5,0,2.7-0.3,3.5-1
				c0.8-0.7,1.2-1.6,1.2-2.8c0-1.2-0.4-2.1-1.2-2.8s-2-1-3.5-1h-5.2l1.1-1.2V41.8z"/>
			<path class="st5" d="M108.6,47.9c-1.3,0-2.4-0.3-3.4-0.8c-1-0.6-1.8-1.3-2.4-2.3c-0.6-1-0.9-2.1-0.9-3.3c0-1.3,0.3-2.4,0.9-3.4
				s1.4-1.7,2.4-2.3c1-0.6,2.1-0.8,3.4-0.8c1.3,0,2.4,0.3,3.4,0.8c1,0.6,1.8,1.3,2.4,2.3c0.6,1,0.9,2.1,0.9,3.4
				c0,1.3-0.3,2.4-0.9,3.4c-0.6,1-1.4,1.7-2.4,2.3C111,47.7,109.8,47.9,108.6,47.9z M108.6,45.9c0.8,0,1.5-0.2,2.2-0.6
				s1.2-0.9,1.5-1.6c0.4-0.7,0.6-1.5,0.6-2.4c0-0.9-0.2-1.7-0.6-2.4c-0.4-0.7-0.9-1.2-1.5-1.5c-0.6-0.4-1.4-0.6-2.2-0.6
				c-0.8,0-1.5,0.2-2.2,0.6c-0.6,0.4-1.2,0.9-1.5,1.5c-0.4,0.7-0.6,1.5-0.6,2.4c0,0.9,0.2,1.7,0.6,2.4c0.4,0.7,0.9,1.2,1.5,1.6
				C107,45.7,107.8,45.9,108.6,45.9z"/>
			<path class="st5" d="M118.4,47.8V30h2.3v8.5l-0.2,3l0.1,3v3.4H118.4z M125.1,47.9c-1.1,0-2.1-0.2-2.9-0.7s-1.6-1.2-2.1-2.2
				c-0.5-1-0.8-2.2-0.8-3.6c0-1.4,0.3-2.6,0.8-3.6c0.5-1,1.2-1.7,2.1-2.2c0.9-0.5,1.8-0.7,2.9-0.7c1.2,0,2.4,0.3,3.3,0.8
				c1,0.5,1.7,1.3,2.3,2.3s0.8,2.1,0.8,3.4s-0.3,2.4-0.8,3.4c-0.6,1-1.3,1.7-2.3,2.3C127.5,47.7,126.4,47.9,125.1,47.9z M124.9,45.9
				c0.8,0,1.5-0.2,2.2-0.6s1.2-0.9,1.5-1.6c0.4-0.7,0.6-1.5,0.6-2.4c0-0.9-0.2-1.7-0.6-2.4s-0.9-1.2-1.5-1.5
				c-0.6-0.4-1.4-0.6-2.2-0.6c-0.8,0-1.5,0.2-2.2,0.6c-0.6,0.4-1.2,0.9-1.5,1.5s-0.6,1.5-0.6,2.4c0,0.9,0.2,1.7,0.6,2.4
				c0.4,0.7,0.9,1.2,1.5,1.6S124.1,45.9,124.9,45.9z"/>
			<path class="st5" d="M134.7,47.8V30h2.3v17.8H134.7z"/>
			<path class="st5" d="M145.1,47.9c-0.9,0-1.8-0.2-2.5-0.5s-1.3-0.8-1.6-1.3c-0.4-0.6-0.6-1.2-0.6-1.9c0-0.7,0.2-1.3,0.5-1.9
				c0.3-0.6,0.9-1,1.6-1.3s1.7-0.5,3-0.5h4v1.7h-3.9c-1.2,0-1.9,0.2-2.3,0.6c-0.4,0.4-0.6,0.8-0.6,1.4c0,0.6,0.2,1.1,0.7,1.5
				c0.5,0.4,1.2,0.6,2.1,0.6c0.9,0,1.6-0.2,2.3-0.6c0.6-0.4,1.1-0.9,1.4-1.7l0.5,1.6c-0.3,0.8-0.8,1.3-1.6,1.8
				C147.3,47.7,146.3,47.9,145.1,47.9z M149.3,47.8v-2.7l-0.1-0.5V40c0-1-0.3-1.7-0.9-2.3c-0.6-0.5-1.4-0.8-2.6-0.8
				c-0.8,0-1.5,0.1-2.2,0.4c-0.7,0.2-1.3,0.6-1.8,1l-1-1.7c0.7-0.5,1.4-0.9,2.4-1.2s1.9-0.4,2.9-0.4c1.7,0,3.1,0.4,4,1.3
				c0.9,0.8,1.4,2.1,1.4,3.9v7.7H149.3z"/>
			<path class="st5" d="M161.3,47.9c-1.3,0-2.5-0.3-3.5-0.8c-1-0.6-1.8-1.3-2.4-2.3c-0.6-1-0.9-2.1-0.9-3.4c0-1.3,0.3-2.4,0.9-3.4
				s1.4-1.7,2.4-2.3c1-0.6,2.2-0.8,3.5-0.8c1.2,0,2.2,0.2,3.1,0.7c0.9,0.5,1.6,1.1,2.1,2l-1.8,1.1c-0.4-0.6-0.9-1.1-1.5-1.4
				c-0.6-0.3-1.2-0.4-1.9-0.4c-0.8,0-1.6,0.2-2.2,0.6c-0.7,0.4-1.2,0.9-1.6,1.5s-0.6,1.5-0.6,2.4s0.2,1.7,0.6,2.4
				c0.4,0.7,0.9,1.2,1.6,1.6s1.4,0.6,2.2,0.6c0.7,0,1.3-0.1,1.9-0.4c0.6-0.3,1.1-0.8,1.5-1.4l1.8,1.1c-0.5,0.9-1.2,1.6-2.1,2
				C163.5,47.7,162.5,47.9,161.3,47.9z"/>
			<path class="st5" d="M170.5,32.6c-0.4,0-0.8-0.1-1.1-0.4s-0.4-0.6-0.4-1.1c0-0.4,0.1-0.8,0.4-1.1c0.3-0.3,0.7-0.4,1.1-0.4
				s0.8,0.1,1.1,0.4c0.3,0.3,0.4,0.6,0.4,1c0,0.4-0.1,0.8-0.4,1.1C171.3,32.5,170.9,32.6,170.5,32.6z M169.3,47.8V35.1h2.3v12.7
				H169.3z"/>
			<path class="st5" d="M181.5,47.9c-1.3,0-2.4-0.3-3.4-0.8c-1-0.6-1.8-1.3-2.4-2.3c-0.6-1-0.9-2.1-0.9-3.3c0-1.3,0.3-2.4,0.9-3.4
				s1.4-1.7,2.4-2.3c1-0.6,2.1-0.8,3.4-0.8c1.3,0,2.4,0.3,3.4,0.8c1,0.6,1.8,1.3,2.4,2.3c0.6,1,0.9,2.1,0.9,3.4
				c0,1.3-0.3,2.4-0.9,3.4c-0.6,1-1.4,1.7-2.4,2.3C183.9,47.7,182.7,47.9,181.5,47.9z M181.5,45.9c0.8,0,1.5-0.2,2.2-0.6
				c0.6-0.4,1.2-0.9,1.5-1.6c0.4-0.7,0.6-1.5,0.6-2.4c0-0.9-0.2-1.7-0.6-2.4s-0.9-1.2-1.5-1.5c-0.6-0.4-1.4-0.6-2.2-0.6
				c-0.8,0-1.5,0.2-2.2,0.6c-0.6,0.4-1.2,0.9-1.5,1.5s-0.6,1.5-0.6,2.4c0,0.9,0.2,1.7,0.6,2.4c0.4,0.7,0.9,1.2,1.5,1.6
				C179.9,45.7,180.6,45.9,181.5,45.9z M179.6,33.2l3.3-3.1h2.9l-4,3.1H179.6z"/>
			<path class="st5" d="M198,35c1,0,2,0.2,2.7,0.6c0.8,0.4,1.4,1,1.9,1.8s0.7,1.8,0.7,3.1v7.3H201v-7.1c0-1.2-0.3-2.2-0.9-2.8
				c-0.6-0.6-1.4-0.9-2.5-0.9c-0.8,0-1.5,0.2-2.1,0.5s-1.1,0.8-1.4,1.4c-0.3,0.6-0.5,1.4-0.5,2.3v6.6h-2.3V35.1h2.2v3.4l-0.4-0.9
				c0.4-0.8,1.1-1.5,1.9-1.9S196.9,35,198,35z"/>
			<path class="st5" d="M214.4,47.8V31h7.1c1.8,0,3.4,0.4,4.7,1.1s2.4,1.7,3.2,3c0.8,1.3,1.1,2.7,1.1,4.4c0,1.7-0.4,3.1-1.1,4.4
				c-0.8,1.3-1.8,2.2-3.2,3s-2.9,1.1-4.7,1.1H214.4z M216.8,45.7h4.5c1.4,0,2.6-0.3,3.6-0.8c1-0.5,1.8-1.3,2.4-2.2
				c0.6-1,0.8-2.1,0.8-3.3c0-1.3-0.3-2.4-0.8-3.3c-0.6-0.9-1.3-1.7-2.4-2.2c-1-0.5-2.2-0.8-3.6-0.8h-4.5V45.7z"/>
			<path class="st5" d="M239.3,47.9c-1.3,0-2.4-0.3-3.4-0.8c-1-0.6-1.8-1.3-2.4-2.3c-0.6-1-0.9-2.1-0.9-3.3c0-1.3,0.3-2.4,0.9-3.4
				s1.4-1.7,2.4-2.3c1-0.6,2.1-0.8,3.4-0.8c1.3,0,2.4,0.3,3.4,0.8c1,0.6,1.8,1.3,2.4,2.3c0.6,1,0.9,2.1,0.9,3.4
				c0,1.3-0.3,2.4-0.9,3.4c-0.6,1-1.4,1.7-2.4,2.3C241.7,47.7,240.6,47.9,239.3,47.9z M239.3,45.9c0.8,0,1.5-0.2,2.2-0.6
				c0.6-0.4,1.2-0.9,1.5-1.6c0.4-0.7,0.6-1.5,0.6-2.4c0-0.9-0.2-1.7-0.6-2.4s-0.9-1.2-1.5-1.5c-0.6-0.4-1.4-0.6-2.2-0.6
				c-0.8,0-1.5,0.2-2.2,0.6c-0.6,0.4-1.2,0.9-1.5,1.5s-0.6,1.5-0.6,2.4c0,0.9,0.2,1.7,0.6,2.4c0.4,0.7,0.9,1.2,1.5,1.6
				C237.8,45.7,238.5,45.9,239.3,45.9z"/>
			<path class="st5" d="M254.7,47.9c-1.3,0-2.5-0.3-3.5-0.8c-1-0.6-1.8-1.3-2.4-2.3c-0.6-1-0.9-2.1-0.9-3.4c0-1.3,0.3-2.4,0.9-3.4
				s1.4-1.7,2.4-2.3c1-0.6,2.2-0.8,3.5-0.8c1.2,0,2.2,0.2,3.1,0.7c0.9,0.5,1.6,1.1,2.1,2l-1.8,1.1c-0.4-0.6-0.9-1.1-1.5-1.4
				c-0.6-0.3-1.2-0.4-1.9-0.4c-0.8,0-1.6,0.2-2.2,0.6c-0.7,0.4-1.2,0.9-1.6,1.5s-0.6,1.5-0.6,2.4s0.2,1.7,0.6,2.4
				c0.4,0.7,0.9,1.2,1.6,1.6s1.4,0.6,2.2,0.6c0.7,0,1.3-0.1,1.9-0.4c0.6-0.3,1.1-0.8,1.5-1.4l1.8,1.1c-0.5,0.9-1.2,1.6-2.1,2
				C256.8,47.7,255.8,47.9,254.7,47.9z"/>
			<path class="st5" d="M268.3,47.9c-1.4,0-2.6-0.3-3.6-0.8c-1-0.6-1.8-1.3-2.4-2.3c-0.6-1-0.9-2.1-0.9-3.4c0-1.3,0.3-2.4,0.8-3.4
				s1.3-1.7,2.3-2.3c1-0.6,2.1-0.8,3.3-0.8c1.2,0,2.3,0.3,3.3,0.8c0.9,0.5,1.7,1.3,2.2,2.3c0.5,1,0.8,2.1,0.8,3.4c0,0.1,0,0.2,0,0.3
				s0,0.2,0,0.4h-10.8v-1.7h9.6l-0.9,0.6c0-0.8-0.2-1.5-0.5-2.2c-0.4-0.6-0.8-1.1-1.5-1.5c-0.6-0.4-1.3-0.5-2.1-0.5
				c-0.8,0-1.5,0.2-2.1,0.5c-0.6,0.4-1.1,0.9-1.5,1.5c-0.4,0.6-0.5,1.4-0.5,2.2v0.4c0,0.8,0.2,1.6,0.6,2.3c0.4,0.7,0.9,1.2,1.6,1.5
				s1.5,0.6,2.4,0.6c0.8,0,1.4-0.1,2.1-0.4s1.2-0.6,1.6-1.2l1.3,1.5c-0.6,0.7-1.3,1.2-2.1,1.5S269.3,47.9,268.3,47.9z"/>
			<path class="st5" d="M284.1,35c1,0,2,0.2,2.7,0.6c0.8,0.4,1.4,1,1.9,1.8s0.7,1.8,0.7,3.1v7.3h-2.3v-7.1c0-1.2-0.3-2.2-0.9-2.8
				c-0.6-0.6-1.4-0.9-2.5-0.9c-0.8,0-1.5,0.2-2.1,0.5s-1.1,0.8-1.4,1.4c-0.3,0.6-0.5,1.4-0.5,2.3v6.6h-2.3V35.1h2.2v3.4l-0.4-0.9
				c0.4-0.8,1.1-1.5,1.9-1.9S283,35,284.1,35z"/>
			<path class="st5" d="M291.8,37v-1.9h8.1V37H291.8z M298,47.9c-1.3,0-2.3-0.3-3-1c-0.7-0.7-1.1-1.7-1.1-3V32.3h2.3v11.6
				c0,0.7,0.2,1.2,0.5,1.6s0.8,0.6,1.5,0.6c0.7,0,1.3-0.2,1.8-0.6l0.7,1.7c-0.4,0.3-0.8,0.5-1.3,0.7C299.1,47.9,298.6,47.9,298,47.9
				z"/>
			<path class="st5" d="M308.8,47.9c-1.4,0-2.6-0.3-3.6-0.8c-1-0.6-1.8-1.3-2.4-2.3c-0.6-1-0.9-2.1-0.9-3.4c0-1.3,0.3-2.4,0.8-3.4
				s1.3-1.7,2.3-2.3c1-0.6,2.1-0.8,3.3-0.8c1.2,0,2.3,0.3,3.3,0.8c0.9,0.5,1.7,1.3,2.2,2.3c0.5,1,0.8,2.1,0.8,3.4c0,0.1,0,0.2,0,0.3
				s0,0.2,0,0.4h-10.8v-1.7h9.6l-0.9,0.6c0-0.8-0.2-1.5-0.5-2.2c-0.4-0.6-0.8-1.1-1.5-1.5c-0.6-0.4-1.3-0.5-2.1-0.5
				c-0.8,0-1.5,0.2-2.1,0.5c-0.6,0.4-1.1,0.9-1.5,1.5c-0.4,0.6-0.5,1.4-0.5,2.2v0.4c0,0.8,0.2,1.6,0.6,2.3c0.4,0.7,0.9,1.2,1.6,1.5
				s1.5,0.6,2.4,0.6c0.8,0,1.4-0.1,2.1-0.4s1.2-0.6,1.6-1.2l1.3,1.5c-0.6,0.7-1.3,1.2-2.1,1.5S309.9,47.9,308.8,47.9z"/>
			<path class="st5" d="M324.3,52.5V35.1h2.2v3.4l-0.1,3l0.2,3v8H324.3z M331.1,47.9c-1.1,0-2-0.2-2.9-0.7s-1.6-1.2-2.1-2.2
				c-0.5-1-0.8-2.2-0.8-3.6c0-1.4,0.3-2.6,0.8-3.6s1.2-1.7,2.1-2.2c0.9-0.5,1.9-0.7,2.9-0.7c1.2,0,2.4,0.3,3.3,0.8
				c1,0.5,1.7,1.3,2.3,2.3c0.6,1,0.8,2.1,0.8,3.4s-0.3,2.4-0.8,3.4c-0.6,1-1.3,1.7-2.3,2.3S332.3,47.9,331.1,47.9z M330.9,45.9
				c0.8,0,1.5-0.2,2.2-0.6c0.6-0.4,1.2-0.9,1.5-1.6c0.4-0.7,0.6-1.5,0.6-2.4c0-0.9-0.2-1.7-0.6-2.4s-0.9-1.2-1.5-1.5
				c-0.6-0.4-1.4-0.6-2.2-0.6c-0.8,0-1.5,0.2-2.2,0.6c-0.6,0.4-1.2,0.9-1.5,1.5c-0.4,0.7-0.6,1.5-0.6,2.4c0,0.9,0.2,1.7,0.6,2.4
				c0.4,0.7,0.9,1.2,1.5,1.6C329.3,45.7,330.1,45.9,330.9,45.9z"/>
			<path class="st5" d="M346.1,47.9c-1.3,0-2.4-0.3-3.4-0.8c-1-0.6-1.8-1.3-2.4-2.3c-0.6-1-0.9-2.1-0.9-3.3c0-1.3,0.3-2.4,0.9-3.4
				s1.4-1.7,2.4-2.3c1-0.6,2.1-0.8,3.4-0.8c1.3,0,2.4,0.3,3.4,0.8c1,0.6,1.8,1.3,2.4,2.3c0.6,1,0.9,2.1,0.9,3.4
				c0,1.3-0.3,2.4-0.9,3.4c-0.6,1-1.4,1.7-2.4,2.3C348.5,47.7,347.4,47.9,346.1,47.9z M346.1,45.9c0.8,0,1.5-0.2,2.2-0.6
				c0.6-0.4,1.2-0.9,1.5-1.6c0.4-0.7,0.6-1.5,0.6-2.4c0-0.9-0.2-1.7-0.6-2.4s-0.9-1.2-1.5-1.5c-0.6-0.4-1.4-0.6-2.2-0.6
				c-0.8,0-1.5,0.2-2.2,0.6c-0.6,0.4-1.2,0.9-1.5,1.5s-0.6,1.5-0.6,2.4c0,0.9,0.2,1.7,0.6,2.4c0.4,0.7,0.9,1.2,1.5,1.6
				C344.6,45.7,345.3,45.9,346.1,45.9z"/>
			<path class="st5" d="M355.9,47.8V35.1h2.2v3.5l-0.2-0.9c0.4-0.9,0.9-1.6,1.8-2s1.9-0.7,3.1-0.7v2.2c-0.1,0-0.2,0-0.3,0
				s-0.2,0-0.3,0c-1.2,0-2.2,0.4-2.9,1.1c-0.7,0.7-1.1,1.8-1.1,3.2v6.3H355.9z"/>
			<path class="st5" d="M377.4,48c-1.3,0-2.5-0.2-3.7-0.6c-1.2-0.4-2.1-0.9-2.8-1.5l0.9-1.9c0.6,0.6,1.5,1,2.4,1.4
				c1,0.4,2,0.6,3.1,0.6c1,0,1.8-0.1,2.4-0.3c0.6-0.2,1.1-0.5,1.3-0.9c0.3-0.4,0.4-0.8,0.4-1.3c0-0.6-0.2-1-0.6-1.4
				c-0.4-0.4-0.9-0.6-1.5-0.9c-0.6-0.2-1.3-0.4-2-0.6c-0.7-0.2-1.4-0.3-2.2-0.6c-0.7-0.2-1.4-0.5-2-0.8c-0.6-0.3-1.1-0.8-1.5-1.4
				c-0.4-0.6-0.6-1.3-0.6-2.2c0-0.9,0.2-1.7,0.7-2.4c0.5-0.7,1.2-1.3,2.1-1.8c1-0.4,2.2-0.7,3.6-0.7c1,0,1.9,0.1,2.9,0.4
				c1,0.3,1.8,0.6,2.5,1.1l-0.8,1.9c-0.7-0.5-1.5-0.8-2.3-1c-0.8-0.2-1.6-0.3-2.3-0.3c-0.9,0-1.7,0.1-2.3,0.4
				c-0.6,0.2-1.1,0.6-1.3,1c-0.3,0.4-0.4,0.8-0.4,1.3c0,0.6,0.2,1.1,0.6,1.4c0.4,0.4,0.9,0.6,1.5,0.8c0.6,0.2,1.3,0.4,2,0.6
				s1.4,0.4,2.2,0.6c0.7,0.2,1.4,0.5,2,0.8s1.1,0.8,1.5,1.3c0.4,0.6,0.6,1.3,0.6,2.2c0,0.8-0.2,1.6-0.7,2.4
				c-0.5,0.7-1.2,1.3-2.1,1.8C380.1,47.8,378.9,48,377.4,48z"/>
			<path class="st5" d="M392.8,47.9c-1.4,0-2.6-0.3-3.6-0.8c-1-0.6-1.8-1.3-2.4-2.3c-0.6-1-0.9-2.1-0.9-3.4c0-1.3,0.3-2.4,0.8-3.4
				s1.3-1.7,2.3-2.3c1-0.6,2.1-0.8,3.3-0.8c1.2,0,2.3,0.3,3.3,0.8c0.9,0.5,1.7,1.3,2.2,2.3c0.5,1,0.8,2.1,0.8,3.4c0,0.1,0,0.2,0,0.3
				s0,0.2,0,0.4h-10.8v-1.7h9.6l-0.9,0.6c0-0.8-0.2-1.5-0.5-2.2c-0.4-0.6-0.8-1.1-1.5-1.5c-0.6-0.4-1.3-0.5-2.1-0.5
				c-0.8,0-1.5,0.2-2.1,0.5c-0.6,0.4-1.1,0.9-1.5,1.5c-0.4,0.6-0.5,1.4-0.5,2.2v0.4c0,0.8,0.2,1.6,0.6,2.3c0.4,0.7,0.9,1.2,1.6,1.5
				s1.5,0.6,2.4,0.6c0.8,0,1.4-0.1,2.1-0.4s1.2-0.6,1.6-1.2l1.3,1.5c-0.6,0.7-1.3,1.2-2.1,1.5S393.8,47.9,392.8,47.9z"/>
			<path class="st5" d="M399.6,47.8l5.5-7.1l0,1.2l-5.2-6.8h2.6l4,5.2h-1l4-5.2h2.5l-5.3,6.8l0-1.2l5.5,7.1h-2.6l-4.2-5.6l0.9,0.1
				l-4.1,5.4H399.6z"/>
			<path class="st5" d="M419.7,47.9c-1.3,0-2.4-0.3-3.4-0.8c-1-0.6-1.8-1.3-2.4-2.3c-0.6-1-0.9-2.1-0.9-3.3c0-1.3,0.3-2.4,0.9-3.4
				s1.4-1.7,2.4-2.3c1-0.6,2.1-0.8,3.4-0.8c1.3,0,2.4,0.3,3.4,0.8c1,0.6,1.8,1.3,2.4,2.3c0.6,1,0.9,2.1,0.9,3.4
				c0,1.3-0.3,2.4-0.9,3.4c-0.6,1-1.4,1.7-2.4,2.3C422.1,47.7,421,47.9,419.7,47.9z M419.7,45.9c0.8,0,1.5-0.2,2.2-0.6
				c0.6-0.4,1.2-0.9,1.5-1.6c0.4-0.7,0.6-1.5,0.6-2.4c0-0.9-0.2-1.7-0.6-2.4s-0.9-1.2-1.5-1.5c-0.6-0.4-1.4-0.6-2.2-0.6
				c-0.8,0-1.5,0.2-2.2,0.6c-0.6,0.4-1.2,0.9-1.5,1.5s-0.6,1.5-0.6,2.4c0,0.9,0.2,1.7,0.6,2.4c0.4,0.7,0.9,1.2,1.5,1.6
				C418.2,45.7,418.9,45.9,419.7,45.9z"/>
		</g>
	</g>
	<g>
		<path class="st2" d="M500.4,23.8h76.2c3,0,5.4,6.9,5.4,15.5v1c0,8.5-2.4,15.5-5.4,15.5h-76.2c-3,0-5.4-6.9-5.4-15.5v-1
			C495.1,30.7,497.5,23.8,500.4,23.8z"/>
		<circle class="st6" cx="484.2" cy="38.5" r="29"/>
		<g>
			<g>
				<path class="st4" d="M470.8,49.9c-1.5,0-3,0-4.4,0c-0.3,0-0.5,0.1-0.7,0c-0.3-0.2-0.8-0.4-0.9-0.7s0-0.9,0.3-1.1
					c3.7-3.6,5.2-8.2,5.6-13.1c0.3-2.8,0.1-5.6,0.2-8.5c0-1.1,0.3-1.4,1.4-1.4c1.5,0,3.1,0,4.6,0c0,0,0.1,0,0.2-0.1
					c0.2-0.7-0.2-2,1.1-1.9c1.3,0,0.9,1.2,1.1,2c1.7,0,3.4,0,5.1,0c0.1-0.8-0.2-2,1.1-2c1.3,0,1,1.1,1,2c1.7,0,3.4,0,5.2,0
					c0.2-0.8-0.2-2.1,1.2-2c1.2,0.1,0.9,1.1,0.9,2c0.2,0,0.5,0,0.7,0c1.4,0,2.8,0,4.1,0c0.9,0,1.3,0.4,1.3,1.3c0,8.8,0,17.6,0,26.4
					c0,0.9-0.4,1.3-1.5,1.3c-7.2,0-14.3,0-21.5,0c-1.5,0-3.1,0-4.6,0c-1.2,0-1.5-0.3-1.5-1.5C470.8,51.7,470.8,50.8,470.8,49.9z
					 M468,47.8c0.3,0,0.5,0,0.7,0c7.6,0,15.2,0,22.8,0c0.4,0,0.8-0.2,1-0.5c2.5-2.7,3.9-6,4.6-9.6c0.3-1.4,0.4-2.9,0.6-4.4
					c-8.4,0-16.7,0-25,0C472.6,38.6,471.2,43.5,468,47.8z M486.4,27.2c-0.1,0.8,0.2,1.9-1,2c-1.4,0.1-1-1.2-1.1-2
					c-1.7,0-3.4,0-5.1,0c-0.2,0.8,0.2,1.9-1,2c-1.4,0.1-1-1.2-1.2-2c-1.4,0-2.7,0-4.1,0c0,1.4,0,2.7,0,4c8.3,0,16.6,0,24.8,0
					c0-1.4,0-2.7,0-4c-1.4,0-2.7,0-4,0c-0.1,0.8,0.2,2-1.1,2c-1.3,0-0.9-1.2-1-2C489.8,27.2,488.1,27.2,486.4,27.2z M497.7,43.4
					L497.7,43.4c-0.2,0.2-0.3,0.4-0.4,0.5c-0.9,1.9-2.1,3.7-3.6,5.3c-0.5,0.5-1,0.7-1.7,0.7c-6.1,0-12.2,0-18.3,0
					c-0.3,0-0.6,0-0.9,0c0,0.7,0,1.4,0,2c8.3,0,16.6,0,24.9,0C497.7,49,497.7,46.2,497.7,43.4z"/>
			</g>
		</g>
		<g>
			<path class="st5" d="M518.1,47.7V46l6.8-6.6c0.6-0.6,1.1-1.1,1.4-1.5s0.5-0.8,0.6-1.2c0.1-0.4,0.2-0.7,0.2-1.1
				c0-0.9-0.3-1.5-0.9-2c-0.6-0.5-1.5-0.7-2.7-0.7c-0.9,0-1.7,0.1-2.4,0.4c-0.7,0.3-1.3,0.8-1.9,1.4l-1.6-1.4
				c0.6-0.8,1.5-1.4,2.6-1.9c1.1-0.4,2.3-0.7,3.6-0.7c1.2,0,2.2,0.2,3,0.6s1.5,0.9,2,1.6s0.7,1.5,0.7,2.5c0,0.5-0.1,1.1-0.2,1.6
				c-0.1,0.5-0.4,1.1-0.8,1.7c-0.4,0.6-1,1.3-1.7,2l-6.1,5.9l-0.6-0.9h10.2v2.1H518.1z"/>
			<path class="st5" d="M539,47.8c-1.3,0-2.5-0.3-3.5-1c-1-0.7-1.8-1.6-2.4-2.9c-0.6-1.3-0.9-2.8-0.9-4.7c0-1.8,0.3-3.4,0.9-4.7
				c0.6-1.3,1.4-2.3,2.4-2.9c1-0.7,2.2-1,3.5-1c1.3,0,2.5,0.3,3.5,1c1,0.7,1.9,1.6,2.4,2.9s0.9,2.8,0.9,4.7c0,1.8-0.3,3.4-0.9,4.7
				c-0.6,1.3-1.4,2.3-2.4,2.9C541.5,47.5,540.3,47.8,539,47.8z M539,45.7c0.9,0,1.7-0.2,2.3-0.7c0.7-0.5,1.2-1.2,1.6-2.2
				c0.4-1,0.6-2.2,0.6-3.6c0-1.4-0.2-2.6-0.6-3.6c-0.4-1-0.9-1.7-1.6-2.2c-0.7-0.5-1.4-0.7-2.3-0.7c-0.9,0-1.7,0.2-2.3,0.7
				c-0.7,0.5-1.2,1.2-1.6,2.2s-0.6,2.2-0.6,3.6c0,1.4,0.2,2.6,0.6,3.6s0.9,1.7,1.6,2.2C537.3,45.5,538.1,45.7,539,45.7z"/>
			<path class="st5" d="M547.9,47.7V46l6.8-6.6c0.6-0.6,1.1-1.1,1.4-1.5s0.5-0.8,0.6-1.2c0.1-0.4,0.2-0.7,0.2-1.1
				c0-0.9-0.3-1.5-0.9-2c-0.6-0.5-1.5-0.7-2.7-0.7c-0.9,0-1.7,0.1-2.4,0.4c-0.7,0.3-1.3,0.8-1.9,1.4l-1.6-1.4
				c0.6-0.8,1.5-1.4,2.6-1.9c1.1-0.4,2.3-0.7,3.6-0.7c1.2,0,2.2,0.2,3,0.6s1.5,0.9,2,1.6s0.7,1.5,0.7,2.5c0,0.5-0.1,1.1-0.2,1.6
				c-0.1,0.5-0.4,1.1-0.8,1.7c-0.4,0.6-1,1.3-1.7,2l-6.1,5.9l-0.6-0.9h10.2v2.1H547.9z"/>
			<path class="st5" d="M564.7,47.7V31.8l1,1.1H561v-2.1h6.2v16.8H564.7z"/>
		</g>
	</g>
</g>
</svg>
