<?xml version="1.0" encoding="utf-8"?>
<!-- Generator: Adobe Illustrator 24.0.2, SVG Export Plug-In . SVG Version: 6.00 Build 0)  -->
<svg version="1.1" id="Capa_1" xmlns="http://www.w3.org/2000/svg" xmlns:xlink="http://www.w3.org/1999/xlink" x="0px" y="0px"
	 viewBox="0 0 550 73" style="enable-background:new 0 0 550 73;" xml:space="preserve">
<style type="text/css">
	.st0{opacity:0.15;fill:#143F8B;enable-background:new    ;}
	.st1{fill:#00AEEF;}
	.st2{fill:#FFFFFF;}
	.st3{fill:#606060;}
	.st4{fill:#E3007E;}
</style>
<title>banner_pw</title>
<g>
	<g>
		<g>
			<g>
				<path class="st0" d="M94.7,22.8h256.7c7,0,12.7,7.6,12.7,17l0,0c0,9.4-5.7,17-12.7,17H94.7c-7,0-12.7-7.6-12.7-17l0,0
					C82,30.4,87.7,22.8,94.7,22.8z"/>
				<g>
					<circle class="st1" cx="82" cy="36.5" r="33.4"/>
					<path class="st2" d="M70,18.5c-0.5,0-0.9,0-1.4,0s-0.8-0.2-0.8-0.8c0-1,0-2,0-2.9c0-0.6,0.3-0.8,0.8-0.8h36.2
						c1,0,1.2,0.2,1.2,1.2v2.5c0,0.7-0.3,0.9-0.9,0.9h-1.2c0,0-0.1,0-0.1,0.1v20.5c0,1-0.2,1.2-1.2,1.2c-10.4,0-20.8,0-31.3,0
						c-1.1,0-1.4-0.2-1.3-1.3c0-0.1,0-0.1,0-0.2c-0.3,0.2-0.5,0.5-0.5,0.8c0,3.6,0,7.1,0,10.7c0,0.9-0.2,1.1-1.1,1.1h-9.5
						c-1,0-1.1-0.1-1.1-1.1v-0.6c-0.1,0-0.2,0-0.3,0c-1.1,0.2-2.2-0.5-2.5-1.6c0-0.2,0-0.4,0-0.6c0-3.2,0-6.4,0-9.6
						c0-1.8,1.2-3.4,3-3.9c0.9-0.3,1.8-0.6,2.7-0.8c0.3-0.1,0.5-0.4,0.4-0.7c0-0.1-0.1-0.2-0.2-0.3c-0.3-0.4-0.6-0.9-0.9-1.3
						c-0.1-0.1-0.2-0.2-0.4-0.3c-1-0.1-1.7-1.1-1.6-2.1c0-0.2,0.1-0.3,0.1-0.4c0.1-0.5,0.1-1.1,0.1-1.6c0-1.2,0.4-2.3,1.1-3.2
						c1.3-1.7,3.6-2.5,5.7-1.8c2.1,0.7,3.6,2.6,3.6,4.8c0,0.8,0.1,1.5,0.2,2.3c0.1,1-0.5,1.8-1.5,2c-0.2,0-0.4,0.2-0.5,0.4
						c-0.2,0.4-0.5,0.8-0.7,1.1c-0.4,0.5-0.3,0.9,0.3,1.1c0.5,0.2,0.9,0.3,1.4,0.3c0.8,0,1.5-0.4,1.9-1c0.1-0.1,0.1-0.2,0.1-0.4
						V18.7C70,18.7,70,18.6,70,18.5z M102.3,38.8V18.5H71.5V31c0.2-0.1,0.3-0.3,0.4-0.4c0.8-0.8,1.6-1.7,2.5-2.5
						c0.8-0.8,2.2-0.8,3.1,0s0.8,2.2,0,3.1l-0.1,0.1l-5.5,5.5c-0.1,0.1-0.2,0.3-0.3,0.5c0,0.4,0,0.9,0,1.4L102.3,38.8z M68.1,50
						v-0.6c0-3.3,0-6.6,0-9.9c0-0.6,0.2-1.1,0.6-1.5c2.5-2.5,4.9-4.9,7.4-7.4c0.1-0.1,0.3-0.3,0.4-0.4c0.2-0.3,0.2-0.7-0.1-0.9
						c-0.2-0.3-0.7-0.4-1-0.1c-0.1,0.1-0.2,0.1-0.3,0.2l-3.8,3.9c-0.7,0.7-1.4,1.6-2.5,1.7c-0.8,0.1-1.5,0.5-1.9,1.2
						c-0.3,0.4-0.6,0.7-0.9,1c-0.1,0.1-0.2,0.3-0.3,0.3c-0.7,0.2-0.7,0.7-0.6,1.3c0.2,1.8,0.5,3.7,0.6,5.5c0,0.2,0,0.5-0.2,0.7
						c-0.4,0.7-0.9,1.3-1.3,2c-0.4,0.7-0.9,0.5-1.3,0c-0.4-0.6-0.9-1.2-1.2-1.8c-0.2-0.3-0.2-0.7-0.2-1c0.2-1.8,0.4-3.6,0.6-5.5
						c0-0.5,0.1-1-0.6-1.1c-0.1,0-0.2-0.2-0.3-0.3l-1-1.2c-0.7-0.8-0.7-0.8-1.7-0.5c-1.3,0.3-2.2,1.5-2.1,2.9c0,3,0,6.1,0,9.1
						c0,0.2,0,0.4,0.1,0.5c0.2,0.2,0.4,0.4,0.7,0.4c0.2,0,0.4-0.3,0.5-0.5s0-0.3,0-0.5c0-2.7,0-5.5,0-8.2c0-0.6,0.2-0.9,0.7-0.9
						s0.7,0.3,0.7,0.9c0,3.1,0,6.2,0,9.2v1.7L68.1,50z M104.6,15.3H69.2V17h35.4V15.3z M65.3,26.5c-1.2,0.7-2.6,1-4,1.1
						c0,0.8,0,1.7,0,2.5c0.2,1.2,1.4,2.1,2.7,1.9c1-0.2,1.8-1,1.9-2c0-0.7,0-1.5,0-2.1C66,27.3,65.7,26.8,65.3,26.5z M67.4,26.7
						c0.1-1.4-0.6-2.8-1.9-3.5s-2.9-0.6-4.1,0.3c-1.1,0.7-1.6,2-1.4,3.3c0.2-0.5,0.3-0.6,0.8-0.6c1.6,0.1,3.1-0.4,4.4-1.3
						c0.2-0.1,0.5-0.1,0.7,0C66.3,25.5,66.9,26.2,67.4,26.7z M63.7,45.4c0.2-0.5,0.6-0.9,0.6-1.4c-0.1-1.6-0.4-3.3-0.5-4.9
						c0-0.1-0.1-0.2-0.1-0.3c-0.1,0.2-0.2,0.3-0.2,0.5c-0.1,1.3-0.3,2.5-0.5,3.8C62.8,44,63.1,44.9,63.7,45.4z M64.7,33.4h-2.2
						l1.1,1.3L64.7,33.4z M61,34.7c0.3,0.3,0.5,0.5,0.7,0.8s0.5,0.4,0.8,0.1C61.9,34.6,61.7,34.5,61,34.7z M66.2,34.7
						c-0.7-0.3-1-0.1-1.5,0.9l0.5,0.3L66.2,34.7z M63.8,36.6h-0.3c-0.1,0.2-0.2,0.4-0.2,0.5s0.2,0.3,0.3,0.3s0.2-0.1,0.3-0.2
						C63.9,37,63.9,36.8,63.8,36.6L63.8,36.6z"/>
					<path class="st2" d="M76.1,50.3c-1.8-1.6-2.1-4.3-0.5-6.2s4.3-2.1,6.2-0.5c1.9,1.6,2.1,4.3,0.5,6.2c-0.2,0.2-0.3,0.4-0.5,0.5
						c0.6,0.3,1.1,0.6,1.7,1c1.8,1.3,2.8,3.3,2.8,5.5c0,0.5,0,0.9,0,1.4c0,0.7-0.2,1-1,1H72.6c-0.6,0-0.9-0.2-0.9-0.9
						c-0.1-1.2,0-2.5,0.4-3.7c0.6-1.8,1.9-3.2,3.7-4L76.1,50.3z M84.8,57.6c0.4-2.4-0.9-4.7-3-5.8c-1-0.4-2.1-0.6-3.2-0.6
						c-3,0-5.5,2.5-5.5,5.5c0,0.3,0,0.6,0.1,0.9C73.2,57.6,84.8,57.6,84.8,57.6z M78.9,49.8c1.6,0,2.9-1.2,3-2.8v-0.1
						c0.3-1.6-0.8-3.2-2.4-3.5s-3.2,0.8-3.5,2.4c-0.1,0.3-0.1,0.7,0,1C76,48.5,77.3,49.8,78.9,49.8L78.9,49.8z"/>
					<path class="st2" d="M92,50.3c-2-2.4-2-4.9-0.1-6.7c1.8-1.6,4.6-1.4,6.2,0.5s1.4,4.6-0.5,6.2l0,0c0.1,0,0.1,0.1,0.2,0.1
						c2.6,1.1,4.2,3.6,4.2,6.4c0,0.4,0,0.9,0,1.3c0,0.7-0.2,1-1,1H88.5c-0.7,0-0.9-0.2-0.9-0.9c-0.1-1.2,0-2.4,0.3-3.5
						c0.6-1.8,1.9-3.3,3.6-4.1L92,50.3z M89,57.6h11.6c0.2-1.4-0.2-2.9-1-4.1c-1.9-2.9-6.8-2.9-8.9-0.9C89.4,53.9,88.7,55.8,89,57.6
						z M94.8,49.8c1.6,0,2.9-1.2,3-2.8v-0.1c0-1.7-1.3-3-2.9-3.1c-1.7,0-3,1.3-3.1,2.9C91.7,48.4,93.1,49.8,94.8,49.8
						C94.7,49.8,94.8,49.8,94.8,49.8z"/>
					<path class="st2" d="M79.7,36c-0.4,0-0.7-0.3-0.7-0.6c0-0.1,0-0.3,0.1-0.4c0.3-0.8,0.5-1.6,0.8-2.4c1.2-3.6,2.5-7.1,3.7-10.7
						c0.1-0.4,0.3-0.7,0.7-0.7s0.6,0.3,0.8,0.7c1.5,4.3,3,8.6,4.5,12.9c0.2,0.5,0.1,0.9-0.3,1s-0.8,0-1-0.5
						c-0.4-1.1-0.8-2.3-1.2-3.4c0-0.3-0.3-0.5-0.6-0.5c-1.4,0-2.9,0-4.3,0c-0.3,0-0.5,0.1-0.6,0.4c-0.4,1.2-0.8,2.3-1.2,3.5
						C80.4,35.7,80.1,36,79.7,36z M84.4,24.1l-2.1,6h4.2L84.4,24.1z"/>
					<path class="st2" d="M97.4,34.8c-0.1,0-0.1,0.1-0.2,0.1c-1.1,1.3-3.1,1.4-4.4,0.2c-0.5-0.4-0.8-1-1-1.6
						c-0.6-1.9,0.3-3.9,2.1-4.6c1.7-0.5,3.5,0.6,3.9,2.3c0,0.1,0,0.2,0.1,0.3c0,0.5,0.1,0.9,0.2,1.4c0.2,0.6,0.5,1.2,0.8,1.8
						c0.3,0.3,0.3,0.7,0,1s-0.7,0.2-1-0.1l0,0c-0.1-0.1-0.2-0.3-0.3-0.4S97.5,35,97.4,34.8z M93.1,32.4c0,0.1,0,0.2,0,0.3
						c0.1,0.9,0.8,1.7,1.7,1.8c0.9,0,1.7-0.7,1.9-1.6c0.2-0.8,0-1.6-0.5-2.2c-0.5-0.7-1.5-0.9-2.2-0.3l-0.1,0.1
						C93.3,31.1,93,31.8,93.1,32.4L93.1,32.4z"/>
				</g>
			</g>
		</g>
		<g>
			<g>
				<path class="st3" d="M123.4,47V30.2h6.6c1.5,0,2.7,0.2,3.8,0.7c1,0.5,1.8,1.1,2.4,2c0.6,0.9,0.8,1.9,0.8,3.1
					c0,1.2-0.3,2.3-0.8,3.1c-0.6,0.9-1.4,1.5-2.4,2s-2.3,0.7-3.8,0.7h-5.2l1.1-1.1V47H123.4z M125.8,41l-1.1-1.2h5.2
					c1.5,0,2.7-0.3,3.5-1c0.8-0.7,1.2-1.6,1.2-2.8c0-1.2-0.4-2.1-1.2-2.8s-2-1-3.5-1h-5.2l1.1-1.2V41z"/>
				<path class="st3" d="M145.5,47.1c-1.3,0-2.4-0.3-3.4-0.8c-1-0.6-1.8-1.3-2.4-2.3c-0.6-1-0.9-2.1-0.9-3.3c0-1.3,0.3-2.4,0.9-3.4
					c0.6-1,1.4-1.7,2.4-2.3c1-0.6,2.1-0.8,3.4-0.8c1.3,0,2.4,0.3,3.4,0.8c1,0.6,1.8,1.3,2.4,2.3c0.6,1,0.9,2.1,0.9,3.4
					c0,1.3-0.3,2.4-0.9,3.4c-0.6,1-1.4,1.7-2.4,2.3C147.9,46.9,146.8,47.1,145.5,47.1z M145.5,45.1c0.8,0,1.5-0.2,2.2-0.6
					s1.2-0.9,1.5-1.6c0.4-0.7,0.6-1.5,0.6-2.4c0-0.9-0.2-1.7-0.6-2.4c-0.4-0.7-0.9-1.2-1.5-1.5c-0.6-0.4-1.4-0.6-2.2-0.6
					c-0.8,0-1.5,0.2-2.2,0.6c-0.6,0.4-1.2,0.9-1.5,1.5c-0.4,0.7-0.6,1.5-0.6,2.4c0,0.9,0.2,1.7,0.6,2.4c0.4,0.7,0.9,1.2,1.5,1.6
					C144,44.9,144.7,45.1,145.5,45.1z"/>
				<path class="st3" d="M155.3,47V29.2h2.3v8.5l-0.2,3l0.1,3V47H155.3z M162.1,47.1c-1.1,0-2.1-0.2-2.9-0.7s-1.6-1.2-2.1-2.2
					c-0.5-1-0.8-2.2-0.8-3.6c0-1.4,0.3-2.6,0.8-3.6c0.5-1,1.2-1.7,2.1-2.2c0.9-0.5,1.8-0.7,2.9-0.7c1.2,0,2.4,0.3,3.3,0.8
					c1,0.5,1.7,1.3,2.3,2.3c0.6,1,0.8,2.1,0.8,3.4s-0.3,2.4-0.8,3.4c-0.6,1-1.3,1.7-2.3,2.3C164.4,46.9,163.3,47.1,162.1,47.1z
					 M161.9,45.1c0.8,0,1.5-0.2,2.2-0.6s1.2-0.9,1.5-1.6c0.4-0.7,0.6-1.5,0.6-2.4c0-0.9-0.2-1.7-0.6-2.4s-0.9-1.2-1.5-1.5
					c-0.6-0.4-1.4-0.6-2.2-0.6c-0.8,0-1.5,0.2-2.2,0.6c-0.6,0.4-1.2,0.9-1.5,1.5s-0.6,1.5-0.6,2.4c0,0.9,0.2,1.7,0.6,2.4
					c0.4,0.7,0.9,1.2,1.5,1.6S161.1,45.1,161.9,45.1z"/>
				<path class="st3" d="M171.7,47V29.2h2.3V47H171.7z"/>
				<path class="st3" d="M182.1,47.1c-0.9,0-1.8-0.2-2.5-0.5s-1.3-0.8-1.6-1.3c-0.4-0.6-0.6-1.2-0.6-1.9c0-0.7,0.2-1.3,0.5-1.9
					c0.3-0.6,0.9-1,1.6-1.3s1.7-0.5,3-0.5h4v1.7h-3.9c-1.2,0-1.9,0.2-2.3,0.6c-0.4,0.4-0.6,0.8-0.6,1.4c0,0.6,0.2,1.1,0.7,1.5
					c0.5,0.4,1.2,0.6,2.1,0.6c0.9,0,1.6-0.2,2.3-0.6c0.6-0.4,1.1-0.9,1.4-1.7l0.5,1.6c-0.3,0.8-0.8,1.3-1.6,1.8
					C184.2,46.9,183.3,47.1,182.1,47.1z M186.3,47v-2.7l-0.1-0.5v-4.6c0-1-0.3-1.7-0.9-2.3c-0.6-0.5-1.4-0.8-2.6-0.8
					c-0.8,0-1.5,0.1-2.2,0.4c-0.7,0.2-1.3,0.6-1.8,1l-1-1.7c0.7-0.5,1.4-0.9,2.4-1.2s1.9-0.4,2.9-0.4c1.7,0,3.1,0.4,4,1.3
					c0.9,0.8,1.4,2.1,1.4,3.9V47H186.3z"/>
				<path class="st3" d="M198.3,47.1c-1.3,0-2.5-0.3-3.5-0.8c-1-0.6-1.8-1.3-2.4-2.3c-0.6-1-0.9-2.1-0.9-3.4c0-1.3,0.3-2.4,0.9-3.4
					c0.6-1,1.4-1.7,2.4-2.3c1-0.6,2.2-0.8,3.5-0.8c1.2,0,2.2,0.2,3.1,0.7c0.9,0.5,1.6,1.1,2.1,2l-1.8,1.1c-0.4-0.6-0.9-1.1-1.5-1.4
					c-0.6-0.3-1.2-0.4-1.9-0.4c-0.8,0-1.6,0.2-2.2,0.6c-0.7,0.4-1.2,0.9-1.6,1.5s-0.6,1.5-0.6,2.4s0.2,1.7,0.6,2.4
					c0.4,0.7,0.9,1.2,1.6,1.6s1.4,0.6,2.2,0.6c0.7,0,1.3-0.1,1.9-0.4c0.6-0.3,1.1-0.8,1.5-1.4l1.8,1.1c-0.5,0.9-1.2,1.6-2.1,2
					C200.5,46.9,199.4,47.1,198.3,47.1z"/>
				<path class="st3" d="M207.4,31.8c-0.4,0-0.8-0.1-1.1-0.4s-0.4-0.6-0.4-1.1c0-0.4,0.1-0.8,0.4-1.1c0.3-0.3,0.7-0.4,1.1-0.4
					s0.8,0.1,1.1,0.4c0.3,0.3,0.4,0.6,0.4,1c0,0.4-0.1,0.8-0.4,1.1C208.3,31.7,207.9,31.8,207.4,31.8z M206.3,47V34.3h2.3V47H206.3z
					"/>
				<path class="st3" d="M218.4,47.1c-1.3,0-2.4-0.3-3.4-0.8c-1-0.6-1.8-1.3-2.4-2.3c-0.6-1-0.9-2.1-0.9-3.3c0-1.3,0.3-2.4,0.9-3.4
					c0.6-1,1.4-1.7,2.4-2.3c1-0.6,2.1-0.8,3.4-0.8c1.3,0,2.4,0.3,3.4,0.8c1,0.6,1.8,1.3,2.4,2.3c0.6,1,0.9,2.1,0.9,3.4
					c0,1.3-0.3,2.4-0.9,3.4c-0.6,1-1.4,1.7-2.4,2.3C220.8,46.9,219.7,47.1,218.4,47.1z M218.4,45.1c0.8,0,1.5-0.2,2.2-0.6
					c0.6-0.4,1.2-0.9,1.5-1.6c0.4-0.7,0.6-1.5,0.6-2.4c0-0.9-0.2-1.7-0.6-2.4s-0.9-1.2-1.5-1.5c-0.6-0.4-1.4-0.6-2.2-0.6
					c-0.8,0-1.5,0.2-2.2,0.6c-0.6,0.4-1.2,0.9-1.5,1.5s-0.6,1.5-0.6,2.4c0,0.9,0.2,1.7,0.6,2.4c0.4,0.7,0.9,1.2,1.5,1.6
					C216.9,44.9,217.6,45.1,218.4,45.1z M216.6,32.4l3.3-3.1h2.9l-4,3.1H216.6z"/>
				<path class="st3" d="M235,34.2c1,0,2,0.2,2.7,0.6c0.8,0.4,1.4,1,1.9,1.8c0.4,0.8,0.7,1.8,0.7,3.1V47H238v-7.1
					c0-1.2-0.3-2.2-0.9-2.8c-0.6-0.6-1.4-0.9-2.5-0.9c-0.8,0-1.5,0.2-2.1,0.5c-0.6,0.3-1.1,0.8-1.4,1.4c-0.3,0.6-0.5,1.4-0.5,2.3V47
					h-2.3V34.3h2.2v3.4l-0.4-0.9c0.4-0.8,1.1-1.5,1.9-1.9S233.8,34.2,235,34.2z"/>
				<path class="st3" d="M251.3,47V30.2h7.1c1.8,0,3.4,0.4,4.7,1.1s2.4,1.7,3.2,3c0.8,1.3,1.1,2.7,1.1,4.4c0,1.7-0.4,3.1-1.1,4.4
					c-0.8,1.3-1.8,2.2-3.2,3s-2.9,1.1-4.7,1.1H251.3z M253.7,44.9h4.5c1.4,0,2.6-0.3,3.6-0.8c1-0.5,1.8-1.3,2.4-2.2
					c0.6-1,0.8-2.1,0.8-3.3c0-1.3-0.3-2.4-0.8-3.3c-0.6-0.9-1.3-1.7-2.4-2.2c-1-0.5-2.2-0.8-3.6-0.8h-4.5V44.9z"/>
				<path class="st3" d="M276.3,47.1c-1.3,0-2.4-0.3-3.4-0.8c-1-0.6-1.8-1.3-2.4-2.3c-0.6-1-0.9-2.1-0.9-3.3c0-1.3,0.3-2.4,0.9-3.4
					c0.6-1,1.4-1.7,2.4-2.3c1-0.6,2.1-0.8,3.4-0.8c1.3,0,2.4,0.3,3.4,0.8c1,0.6,1.8,1.3,2.4,2.3c0.6,1,0.9,2.1,0.9,3.4
					c0,1.3-0.3,2.4-0.9,3.4c-0.6,1-1.4,1.7-2.4,2.3C278.7,46.9,277.5,47.1,276.3,47.1z M276.3,45.1c0.8,0,1.5-0.2,2.2-0.6
					c0.6-0.4,1.2-0.9,1.5-1.6c0.4-0.7,0.6-1.5,0.6-2.4c0-0.9-0.2-1.7-0.6-2.4s-0.9-1.2-1.5-1.5c-0.6-0.4-1.4-0.6-2.2-0.6
					c-0.8,0-1.5,0.2-2.2,0.6c-0.6,0.4-1.2,0.9-1.5,1.5s-0.6,1.5-0.6,2.4c0,0.9,0.2,1.7,0.6,2.4c0.4,0.7,0.9,1.2,1.5,1.6
					C274.7,44.9,275.5,45.1,276.3,45.1z"/>
				<path class="st3" d="M291.6,47.1c-1.3,0-2.5-0.3-3.5-0.8c-1-0.6-1.8-1.3-2.4-2.3c-0.6-1-0.9-2.1-0.9-3.4c0-1.3,0.3-2.4,0.9-3.4
					c0.6-1,1.4-1.7,2.4-2.3c1-0.6,2.2-0.8,3.5-0.8c1.2,0,2.2,0.2,3.1,0.7c0.9,0.5,1.6,1.1,2.1,2L295,38c-0.4-0.6-0.9-1.1-1.5-1.4
					c-0.6-0.3-1.2-0.4-1.9-0.4c-0.8,0-1.6,0.2-2.2,0.6c-0.7,0.4-1.2,0.9-1.6,1.5s-0.6,1.5-0.6,2.4s0.2,1.7,0.6,2.4
					c0.4,0.7,0.9,1.2,1.6,1.6s1.4,0.6,2.2,0.6c0.7,0,1.3-0.1,1.9-0.4c0.6-0.3,1.1-0.8,1.5-1.4l1.8,1.1c-0.5,0.9-1.2,1.6-2.1,2
					C293.8,46.9,292.8,47.1,291.6,47.1z"/>
				<path class="st3" d="M305.2,47.1c-1.4,0-2.6-0.3-3.6-0.8c-1-0.6-1.8-1.3-2.4-2.3c-0.6-1-0.9-2.1-0.9-3.4c0-1.3,0.3-2.4,0.8-3.4
					c0.6-1,1.3-1.7,2.3-2.3c1-0.6,2.1-0.8,3.3-0.8c1.2,0,2.3,0.3,3.3,0.8c0.9,0.5,1.7,1.3,2.2,2.3c0.5,1,0.8,2.1,0.8,3.4
					c0,0.1,0,0.2,0,0.3s0,0.2,0,0.4h-10.8v-1.7h9.6l-0.9,0.6c0-0.8-0.2-1.5-0.5-2.2c-0.4-0.6-0.8-1.1-1.5-1.5
					c-0.6-0.4-1.3-0.5-2.1-0.5c-0.8,0-1.5,0.2-2.1,0.5c-0.6,0.4-1.1,0.9-1.5,1.5c-0.4,0.6-0.5,1.4-0.5,2.2v0.4
					c0,0.8,0.2,1.6,0.6,2.3c0.4,0.7,0.9,1.2,1.6,1.5s1.5,0.6,2.4,0.6c0.8,0,1.4-0.1,2.1-0.4s1.2-0.6,1.6-1.2l1.3,1.5
					c-0.6,0.7-1.3,1.2-2.1,1.5S306.3,47.1,305.2,47.1z"/>
				<path class="st3" d="M321.1,34.2c1,0,2,0.2,2.7,0.6c0.8,0.4,1.4,1,1.9,1.8c0.4,0.8,0.7,1.8,0.7,3.1V47H324v-7.1
					c0-1.2-0.3-2.2-0.9-2.8c-0.6-0.6-1.4-0.9-2.5-0.9c-0.8,0-1.5,0.2-2.1,0.5c-0.6,0.3-1.1,0.8-1.4,1.4c-0.3,0.6-0.5,1.4-0.5,2.3V47
					h-2.3V34.3h2.2v3.4l-0.4-0.9c0.4-0.8,1.1-1.5,1.9-1.9S319.9,34.2,321.1,34.2z"/>
				<path class="st3" d="M328.8,36.2v-1.9h8.1v1.9H328.8z M335,47.1c-1.3,0-2.3-0.3-3-1c-0.7-0.7-1.1-1.7-1.1-3V31.5h2.3v11.6
					c0,0.7,0.2,1.2,0.5,1.6s0.8,0.6,1.5,0.6c0.7,0,1.3-0.2,1.8-0.6l0.7,1.7c-0.4,0.3-0.8,0.5-1.3,0.7C336,47.1,335.5,47.1,335,47.1z
					"/>
				<path class="st3" d="M345.8,47.1c-1.4,0-2.6-0.3-3.6-0.8c-1-0.6-1.8-1.3-2.4-2.3c-0.6-1-0.9-2.1-0.9-3.4c0-1.3,0.3-2.4,0.8-3.4
					c0.6-1,1.3-1.7,2.3-2.3c1-0.6,2.1-0.8,3.3-0.8c1.2,0,2.3,0.3,3.3,0.8c0.9,0.5,1.7,1.3,2.2,2.3c0.5,1,0.8,2.1,0.8,3.4
					c0,0.1,0,0.2,0,0.3s0,0.2,0,0.4h-10.8v-1.7h9.6l-0.9,0.6c0-0.8-0.2-1.5-0.5-2.2c-0.4-0.6-0.8-1.1-1.5-1.5
					c-0.6-0.4-1.3-0.5-2.1-0.5c-0.8,0-1.5,0.2-2.1,0.5c-0.6,0.4-1.1,0.9-1.5,1.5c-0.4,0.6-0.5,1.4-0.5,2.2v0.4
					c0,0.8,0.2,1.6,0.6,2.3c0.4,0.7,0.9,1.2,1.6,1.5s1.5,0.6,2.4,0.6c0.8,0,1.4-0.1,2.1-0.4s1.2-0.6,1.6-1.2l1.3,1.5
					c-0.6,0.7-1.3,1.2-2.1,1.5S346.8,47.1,345.8,47.1z"/>
			</g>
		</g>
	</g>
	<g>
		<path class="st0" d="M419.8,21.8H496c3,0,5.4,6.9,5.4,15.5v1c0,8.5-2.4,15.5-5.4,15.5h-76.2c-3,0-5.4-6.9-5.4-15.5v-1
			C414.5,28.7,416.9,21.8,419.8,21.8z"/>
		<circle class="st4" cx="403.6" cy="36.5" r="29"/>
		<g>
			<g>
				<path class="st2" d="M390.2,47.9c-1.5,0-3,0-4.4,0c-0.3,0-0.5,0.1-0.7,0c-0.3-0.2-0.8-0.4-0.9-0.7s0-0.9,0.3-1.1
					c3.7-3.6,5.2-8.2,5.6-13.1c0.3-2.8,0.1-5.6,0.2-8.5c0-1.1,0.3-1.4,1.4-1.4c1.5,0,3.1,0,4.6,0c0,0,0.1,0,0.2-0.1
					c0.2-0.7-0.2-2,1.1-1.9c1.3,0,0.9,1.2,1.1,2c1.7,0,3.4,0,5.1,0c0.1-0.8-0.2-2,1.1-2c1.3,0,1,1.1,1,2c1.7,0,3.4,0,5.2,0
					c0.2-0.8-0.2-2.1,1.2-2c1.2,0.1,0.9,1.1,0.9,2c0.2,0,0.5,0,0.7,0c1.4,0,2.8,0,4.1,0c0.9,0,1.3,0.4,1.3,1.3c0,8.8,0,17.6,0,26.4
					c0,0.9-0.4,1.3-1.5,1.3c-7.2,0-14.3,0-21.5,0c-1.5,0-3.1,0-4.6,0c-1.2,0-1.5-0.3-1.5-1.5C390.2,49.7,390.2,48.8,390.2,47.9z
					 M387.4,45.8c0.3,0,0.5,0,0.7,0c7.6,0,15.2,0,22.8,0c0.4,0,0.8-0.2,1-0.5c2.5-2.7,3.9-6,4.6-9.6c0.3-1.4,0.4-2.9,0.6-4.4
					c-8.4,0-16.7,0-25,0C392,36.6,390.6,41.5,387.4,45.8z M405.8,25.2c-0.1,0.8,0.2,1.9-1,2c-1.4,0.1-1-1.2-1.1-2
					c-1.7,0-3.4,0-5.1,0c-0.2,0.8,0.2,1.9-1,2c-1.4,0.1-1-1.2-1.2-2c-1.4,0-2.7,0-4.1,0c0,1.4,0,2.7,0,4c8.3,0,16.6,0,24.8,0
					c0-1.4,0-2.7,0-4c-1.4,0-2.7,0-4,0c-0.1,0.8,0.2,2-1.1,2c-1.3,0-0.9-1.2-1-2C409.2,25.2,407.5,25.2,405.8,25.2z M417.1,41.4
					L417.1,41.4c-0.2,0.2-0.3,0.4-0.4,0.5c-0.9,1.9-2.1,3.7-3.6,5.3c-0.5,0.5-1,0.7-1.7,0.7c-6.1,0-12.2,0-18.3,0
					c-0.3,0-0.6,0-0.9,0c0,0.7,0,1.4,0,2c8.3,0,16.6,0,24.9,0C417.1,47,417.1,44.2,417.1,41.4z"/>
			</g>
		</g>
		<g>
			<path class="st3" d="M437.5,45.7V44l6.8-6.6c0.6-0.6,1.1-1.1,1.4-1.5s0.5-0.8,0.6-1.2c0.1-0.4,0.2-0.7,0.2-1.1
				c0-0.9-0.3-1.5-0.9-2c-0.6-0.5-1.5-0.7-2.7-0.7c-0.9,0-1.7,0.1-2.4,0.4s-1.3,0.8-1.9,1.4l-1.6-1.4c0.6-0.8,1.5-1.4,2.6-1.9
				c1.1-0.4,2.3-0.7,3.6-0.7c1.2,0,2.2,0.2,3,0.6c0.9,0.4,1.5,0.9,2,1.6c0.5,0.7,0.7,1.5,0.7,2.5c0,0.5-0.1,1.1-0.2,1.6
				c-0.1,0.5-0.4,1.1-0.8,1.7c-0.4,0.6-1,1.3-1.7,2l-6.1,5.9l-0.6-0.9h10.2v2.1H437.5z"/>
			<path class="st3" d="M458.4,45.8c-1.3,0-2.5-0.3-3.5-1c-1-0.7-1.8-1.6-2.4-2.9c-0.6-1.3-0.9-2.8-0.9-4.7c0-1.8,0.3-3.4,0.9-4.7
				s1.4-2.3,2.4-2.9c1-0.7,2.2-1,3.5-1c1.3,0,2.5,0.3,3.5,1c1,0.7,1.9,1.6,2.4,2.9s0.9,2.8,0.9,4.7c0,1.8-0.3,3.4-0.9,4.7
				c-0.6,1.3-1.4,2.3-2.4,2.9C460.9,45.5,459.7,45.8,458.4,45.8z M458.4,43.7c0.9,0,1.7-0.2,2.3-0.7c0.7-0.5,1.2-1.2,1.6-2.2
				c0.4-1,0.6-2.2,0.6-3.6c0-1.4-0.2-2.6-0.6-3.6c-0.4-1-0.9-1.7-1.6-2.2c-0.7-0.5-1.4-0.7-2.3-0.7c-0.9,0-1.7,0.2-2.3,0.7
				c-0.7,0.5-1.2,1.2-1.6,2.2c-0.4,1-0.6,2.2-0.6,3.6c0,1.4,0.2,2.6,0.6,3.6c0.4,1,0.9,1.7,1.6,2.2
				C456.7,43.5,457.5,43.7,458.4,43.7z"/>
			<path class="st3" d="M467.3,45.7V44l6.8-6.6c0.6-0.6,1.1-1.1,1.4-1.5s0.5-0.8,0.6-1.2c0.1-0.4,0.2-0.7,0.2-1.1
				c0-0.9-0.3-1.5-0.9-2c-0.6-0.5-1.5-0.7-2.7-0.7c-0.9,0-1.7,0.1-2.4,0.4s-1.3,0.8-1.9,1.4l-1.6-1.4c0.6-0.8,1.5-1.4,2.6-1.9
				c1.1-0.4,2.3-0.7,3.6-0.7c1.2,0,2.2,0.2,3,0.6c0.9,0.4,1.5,0.9,2,1.6c0.5,0.7,0.7,1.5,0.7,2.5c0,0.5-0.1,1.1-0.2,1.6
				c-0.1,0.5-0.4,1.1-0.8,1.7c-0.4,0.6-1,1.3-1.7,2l-6.1,5.9l-0.6-0.9h10.2v2.1H467.3z"/>
			<path class="st3" d="M484.1,45.7V29.8l1,1.1h-4.8v-2.1h6.2v16.8H484.1z"/>
		</g>
	</g>
</g>
</svg>
