<?xml version="1.0" encoding="utf-8"?>
<!-- Generator: Adobe Illustrator 24.0.2, SVG Export Plug-In . SVG Version: 6.00 Build 0)  -->
<!DOCTYPE svg PUBLIC "-//W3C//DTD SVG 1.1//EN" "http://www.w3.org/Graphics/SVG/1.1/DTD/svg11.dtd" [
	<!ENTITY ns_extend "http://ns.adobe.com/Extensibility/1.0/">
	<!ENTITY ns_ai "http://ns.adobe.com/AdobeIllustrator/10.0/">
	<!ENTITY ns_graphs "http://ns.adobe.com/Graphs/1.0/">
	<!ENTITY ns_vars "http://ns.adobe.com/Variables/1.0/">
	<!ENTITY ns_imrep "http://ns.adobe.com/ImageReplacement/1.0/">
	<!ENTITY ns_sfw "http://ns.adobe.com/SaveForWeb/1.0/">
	<!ENTITY ns_custom "http://ns.adobe.com/GenericCustomNamespace/1.0/">
	<!ENTITY ns_adobe_xpath "http://ns.adobe.com/XPath/1.0/">
]>
<svg version="1.1" id="Capa_1" xmlns:x="&ns_extend;" xmlns:i="&ns_ai;" xmlns:graph="&ns_graphs;"
	 xmlns="http://www.w3.org/2000/svg" xmlns:xlink="http://www.w3.org/1999/xlink" x="0px" y="0px" viewBox="0 0 550 71"
	 style="enable-background:new 0 0 550 71;" xml:space="preserve">
<style type="text/css">
	.st0{opacity:0.15;fill:#143F8B;enable-background:new    ;}
	.st1{fill:#00AEEF;}
	.st2{fill:#FFFFFF;}
	.st3{clip-path:url(#SVGID_2_);}
	.st4{fill:#E3007E;}
	.st5{fill:#606060;}
</style>
<metadata>
	<sfw  xmlns="&ns_sfw;">
		<slices></slices>
		<sliceSourceBounds  bottomLeftOrigin="true" height="66.8" width="524.4" x="12.8" y="2"></sliceSourceBounds>
	</sfw>
</metadata>
<path class="st0" d="M42.8,18.5h336.7c9.1,0,16.5,7.6,16.5,17l0,0c0,9.4-7.4,17-16.5,17H42.8c-9.1,0-16.5-7.6-16.5-17l0,0
	C26.3,26.1,33.7,18.5,42.8,18.5z"/>
<g>
	<g>
		<g>
			<circle class="st1" cx="46.2" cy="35.6" r="33.4"/>
			<g>
				<path class="st2" d="M68.2,44.7c0.4-0.1,0.9-0.1,1.3-0.1c0.8,0,1.1-0.3,1.1-1c0-2.8,0.3-4-3-4h-32c-6.3-0.1-17-1.7-17,7.6
					c0,3.8,2.8,7.1,6.6,7.7c1.6,0.2,3.3,0.1,4.9,0.1h0.7v0.8c0,0.5,0.3,0.9,0.8,0.9c0.3,0,0.6-0.1,0.7-0.3l1.1-1.2
					c0.4-0.4,1.1-0.4,1.5,0l1.2,1.2c0.3,0.4,0.9,0.4,1.2,0.1c0.2-0.2,0.3-0.5,0.3-0.7c0-0.3,0-0.5,0-0.8h31.5c0.2,0,0.4,0,0.5,0
					c0.5,0,0.8-0.4,0.9-0.8l0,0c0-1.2,0-2.3,0-3.5c0-0.5-0.3-0.9-0.8-0.9c0,0,0,0-0.1,0c-0.3,0-0.7,0-1,0c-1.3-0.1-2.3-1-2.4-2.3
					S66.9,45,68.2,44.7z M27.2,53.2c-2.2,0.3-4.5-0.7-5.8-2.5c-1.5-1.9-1.6-4.4-0.4-6.5c1.2-2.2,3.6-3.5,6.1-3.1v1.7
					c-1.6-0.2-3.2,0.4-4.2,1.7c-0.7,0.8-1,1.9-0.9,3c0.1,2.5,1.9,3.8,5.2,4.1V53.2z M30.7,53.2H29v-1.7h1.7V53.2z M35.9,53.8
					c-0.4-0.4-0.6-0.7-1-1c-0.3-0.4-0.8-0.5-1.2-0.2c-0.1,0.1-0.2,0.1-0.2,0.2c-0.3,0.3-0.6,0.6-1,1v-5.7h3.4V53.8z M26.4,46.3V48
					h4.3v1.7c-0.1,0-0.3,0-0.4,0h-3.8c-1.4,0-2.6-1.2-2.6-2.6s1.2-2.6,2.6-2.6l0,0h38.8l-0.7,1.8C64.6,46.3,26.4,46.3,26.4,46.3z
					 M37.7,48.1h26.9l0.8,1.7H37.7V48.1z M68.8,51.6v1.7H37.7v-1.7H68.8z M29.1,42.8v-1.7h39.8v1.7H29.1z"/>
				<g>
					<g>
						<g>
							<g>
								<g>
									<g>
										<defs>
											<rect id="SVGID_1_" x="18.6" y="9.2" width="55" height="29.4"/>
										</defs>
										<clipPath id="SVGID_2_">
											<use xlink:href="#SVGID_1_"  style="overflow:visible;"/>
										</clipPath>
										<g class="st3">
											<path class="st2" d="M68.4,26.6c-0.1-0.3-0.2-0.5-0.3-0.7c-0.8-1.6-2.8-2.4-4.6-2.5c1.7-2.3,1.3-5.6-0.9-7.4
												c-2.4-1.6-5.6-1.1-7.3,1.3c-2.4-1.3-5.4-0.6-6.9,1.6c-1.3-0.5-2.8-0.6-4.2-0.3c-0.3,0.1-0.6,0.1-0.8,0.1
												c-0.2-0.1-0.5-0.3-0.6-0.5c-1.6-1.7-4.1-2.1-6.2-1c-0.5-0.5-1-0.9-1.5-1.4c-2.2-1.6-5.4-1.1-7,1.1
												c-0.3,0.4-0.5,0.8-0.6,1.2c-0.6,1.8-0.3,3.7,0.9,5.1c-1.9-0.5-3.9,1-4.7,2.8c-0.7,1.8-1,3.8-0.9,5.8
												c-0.1,1.2,0,2.5,0.5,3.6c0.5,1.2,1.8,1.8,3,1.4v6.8c-0.1,0.7,0,1.4,0.3,2c0.5,1.3,2,1.9,3.3,1.3c0.5-0.2,0.9-0.5,1.1-0.9
												c0.8-1.2,0.4-2.8,0.4-4.3c0-0.7,0.4-1.5,1-1.4s0.8,0.9,0.8,1.5l-0.1,3.1c-0.1,0.9,0.1,1.8,0.4,2.6
												c0.8,1.2,2.5,1.5,3.7,0.7c0.3-0.2,0.5-0.4,0.7-0.7c0.8-1.3,0.3-2.9,0.4-4.3c0-0.6,0.3-1.3,0.9-1.3c0.6,0,0.9,0.9,0.9,1.6
												v3.1c-0.1,0.9,0.1,1.9,0.5,2.7c0.8,1.2,2.4,1.5,3.6,0.6c0.2-0.1,0.3-0.3,0.5-0.4c1-1.3,0.5-3.1,0.6-4.6
												c0-0.5,0.2-1,0.6-1.2c0.7-0.2,1.1,0.8,1.1,1.5c0,1.5-0.4,3,0.5,4.3c0.9,1.1,2.5,1.4,3.6,0.5c0.1-0.1,0.3-0.2,0.4-0.4
												c0.6-1,0.8-2.2,0.7-3.3l-0.1-2.5c-0.1-0.4,0-0.9,0.2-1.3s0.7-0.6,1.1-0.4c0.2,0.2,0.4,0.5,0.4,0.8c0.3,1.7-0.4,3.7,0.7,5
												c0.9,1.1,2.5,1.2,3.6,0.3c0.1-0.1,0.1-0.1,0.2-0.2c0.7-1,0.9-2.2,0.8-3.4l-0.5-2.4c0-0.8,0.3-1.8,1-1.7
												c0.5,0.1,0.7,0.7,0.7,1.2c0.1,1.6-0.4,3.4,0.6,4.7c0.9,1.1,2.6,1.2,3.6,0.2c0.1-0.1,0.2-0.2,0.3-0.3
												c0.5-0.9,0.7-1.9,0.6-3v-6.4c1.3,0.4,2.6-0.3,3.2-1.5c0.2-0.7,0.3-1.4,0.2-2.1l-0.2-4.4C68.6,28.1,68.6,27.4,68.4,26.6z
												 M61.1,17c1.6,1,2.1,3.1,1.2,4.7c-0.9,1.4-2.6,2-4.2,1.4c-0.2-0.1-0.4-0.2-0.4-0.5c0.3-1.4-0.1-2.9-1-4l-0.2-0.2
												C57.4,16.8,59.4,16.1,61.1,17z M54.3,18.7c1.6,0.9,2.2,3,1.3,4.6c-0.9,1.5-2.7,2.1-4.3,1.5c-0.2-0.1-0.5-0.2-0.4-0.5
												c0.3-1.5-0.1-3.1-1.2-4.2C50.6,18.5,52.7,17.9,54.3,18.7z M45.9,20c1.9,0,3.4,1.6,3.4,3.4c0,1.9-1.6,3.4-3.4,3.4
												c-1.9,0-3.4-1.6-3.4-3.4C42.5,21.5,44,20,45.9,20z M37.8,18.5c1.6-0.6,3.4,0,4.2,1.5c-1,1.2-1.4,2.7-1.2,4.3
												c0,0.1-0.2,0.4-0.4,0.5c-1.7,0.8-3.7,0.1-4.5-1.6c0,0,0-0.1-0.1-0.1c-0.7-1.7,0.1-3.7,1.8-4.5
												C37.7,18.6,37.8,18.6,37.8,18.5z M28.9,19.3c0.2-1.3,1.2-2.3,2.5-2.6c1.5-0.4,3.1,0.3,3.8,1.7c-1,1.2-1.4,2.7-1.2,4.3
												c0,0.1-0.2,0.4-0.4,0.5c-1.7,0.8-3.7,0-4.5-1.7C28.8,20.8,28.7,20,28.9,19.3L28.9,19.3z M30.8,39.2
												c-0.7,0.4-1.2,1.2-1.2,2.1c0,1.1,0,2.1,0,3.2c0,0.7-0.3,1.1-0.9,1.1s-0.8-0.4-0.8-1.1V28.6h-1.7v5.5c0,0.1,0,0.3,0,0.4
												c0,0.5-0.4,0.8-0.8,0.8c-0.5,0-0.8-0.3-0.9-0.8c0,0,0,0,0-0.1c0-2.1-0.1-4.2,0-6.3c0.1-1.7,1.6-3.1,3.3-3.1
												c1.3,0,2.5,0,3.7,0c1.1,0.1,2.2-0.2,3.1-0.7l0.4,0.6c-0.6,0.1-1.1,0.2-1.7,0.3c-2.2,0.6-3.8,2.5-3.8,4.8c0,2,0,3.9,0,5.9
												c-0.1,1.2,0.7,2.2,1.8,2.6l0.2,0.1C31.4,38.9,31.1,39,30.8,39.2z M38.1,40.7c-1,0.4-1.7,1.3-1.6,2.4c0,1.1,0,2.1,0,3.2
												c0,0.7-0.3,1.1-0.9,1.1c-0.6,0-0.8-0.4-0.8-1.1c0-5.1,0-10.2,0-15.3v-0.7h-1.7V36c0,0.7-0.3,1.1-0.8,1.1
												s-0.9-0.4-0.9-1.1c0-1.9,0-3.8,0-5.6c0-1.9,1.4-3.4,3.3-3.5h0.1c1,0,2,0,3,0c1.3,0.1,2.6-0.1,3.7-0.7l0.4,0.6
												c-0.6,0.1-1.2,0.1-1.7,0.3c-2.2,0.6-3.7,2.5-3.8,4.7c0,2.1,0,4.1,0,6.2c0,1.2,0.9,2.3,2.1,2.5L38.1,40.7z M52.6,38.8
												c-0.5,0-0.8-0.4-0.8-1c0-1.7,0-3.5,0-5.2V32h-1.7v16c0,0.6-0.3,1-0.8,1s-0.9-0.4-0.9-0.8c0-0.1,0-0.1,0-0.2
												c0-1.1,0-2.2,0-3.3c0-1.4-1.1-2.5-2.6-2.5c-1.4,0-2.5,1.1-2.5,2.5c0,1.1,0,2.2,0,3.3c0,0.7-0.3,1.1-0.8,1.1
												s-0.9-0.5-0.9-1.2c0-5.1,0-10.2,0-15.3v-0.7h-1.7v5.8c0.1,0.5-0.3,0.9-0.7,1h-0.1c-0.5,0-0.9-0.4-0.9-1c0-2,0-4,0-5.9
												c0-1.8,1.5-3.3,3.4-3.3c2.9,0,5.8,0,8.6,0c1.9,0,3.4,1.5,3.4,3.4c0,2,0,3.9,0,5.9C53.5,38.4,53.2,38.8,52.6,38.8z
												 M58.6,36c0-1.7,0-3.5,0-5.2v-0.6h-1.7v15.6c0,0.1,0,0.3,0,0.4c0.1,0.5-0.3,0.9-0.8,1H56c-0.5,0-0.9-0.4-0.9-0.9
												c0,0,0,0,0-0.1c0-0.9,0-1.9,0-2.8c0.2-1.4-0.7-2.7-2.1-3c1.4-0.3,2.3-1.7,2.1-3.1c0-1.7,0-3.4,0-5.1
												c0.2-2.8-2-5.3-4.8-5.4c-0.2,0-0.3,0-0.5,0h-0.2l0.5-0.6c1.1,0.6,2.4,0.8,3.7,0.7c1,0,2,0,3,0c1.9,0,3.4,1.5,3.5,3.3v0.1
												c0,1.9,0,3.8,0,5.7c0,0.7-0.3,1.1-0.9,1S58.6,36.7,58.6,36z M67.1,34.4c0,0.6-0.3,1-0.8,1s-0.8-0.4-0.8-1
												c0-1.7,0-3.4,0-5.2v-0.6h-1.7v15.6c0,0.2,0,0.3,0,0.5c0,0.5-0.4,0.9-0.8,0.9c-0.5,0-0.9-0.3-0.9-0.8c0,0,0,0,0-0.1
												c0-1,0-2,0-3c0.2-1.4-0.7-2.6-2.1-3l0.5-0.2c0.9-0.4,1.6-1.3,1.6-2.3c0-2.1,0-4.2,0-6.2c-0.1-2.7-2.2-4.8-4.9-4.9h-0.6
												l0.5-0.6c1.3,0.8,2.7,0.7,4.1,0.7c0.9,0,1.8,0,2.7,0c1.8,0,3.3,1.5,3.4,3.4C67.2,30.4,67.2,32.4,67.1,34.4z"/>
										</g>
									</g>
								</g>
							</g>
						</g>
					</g>
				</g>
			</g>
		</g>
	</g>
	<g>
		<path class="st0" d="M455.6,20.9h76.2c3,0,5.4,6.9,5.4,15.5v1c0,8.5-2.4,15.5-5.4,15.5h-76.2c-3,0-5.4-6.9-5.4-15.5v-1
			C450.3,27.8,452.7,20.9,455.6,20.9z"/>
		<circle class="st4" cx="439.4" cy="35.6" r="29"/>
		<g>
			<g>
				<path class="st2" d="M426,47c-1.5,0-3,0-4.4,0c-0.3,0-0.5,0.1-0.7,0c-0.3-0.2-0.8-0.4-0.9-0.7s0-0.9,0.3-1.1
					c3.7-3.6,5.2-8.2,5.6-13.1c0.3-2.8,0.1-5.6,0.2-8.5c0-1.1,0.3-1.4,1.4-1.4c1.5,0,3.1,0,4.6,0c0,0,0.1,0,0.2-0.1
					c0.2-0.7-0.2-2,1.1-1.9c1.3,0,0.9,1.2,1.1,2c1.7,0,3.4,0,5.1,0c0.1-0.8-0.2-2,1.1-2c1.3,0,1,1.1,1,2c1.7,0,3.4,0,5.2,0
					c0.2-0.8-0.2-2.1,1.2-2c1.2,0.1,0.9,1.1,0.9,2c0.2,0,0.5,0,0.7,0c1.4,0,2.8,0,4.1,0c0.9,0,1.3,0.4,1.3,1.3c0,8.8,0,17.6,0,26.4
					c0,0.9-0.4,1.3-1.5,1.3c-7.2,0-14.3,0-21.5,0c-1.5,0-3.1,0-4.6,0c-1.2,0-1.5-0.3-1.5-1.5C426,48.8,426,47.9,426,47z M423.2,44.9
					c0.3,0,0.5,0,0.7,0c7.6,0,15.2,0,22.8,0c0.4,0,0.8-0.2,1-0.5c2.5-2.7,3.9-6,4.6-9.6c0.3-1.4,0.4-2.9,0.6-4.4c-8.4,0-16.7,0-25,0
					C427.8,35.7,426.4,40.6,423.2,44.9z M441.6,24.3c-0.1,0.8,0.2,1.9-1,2c-1.4,0.1-1-1.2-1.1-2c-1.7,0-3.4,0-5.1,0
					c-0.2,0.8,0.2,1.9-1,2c-1.4,0.1-1-1.2-1.2-2c-1.4,0-2.7,0-4.1,0c0,1.4,0,2.7,0,4c8.3,0,16.6,0,24.8,0c0-1.4,0-2.7,0-4
					c-1.4,0-2.7,0-4,0c-0.1,0.8,0.2,2-1.1,2c-1.3,0-0.9-1.2-1-2C445,24.3,443.3,24.3,441.6,24.3z M452.9,40.5L452.9,40.5
					c-0.2,0.2-0.3,0.4-0.4,0.5c-0.9,1.9-2.1,3.7-3.6,5.3c-0.5,0.5-1,0.7-1.7,0.7c-6.1,0-12.2,0-18.3,0c-0.3,0-0.6,0-0.9,0
					c0,0.7,0,1.4,0,2c8.3,0,16.6,0,24.9,0C452.9,46.1,452.9,43.3,452.9,40.5z"/>
			</g>
		</g>
		<g>
			<path class="st5" d="M473.3,44.8v-1.6l6.8-6.6c0.6-0.6,1.1-1.1,1.4-1.5s0.5-0.8,0.6-1.2s0.2-0.7,0.2-1.1c0-0.9-0.3-1.5-0.9-2
				s-1.5-0.7-2.7-0.7c-0.9,0-1.7,0.1-2.4,0.4c-0.7,0.3-1.3,0.8-1.9,1.4l-1.6-1.4c0.6-0.8,1.5-1.4,2.6-1.9c1.1-0.4,2.3-0.7,3.6-0.7
				c1.2,0,2.2,0.2,3,0.6s1.5,0.9,2,1.6s0.7,1.5,0.7,2.5c0,0.5-0.1,1.1-0.2,1.6s-0.4,1.1-0.8,1.7c-0.4,0.6-1,1.3-1.7,2l-6.1,5.9
				l-0.6-0.9h10.2V45h-12.2V44.8z"/>
			<path class="st5" d="M494.2,45c-1.3,0-2.5-0.3-3.5-1s-1.8-1.6-2.4-2.9c-0.6-1.3-0.9-2.8-0.9-4.7c0-1.8,0.3-3.4,0.9-4.7
				s1.4-2.3,2.4-2.9c1-0.7,2.2-1,3.5-1s2.5,0.3,3.5,1s1.9,1.6,2.4,2.9s0.9,2.8,0.9,4.7c0,1.8-0.3,3.4-0.9,4.7s-1.4,2.3-2.4,2.9
				C496.7,44.6,495.5,45,494.2,45z M494.2,42.8c0.9,0,1.7-0.2,2.3-0.7c0.7-0.5,1.2-1.2,1.6-2.2s0.6-2.2,0.6-3.6
				c0-1.4-0.2-2.6-0.6-3.6s-0.9-1.7-1.6-2.2s-1.4-0.7-2.3-0.7s-1.7,0.2-2.3,0.7c-0.7,0.5-1.2,1.2-1.6,2.2s-0.6,2.2-0.6,3.6
				c0,1.4,0.2,2.6,0.6,3.6s0.9,1.7,1.6,2.2C492.5,42.6,493.3,42.8,494.2,42.8z"/>
			<path class="st5" d="M503.1,44.8v-1.6l6.8-6.6c0.6-0.6,1.1-1.1,1.4-1.5s0.5-0.8,0.6-1.2s0.2-0.7,0.2-1.1c0-0.9-0.3-1.5-0.9-2
				s-1.5-0.7-2.7-0.7c-0.9,0-1.7,0.1-2.4,0.4c-0.7,0.3-1.3,0.8-1.9,1.4l-1.6-1.4c0.6-0.8,1.5-1.4,2.6-1.9c1.1-0.4,2.3-0.7,3.6-0.7
				c1.2,0,2.2,0.2,3,0.6s1.5,0.9,2,1.6s0.7,1.5,0.7,2.5c0,0.5-0.1,1.1-0.2,1.6c-0.1,0.5-0.4,1.1-0.8,1.7c-0.4,0.6-1,1.3-1.7,2
				l-6.1,5.9l-0.6-0.9h10.2V45h-12.2V44.8z"/>
			<path class="st5" d="M519.9,44.8V28.9l1,1.1h-4.8v-2h6.2v16.8H519.9z"/>
		</g>
	</g>
	<g>
		<path class="st5" d="M102.1,44l0-12.2L96,42h-1.1l-6.1-10.1V44h-2.3V27.2h2l7,11.8l6.9-11.8h2l0,16.8H102.1z"/>
		<path class="st5" d="M119.2,36.3V44H117v-1.7c-0.8,1.2-2.2,1.8-4.2,1.8c-2.9,0-4.7-1.5-4.7-3.7c0-2,1.3-3.7,5.1-3.7h3.6v-0.5
			c0-1.9-1.1-3.1-3.4-3.1c-1.5,0-3,0.5-4,1.4l-1-1.7c1.3-1.1,3.2-1.6,5.3-1.6C117.2,31.2,119.2,32.9,119.2,36.3z M116.9,40.1v-1.8
			h-3.6c-2.3,0-2.9,0.9-2.9,2c0,1.3,1.1,2.1,2.8,2.1C114.9,42.4,116.3,41.6,116.9,40.1z"/>
		<path class="st5" d="M130.6,43.3c-0.7,0.6-1.8,0.9-2.8,0.9c-2.6,0-4-1.4-4-4v-7h-2.2v-1.9h2.2v-2.8h2.3v2.8h3.6v1.9h-3.6v6.9
			c0,1.4,0.7,2.1,2,2.1c0.7,0,1.3-0.2,1.8-0.6L130.6,43.3z"/>
		<path class="st5" d="M140.2,31.2v2.2c-0.2,0-0.4,0-0.5,0c-2.5,0-4,1.5-4,4.3V44h-2.3V31.3h2.2v2.1C136.4,31.9,138,31.2,140.2,31.2
			z"/>
		<path class="st5" d="M145.7,26.3h2.9l-4,3.1h-2.2L145.7,26.3z M143.1,31.3h2.3V44h-2.3V31.3z"/>
		<path class="st5" d="M148.6,37.7c0-3.8,2.8-6.5,6.7-6.5c2.3,0,4.2,0.9,5.2,2.7l-1.8,1.1c-0.8-1.2-2.1-1.8-3.5-1.8
			c-2.5,0-4.4,1.8-4.4,4.5c0,2.8,1.9,4.5,4.4,4.5c1.4,0,2.6-0.6,3.5-1.8l1.8,1.1c-1,1.8-2.9,2.7-5.2,2.7
			C151.4,44.2,148.6,41.5,148.6,37.7z"/>
		<path class="st5" d="M175.3,31.3V44h-2.2v-1.9c-0.9,1.3-2.5,2.1-4.3,2.1c-3.3,0-5.5-1.8-5.5-5.5v-7.3h2.3v7.1
			c0,2.5,1.2,3.7,3.4,3.7c2.4,0,3.9-1.5,3.9-4.2v-6.6H175.3z"/>
		<path class="st5" d="M179.7,26.2h2.3V44h-2.3V26.2z"/>
		<path class="st5" d="M196.5,36.3V44h-2.2v-1.7c-0.8,1.2-2.2,1.8-4.2,1.8c-2.9,0-4.7-1.5-4.7-3.7c0-2,1.3-3.7,5.1-3.7h3.6v-0.5
			c0-1.9-1.1-3.1-3.4-3.1c-1.5,0-3,0.5-4,1.4l-1-1.7c1.3-1.1,3.2-1.6,5.3-1.6C194.5,31.2,196.5,32.9,196.5,36.3z M194.2,40.1v-1.8
			h-3.6c-2.3,0-2.9,0.9-2.9,2c0,1.3,1.1,2.1,2.8,2.1C192.2,42.4,193.6,41.6,194.2,40.1z"/>
		<path class="st5" d="M219.2,26.2V44H217v-2c-1,1.4-2.7,2.2-4.5,2.2c-3.7,0-6.4-2.6-6.4-6.5c0-3.9,2.7-6.5,6.4-6.5
			c1.8,0,3.4,0.7,4.4,2v-7H219.2z M216.9,37.7c0-2.7-1.8-4.5-4.3-4.5c-2.4,0-4.3,1.8-4.3,4.5c0,2.7,1.8,4.5,4.3,4.5
			C215.1,42.2,216.9,40.4,216.9,37.7z"/>
		<path class="st5" d="M235,38.4h-10.3c0.3,2.2,2.1,3.7,4.6,3.7c1.5,0,2.7-0.5,3.7-1.5l1.3,1.5c-1.2,1.3-2.9,2.1-5,2.1
			c-4.1,0-6.8-2.7-6.8-6.5c0-3.8,2.7-6.5,6.4-6.5c3.7,0,6.3,2.6,6.3,6.6C235.1,37.9,235.1,38.2,235,38.4z M224.7,36.8h8.2
			c-0.2-2.1-1.8-3.6-4.1-3.6C226.6,33.1,225,34.6,224.7,36.8z"/>
		<path class="st5" d="M257.3,41.9V44h-12.2V27.2h11.9v2.1h-9.5v5.2h8.4v2h-8.4v5.4H257.3z"/>
		<path class="st5" d="M259,42.7l1-1.8c1.1,0.8,2.8,1.3,4.5,1.3c2.1,0,3-0.6,3-1.7c0-2.9-8-0.4-8-5.4c0-2.3,2-3.8,5.3-3.8
			c1.7,0,3.5,0.4,4.6,1.2l-1,1.8c-1.2-0.7-2.4-1-3.7-1c-2,0-3,0.7-3,1.8c0,3,8.1,0.6,8.1,5.5c0,2.3-2.1,3.8-5.5,3.8
			C262.2,44.2,260.1,43.5,259,42.7z"/>
		<path class="st5" d="M279.8,43.3c-0.7,0.6-1.8,0.9-2.8,0.9c-2.6,0-4-1.4-4-4v-7h-2.2v-1.9h2.2v-2.8h2.3v2.8h3.6v1.9h-3.6v6.9
			c0,1.4,0.7,2.1,2,2.1c0.7,0,1.3-0.2,1.8-0.6L279.8,43.3z"/>
		<path class="st5" d="M294.5,31.3V44h-2.2v-1.9c-0.9,1.3-2.5,2.1-4.3,2.1c-3.3,0-5.5-1.8-5.5-5.5v-7.3h2.3v7.1
			c0,2.5,1.2,3.7,3.4,3.7c2.4,0,3.9-1.5,3.9-4.2v-6.6H294.5z"/>
		<path class="st5" d="M310.9,26.2V44h-2.2v-2c-1,1.4-2.7,2.2-4.5,2.2c-3.7,0-6.4-2.6-6.4-6.5c0-3.9,2.7-6.5,6.4-6.5
			c1.8,0,3.4,0.7,4.4,2v-7H310.9z M308.6,37.7c0-2.7-1.8-4.5-4.3-4.5c-2.4,0-4.3,1.8-4.3,4.5c0,2.7,1.8,4.5,4.3,4.5
			C306.7,42.2,308.6,40.4,308.6,37.7z"/>
		<path class="st5" d="M314.8,27.4c0-0.8,0.7-1.5,1.6-1.5c0.9,0,1.6,0.6,1.6,1.5c0,0.9-0.6,1.5-1.6,1.5
			C315.5,28.9,314.8,28.2,314.8,27.4z M315.2,31.3h2.3V44h-2.3V31.3z"/>
		<path class="st5" d="M332,36.3V44h-2.2v-1.7c-0.8,1.2-2.2,1.8-4.2,1.8c-2.9,0-4.7-1.5-4.7-3.7c0-2,1.3-3.7,5.1-3.7h3.6v-0.5
			c0-1.9-1.1-3.1-3.4-3.1c-1.5,0-3,0.5-4,1.4l-1-1.7c1.3-1.1,3.2-1.6,5.3-1.6C330,31.2,332,32.9,332,36.3z M329.7,40.1v-1.8h-3.6
			c-2.3,0-2.9,0.9-2.9,2c0,1.3,1.1,2.1,2.8,2.1C327.7,42.4,329.1,41.6,329.7,40.1z"/>
		<path class="st5" d="M348.3,36.7V44H346V37c0-2.5-1.2-3.7-3.4-3.7c-2.4,0-4,1.5-4,4.2V44h-2.3V31.3h2.2v1.9c0.9-1.3,2.6-2,4.6-2
			C346.2,31.2,348.3,33,348.3,36.7z"/>
		<path class="st5" d="M359.8,43.3c-0.7,0.6-1.8,0.9-2.8,0.9c-2.6,0-4-1.4-4-4v-7h-2.2v-1.9h2.2v-2.8h2.3v2.8h3.6v1.9h-3.6v6.9
			c0,1.4,0.7,2.1,2,2.1c0.7,0,1.3-0.2,1.8-0.6L359.8,43.3z"/>
		<path class="st5" d="M373.6,38.4h-10.3c0.3,2.2,2.1,3.7,4.6,3.7c1.5,0,2.7-0.5,3.7-1.5l1.3,1.5c-1.2,1.3-2.9,2.1-5,2.1
			c-4.1,0-6.8-2.7-6.8-6.5c0-3.8,2.7-6.5,6.4-6.5c3.7,0,6.3,2.6,6.3,6.6C373.6,37.9,373.6,38.2,373.6,38.4z M363.2,36.8h8.2
			c-0.2-2.1-1.8-3.6-4.1-3.6C365.1,33.1,363.5,34.6,363.2,36.8z"/>
		<path class="st5" d="M375.2,42.7l1-1.8c1.1,0.8,2.8,1.3,4.5,1.3c2.1,0,3-0.6,3-1.7c0-2.9-8-0.4-8-5.4c0-2.3,2-3.8,5.3-3.8
			c1.7,0,3.5,0.4,4.6,1.2l-1,1.8c-1.2-0.7-2.4-1-3.7-1c-2,0-3,0.7-3,1.8c0,3,8.1,0.6,8.1,5.5c0,2.3-2.1,3.8-5.5,3.8
			C378.3,44.2,376.2,43.5,375.2,42.7z"/>
	</g>
</g>
</svg>
