<?xml version="1.0" encoding="utf-8"?>
<!-- Generator: Adobe Illustrator 24.0.2, SVG Export Plug-In . SVG Version: 6.00 Build 0)  -->
<!DOCTYPE svg PUBLIC "-//W3C//DTD SVG 1.1//EN" "http://www.w3.org/Graphics/SVG/1.1/DTD/svg11.dtd" [
	<!ENTITY ns_extend "http://ns.adobe.com/Extensibility/1.0/">
	<!ENTITY ns_ai "http://ns.adobe.com/AdobeIllustrator/10.0/">
	<!ENTITY ns_graphs "http://ns.adobe.com/Graphs/1.0/">
	<!ENTITY ns_vars "http://ns.adobe.com/Variables/1.0/">
	<!ENTITY ns_imrep "http://ns.adobe.com/ImageReplacement/1.0/">
	<!ENTITY ns_sfw "http://ns.adobe.com/SaveForWeb/1.0/">
	<!ENTITY ns_custom "http://ns.adobe.com/GenericCustomNamespace/1.0/">
	<!ENTITY ns_adobe_xpath "http://ns.adobe.com/XPath/1.0/">
]>
<svg version="1.1" id="Capa_1" xmlns:x="&ns_extend;" xmlns:i="&ns_ai;" xmlns:graph="&ns_graphs;"
	 xmlns="http://www.w3.org/2000/svg" xmlns:xlink="http://www.w3.org/1999/xlink" x="0px" y="0px" viewBox="0 0 550 69"
	 style="enable-background:new 0 0 550 69;" xml:space="preserve">
<style type="text/css">
	.st0{opacity:0.15;fill:#143F8B;enable-background:new    ;}
	.st1{fill:#105B83;}
	.st2{fill:#8EB22C;}
	.st3{fill:#FFFFFF;}
	.st4{fill:#E3007E;}
	.st5{enable-background:new    ;}
	.st6{fill:#606060;}
</style>
<metadata>
	<sfw  xmlns="&ns_sfw;">
		<slices></slices>
		<sliceSourceBounds  bottomLeftOrigin="true" height="63.2" width="486.3" x="31.8" y="3.8"></sliceSourceBounds>
	</sfw>
</metadata>
<title>banner_pw</title>
<g>
	<path class="st0" d="M118.7,21.4H364c9.6,0,17.4,6.9,17.4,15.3V38c0,8.5-7.8,15.3-17.4,15.3H118.7c-9.6,0-17.4-6.9-17.4-15.3v-1.3
		C101.2,28.3,109.1,21.4,118.7,21.4z"/>
	<circle class="st1" cx="60.4" cy="30.6" r="28.6"/>
	<circle class="st2" cx="97" cy="36.2" r="29"/>
	<path class="st3" d="M91.8,57.4H81.7c-0.8,0-1-0.2-1-0.9c0-2.6,0-5.3,0-7.9c0-0.3,0.1-0.6,0.3-0.8c1.5-1.7,3-3.4,4.5-5.1
		c0.2-0.2,0.5-0.3,0.7-0.3c3.7,0,7.3,0,10.9,0c0.3,0,0.6,0.1,0.8,0.3c1.5,1.7,3,3.3,4.5,5c0.3,0.3,0.4,0.6,0.4,1c0,2.6,0,5.2,0,7.8
		c0,0.8-0.2,1-1,1L91.8,57.4z M82,56.1h9.9V49H82V56.1z M96,43.7h-0.2c-3,0-6,0-9,0c-0.2,0-0.4,0.1-0.5,0.3c-1.1,1-2.1,2.2-3.2,3.4
		c-0.1,0.1-0.2,0.2-0.3,0.3h0.1H92c0.2,0,0.3-0.1,0.4-0.2c0.7-0.8,1.4-1.5,2.1-2.3L96,43.7z M93.3,49v7.1h1.9c0-1.3,0-2.6,0-3.9
		c0-0.6,0.2-0.8,0.8-0.8h2.9c0.6,0,0.8,0.2,0.8,0.8v3.5c0,0.2,0,0.3,0,0.4h1.9V49H93.3z M97.5,43.9l-3.4,3.8h6.7L97.5,43.9z
		 M96.5,56.1h2v-3.4h-2V56.1z"/>
	<path class="st3" d="M107,30l2.5-2.1c0.5-0.4,0.7-0.4,1.2,0c1.1,0.9,2.1,1.8,3.2,2.7c0.3,0.2,0.4,0.5,0.4,0.9c0,1.1,0,2.2,0,3.4
		v0.5h8.5c0.2,0,0.4,0,0.5,0.1s0.4,0.4,0.4,0.6s-0.3,0.4-0.5,0.6s-0.3,0-0.5,0H81.6c-0.5,0-0.8-0.2-0.8-0.6s0.3-0.6,0.8-0.6H106
		v-3.1c0-0.5,0-1,0-1.5c0-0.2-0.1-0.3-0.3-0.4l-7.5-6c-0.5-0.4-1-0.8-1.4-1.2c-2.3-2-5.8-1.8-8,0.3c-2.1,1.9-4.3,3.9-6.4,5.8
		l-0.5,0.5c-0.2,0.2-0.6,0.3-0.8,0l0,0c-0.2-0.2-0.2-0.6,0-0.9c0,0,0,0,0.1-0.1c0.8-0.7,1.6-1.4,2.3-2.1l4.6-4.1
		c2.7-2.5,6.7-2.6,9.6-0.3c3.1,2.5,6.1,4.9,9.2,7.4L107,30z M108.4,35.3v-1.8c0-0.5,0.2-0.8,0.8-0.8h1.9c0.6,0,0.8,0.2,0.8,0.8v1.7
		h1.2v-3.6c0-0.1,0-0.2-0.1-0.2l-2.8-2.4c-0.9,0.8-1.8,1.5-2.7,2.3c-0.1,0.1-0.2,0.3-0.2,0.5c0,0.8,0,1.6,0,2.4v1.1H108.4z
		 M110.6,35.3v-1.2h-0.9v1.2H110.6z"/>
	<path class="st3" d="M111.1,16.8l1.4-0.6c0.1-0.1,0.3-0.1,0.4-0.3c0.8-1.5,2.6-2,4-1.3c0.4,0.2,0.7,0.5,1,0.8
		c0.1,0.1,0.2,0.2,0.4,0.2c1.2-0.1,2.3,0.7,2.6,1.9c0.3,1.2-0.2,2.5-1.2,3.2c-0.5,0.4-1.2,0.5-1.8,0.5h-3c-0.2,0-0.4,0.1-0.5,0.3
		c-0.5,1-1.5,1.6-2.7,1.6c-1.7,0-3.3,0-4.9,0c-1.4,0-2.5-1.1-2.5-2.5c0-1.2,0.8-2.2,2-2.5c0.1,0,0.3-0.1,0.4-0.2
		C107.8,16.2,109.3,15.8,111.1,16.8z M115.5,20c0.8,0,1.6,0,2.4,0c0.7,0,1.4-0.4,1.7-1.1c0.2-0.5,0.1-1.1-0.2-1.5
		c-0.3-0.4-0.9-0.6-1.4-0.4c-0.3,0.1-0.7,0-0.8-0.3l0,0c-0.3-0.7-1-1.1-1.8-1s-1.4,0.6-1.6,1.3c-0.1,0.3-0.4,0.6-0.8,0.5
		c-0.7-0.1-1.3,0.4-1.4,1.1c0,0.1,0,0.1,0,0.2c0,0.7,0.6,1.3,1.3,1.3h0.1C113.9,20,114.7,20,115.5,20z M113.1,21.3h-0.3
		c-1.4-0.1-2.4-1.3-2.4-2.6c0-0.1,0-0.2,0-0.4c0-0.2-0.1-0.3-0.2-0.4c-0.8-0.5-1.9-0.2-2.4,0.6c-0.1,0.1-0.1,0.3-0.2,0.4
		c-0.2,0.4-0.3,0.6-0.8,0.6c-0.7-0.1-1.3,0.4-1.4,1.1v0.1c0,0.7,0.6,1.3,1.3,1.3c0,0,0,0,0.1,0c1.6,0,3.3,0,4.9,0
		C112.3,22,112.8,21.7,113.1,21.3z"/>
	<path class="st3" d="M116.7,47.8h2.4c0.5,0,0.8,0.2,0.8,0.6s-0.3,0.6-0.8,0.6h-4.8c-0.5,0-0.8-0.2-0.8-0.6s0.3-0.6,0.8-0.6H116.7z"
		/>
	<path class="st3" d="M111.2,53.2h-1.5c-0.5,0-0.8-0.3-0.8-0.6c0-0.4,0.3-0.7,0.7-0.6l0,0h3.1c0.4,0,0.7,0.3,0.7,0.6
		s-0.3,0.6-0.7,0.6H111.2z"/>
	<path class="st3" d="M117.3,40.7h-1.5c-0.4,0-0.7-0.3-0.7-0.7c0-0.3,0.3-0.6,0.6-0.6c0,0,0,0,0.1,0h3.1c0.4,0,0.7,0.3,0.7,0.7
		c0,0.3-0.3,0.6-0.6,0.6c0,0,0,0-0.1,0H117.3z"/>
	<path class="st3" d="M115.9,56.2h1.5c0.4,0,0.7,0.2,0.7,0.6s-0.3,0.6-0.7,0.6h-3.1c-0.5,0-0.7-0.3-0.7-0.6s0.3-0.6,0.7-0.6H115.9z"
		/>
	<path class="st3" d="M107,44.9c-0.3,0-0.7,0-1,0s-0.6-0.3-0.6-0.6s0.3-0.6,0.6-0.6l0,0h2.1c0.3,0,0.6,0.2,0.6,0.5c0,0,0,0,0,0.1
		c0,0.4-0.2,0.6-0.7,0.7L107,44.9L107,44.9z"/>
	<path class="st3" d="M100.9,40.9h-1c-0.4,0-0.7-0.2-0.7-0.6c0-0.4,0.2-0.7,0.6-0.7c0.1,0,0.1,0,0.2,0h2c0.5,0,0.7,0.3,0.7,0.7
		s-0.3,0.6-0.7,0.6H100.9z"/>
	<path class="st3" d="M63.9,8.1h1.3V10L69,9.2v13.9h1.2v-3.7h1.3v-2.5h1.3v2.5h1.3v3.8h1.1v2.5h1.3v18.8h1.2v1.3h-39v-1.2h2.5V42
		c-2.6-0.8-3.2-4.2-1.7-6.2c0.8-1.3,2.5-1.7,3.8-0.8c0.1,0.1,0.2,0.1,0.2,0.2l0.2,0.1v-0.9c-0.9-0.2-1.7-0.6-2.3-1.3
		c-2-2.2-1.9-5.6,0.3-7.6c0.3-0.2,0.5-0.5,0.8-0.6c0.7-0.4,1.6-0.5,2.4-0.4V17h-1.2v-1.3H55V12l3.8-0.8V8.1h1.3v2.8
		c0.4-0.1,0.8-0.1,1.1-0.2c0.1-0.1,0.2-0.2,0.2-0.3c0-1,0-2.1,0-3.1V6.8h1.3v3.6l1.3-0.3L63.9,8.1z M48.8,36.3c0,0.4,0,0.7,0,1.1
		c0,0.3-0.1,0.6-0.3,0.8c-1.1,1.3-2.2,2.6-3.3,3.8c-0.1,0.1-0.2,0.2-0.2,0.3c0,0.7,0,1.5,0,2.2h2.6c-0.3-1.4,0.5-2.8,1.7-3.4
		c1.2-0.6,2.7-0.3,3.7,0.7c0.4,0.4,0.5,0.3,0.8-0.1c0.3-0.4,0.6-0.8,1-1.2c0.2-0.1,0.3-0.4,0.3-0.6c0-7.5,0-15.1,0-22.6v-0.4h-8.8
		c0,2.4,0,4.8,0,7.2c0,0.5,0.1,0.9,0.6,1.2c0.1,0.1,0.2,0.2,0.3,0.3c0.3,0.5,0.9,0.8,1.6,0.8c0.5,0.1,0.9,0.2,1.3,0.4v-1h1.2v1.3
		h-0.9c1.7,1.2,2.5,3.4,2.1,5.4C52.2,34.4,50.7,35.9,48.8,36.3z M67.7,10.8L67.7,10.8c-3.7,0.7-7.2,1.4-10.9,2.1
		c-0.3,0.1-0.4,0.2-0.4,0.5c0,8.6,0,17.2,0,25.8v0.5c0.9-0.3,1.8-0.3,2.6,0s1.5,0.8,2.1,1.4l1.6-0.4v-15H64v-2.5h3.7V10.8z
		 M70.9,43.5l-0.1-0.4c-0.5-1.7-2.2-2.7-3.9-2.2c-0.9,0.2-1.6,0.8-2,1.7c-0.1,0.2-0.2,0.3-0.3,0.5c-0.4-0.6-1.1-1-1.9-1.1
		c-0.8,0.1-1.4,0.5-1.9,1.1c-0.7-1.5-1.7-2.5-3.4-2.3c-1.5,0.1-2.8,1.2-3,2.8c-0.4-0.1-0.9-0.2-1.4-0.2c-0.3,0.1-0.7-0.1-0.8-0.4
		c-0.5-0.7-1.4-1-2.2-0.7s-1.3,1.1-1.2,1.9c0,0.3,0,0.5,0.5,0.5c8.3,0,16.6,0,25,0h0.3C73.7,43.4,72.2,43,70.9,43.5z M75.2,27H63.9
		c0,0.1,0,0.2,0,0.2v13.6c0,0,0,0.1,0,0.2s0.1,0.2,0.2,0.2s0.2,0,0.3-0.1c0.2-0.2,0.3-0.3,0.5-0.5s0.3-0.4,0.3-0.7
		c0-3.7,0-7.5,0-11.2v-0.5H74V35c0,2.4,0,4.7,0,7.1c0,0.1,0,0.3,0.1,0.4c0.3,0.3,0.7,0.5,1.1,0.8V27z M45,33.1
		c0.6-0.1,1.1-0.5,1.5-0.9c1.4-1.6,1.4-4,0-5.5c-1-1.2-2.7-1.3-3.8-0.4c-1.7,1.5-1.9,4.2-0.4,5.9c0.2,0.2,0.4,0.4,0.6,0.5
		c0.3,0.2,0.6,0.3,0.9,0.5v-4.3h1.3L45,33.1z M70.2,29.5v0.1c0,3.5,0,7,0,10.5c0,0.1,0.1,0.2,0.2,0.3c0.4,0.5,0.8,1,1.2,1.4
		c0.1,0.1,0.2,0.2,0.3,0.2c0.3,0,0.5,0,0.8,0V29.5H70.2z M68.9,39.6V29.5h-2.5v10.2c0.4-0.1,0.8-0.1,1.2-0.1
		C68.1,39.5,68.5,39.6,68.9,39.6z M48.5,27.6c0.9,2.5-0.1,5.2-2.4,6.5c1,1.2,2.7,1.3,3.9,0.3c0.2-0.1,0.3-0.3,0.4-0.4
		c1.3-1.6,1.3-3.8,0-5.4C49.9,28.1,49.2,27.7,48.5,27.6L48.5,27.6z M40,38.3c0,0.7,0.2,1.5,0.7,2c0.5,0.6,1.5,0.7,2.1,0.2
		c0.1,0,0.1-0.1,0.2-0.2c1-1.1,1-2.9,0-4c-0.5-0.6-1.5-0.7-2.2-0.2c-0.1,0.1-0.1,0.1-0.2,0.2C40.2,36.8,40,37.5,40,38.3z M74,24.4
		h-8.8v1.2H74V24.4z M45.1,40.3c0.7-0.8,1.3-1.6,2-2.3c0.4-0.4,0.6-1.1,0.5-1.7c-1-0.2-1.8-0.7-2.5-1.4V40.3z M43.7,44.5v-3.1
		l-1.2,0.7v2.5L43.7,44.5z M72.7,23.1v-2.5h-1.3v2.5H72.7z"/>
	<path class="st3" d="M48.8,19.4h-1.2v-1.2h1.2V19.4z"/>
	<path class="st3" d="M51.3,19.4h-1.2v-1.2h1.2V19.4z"/>
	<path class="st3" d="M52.6,18.2h1.2v1.2h-1.2V18.2z"/>
	<path class="st3" d="M47.6,21.9v-1.2h1.2v1.2H47.6z"/>
	<path class="st3" d="M51.3,21.9h-1.2v-1.2h1.2V21.9z"/>
	<path class="st3" d="M53.8,21.9h-1.2v-1.2h1.2V21.9z"/>
	<path class="st3" d="M53.8,23.2v1.2h-1.2v-1.2H53.8z"/>
	<path class="st3" d="M53.8,26.9h-1.2v-1.2h1.2V26.9z"/>
	<path class="st3" d="M48.8,23.2v1.2h-1.2v-1.2H48.8z"/>
	<path class="st3" d="M51.3,24.4h-1.2v-1.2h1.2V24.4z"/>
	<path class="st3" d="M61.4,19.4h-3.7v-5h3.7V19.4z M58.9,15.7v2.4h1.2v-2.5L58.9,15.7z"/>
	<path class="st3" d="M62.7,14.4h3.7v5h-3.7V14.4z M63.9,18.1h1.3v-2.5h-1.3C63.9,15.6,63.9,18.1,63.9,18.1z"/>
	<path class="st3" d="M57.7,20.7h3.7v5h-3.7V20.7z M58.9,21.9v2.5h1.2v-2.5H58.9z"/>
	<path class="st3" d="M61.4,31.9h-3.7v-5h3.7V31.9z M58.9,30.7h1.2v-2.5h-1.2V30.7z"/>
	<path class="st3" d="M57.6,38.2v-5h3.7v5H57.6z M58.9,34.5V37h1.2v-2.5H58.9z"/>
</g>
<g>
	<path class="st0" d="M436.5,18.9h76.2c3,0,5.4,6.9,5.4,15.5v1c0,8.5-2.4,15.5-5.4,15.5h-76.2c-3,0-5.4-6.9-5.4-15.5v-1
		C431.2,25.8,433.6,18.9,436.5,18.9z"/>
	<circle class="st4" cx="420.3" cy="33.6" r="29"/>
	<g>
		<g>
			<path class="st3" d="M406.9,45c-1.5,0-3,0-4.4,0c-0.3,0-0.5,0.1-0.7,0c-0.3-0.2-0.8-0.4-0.9-0.7s0-0.9,0.3-1.1
				c3.7-3.6,5.2-8.2,5.6-13.1c0.3-2.8,0.1-5.6,0.2-8.5c0-1.1,0.3-1.4,1.4-1.4c1.5,0,3.1,0,4.6,0c0,0,0.1,0,0.2-0.1
				c0.2-0.7-0.2-2,1.1-1.9c1.3,0,0.9,1.2,1.1,2c1.7,0,3.4,0,5.1,0c0.1-0.8-0.2-2,1.1-2c1.3,0,1,1.1,1,2c1.7,0,3.4,0,5.2,0
				c0.2-0.8-0.2-2.1,1.2-2c1.2,0.1,0.9,1.1,0.9,2c0.2,0,0.5,0,0.7,0c1.4,0,2.8,0,4.1,0c0.9,0,1.3,0.4,1.3,1.3c0,8.8,0,17.6,0,26.4
				c0,0.9-0.4,1.3-1.5,1.3c-7.2,0-14.3,0-21.5,0c-1.5,0-3.1,0-4.6,0c-1.2,0-1.5-0.3-1.5-1.5C406.9,46.8,406.9,45.9,406.9,45z
				 M404.1,42.9c0.3,0,0.5,0,0.7,0c7.6,0,15.2,0,22.8,0c0.4,0,0.8-0.2,1-0.5c2.5-2.7,3.9-6,4.6-9.6c0.3-1.4,0.4-2.9,0.6-4.4
				c-8.4,0-16.7,0-25,0C408.7,33.7,407.3,38.6,404.1,42.9z M422.5,22.3c-0.1,0.8,0.2,1.9-1,2c-1.4,0.1-1-1.2-1.1-2
				c-1.7,0-3.4,0-5.1,0c-0.2,0.8,0.2,1.9-1,2c-1.4,0.1-1-1.2-1.2-2c-1.4,0-2.7,0-4.1,0c0,1.4,0,2.7,0,4c8.3,0,16.6,0,24.8,0
				c0-1.4,0-2.7,0-4c-1.4,0-2.7,0-4,0c-0.1,0.8,0.2,2-1.1,2c-1.3,0-0.9-1.2-1-2C425.9,22.3,424.2,22.3,422.5,22.3z M433.8,38.5
				L433.8,38.5c-0.2,0.2-0.3,0.4-0.4,0.5c-0.9,1.9-2.1,3.7-3.6,5.3c-0.5,0.5-1,0.7-1.7,0.7c-6.1,0-12.2,0-18.3,0c-0.3,0-0.6,0-0.9,0
				c0,0.7,0,1.4,0,2c8.3,0,16.6,0,24.9,0C433.8,44.1,433.8,41.3,433.8,38.5z"/>
		</g>
	</g>
	<g class="st5">
		<path class="st6" d="M454.2,42.8v-1.6l6.8-6.6c0.6-0.6,1.1-1.1,1.4-1.5s0.5-0.8,0.6-1.2c0.1-0.4,0.2-0.7,0.2-1.1
			c0-0.9-0.3-1.5-0.9-2s-1.5-0.7-2.7-0.7c-0.9,0-1.7,0.1-2.4,0.4s-1.3,0.8-1.9,1.4l-1.6-1.4c0.6-0.8,1.5-1.4,2.6-1.9
			c1.1-0.4,2.3-0.7,3.6-0.7c1.2,0,2.2,0.2,3,0.6c0.9,0.4,1.5,0.9,2,1.6s0.7,1.5,0.7,2.5c0,0.5-0.1,1.1-0.2,1.6s-0.4,1.1-0.8,1.7
			c-0.4,0.6-1,1.3-1.7,2l-6.1,5.9l-0.6-0.9h10.2V43h-12.2V42.8z"/>
		<path class="st6" d="M475.1,42.9c-1.3,0-2.5-0.3-3.5-1s-1.8-1.6-2.4-2.9c-0.6-1.3-0.9-2.8-0.9-4.7c0-1.8,0.3-3.4,0.9-4.7
			s1.4-2.3,2.4-2.9c1-0.7,2.2-1,3.5-1s2.5,0.3,3.5,1s1.9,1.6,2.4,2.9s0.9,2.8,0.9,4.7c0,1.8-0.3,3.4-0.9,4.7s-1.4,2.3-2.4,2.9
			C477.6,42.6,476.4,42.9,475.1,42.9z M475.1,40.8c0.9,0,1.7-0.2,2.3-0.7c0.7-0.5,1.2-1.2,1.6-2.2s0.6-2.2,0.6-3.6
			c0-1.4-0.2-2.6-0.6-3.6s-0.9-1.7-1.6-2.2s-1.4-0.7-2.3-0.7s-1.7,0.2-2.3,0.7c-0.7,0.5-1.2,1.2-1.6,2.2s-0.6,2.2-0.6,3.6
			s0.2,2.6,0.6,3.6s0.9,1.7,1.6,2.2C473.4,40.6,474.2,40.8,475.1,40.8z"/>
		<path class="st6" d="M484,42.8v-1.6l6.8-6.6c0.6-0.6,1.1-1.1,1.4-1.5s0.5-0.8,0.6-1.2c0.1-0.4,0.2-0.7,0.2-1.1
			c0-0.9-0.3-1.5-0.9-2s-1.5-0.7-2.7-0.7c-0.9,0-1.7,0.1-2.4,0.4s-1.3,0.8-1.9,1.4l-1.6-1.4c0.6-0.8,1.5-1.4,2.6-1.9
			c1.1-0.4,2.3-0.7,3.6-0.7c1.2,0,2.2,0.2,3,0.6c0.9,0.4,1.5,0.9,2,1.6s0.7,1.5,0.7,2.5c0,0.5-0.1,1.1-0.2,1.6s-0.4,1.1-0.8,1.7
			c-0.4,0.6-1,1.3-1.7,2l-6.1,5.9l-0.6-0.9h10V43h-12V42.8z"/>
		<path class="st6" d="M500.8,42.8V26.9l1,1.1H497v-2h6.2v16.8H500.8z"/>
	</g>
</g>
<g>
	<path class="st6" d="M155.1,44.6l0-12.2L149,42.6h-1.1l-6.1-10.1v12.2h-2.3V27.8h2l7,11.8l6.9-11.8h2l0,16.8H155.1z"/>
	<path class="st6" d="M172.2,37v7.7H170V43c-0.8,1.2-2.2,1.8-4.2,1.8c-2.9,0-4.7-1.5-4.7-3.7c0-2,1.3-3.7,5.1-3.7h3.6v-0.5
		c0-1.9-1.1-3.1-3.4-3.1c-1.5,0-3,0.5-4,1.4l-1-1.7c1.3-1.1,3.2-1.6,5.3-1.6C170.3,31.8,172.2,33.5,172.2,37z M169.9,40.8V39h-3.6
		c-2.3,0-2.9,0.9-2.9,2c0,1.3,1.1,2.1,2.8,2.1C168,43,169.3,42.2,169.9,40.8z"/>
	<path class="st6" d="M183.7,43.9c-0.7,0.6-1.8,0.9-2.8,0.9c-2.6,0-4-1.4-4-4v-7h-2.2v-1.9h2.2v-2.8h2.3v2.8h3.6v1.9h-3.6v6.9
		c0,1.4,0.7,2.1,2,2.1c0.7,0,1.3-0.2,1.8-0.6L183.7,43.9z"/>
	<path class="st6" d="M193.3,31.8V34c-0.2,0-0.4,0-0.5,0c-2.5,0-4,1.5-4,4.3v6.3h-2.3V31.9h2.2v2.1C189.5,32.6,191,31.8,193.3,31.8z
		"/>
	<path class="st6" d="M198.7,27h2.9l-4,3.1h-2.2L198.7,27z M196.1,31.9h2.3v12.7h-2.3V31.9z"/>
	<path class="st6" d="M201.6,38.3c0-3.8,2.8-6.5,6.7-6.5c2.3,0,4.2,0.9,5.2,2.7l-1.8,1.1c-0.8-1.2-2.1-1.8-3.5-1.8
		c-2.5,0-4.4,1.8-4.4,4.5c0,2.8,1.9,4.5,4.4,4.5c1.4,0,2.6-0.6,3.5-1.8l1.8,1.1c-1,1.8-2.9,2.7-5.2,2.7
		C204.4,44.8,201.6,42.1,201.6,38.3z"/>
	<path class="st6" d="M228.4,31.9v12.7h-2.2v-1.9c-0.9,1.3-2.5,2.1-4.3,2.1c-3.3,0-5.5-1.8-5.5-5.5v-7.3h2.3V39
		c0,2.5,1.2,3.7,3.4,3.7c2.4,0,3.9-1.5,3.9-4.2v-6.6H228.4z"/>
	<path class="st6" d="M232.8,26.8h2.3v17.8h-2.3V26.8z"/>
	<path class="st6" d="M249.5,37v7.7h-2.2V43c-0.8,1.2-2.2,1.8-4.2,1.8c-2.9,0-4.7-1.5-4.7-3.7c0-2,1.3-3.7,5.1-3.7h3.6v-0.5
		c0-1.9-1.1-3.1-3.4-3.1c-1.5,0-3,0.5-4,1.4l-1-1.7c1.3-1.1,3.2-1.6,5.3-1.6C247.6,31.8,249.5,33.5,249.5,37z M247.2,40.8V39h-3.6
		c-2.3,0-2.9,0.9-2.9,2c0,1.3,1.1,2.1,2.8,2.1C245.3,43,246.7,42.2,247.2,40.8z"/>
	<path class="st6" d="M273.4,38.3c0,3.9-2.7,6.5-6.4,6.5c-1.8,0-3.4-0.7-4.4-2.1v6.6h-2.3V31.9h2.2v2c1-1.4,2.7-2.1,4.5-2.1
		C270.7,31.8,273.4,34.4,273.4,38.3z M271.1,38.3c0-2.7-1.8-4.5-4.3-4.5c-2.4,0-4.3,1.8-4.3,4.5c0,2.7,1.8,4.5,4.3,4.5
		C269.3,42.8,271.1,41,271.1,38.3z"/>
	<path class="st6" d="M275.4,38.3c0-3.8,2.8-6.5,6.6-6.5s6.6,2.7,6.6,6.5c0,3.8-2.8,6.5-6.6,6.5S275.4,42.1,275.4,38.3z M286.3,38.3
		c0-2.7-1.8-4.5-4.3-4.5s-4.3,1.8-4.3,4.5c0,2.7,1.8,4.5,4.3,4.5S286.3,41,286.3,38.3z"/>
	<path class="st6" d="M298.7,31.8V34c-0.2,0-0.4,0-0.5,0c-2.5,0-4,1.5-4,4.3v6.3h-2.3V31.9h2.2v2.1
		C294.9,32.6,296.5,31.8,298.7,31.8z"/>
	<path class="st6" d="M321,42.6v2.1h-14V43l10.6-13.1h-10.4v-2.1h13.6v1.6l-10.5,13.1H321z"/>
	<path class="st6" d="M322.5,38.3c0-3.8,2.8-6.5,6.6-6.5s6.6,2.7,6.6,6.5c0,3.8-2.8,6.5-6.6,6.5S322.5,42.1,322.5,38.3z M333.4,38.3
		c0-2.7-1.8-4.5-4.3-4.5s-4.3,1.8-4.3,4.5c0,2.7,1.8,4.5,4.3,4.5S333.4,41,333.4,38.3z"/>
	<path class="st6" d="M351,37.3v7.3h-2.3v-7.1c0-2.5-1.2-3.7-3.4-3.7c-2.4,0-4,1.5-4,4.2v6.6h-2.3V31.9h2.2v1.9c0.9-1.3,2.6-2,4.6-2
		C348.8,31.8,351,33.6,351,37.3z"/>
	<path class="st6" d="M365.3,37v7.7h-2.2V43c-0.8,1.2-2.2,1.8-4.2,1.8c-2.9,0-4.7-1.5-4.7-3.7c0-2,1.3-3.7,5.1-3.7h3.6v-0.5
		c0-1.9-1.1-3.1-3.4-3.1c-1.5,0-3,0.5-4,1.4l-1-1.7c1.3-1.1,3.2-1.6,5.3-1.6C363.3,31.8,365.3,33.5,365.3,37z M363,40.8V39h-3.6
		c-2.3,0-2.9,0.9-2.9,2c0,1.3,1.1,2.1,2.8,2.1C361.1,43,362.4,42.2,363,40.8z"/>
</g>
</svg>
