<?xml version="1.0" encoding="utf-8"?>
<!-- Generator: Adobe Illustrator 24.0.2, SVG Export Plug-In . SVG Version: 6.00 Build 0)  -->
<!DOCTYPE svg PUBLIC "-//W3C//DTD SVG 1.1//EN" "http://www.w3.org/Graphics/SVG/1.1/DTD/svg11.dtd" [
	<!ENTITY ns_extend "http://ns.adobe.com/Extensibility/1.0/">
	<!ENTITY ns_ai "http://ns.adobe.com/AdobeIllustrator/10.0/">
	<!ENTITY ns_graphs "http://ns.adobe.com/Graphs/1.0/">
	<!ENTITY ns_vars "http://ns.adobe.com/Variables/1.0/">
	<!ENTITY ns_imrep "http://ns.adobe.com/ImageReplacement/1.0/">
	<!ENTITY ns_sfw "http://ns.adobe.com/SaveForWeb/1.0/">
	<!ENTITY ns_custom "http://ns.adobe.com/GenericCustomNamespace/1.0/">
	<!ENTITY ns_adobe_xpath "http://ns.adobe.com/XPath/1.0/">
]>
<svg version="1.1" id="OBJECTS" xmlns:x="&ns_extend;" xmlns:i="&ns_ai;" xmlns:graph="&ns_graphs;"
	 xmlns="http://www.w3.org/2000/svg" xmlns:xlink="http://www.w3.org/1999/xlink" x="0px" y="0px" viewBox="0 0 197.3 52"
	 style="enable-background:new 0 0 197.3 52;" xml:space="preserve">
<style type="text/css">
	.st0{fill:#FFFFFF;stroke:#005CD5;stroke-width:0.5844;stroke-miterlimit:10;}
	.st1{fill:#1E86FF;}
	.st2{fill:#005CD5;}
	.st3{fill:#FFFFFF;}
</style>
<metadata>
	<sfw  xmlns="&ns_sfw;">
		<slices></slices>
		<sliceSourceBounds  bottomLeftOrigin="true" height="40" width="188.8" x="96.1" y="-435"></sliceSourceBounds>
		<optimizationSettings>
			<targetSettings  fileFormat="JPEGFormat" targetSettingsID="0">
				
					<JPEGFormat  blurAmount="0" embedICCProfile="false" matteColor="#FFFFFF" noMatteColor="false" optimized="true" progressive="true" quality="80">
					</JPEGFormat>
			</targetSettings>
		</optimizationSettings>
	</sfw>
</metadata>
<g>
	<path class="st0" d="M173.7,48.5H24.9c-10.5,0-19-8.5-19-19v-1.4c0-10.5,8.5-19,19-19h148.7c10.5,0,19,8.5,19,19v1.4
		C192.7,40,184.1,48.5,173.7,48.5z"/>
	<g>
		<path class="st1" d="M23.2,8.9h148.5c10.5,0,19,8.5,19,19v0c0,10.5-8.5,19-19,19H23.2c-10.5,0-19-8.5-19-19v0
			C4.2,17.4,12.7,8.9,23.2,8.9z"/>
		<path class="st2" d="M23.2,8.9h18.9v38H23.2c-10.5,0-19-8.5-19-19v0C4.2,17.4,12.7,8.9,23.2,8.9z"/>
		<g>
			<path class="st3" d="M53.5,31.7l3-10h3L54.9,35H52l-4.6-13.3h3L53.5,31.7z"/>
			<path class="st3" d="M60.6,22.6c0-0.4,0.1-0.7,0.4-1c0.3-0.3,0.6-0.4,1.1-0.4c0.5,0,0.8,0.1,1.1,0.4c0.3,0.3,0.4,0.6,0.4,1
				c0,0.4-0.1,0.7-0.4,1c-0.3,0.3-0.6,0.4-1.1,0.4c-0.4,0-0.8-0.1-1.1-0.4C60.7,23.3,60.6,23,60.6,22.6z M63.4,35h-2.6v-9.9h2.6V35z
				"/>
			<path class="st3" d="M70.9,32.3c0-0.3-0.2-0.6-0.5-0.8c-0.3-0.2-0.8-0.4-1.5-0.5c-2.3-0.5-3.5-1.5-3.5-3c0-0.9,0.4-1.6,1.1-2.2
				c0.7-0.6,1.7-0.9,2.9-0.9c1.3,0,2.3,0.3,3,0.9c0.8,0.6,1.1,1.4,1.1,2.3h-2.6c0-0.4-0.1-0.7-0.4-0.9c-0.2-0.2-0.6-0.4-1.1-0.4
				c-0.4,0-0.8,0.1-1,0.3c-0.2,0.2-0.4,0.5-0.4,0.8c0,0.3,0.1,0.5,0.4,0.7c0.3,0.2,0.7,0.3,1.4,0.5c0.7,0.1,1.2,0.3,1.7,0.4
				c1.4,0.5,2.1,1.4,2.1,2.7c0,0.9-0.4,1.6-1.2,2.2c-0.8,0.6-1.8,0.8-3,0.8c-0.8,0-1.6-0.1-2.2-0.4s-1.1-0.7-1.5-1.2
				c-0.4-0.5-0.5-1.1-0.5-1.7h2.5c0,0.5,0.2,0.8,0.5,1.1c0.3,0.3,0.8,0.4,1.3,0.4c0.5,0,0.9-0.1,1.1-0.3S70.9,32.6,70.9,32.3z"/>
			<path class="st3" d="M75.2,22.6c0-0.4,0.1-0.7,0.4-1c0.3-0.3,0.6-0.4,1.1-0.4c0.5,0,0.8,0.1,1.1,0.4c0.3,0.3,0.4,0.6,0.4,1
				c0,0.4-0.1,0.7-0.4,1c-0.3,0.3-0.6,0.4-1.1,0.4c-0.4,0-0.8-0.1-1.1-0.4C75.3,23.3,75.2,23,75.2,22.6z M78,35h-2.6v-9.9H78V35z"/>
			<path class="st3" d="M83.3,22.7v2.4H85v1.9h-1.7V32c0,0.4,0.1,0.6,0.2,0.8c0.1,0.2,0.4,0.2,0.8,0.2c0.3,0,0.6,0,0.8-0.1v2
				c-0.5,0.2-1.1,0.2-1.6,0.2c-1.9,0-2.8-0.9-2.8-2.8v-5.3h-1.4v-1.9h1.4v-2.4H83.3z"/>
			<path class="st3" d="M92.2,35c-0.1-0.2-0.2-0.5-0.3-0.9c-0.6,0.7-1.5,1.1-2.5,1.1c-1,0-1.8-0.3-2.4-0.8c-0.6-0.6-1-1.3-1-2.1
				c0-1,0.4-1.9,1.2-2.4c0.8-0.6,1.9-0.8,3.4-0.8h1.2v-0.6c0-0.5-0.1-0.8-0.4-1.1c-0.2-0.3-0.6-0.4-1.1-0.4c-0.4,0-0.8,0.1-1,0.3
				c-0.3,0.2-0.4,0.5-0.4,0.9h-2.6c0-0.6,0.2-1.1,0.5-1.6c0.4-0.5,0.9-0.9,1.5-1.1c0.6-0.3,1.4-0.4,2.2-0.4c1.2,0,2.2,0.3,2.9,0.9
				c0.7,0.6,1.1,1.5,1.1,2.6v4.3c0,0.9,0.1,1.6,0.4,2.1V35H92.2z M90,33.2c0.4,0,0.7-0.1,1.1-0.3c0.3-0.2,0.6-0.4,0.7-0.7v-1.7h-1
				c-1.3,0-2,0.5-2.1,1.4l0,0.2c0,0.3,0.1,0.6,0.3,0.8S89.6,33.2,90,33.2z"/>
			<path class="st3" d="M102,27.6c-0.4,0-0.7-0.1-0.9-0.1c-1,0-1.7,0.3-2,1V35h-2.6v-9.9H99l0.1,1.2c0.5-0.9,1.3-1.4,2.2-1.4
				c0.3,0,0.6,0,0.8,0.1L102,27.6z"/>
			<path class="st3" d="M115,31.5c0-0.5-0.2-0.9-0.5-1.2c-0.4-0.3-1-0.6-2-0.9s-1.7-0.6-2.3-0.9c-1.5-0.8-2.3-1.9-2.3-3.3
				c0-0.7,0.2-1.4,0.6-1.9c0.4-0.6,1-1,1.7-1.3s1.6-0.5,2.6-0.5c0.9,0,1.8,0.2,2.5,0.5s1.3,0.8,1.7,1.5c0.4,0.6,0.6,1.3,0.6,2.1H115
				c0-0.6-0.2-1.1-0.6-1.4c-0.4-0.3-0.9-0.5-1.6-0.5c-0.7,0-1.2,0.1-1.6,0.4c-0.4,0.3-0.6,0.7-0.6,1.1c0,0.4,0.2,0.8,0.7,1.1
				c0.4,0.3,1.1,0.6,1.9,0.8c1.6,0.5,2.7,1,3.4,1.7c0.7,0.7,1.1,1.6,1.1,2.6c0,1.2-0.4,2.1-1.3,2.7c-0.9,0.7-2,1-3.5,1
				c-1,0-2-0.2-2.8-0.6c-0.8-0.4-1.5-0.9-1.9-1.5s-0.7-1.4-0.7-2.3h2.7c0,1.5,0.9,2.2,2.6,2.2c0.7,0,1.2-0.1,1.5-0.4
				C114.8,32.4,115,32,115,31.5z"/>
			<path class="st3" d="M119.4,22.6c0-0.4,0.1-0.7,0.4-1c0.3-0.3,0.6-0.4,1.1-0.4c0.5,0,0.8,0.1,1.1,0.4c0.3,0.3,0.4,0.6,0.4,1
				c0,0.4-0.1,0.7-0.4,1c-0.3,0.3-0.6,0.4-1.1,0.4c-0.4,0-0.8-0.1-1.1-0.4C119.6,23.3,119.4,23,119.4,22.6z M122.2,35h-2.6v-9.9h2.6
				V35z"/>
			<path class="st3" d="M127.6,22.7v2.4h1.7v1.9h-1.7V32c0,0.4,0.1,0.6,0.2,0.8c0.1,0.2,0.4,0.2,0.8,0.2c0.3,0,0.6,0,0.8-0.1v2
				c-0.5,0.2-1.1,0.2-1.6,0.2c-1.9,0-2.8-0.9-2.8-2.8v-5.3h-1.4v-1.9h1.4v-2.4H127.6z"/>
			<path class="st3" d="M130.7,22.6c0-0.4,0.1-0.7,0.4-1c0.3-0.3,0.6-0.4,1.1-0.4c0.5,0,0.8,0.1,1.1,0.4c0.3,0.3,0.4,0.6,0.4,1
				c0,0.4-0.1,0.7-0.4,1c-0.3,0.3-0.6,0.4-1.1,0.4c-0.4,0-0.8-0.1-1.1-0.4C130.9,23.3,130.7,23,130.7,22.6z M133.5,35h-2.6v-9.9h2.6
				V35z"/>
			<path class="st3" d="M135.3,30c0-1,0.2-1.9,0.6-2.6c0.4-0.8,0.9-1.4,1.6-1.8c0.7-0.4,1.5-0.6,2.5-0.6c1.3,0,2.4,0.4,3.3,1.2
				c0.8,0.8,1.3,1.9,1.4,3.3l0,0.7c0,1.5-0.4,2.7-1.3,3.6s-2,1.4-3.4,1.4s-2.6-0.5-3.4-1.4s-1.3-2.2-1.3-3.7V30z M137.9,30.2
				c0,0.9,0.2,1.7,0.5,2.2c0.4,0.5,0.9,0.7,1.5,0.7c0.6,0,1.1-0.2,1.5-0.7c0.4-0.5,0.5-1.3,0.5-2.4c0-0.9-0.2-1.6-0.5-2.1
				c-0.4-0.5-0.9-0.8-1.5-0.8c-0.6,0-1.1,0.3-1.5,0.8S137.9,29.1,137.9,30.2z"/>
			<path class="st3" d="M161.4,31.2l1.8-9.5h2.7L163,35h-2.8l-2.2-8.9l-2.2,8.9h-2.8l-2.9-13.3h2.7l1.8,9.4l2.2-9.4h2.3L161.4,31.2z
				"/>
			<path class="st3" d="M171.5,35.2c-1.4,0-2.6-0.4-3.5-1.3s-1.4-2.1-1.4-3.6v-0.3c0-1,0.2-1.9,0.6-2.7s0.9-1.4,1.6-1.8
				c0.7-0.4,1.5-0.6,2.4-0.6c1.4,0,2.4,0.4,3.2,1.3c0.8,0.9,1.2,2.1,1.2,3.6v1.1h-6.3c0.1,0.6,0.3,1.2,0.8,1.6
				c0.4,0.4,1,0.6,1.6,0.6c1,0,1.8-0.4,2.4-1.1l1.3,1.5c-0.4,0.6-0.9,1-1.6,1.3S172.4,35.2,171.5,35.2z M171.2,27.1
				c-0.5,0-0.9,0.2-1.3,0.5c-0.3,0.4-0.5,0.9-0.6,1.5h3.7v-0.2c0-0.6-0.2-1-0.5-1.4C172.2,27.2,171.8,27.1,171.2,27.1z"/>
			<path class="st3" d="M186,30.2c0,1.6-0.3,2.8-1,3.7s-1.6,1.3-2.8,1.3c-1.1,0-1.9-0.4-2.6-1.2l-0.1,1h-2.4V21h2.6v5
				c0.6-0.7,1.4-1.1,2.4-1.1c1.2,0,2.2,0.4,2.8,1.3c0.7,0.9,1,2.1,1,3.7V30.2z M183.4,30c0-1-0.2-1.7-0.5-2.2s-0.8-0.7-1.4-0.7
				c-0.8,0-1.4,0.3-1.7,1V32c0.3,0.7,0.9,1,1.8,1c0.9,0,1.4-0.4,1.7-1.3C183.3,31.4,183.4,30.8,183.4,30z"/>
		</g>
	</g>
	<g id="XMLID_78_">
		<g id="XMLID_82_">
			<path id="XMLID_533_" class="st3" d="M19.7,43c-1.3,0-2.7-0.3-3.9-1.1c-6.1-3.9-3.1-14.3,0.2-19.9c0.1-0.1,0.2-0.3,0.3-0.4
				c3.2-4.9,9.7-6.4,14.7-3.2c2.4,1.5,4,3.9,4.6,6.7c0.6,2.8,0.1,5.6-1.4,8l0,0c-0.1,0.1-0.2,0.3-0.3,0.4C30.9,37.6,25,43,19.7,43z
				 M25.2,18.3c-2.9,0-5.8,1.4-7.5,4.1c-0.1,0.1-0.1,0.2-0.2,0.4c-2.4,4.1-5.9,14.3-0.7,17.6c5.2,3.3,13-4.1,15.7-8
				c0.1-0.1,0.2-0.2,0.2-0.4l0,0c1.3-2,1.7-4.4,1.2-6.7C33.4,23,32,21,30,19.7C28.5,18.8,26.9,18.3,25.2,18.3z"/>
		</g>
		<g id="XMLID_81_">
			<path id="XMLID_530_" class="st3" d="M32.5,33.7c-3.2,0-6.6-1-9.6-3c-3.2-2.1-5.7-5-7-8.1l-0.2-0.4l0.2-0.4
				c0.1-0.1,0.2-0.3,0.3-0.4c3.2-4.9,9.7-6.4,14.7-3.2c2.4,1.5,4,3.9,4.6,6.7c0.6,2.8,0.1,5.6-1.4,8l0,0c-0.1,0.1-0.2,0.3-0.3,0.4
				l-0.2,0.3l-0.4,0C33,33.7,32.7,33.7,32.5,33.7z M17.7,22.4c1.2,2.7,3.3,5.1,6.1,6.9c2.8,1.8,5.9,2.7,8.8,2.7c0,0,0,0,0,0l0,0
				c1.3-2,1.7-4.4,1.2-6.7C33.4,23,32,21,30,19.7C25.9,17.1,20.4,18.3,17.7,22.4C17.7,22.4,17.7,22.4,17.7,22.4z"/>
		</g>
		<g id="XMLID_80_">
			<path id="XMLID_527_" class="st3" d="M25.6,29.1c-0.4,0-0.9-0.1-1.2-0.4l-0.2-0.1c-1.1-0.7-1.4-2.1-0.7-3.1l3.1-4.8
				c0.3-0.5,0.8-0.9,1.4-1c0.6-0.1,1.2,0,1.7,0.3l0.2,0.1c0.5,0.3,0.9,0.8,1,1.4c0.1,0.6,0,1.2-0.3,1.7l-3.1,4.8
				c-0.3,0.5-0.8,0.9-1.4,1C25.9,29.1,25.8,29.1,25.6,29.1z M28.5,21.3c0,0-0.1,0-0.1,0c-0.1,0-0.3,0.1-0.4,0.2l-3.1,4.8
				c-0.2,0.3-0.1,0.6,0.2,0.8l0.2,0.1c0.1,0.1,0.3,0.1,0.4,0.1c0.1,0,0.3-0.1,0.4-0.2l3.1-4.8c0.1-0.1,0.1-0.3,0.1-0.4
				c0-0.1-0.1-0.3-0.2-0.4l-0.2-0.1C28.7,21.4,28.6,21.3,28.5,21.3z"/>
		</g>
		<g id="XMLID_79_">
			<path id="XMLID_526_" class="st3" d="M23.4,30.9c-0.2,0-0.3,0-0.5-0.1c-0.4-0.3-0.5-0.8-0.3-1.2l1.1-1.8c0.3-0.4,0.8-0.5,1.2-0.3
				c0.4,0.3,0.5,0.8,0.3,1.2l-1.1,1.8C23.9,30.8,23.7,30.9,23.4,30.9z"/>
		</g>
		<g id="XMLID_96_">
			<path id="XMLID_525_" class="st3" d="M69.4,19C69.4,19,69.4,19,69.4,19c-4.9,0.1-8.6-1.4-12.5-2.9c-3.5-1.4-7.2-2.8-11.8-3.1
				c-9.1-0.6-13,5-13.3,5.5l-0.6,1.2c-0.1,0.3-0.5,0.4-0.7,0.3c-0.3-0.1-0.4-0.5-0.3-0.7l0.6-1.3c0.2-0.3,4.3-6.6,14.3-6
				c4.8,0.3,8.5,1.7,12.1,3.1c3.8,1.5,7.4,2.9,12.1,2.8c0.3,0,0.6,0.2,0.6,0.5C69.9,18.7,69.7,18.9,69.4,19z"/>
		</g>
	</g>
</g>
</svg>
