<?xml version="1.0" encoding="utf-8"?>
<!-- Generator: Adobe Illustrator 24.0.0, SVG Export Plug-In . SVG Version: 6.00 Build 0)  -->
<svg version="1.1" id="Capa_1" xmlns="http://www.w3.org/2000/svg" xmlns:xlink="http://www.w3.org/1999/xlink" x="0px" y="0px"
	 viewBox="0 0 588 228" style="enable-background:new 0 0 588 228;" xml:space="preserve">
<style type="text/css">
	.st0{fill:none;stroke:#8EB22C;stroke-width:1.5393;stroke-miterlimit:10;}
	.st1{fill:none;stroke:#8EB22C;stroke-width:1.5393;stroke-miterlimit:10;stroke-dasharray:4.6341,4.6341;}
	.st2{fill:#ECD015;}
	.st3{fill:none;stroke:#8EB22C;stroke-width:1.4922;stroke-miterlimit:10;}
	.st4{fill:none;stroke:#8EB22C;stroke-width:1.4922;stroke-miterlimit:10;stroke-dasharray:4.495,4.495;}
	.st5{fill:#043284;}
	.st6{fill:#0097DB;}
	.st7{fill:#E00C7D;}
	.st8{fill:#FFFFFF;}
	.st9{fill:#DC7E0C;}
</style>
<g id="letras_x5F_mapa">
	<g>
		<g>
			<path class="st0" d="M538.31,192.17c-0.64,0.42-1.29,0.84-1.95,1.24"/>
			<path class="st1" d="M532.35,195.75c-7.16,3.94-14.85,6.89-22.84,8.67c-15.41,3.43-32.19,2.51-46.1-4.95
				c-13.91-7.46-24.39-22.07-24.64-37.85c-0.15-9.53,5.55-20.67,15.07-20.79c7.85-0.1,13.83,7.56,15.52,15.23
				c4.44,20.17-12.73,40.02-32.49,46.03c-19.76,6.01-41.02,1.85-61.22-2.49c-20.2-4.34-41.33-8.8-61.25-3.34
				c-9.85,2.7-19.74,8.81-23.6,17.94"/>
			<path class="st0" d="M290.02,216.38c-0.22,0.73-0.4,1.48-0.54,2.24"/>
		</g>
	</g>
	<g>
		<path class="st2" d="M271.94,210.37l-13.03-5.07c-0.41-0.16-0.62-0.63-0.46-1.04l0.67-1.73c1-2.57,0.79-5.49-0.59-8.02
			c-2.82-5.17-2.83-11.38-0.05-16.62c3.76-7.06,12.09-10.69,19.83-8.62c4.9,1.31,8.85,4.5,11.13,8.99c2.24,4.43,2.5,9.61,0.7,14.23
			c-1.87,4.81-5.76,8.53-10.65,10.19c-2.7,0.92-4.82,2.92-5.83,5.5l-0.67,1.73C272.82,210.33,272.35,210.53,271.94,210.37z
			 M260.24,204.09l11.53,4.49l0.38-0.98c1.18-3.02,3.66-5.36,6.81-6.44c4.44-1.51,7.97-4.88,9.67-9.25c1.63-4.19,1.4-8.9-0.63-12.92
			c-2.06-4.07-5.65-6.97-10.1-8.16c-7.01-1.88-14.58,1.41-17.99,7.82c-2.53,4.75-2.51,10.39,0.04,15.09
			c1.6,2.94,1.85,6.36,0.67,9.37L260.24,204.09z"/>
		<path class="st2" d="M271.31,214.64l-14.82-5.77c-1.5-0.58-2.24-2.27-1.66-3.77c0.58-1.5,2.27-2.24,3.77-1.66l14.82,5.77
			c1.5,0.58,2.24,2.27,1.66,3.77C274.49,214.48,272.8,215.23,271.31,214.64z M258.01,204.95c-0.67-0.26-1.42,0.07-1.68,0.74
			c-0.26,0.67,0.07,1.42,0.74,1.68l14.82,5.77c0.67,0.26,1.42-0.07,1.68-0.74c0.26-0.67-0.07-1.42-0.74-1.68L258.01,204.95z"/>
		<path class="st2" d="M268.25,222.49l-14.82-5.77c-1.5-0.58-2.24-2.27-1.66-3.77c0.58-1.5,2.27-2.24,3.77-1.66l14.82,5.77
			c1.5,0.58,2.24,2.27,1.66,3.77C271.44,222.33,269.75,223.07,268.25,222.49z M254.96,212.79c-0.67-0.26-1.42,0.07-1.68,0.74
			c-0.26,0.67,0.07,1.42,0.74,1.68l14.82,5.77c0.67,0.26,1.42-0.07,1.68-0.74c0.26-0.67-0.07-1.42-0.74-1.68L254.96,212.79z"/>
		<path class="st2" d="M268.82,218.19l-12.9-5.02c-0.41-0.16-0.62-0.63-0.46-1.04l1.53-3.92c0.16-0.41,0.63-0.62,1.04-0.46
			l12.9,5.02c0.41,0.16,0.62,0.63,0.46,1.04l-1.53,3.92C269.7,218.15,269.23,218.35,268.82,218.19z M257.25,211.96l11.4,4.44
			l0.94-2.42l-11.4-4.44L257.25,211.96z"/>
		<path class="st2" d="M277,225.9L244,213.04c-0.41-0.16-0.62-0.63-0.46-1.04s0.63-0.62,1.04-0.46l33.01,12.85
			c0.41,0.16,0.62,0.63,0.46,1.04S277.42,226.06,277,225.9z"/>
		<path class="st2" d="M267.71,208.72c-0.51-0.29-0.63-0.79-0.4-1.17l10.31-17.13l-1.67,0.38c-0.31,0.07-0.64-0.05-0.83-0.31
			l-1.92-2.61l-3.18,0.63c-0.31,0.06-0.64-0.07-0.82-0.33l-0.98-1.41l-3.99,19.59c-0.09,0.44-0.51,0.72-0.95,0.63
			c-0.44-0.09-0.72-0.51-0.63-0.95l4.37-21.44c0.06-0.32,0.31-0.56,0.63-0.63c0.32-0.06,0.64,0.06,0.82,0.33l1.75,2.53l3.17-0.62
			c0.31-0.06,0.62,0.06,0.81,0.31l1.91,2.6l3-0.68c0.32-0.07,0.64,0.05,0.83,0.31c0.19,0.26,0.2,0.61,0.04,0.89l-11.28,18.75
			C268.48,208.73,268.06,208.86,267.71,208.72z"/>
		<path class="st2" d="M281.25,167.2c-0.41-0.16-0.62-0.63-0.46-1.04l1.37-3.52c0.16-0.41,0.63-0.62,1.04-0.46
			c0.41,0.16,0.62,0.63,0.46,1.04l-1.37,3.52C282.13,167.15,281.66,167.36,281.25,167.2z"/>
		<path class="st2" d="M288.88,172.3c-0.11-0.04-0.21-0.11-0.29-0.19c-0.31-0.32-0.3-0.83,0.03-1.14l2.73-2.61
			c0.32-0.31,0.83-0.3,1.14,0.03c0.31,0.32,0.3,0.83-0.03,1.14l-2.73,2.61C289.49,172.36,289.16,172.41,288.88,172.3z"/>
		<path class="st2" d="M293.64,180.15c-0.21-0.08-0.39-0.26-0.47-0.49c-0.14-0.42,0.08-0.88,0.5-1.02l3.58-1.21
			c0.42-0.14,0.88,0.08,1.02,0.5c0.14,0.42-0.08,0.88-0.51,1.02l-3.58,1.21C294,180.22,293.81,180.22,293.64,180.15z"/>
		<path class="st2" d="M294.63,189.27c-0.33-0.13-0.55-0.47-0.51-0.84c0.05-0.44,0.45-0.76,0.89-0.71l3.75,0.41
			c0.44,0.05,0.76,0.45,0.71,0.89c-0.05,0.44-0.45,0.76-0.89,0.71l-3.75-0.41C294.76,189.32,294.69,189.3,294.63,189.27z"/>
		<path class="st2" d="M294.9,199.92c-0.13-0.06-3.35-2.02-3.35-2.02c-0.38-0.23-0.5-0.73-0.27-1.11c0.23-0.38,0.72-0.5,1.11-0.27
			l3.23,1.96c0.38,0.23,0.5,0.73,0.27,1.11C295.68,199.93,295.26,200.06,294.9,199.92z"/>
		<path class="st2" d="M287.42,207.73c-0.15-0.06-0.28-0.16-0.38-0.3l-2.1-3.14c-0.25-0.37-0.15-0.87,0.22-1.12
			c0.37-0.25,0.87-0.15,1.12,0.22l2.1,3.14c0.25,0.37,0.15,0.87-0.22,1.12C287.93,207.8,287.66,207.82,287.42,207.73z"/>
		<path class="st2" d="M272.18,165.8c-0.28-0.11-0.49-0.38-0.51-0.7l-0.25-3.77c-0.03-0.44,0.31-0.83,0.75-0.86
			c0.44-0.03,0.83,0.31,0.86,0.75l0.25,3.77c0.03,0.44-0.31,0.83-0.75,0.86C272.4,165.86,272.29,165.84,272.18,165.8z"/>
		<path class="st2" d="M263.37,168.36c-0.17-0.07-0.32-0.19-0.41-0.36l-1.81-3.31c-0.21-0.39-0.07-0.88,0.32-1.09
			c0.39-0.21,0.88-0.07,1.09,0.32l1.82,3.31c0.21,0.39,0.07,0.88-0.32,1.09C263.83,168.44,263.58,168.44,263.37,168.36z"/>
		<path class="st2" d="M256.46,174.41c-0.06-0.02-0.13-0.06-0.18-0.1l-3.04-2.23c-0.36-0.26-0.44-0.77-0.17-1.13
			c0.26-0.36,0.77-0.44,1.13-0.17l3.04,2.23c0.36,0.26,0.44,0.77,0.17,1.13C257.18,174.44,256.79,174.54,256.46,174.41z"/>
		<path class="st2" d="M249.06,182.07c-0.36-0.14-0.57-0.52-0.5-0.91c0.09-0.44,0.51-0.72,0.95-0.63l3.7,0.74
			c0.44,0.09,0.72,0.51,0.63,0.95c-0.09,0.44-0.51,0.72-0.95,0.63l-3.7-0.74C249.15,182.1,249.1,182.09,249.06,182.07z"/>
		<path class="st2" d="M249.29,192.88c-0.24-0.09-0.43-0.29-0.49-0.56c-0.11-0.43,0.16-0.87,0.59-0.97l3.67-0.9
			c0.43-0.1,0.87,0.16,0.97,0.59c0.11,0.43-0.16,0.87-0.59,0.97l-3.67,0.9C249.61,192.95,249.44,192.94,249.29,192.88z"/>
	</g>
	<g>
		<g>
			<path class="st3" d="M245.04,188.78c-0.6,0.45-1.2,0.89-1.8,1.33"/>
			<path class="st4" d="M239.53,192.65c-23.28,15.23-52.34,20.67-79.59,14.62c-23.15-5.14-65.58-24.9-57.15-55.38
				c5.98-21.63,48.31-37.52,62.08-15.33c6.95,11.2,7.48,29.86,1.31,41.4c-6.22,11.64-18.89,18.03-30.41,23.25
				c-14.05,6.37-29.73,12.09-45.31,8.28c-15.22-3.73-24.48-17.13-33.14-29.13c-1.49-2.07-2.99-4.15-4.5-6.2"/>
			<path class="st3" d="M51.48,172.34c-0.45-0.6-0.9-1.19-1.36-1.78"/>
		</g>
	</g>
	<g>
		<path class="st5" d="M576.28,164.35c-0.31-0.13-0.48-0.48-0.38-0.81c2.69-8.67-1.71-18.23-10.01-21.75
			c-8.57-3.64-18.29-0.25-22.62,7.89c-0.17,0.32-0.57,0.45-0.9,0.28c-0.32-0.17-0.45-0.58-0.28-0.9c4.65-8.75,15.1-12.4,24.31-8.49
			c9.07,3.85,13.69,13.9,10.76,23.37c-0.11,0.35-0.48,0.55-0.83,0.44C576.32,164.36,576.3,164.36,576.28,164.35z"/>
		<path class="st5" d="M579.27,164.92c-0.31-0.13-0.48-0.48-0.37-0.81c2.08-6.73,0.66-14.01-3.8-19.48c-0.23-0.28-0.19-0.7,0.1-0.94
			c0.28-0.23,0.7-0.19,0.94,0.1c4.74,5.82,6.25,13.56,4.04,20.71c-0.11,0.35-0.48,0.55-0.83,0.44
			C579.31,164.93,579.29,164.92,579.27,164.92z"/>
		<path class="st5" d="M539.9,148.34c-0.38-0.21-0.5-0.61-0.32-0.93c3.61-6.56,10.23-10.85,17.7-11.48
			c0.36-0.03,0.69,0.24,0.72,0.61c0.03,0.37-0.24,0.69-0.61,0.72c-7.03,0.59-13.26,4.63-16.65,10.8
			C540.57,148.35,540.21,148.47,539.9,148.34z"/>
		<path class="st5" d="M568.49,161.04c-0.33-0.14-0.49-0.51-0.36-0.85c2.22-5.93,2.94-11.85,1.93-15.92
			c-2.54-2.03-5.62-3.34-8.84-3.75c-3.63,2.1-7.39,6.73-10.11,12.45c-0.16,0.33-0.54,0.49-0.89,0.32c-0.33-0.16-0.47-0.55-0.31-0.89
			c2.88-6.06,6.94-10.97,10.85-13.15c0.12-0.07,0.26-0.09,0.4-0.08c3.63,0.42,7.09,1.89,9.91,4.21c0.11,0.09,0.18,0.21,0.22,0.34
			c1.15,4.33,0.44,10.66-1.92,16.94c-0.13,0.34-0.51,0.52-0.86,0.39C568.51,161.05,568.5,161.04,568.49,161.04z"/>
		<path class="st5" d="M550.25,153.3c-0.36-0.17-0.5-0.57-0.34-0.9c2.88-6.06,6.94-10.97,10.85-13.15c0.12-0.07,0.26-0.09,0.4-0.08
			c3.63,0.42,7.09,1.89,9.91,4.21c0.11,0.09,0.18,0.21,0.22,0.34c1.14,4.28,0.51,10.27-1.73,16.43c-0.13,0.35-0.51,0.52-0.85,0.4
			c-0.35-0.13-0.52-0.51-0.4-0.85c2.08-5.72,2.73-11.46,1.75-15.42c-2.54-2.03-5.62-3.34-8.84-3.75c-3.63,2.1-7.39,6.73-10.11,12.45
			C550.95,153.29,550.57,153.43,550.25,153.3z"/>
		<path class="st5" d="M559.37,157.17c-0.34-0.14-0.5-0.53-0.35-0.87l6.53-15.38c0.14-0.34,0.53-0.5,0.87-0.35
			c0.34,0.14,0.5,0.53,0.35,0.87l-6.53,15.38C560.1,157.15,559.71,157.31,559.37,157.17z"/>
		<path class="st5" d="M542.43,149.98c-0.38-0.2-0.5-0.6-0.33-0.93c0.55-1.03,1.18-1.96,2.04-3.01c0.09-0.11,0.21-0.19,0.34-0.22
			c4.81-1.28,11.77-0.32,18.6,2.58c6.83,2.9,12.36,7.23,14.78,11.59c0.18,0.32,0.06,0.73-0.26,0.91c-0.32,0.18-0.73,0.06-0.9-0.26
			c-2.25-4.04-7.66-8.26-14.14-11.01c-6.37-2.71-13.06-3.68-17.53-2.58c-0.74,0.92-1.27,1.71-1.76,2.62
			C543.12,149.99,542.75,150.11,542.43,149.98z"/>
		<path class="st5" d="M548.62,182.48c-0.12-0.05-0.22-0.13-0.29-0.24l-1.36-2.01c-1.14-1.69-2.74-3.01-4.63-3.81l-13.08-5.55
			c-0.34-0.14-0.5-0.53-0.35-0.87l8.55-20.13c0.14-0.34,0.53-0.5,0.87-0.35l13.08,5.55c2.12,0.9,3.92,2.38,5.21,4.29l1.12,1.66
			l1.97-0.35c2.27-0.4,4.59-0.13,6.7,0.77l13.08,5.55c0.34,0.14,0.5,0.53,0.35,0.87l-8.55,20.13c-0.14,0.34-0.53,0.5-0.87,0.35
			l-13.08-5.55c-1.88-0.8-3.94-1.03-5.95-0.68l-2.39,0.42C548.87,182.54,548.74,182.53,548.62,182.48z M530.4,169.89l12.47,5.29
			c2.12,0.9,3.92,2.38,5.21,4.29l1.12,1.66l1.97-0.35c2.27-0.4,4.59-0.13,6.7,0.77l12.47,5.29l8.03-18.9l-12.47-5.29
			c-1.88-0.8-3.94-1.03-5.95-0.68l-2.39,0.42c-0.26,0.05-0.52-0.06-0.67-0.28l-1.36-2.01c-1.14-1.69-2.74-3.01-4.63-3.81
			l-12.47-5.29L530.4,169.89z"/>
		<path class="st5" d="M547.32,185.55c-0.12-0.05-0.22-0.13-0.29-0.24l-1.53-2.27c-1.3-1.92-3.11-3.41-5.24-4.32l-14.72-6.25
			c-0.34-0.14-0.5-0.53-0.35-0.87l4.12-9.71c0.14-0.34,0.53-0.5,0.87-0.35c0.34,0.14,0.5,0.53,0.35,0.87l-3.86,9.1l14.11,5.99
			c2.37,1.01,4.38,2.67,5.83,4.8l1.29,1.91l2.27-0.4c2.54-0.45,5.13-0.15,7.5,0.86l14.11,5.99l3.86-9.1
			c0.14-0.34,0.53-0.5,0.87-0.35c0.34,0.14,0.5,0.53,0.35,0.87l-4.12,9.71c-0.14,0.34-0.53,0.5-0.87,0.35l-14.72-6.25
			c-2.13-0.91-4.47-1.17-6.75-0.77l-2.69,0.47C547.56,185.62,547.43,185.6,547.32,185.55z"/>
		<path class="st5" d="M548.62,182.48c-0.34-0.14-0.5-0.53-0.35-0.87l4.49-10.59c0.14-0.34,0.53-0.5,0.87-0.35
			c0.34,0.14,0.5,0.53,0.35,0.87l-4.49,10.59C549.35,182.46,548.96,182.62,548.62,182.48z"/>
		<path class="st5" d="M554.85,167.81c-0.34-0.14-0.5-0.53-0.35-0.87l2.32-5.46c0.14-0.34,0.53-0.5,0.87-0.35
			c0.34,0.14,0.5,0.53,0.35,0.87l-2.32,5.46C555.58,167.8,555.19,167.95,554.85,167.81z"/>
		<path class="st5" d="M548.95,160.28l-9.59-4.07c-0.34-0.14-0.5-0.53-0.35-0.87c0.14-0.34,0.53-0.5,0.87-0.35l9.59,4.07
			c0.34,0.14,0.5,0.53,0.35,0.87C549.68,160.26,549.29,160.42,548.95,160.28z"/>
		<path class="st5" d="M547.36,164.02l-9.59-4.07c-0.34-0.14-0.5-0.53-0.35-0.87c0.14-0.34,0.53-0.5,0.87-0.35l9.59,4.07
			c0.34,0.14,0.5,0.53,0.35,0.87C548.09,164,547.7,164.16,547.36,164.02z"/>
		<path class="st5" d="M545.78,167.76l-9.59-4.07c-0.34-0.14-0.5-0.53-0.35-0.87c0.14-0.34,0.53-0.5,0.87-0.35l9.59,4.07
			c0.34,0.14,0.5,0.53,0.35,0.87C546.5,167.74,546.11,167.9,545.78,167.76z"/>
		<path class="st5" d="M544.19,171.5l-9.59-4.07c-0.34-0.14-0.5-0.53-0.35-0.87c0.14-0.34,0.53-0.5,0.87-0.35l9.59,4.07
			c0.34,0.14,0.5,0.53,0.35,0.87C544.92,171.48,544.53,171.64,544.19,171.5z"/>
		<path class="st5" d="M573.95,170.89l-9.59-4.07c-0.34-0.14-0.5-0.53-0.35-0.87c0.14-0.34,0.53-0.5,0.87-0.35l9.59,4.07
			c0.34,0.14,0.5,0.53,0.35,0.87C574.68,170.88,574.29,171.03,573.95,170.89z"/>
		<path class="st5" d="M572.37,174.63l-9.59-4.07c-0.34-0.14-0.5-0.53-0.35-0.87c0.14-0.34,0.53-0.5,0.87-0.35l9.59,4.07
			c0.34,0.14,0.5,0.53,0.35,0.87C573.09,174.62,572.7,174.77,572.37,174.63z"/>
		<path class="st5" d="M570.78,178.37l-9.59-4.07c-0.34-0.14-0.5-0.53-0.35-0.87c0.14-0.34,0.53-0.5,0.87-0.35l9.59,4.07
			c0.34,0.14,0.5,0.53,0.35,0.87C571.51,178.36,571.12,178.51,570.78,178.37z"/>
		<path class="st5" d="M569.19,182.11l-9.59-4.07c-0.34-0.14-0.5-0.53-0.35-0.87c0.14-0.34,0.53-0.5,0.87-0.35l9.59,4.07
			c0.34,0.14,0.5,0.53,0.35,0.87S569.53,182.25,569.19,182.11z"/>
	</g>
	<path class="st6" d="M523.03,83.62c-6.04-5.15-14.09-7.76-23.92-7.76c-4.67,0-9.33,0.63-13.86,1.87c-2.86,0.79-5.51,1.82-7.96,3.04
		c-2.16-2.59-5.41-4.23-9.04-4.23h-13.3c-4.17,0-7.84,2.17-9.93,5.44c-2.09-3.27-5.76-5.44-9.93-5.44h-13.3
		c-2.22,0-4.28,0.62-6.05,1.69c-1.77-1.06-3.84-1.69-6.05-1.69h-12.62c-1.6,0-3.13,0.32-4.52,0.9c-3.31-1.05-6.87-1.58-10.65-1.58
		c-6.18,0-11.92,1.38-17.06,4.09c-3.61,1.91-6.75,4.4-9.4,7.4c-1.18-1.5-2.41-2.74-3.58-3.74c-6.04-5.15-14.09-7.76-23.92-7.76
		c-4.67,0-9.33,0.63-13.86,1.87c-0.77,0.21-1.5,0.47-2.24,0.71c-2.01-1.61-4.56-2.58-7.34-2.58c-4.02,0-7.75,0.54-11.16,1.62
		c-1.42-0.6-2.97-0.94-4.61-0.94h-12.7c-4.69,0-8.73,2.75-10.63,6.73c-5.99-4.9-13.87-7.41-23.47-7.41c-4.67,0-9.33,0.63-13.86,1.87
		c-4.16,1.14-7.89,2.79-11.15,4.84c-1.05-0.78-2.14-1.51-3.31-2.17c-5.35-3.01-11.54-4.54-18.39-4.54c-6.84,0-13.11,1.47-18.66,4.36
		c-1.57,0.82-3.05,1.74-4.45,2.75c1.17-2.35,1.83-4.94,1.96-7.71c0.8-0.13,1.59-0.29,2.37-0.5c0.97,0.26,1.99,0.4,3.05,0.4h8.67
		c3.25,0,6.19-1.32,8.32-3.44c0.29,0.16,0.58,0.34,0.87,0.49c4.34,2.27,9.23,3.42,14.53,3.42c5.36,0,10.22-1.21,14.45-3.6
		c0.19-0.11,0.37-0.23,0.55-0.34c0.86,0.56,1.76,1.07,2.72,1.53c3.35,1.6,7.18,2.41,11.4,2.41c2.43,0,4.71-0.27,6.84-0.8
		c0.89,0.21,1.82,0.33,2.77,0.33h8.55c3.25,0,6.19-1.32,8.32-3.44c0.29,0.16,0.58,0.34,0.87,0.49c4.34,2.27,9.23,3.42,14.53,3.42
		c4.53,0,8.7-0.88,12.44-2.58c1.91,1.33,4.22,2.11,6.72,2.11h9.14c3.24,0,6.18-1.31,8.31-3.43c0.22,0.12,0.42,0.26,0.64,0.37
		c4.33,2.34,9.22,3.53,14.54,3.53c5.27,0,10.14-1.18,14.48-3.51c0.21-0.11,0.41-0.24,0.62-0.36c2.13,2.1,5.05,3.4,8.28,3.4h9.14
		c2.61,0,5.02-0.85,6.97-2.28c1.95,1.44,4.36,2.28,6.97,2.28h9.14c6.5,0,11.78-5.27,11.78-11.78V45.34c0-5.2-1.07-9.77-3.17-13.58
		c-2.29-4.15-5.54-7.3-9.65-9.38c-3.63-1.83-7.67-2.76-12.02-2.76c-2.51,0-4.93,0.31-7.22,0.91c-1.02-0.29-2.1-0.44-3.21-0.44h-8.06
		c0.09-1.52-0.1-3.08-0.62-4.59c-1.65-4.73-6.11-7.89-11.12-7.89h-9.84c-3.25,0-6.37,1.35-8.59,3.72l-5.29,5.65
		c-0.9-2.76-2.54-5.23-4.81-7.21c-3.21-2.79-7.3-4.27-11.83-4.27c-4.67,0-8.85,1.59-12.1,4.6c-2.93,2.71-4.73,6.27-5.21,10.16
		c-2.05-0.42-4.19-0.64-6.41-0.64c-5.3,0-10.19,1.15-14.53,3.42c-1.81,0.94-3.46,2.05-4.97,3.3c-0.19-0.17-0.38-0.34-0.56-0.5
		c-4.84-4.12-11.17-6.21-18.83-6.21c-3.54,0-7.07,0.48-10.5,1.42c-2.36,0.65-4.53,1.52-6.54,2.56c-0.21-0.12-0.4-0.26-0.61-0.38
		c-4.24-2.39-9.1-3.6-14.45-3.6c-5.3,0-10.19,1.15-14.53,3.42c-0.3,0.16-0.58,0.33-0.87,0.49c-2.13-2.13-5.07-3.44-8.32-3.44h-9.14
		c-2.54,0-4.9,0.81-6.83,2.18c-1.93-1.37-4.28-2.18-6.83-2.18h-5.62v-0.17c0-6.5-5.27-11.78-11.78-11.78h-9.14
		c-6.44,0-11.67,5.16-11.78,11.57c-2.41,0.18-4.72,0.66-6.92,1.41c-0.63-5.91-5.63-10.52-11.71-10.52H77.46
		c-6.5,0-11.78,5.27-11.78,11.78v41.01c0,2.82,0.99,5.41,2.65,7.43c-0.38,1.16-0.6,2.4-0.6,3.69v59.66c0,6.5,5.27,11.78,11.78,11.78
		h13.64c6.5,0,11.78-5.27,11.78-11.78v-3.32l8.87,10.8c2.24,2.72,5.58,4.3,9.1,4.3h11.34c2.45,0,4.72-0.75,6.61-2.03
		c1.88,1.28,4.16,2.03,6.61,2.03h13.3c4.78,0,8.88-2.85,10.73-6.94c1.59,1.21,3.29,2.3,5.13,3.26c5.54,2.9,11.82,4.36,18.66,4.36
		c6.86,0,13.05-1.53,18.4-4.54c1.28-0.72,2.47-1.52,3.6-2.38c1.79,1.54,3.82,2.85,6.09,3.94c4.14,1.98,8.95,2.98,14.28,2.98
		c3.62,0,6.96-0.46,10-1.37c1.24,0.45,2.58,0.69,3.98,0.69h12.44c2.2,0,4.25-0.61,6.01-1.66c1.76,1.05,3.81,1.66,6.01,1.66h13.3
		c5.46,0,10.03-3.72,11.37-8.75c2.31,2.66,5.19,4.82,8.62,6.45c4.14,1.98,8.95,2.98,14.28,2.98c3.62,0,6.96-0.46,10-1.37
		c1.24,0.45,2.58,0.69,3.98,0.69h12.13c0.24,3.2,1.77,6.28,4.45,8.39c3.94,3.1,8.75,5.41,14.31,6.87c4.96,1.3,10.17,1.96,15.48,1.96
		c11.28,0,20.37-3.07,27.02-9.12c4.28-3.9,7.26-8.92,8.93-14.97c1.82,1.62,3.84,3,6.08,4.12c4.61,2.28,9.79,3.44,15.41,3.44
		c3.43,0,6.74-0.51,9.89-1.51c1.34,0.53,2.81,0.83,4.35,0.83h12.62c3.59,0,6.79-1.61,8.95-4.13c1.03,0.67,2.12,1.28,3.28,1.84
		c4.14,1.98,8.95,2.98,14.28,2.98c3.62,0,6.96-0.46,10-1.37c1.24,0.45,2.58,0.69,3.98,0.69h12.44c6.5,0,11.78-5.27,11.78-11.78
		v-26.17C532.96,94.85,527.56,87.48,523.03,83.62z M195.05,112.17c-0.02,0-0.04,0-0.06,0c-0.03-0.18-0.06-0.48-0.06-0.92
		c0-0.45,0.03-0.75,0.06-0.92c0.01,0,0.03,0,0.04,0c0.04,0.06,0.09,0.14,0.14,0.24c0.13,0.24,0.27,0.47,0.41,0.69
		c-0.17,0.26-0.33,0.53-0.48,0.81C195.09,112.09,195.07,112.13,195.05,112.17z M108.81,75.16v2.59l-2.12-2.59H108.81z"/>
	<g>
		<g>
			<path class="st7" d="M417.37,59.2c-2.59-1.86-3.94-4.77-3.83-7.67c0-1.55,0.31-3,0.83-4.56c0.62-1.45,1.35-2.59,1.35-2.59
				c1.66-2.69,4.25-5.08,7.25-6.84c2.9-1.55,5.39-2.38,7.67-2.38c1.45,0,2.9,0.31,4.04,1.14s1.97,2.38,1.97,3.83
				c-0.21,3-2.38,5.08-5.49,6.63c-2.8,1.35-6.74,2.38-11.92,2.59c-0.31,0.73-0.52,1.55-0.42,2.18c0,1.45,0.42,2.49,1.66,3.42
				c1.24,0.93,3.73,1.76,7.67,1.76c8.18,0.1,22.59-3.73,44.65-14.82c1.24-0.62,2.8-0.1,3.52,1.24c0.62,1.24,0.1,2.8-1.24,3.52
				C452.7,57.96,437.89,62,428.15,62C423.48,62,419.96,61.07,417.37,59.2z M425.56,42.21c-0.72,0.41-1.45,0.83-2.07,1.35
				c1.86-0.21,3.32-0.62,4.46-1.14c1.66-0.62,2.69-1.45,3.11-1.97c-0.1,0-0.21,0-0.41,0C429.6,40.45,427.84,40.87,425.56,42.21z"/>
			<path class="st7" d="M469.07,62.42c-1.24-0.52-1.76-1.86-1.45-3.11l6.32-21.55c0.41-1.35,1.97-2.18,3.32-1.76
				c1.45,0.41,2.18,1.87,1.76,3.32l-2.38,8.29c1.66-1.97,3.52-3.83,5.28-5.39c2.28-1.87,4.14-3.52,7.04-3.63c0,0,0.21,0,0.31,0
				c1.87,0,3.63,1.35,4.25,2.8c0.73,1.45,0.73,2.8,0.73,4.14c0,1.86-0.21,3.83-0.21,5.39c0,1.45,0.21,2.59,0.52,2.9
				c0.21,0.21,0.21,0.41,1.66,0.52c3,0.1,11.09-2.8,25.9-12.02c1.24-0.83,2.9-0.41,3.63,0.83c0.83,1.24,0.42,2.9-0.83,3.63
				c-15.23,9.32-23.21,12.74-28.7,12.85c-2.59,0.1-5.08-1.14-6.22-3c-1.04-1.87-1.24-3.83-1.24-5.7c0-1.97,0.21-3.94,0.21-5.39
				c0-0.62,0-1.04,0-1.45c-0.1-0.1-0.1-0.1-0.1-0.21c-0.1,0-0.31,0.1-0.52,0.21c-0.42,0.21-0.93,0.52-1.55,0.93
				c-1.24,0.93-2.8,2.38-4.25,3.94c-3.11,3.21-6.11,7.15-8.08,9.74c-1.35,1.76-2.07,2.9-2.07,2.9c-0.52,0.73-1.35,1.14-2.18,1.14
				C469.8,62.73,469.38,62.62,469.07,62.42z"/>
		</g>
		<g>
			<g>
				<g>
					<path class="st8" d="M86.55,55.28h22.32v7.62H77.11V21.88h30.99v7.62H86.55V55.28z M85.84,38.41h19.75v7.38H85.84V38.41z"/>
					<path class="st8" d="M129.08,63.36c-2.97,0-5.64-0.67-8.03-2.02s-4.27-3.23-5.65-5.65c-1.39-2.42-2.08-5.27-2.08-8.55
						c0-3.32,0.69-6.19,2.08-8.61c1.39-2.42,3.27-4.3,5.65-5.62c2.38-1.33,5.06-1.99,8.03-1.99c2.66,0,4.98,0.59,6.97,1.76
						s3.54,2.95,4.63,5.33c1.09,2.38,1.64,5.43,1.64,9.14c0,3.67-0.53,6.71-1.58,9.11s-2.57,4.19-4.54,5.36
						S131.85,63.36,129.08,63.36z M130.66,55.87c1.48,0,2.83-0.35,4.04-1.05s2.18-1.71,2.9-3.02c0.72-1.31,1.08-2.86,1.08-4.66
						c0-1.84-0.36-3.4-1.08-4.69s-1.69-2.29-2.9-2.99s-2.56-1.05-4.04-1.05c-1.52,0-2.89,0.35-4.1,1.05c-1.21,0.7-2.18,1.7-2.9,2.99
						s-1.08,2.85-1.08,4.69c0,1.8,0.36,3.35,1.08,4.66c0.72,1.31,1.69,2.31,2.9,3.02C127.77,55.51,129.14,55.87,130.66,55.87z
						 M138.92,62.9v-6.44l0.18-9.37l-0.59-9.32V19.42h9.14V62.9H138.92z"/>
					<path class="st8" d="M169.39,63.36c-2.62,0-4.95-0.51-7-1.52c-2.05-1.02-3.64-2.57-4.77-4.66c-1.13-2.09-1.7-4.75-1.7-8V31.37
						h9.14v16.46c0,2.62,0.56,4.54,1.67,5.77s2.68,1.85,4.72,1.85c1.41,0,2.66-0.3,3.75-0.91c1.09-0.6,1.95-1.54,2.58-2.81
						c0.63-1.27,0.94-2.86,0.94-4.78V31.37h9.14V62.9h-8.67v-8.67l1.58,2.52c-1.05,2.19-2.61,3.84-4.66,4.95
						S171.81,63.36,169.39,63.36z"/>
					<path class="st8" d="M211.58,63.36c-3.4,0-6.43-0.69-9.08-2.08c-2.66-1.39-4.74-3.31-6.24-5.77c-1.5-2.46-2.26-5.25-2.26-8.38
						c0-3.16,0.75-5.97,2.26-8.41c1.5-2.44,3.58-4.35,6.24-5.74c2.66-1.39,5.68-2.08,9.08-2.08c3.32,0,6.21,0.69,8.67,2.08
						c2.46,1.39,4.28,3.37,5.45,5.95l-7.09,3.81c-0.82-1.48-1.85-2.58-3.08-3.28s-2.57-1.05-4.01-1.05c-1.56,0-2.97,0.35-4.22,1.05
						c-1.25,0.7-2.24,1.7-2.96,2.99s-1.08,2.85-1.08,4.69c0,1.84,0.36,3.4,1.08,4.69c0.72,1.29,1.71,2.28,2.96,2.99
						c1.25,0.7,2.66,1.05,4.22,1.05c1.44,0,2.78-0.34,4.01-1.03c1.23-0.68,2.26-1.79,3.08-3.31l7.09,3.87
						c-1.17,2.54-2.99,4.5-5.45,5.89C217.79,62.67,214.89,63.36,211.58,63.36z"/>
					<path class="st8" d="M240.69,63.36c-2.46,0-4.57-0.42-6.33-1.26c-1.76-0.84-3.1-1.98-4.04-3.43c-0.94-1.44-1.41-3.07-1.41-4.86
						c0-1.87,0.46-3.52,1.38-4.92c0.92-1.41,2.37-2.51,4.36-3.31c1.99-0.8,4.59-1.2,7.79-1.2h8.38v5.33h-7.38
						c-2.15,0-3.62,0.35-4.42,1.05c-0.8,0.7-1.2,1.58-1.2,2.64c0,1.17,0.46,2.1,1.38,2.78c0.92,0.68,2.18,1.03,3.78,1.03
						c1.52,0,2.89-0.36,4.1-1.08c1.21-0.72,2.09-1.79,2.64-3.19l1.41,4.22c-0.66,2.03-1.88,3.57-3.63,4.63
						C245.73,62.84,243.47,63.36,240.69,63.36z M250.3,62.9v-6.15l-0.59-1.35V44.38c0-1.95-0.6-3.48-1.79-4.57
						c-1.19-1.09-3.02-1.64-5.48-1.64c-1.68,0-3.33,0.26-4.95,0.79s-3,1.24-4.13,2.14l-3.28-6.39c1.72-1.21,3.79-2.15,6.21-2.81
						c2.42-0.66,4.88-1,7.38-1c4.8,0,8.53,1.13,11.19,3.4c2.66,2.27,3.98,5.8,3.98,10.6V62.9H250.3z"/>
					<path class="st8" d="M282.58,63.36c-3.4,0-6.43-0.69-9.08-2.08c-2.66-1.39-4.74-3.31-6.24-5.77c-1.5-2.46-2.26-5.25-2.26-8.38
						c0-3.16,0.75-5.97,2.26-8.41c1.5-2.44,3.58-4.35,6.24-5.74c2.66-1.39,5.68-2.08,9.08-2.08c3.32,0,6.21,0.69,8.67,2.08
						c2.46,1.39,4.28,3.37,5.45,5.95l-7.09,3.81c-0.82-1.48-1.85-2.58-3.08-3.28s-2.57-1.05-4.01-1.05c-1.56,0-2.97,0.35-4.22,1.05
						c-1.25,0.7-2.24,1.7-2.96,2.99s-1.08,2.85-1.08,4.69c0,1.84,0.36,3.4,1.08,4.69c0.72,1.29,1.71,2.28,2.96,2.99
						c1.25,0.7,2.66,1.05,4.22,1.05c1.44,0,2.78-0.34,4.01-1.03c1.23-0.68,2.26-1.79,3.08-3.31l7.09,3.87
						c-1.17,2.54-2.99,4.5-5.45,5.89C288.79,62.67,285.9,63.36,282.58,63.36z"/>
					<path class="st8" d="M306.31,26.98c-1.68,0-3.05-0.49-4.1-1.46c-1.05-0.98-1.58-2.19-1.58-3.63c0-1.44,0.53-2.66,1.58-3.63
						c1.05-0.98,2.42-1.46,4.1-1.46s3.05,0.46,4.1,1.38c1.05,0.92,1.58,2.1,1.58,3.54c0,1.52-0.52,2.78-1.55,3.78
						C309.41,26.48,308.03,26.98,306.31,26.98z M301.74,62.9V31.37h9.14V62.9H301.74z"/>
					<path class="st8" d="M334.38,63.36c-3.36,0-6.34-0.7-8.94-2.11s-4.65-3.33-6.15-5.77c-1.5-2.44-2.26-5.22-2.26-8.35
						c0-3.16,0.75-5.97,2.26-8.41c1.5-2.44,3.55-4.35,6.15-5.74c2.6-1.39,5.58-2.08,8.94-2.08c3.32,0,6.29,0.69,8.91,2.08
						c2.62,1.39,4.67,3.29,6.15,5.71c1.48,2.42,2.23,5.23,2.23,8.44c0,3.13-0.74,5.91-2.23,8.35c-1.49,2.44-3.54,4.36-6.15,5.77
						C340.67,62.66,337.7,63.36,334.38,63.36z M334.38,55.87c1.52,0,2.89-0.35,4.1-1.05s2.17-1.71,2.87-3.02
						c0.7-1.31,1.05-2.86,1.05-4.66c0-1.84-0.35-3.4-1.05-4.69s-1.66-2.29-2.87-2.99s-2.58-1.05-4.1-1.05s-2.89,0.35-4.1,1.05
						c-1.21,0.7-2.18,1.7-2.9,2.99s-1.08,2.85-1.08,4.69c0,1.8,0.36,3.35,1.08,4.66c0.72,1.31,1.69,2.31,2.9,3.02
						C331.49,55.51,332.85,55.87,334.38,55.87z M328.93,27.33l7.91-8.44h9.84l-10.6,8.44H328.93z"/>
					<path class="st8" d="M376.91,30.91c2.5,0,4.74,0.5,6.71,1.49c1.97,1,3.52,2.52,4.66,4.57c1.13,2.05,1.7,4.68,1.7,7.88V62.9
						h-9.14V46.26c0-2.54-0.56-4.41-1.67-5.62c-1.11-1.21-2.69-1.82-4.72-1.82c-1.45,0-2.75,0.3-3.9,0.91
						c-1.15,0.61-2.05,1.53-2.7,2.78c-0.64,1.25-0.97,2.85-0.97,4.8V62.9h-9.14V31.37h8.73v8.73l-1.64-2.64
						c1.13-2.11,2.75-3.73,4.86-4.86C371.82,31.47,374.22,30.91,376.91,30.91z"/>
				</g>
			</g>
			<g>
				<g>
					<path class="st8" d="M77.98,136.04V76.38h11.42l35.2,42.96h-5.54V76.38h13.64v59.66h-11.34L86.08,93.08h5.54v42.96H77.98z"/>
					<path class="st8" d="M152.56,83.79c-2.44,0-4.43-0.71-5.97-2.13c-1.53-1.42-2.3-3.18-2.3-5.28c0-2.1,0.77-3.86,2.3-5.28
						c1.53-1.42,3.52-2.13,5.97-2.13c2.44,0,4.43,0.67,5.97,2c1.53,1.34,2.3,3.06,2.3,5.16c0,2.22-0.75,4.05-2.26,5.5
						C157.07,83.07,155.06,83.79,152.56,83.79z M145.92,136.04V90.19h13.3v45.86H145.92z"/>
					<path class="st8" d="M193.73,136.72c-4.94,0-9.35-1.01-13.21-3.03s-6.89-4.82-9.08-8.4c-2.19-3.58-3.28-7.64-3.28-12.19
						c0-4.6,1.09-8.68,3.28-12.23c2.19-3.55,5.21-6.33,9.08-8.35c3.86-2.02,8.27-3.03,13.21-3.03c4.83,0,9.03,1.01,12.61,3.03
						c3.58,2.02,6.22,4.9,7.93,8.65l-10.31,5.54c-1.19-2.16-2.68-3.75-4.47-4.77s-3.74-1.53-5.84-1.53c-2.27,0-4.32,0.51-6.14,1.53
						c-1.82,1.02-3.25,2.47-4.3,4.35c-1.05,1.88-1.58,4.15-1.58,6.82s0.52,4.94,1.58,6.82c1.05,1.88,2.48,3.32,4.3,4.35
						c1.82,1.02,3.86,1.53,6.14,1.53c2.1,0,4.05-0.5,5.84-1.49c1.79-0.99,3.28-2.6,4.47-4.81l10.31,5.63
						c-1.71,3.69-4.35,6.55-7.93,8.57S198.56,136.72,193.73,136.72z"/>
					<path class="st8" d="M236.09,136.72c-3.58,0-6.65-0.61-9.21-1.83c-2.56-1.22-4.52-2.88-5.88-4.99
						c-1.36-2.1-2.05-4.46-2.05-7.07c0-2.73,0.67-5.12,2-7.16c1.33-2.05,3.45-3.65,6.35-4.82c2.9-1.16,6.68-1.75,11.34-1.75h12.19
						v7.76H240.1c-3.13,0-5.27,0.51-6.43,1.53c-1.17,1.02-1.75,2.3-1.75,3.83c0,1.71,0.67,3.05,2,4.05c1.33,1,3.17,1.49,5.5,1.49
						c2.22,0,4.21-0.53,5.97-1.58c1.76-1.05,3.04-2.6,3.83-4.65l2.05,6.14c-0.97,2.96-2.73,5.2-5.28,6.73
						C243.42,135.96,240.12,136.72,236.09,136.72z M250.07,136.04v-8.95l-0.85-1.96v-16.02c0-2.84-0.87-5.06-2.6-6.65
						c-1.73-1.59-4.39-2.39-7.97-2.39c-2.44,0-4.85,0.38-7.2,1.15c-2.36,0.77-4.36,1.8-6.01,3.11l-4.77-9.29
						c2.5-1.76,5.51-3.12,9.03-4.09c3.52-0.97,7.1-1.45,10.74-1.45c6.99,0,12.41,1.65,16.28,4.94c3.86,3.29,5.8,8.44,5.8,15.43
						v26.17H250.07z"/>
					<path class="st8" d="M274.53,136.04V90.19h12.7v12.96l-1.79-3.75c1.36-3.24,3.55-5.7,6.56-7.37c3.01-1.68,6.68-2.51,11-2.51
						v12.27c-0.57-0.06-1.08-0.1-1.53-0.13c-0.46-0.03-0.94-0.04-1.45-0.04c-3.64,0-6.58,1.04-8.82,3.11
						c-2.25,2.08-3.37,5.3-3.37,9.67v21.65H274.53z"/>
					<path class="st8" d="M322.09,136.72c-3.58,0-6.65-0.61-9.21-1.83c-2.56-1.22-4.52-2.88-5.88-4.99
						c-1.36-2.1-2.05-4.46-2.05-7.07c0-2.73,0.67-5.12,2-7.16c1.33-2.05,3.45-3.65,6.35-4.82c2.9-1.16,6.68-1.75,11.34-1.75h12.19
						v7.76H326.1c-3.13,0-5.27,0.51-6.43,1.53c-1.17,1.02-1.75,2.3-1.75,3.83c0,1.71,0.67,3.05,2,4.05c1.33,1,3.17,1.49,5.5,1.49
						c2.22,0,4.21-0.53,5.97-1.58c1.76-1.05,3.04-2.6,3.83-4.65l2.05,6.14c-0.97,2.96-2.73,5.2-5.28,6.73
						C329.42,135.96,326.13,136.72,322.09,136.72z M336.07,136.04v-8.95l-0.85-1.96v-16.02c0-2.84-0.87-5.06-2.6-6.65
						c-1.73-1.59-4.39-2.39-7.97-2.39c-2.44,0-4.85,0.38-7.2,1.15c-2.36,0.77-4.36,1.8-6.01,3.11l-4.77-9.29
						c2.5-1.76,5.51-3.12,9.03-4.09c3.52-0.97,7.1-1.45,10.74-1.45c6.99,0,12.41,1.65,16.28,4.94c3.86,3.29,5.8,8.44,5.8,15.43
						v26.17H336.07z"/>
					<path class="st8" d="M380.39,133.82c-4.26,0-8.11-0.92-11.55-2.77c-3.44-1.85-6.19-4.43-8.27-7.76
						c-2.08-3.32-3.11-7.2-3.11-11.63c0-4.49,1.04-8.4,3.11-11.72c2.07-3.32,4.83-5.89,8.27-7.71c3.44-1.82,7.29-2.73,11.55-2.73
						c3.86,0,7.27,0.78,10.23,2.34c2.95,1.56,5.26,3.98,6.9,7.24c1.65,3.27,2.47,7.46,2.47,12.57c0,5.06-0.82,9.22-2.47,12.49
						c-1.65,3.27-3.95,5.7-6.9,7.29C387.66,133.03,384.25,133.82,380.39,133.82z M382.44,153.26c-4.32,0-8.48-0.53-12.49-1.58
						c-4.01-1.05-7.34-2.63-10.01-4.73l5.28-9.55c1.93,1.59,4.39,2.86,7.37,3.79s5.92,1.41,8.82,1.41c4.72,0,8.14-1.05,10.27-3.15
						s3.2-5.23,3.2-9.38v-6.9l0.85-11.51l-0.17-11.59v-9.89h12.61v38.18c0,8.52-2.22,14.8-6.65,18.84
						C397.1,151.24,390.73,153.26,382.44,153.26z M383.03,122.91c2.33,0,4.4-0.47,6.22-1.41c1.82-0.94,3.24-2.26,4.26-3.96
						s1.53-3.67,1.53-5.88c0-2.27-0.51-4.25-1.53-5.92c-1.02-1.68-2.44-2.98-4.26-3.92c-1.82-0.94-3.89-1.41-6.22-1.41
						c-2.33,0-4.4,0.47-6.22,1.41c-1.82,0.94-3.25,2.25-4.3,3.92c-1.05,1.68-1.58,3.65-1.58,5.92c0,2.22,0.52,4.18,1.58,5.88
						c1.05,1.71,2.48,3.03,4.3,3.96C378.63,122.45,380.7,122.91,383.03,122.91z"/>
					<path class="st8" d="M439.88,136.72c-3.81,0-7.2-0.74-10.18-2.22c-2.98-1.48-5.3-3.74-6.95-6.78
						c-1.65-3.04-2.47-6.92-2.47-11.63V90.19h13.3v23.95c0,3.81,0.81,6.61,2.43,8.4c1.62,1.79,3.91,2.68,6.86,2.68
						c2.05,0,3.86-0.44,5.46-1.32c1.59-0.88,2.84-2.24,3.75-4.09c0.91-1.85,1.36-4.16,1.36-6.95V90.19h13.3v45.86h-12.61v-12.62
						l2.3,3.67c-1.53,3.18-3.79,5.58-6.78,7.2S443.4,136.72,439.88,136.72z"/>
					<path class="st8" d="M493.24,136.72c-3.58,0-6.65-0.61-9.21-1.83c-2.56-1.22-4.52-2.88-5.88-4.99
						c-1.36-2.1-2.05-4.46-2.05-7.07c0-2.73,0.67-5.12,2-7.16c1.33-2.05,3.45-3.65,6.35-4.82c2.9-1.16,6.68-1.75,11.34-1.75h12.19
						v7.76h-10.74c-3.13,0-5.27,0.51-6.43,1.53c-1.17,1.02-1.75,2.3-1.75,3.83c0,1.71,0.67,3.05,2,4.05c1.33,1,3.17,1.49,5.5,1.49
						c2.22,0,4.21-0.53,5.97-1.58c1.76-1.05,3.04-2.6,3.83-4.65l2.05,6.14c-0.97,2.96-2.73,5.2-5.28,6.73
						C500.57,135.96,497.27,136.72,493.24,136.72z M507.22,136.04v-8.95l-0.85-1.96v-16.02c0-2.84-0.87-5.06-2.6-6.65
						c-1.73-1.59-4.39-2.39-7.97-2.39c-2.44,0-4.85,0.38-7.2,1.15c-2.36,0.77-4.36,1.8-6.01,3.11l-4.77-9.29
						c2.5-1.76,5.51-3.12,9.03-4.09c3.52-0.97,7.1-1.45,10.74-1.45c6.99,0,12.41,1.65,16.28,4.94c3.86,3.29,5.8,8.44,5.8,15.43
						v26.17H507.22z"/>
				</g>
			</g>
		</g>
	</g>
	<g>
		<path class="st9" d="M36.32,160.15c-0.06,0.05-0.13,0.08-0.2,0.11L7.84,170.43c-0.3,0.11-0.64,0.01-0.84-0.24
			c-0.2-0.25-0.22-0.6-0.05-0.88l16.36-25.78c0.1-0.15,0.24-0.26,0.42-0.32l29.18-8.98c0.31-0.1,0.64,0.02,0.83,0.28
			c0.19,0.26,0.19,0.61,0.01,0.88l-17.27,24.59C36.44,160.05,36.38,160.11,36.32,160.15z M9.41,168.27l25.97-9.34l15.86-22.59
			l-26.81,8.25L9.41,168.27z"/>
		<path class="st9" d="M24,152.56c-0.24,0.19-0.59,0.21-0.86,0.04c-0.35-0.22-0.46-0.69-0.23-1.04l6.22-9.81
			c0.22-0.35,0.69-0.46,1.04-0.23c0.35,0.22,0.46,0.69,0.23,1.04l-6.22,9.81C24.13,152.44,24.07,152.51,24,152.56z"/>
		<path class="st9" d="M43.84,170.01c-6.78,5.18-13.86,7.34-16.59,8.03c-1.07,0.27-2.19-0.12-2.86-1l-7.86-10.29
			c-0.15-0.19-0.19-0.44-0.12-0.67c0.07-0.23,0.24-0.42,0.47-0.5l18.5-6.65l11.3-16.09c0.14-0.2,0.36-0.32,0.6-0.32
			c0.24-0.01,0.47,0.11,0.62,0.3l7.86,10.29c0.67,0.88,0.75,2.06,0.21,3.02C54.58,158.57,50.62,164.83,43.84,170.01z M18.36,166.65
			l7.23,9.47c0.3,0.4,0.81,0.57,1.29,0.45c2.64-0.67,9.49-2.76,16.04-7.77c6.56-5.01,10.38-11.06,11.73-13.43
			c0.24-0.43,0.21-0.96-0.1-1.36l-7.23-9.47l-10.84,15.44c-0.09,0.13-0.22,0.22-0.36,0.28L18.36,166.65z"/>
		<path class="st9" d="M36.32,169.05c-5.16,3.02-9.78,4.44-12.09,5.02c-1.07,0.27-2.19-0.12-2.86-1c-0.25-0.33-0.19-0.81,0.14-1.06
			c0.33-0.25,0.81-0.19,1.06,0.14c0.3,0.4,0.81,0.57,1.29,0.45c2.23-0.56,6.7-1.94,11.62-4.81c0.36-0.21,0.82-0.09,1.03,0.27
			C36.7,168.4,36.62,168.82,36.32,169.05z"/>
		<path class="st9" d="M62.17,154.47c-0.33,0.25-0.81,0.19-1.06-0.14l-11.39-14.92c-0.25-0.33-0.19-0.81,0.14-1.06
			c0.33-0.25,0.81-0.19,1.06,0.14l11.39,14.92C62.57,153.75,62.5,154.22,62.17,154.47z"/>
		<path class="st9" d="M67.54,161.51c-2.27,1.73-5.53,1.3-7.26-0.97s-1.3-5.53,0.98-7.26c2.27-1.73,5.53-1.3,7.26,0.98
			S69.82,159.78,67.54,161.51z M62.17,154.47c-1.61,1.23-1.92,3.54-0.69,5.15c1.23,1.61,3.54,1.92,5.15,0.69
			c1.61-1.23,1.92-3.54,0.69-5.15C66.09,153.55,63.78,153.24,62.17,154.47z"/>
		<path class="st9" d="M67.54,161.51c-2.27,1.73-5.53,1.3-7.26-0.97s-1.3-5.53,0.98-7.26c2.27-1.73,5.53-1.3,7.26,0.98
			S69.82,159.78,67.54,161.51z M62.17,154.47c-1.61,1.23-1.92,3.54-0.69,5.15c1.23,1.61,3.54,1.92,5.15,0.69
			c1.61-1.23,1.92-3.54,0.69-5.15C66.09,153.55,63.78,153.24,62.17,154.47z"/>
		<path class="st9" d="M78.8,171.27l-4.81,3.67c-0.63,0.48-1.43,0.66-2.2,0.51c-0.77-0.15-1.44-0.63-1.84-1.31l-7.02-12.02
			c-0.13-0.22-0.14-0.49-0.02-0.72c0.15-0.3,0.49-0.47,0.82-0.41c1.04,0.2,2.07-0.04,2.9-0.67c0.83-0.63,1.33-1.56,1.42-2.62
			c0.03-0.33,0.27-0.61,0.6-0.68c0.25-0.05,0.52,0.02,0.7,0.21l9.75,9.94c0.55,0.56,0.84,1.34,0.78,2.12
			C79.82,170.07,79.42,170.79,78.8,171.27z M64.92,162.53l6.33,10.85c0.18,0.31,0.48,0.52,0.83,0.59c0.35,0.07,0.71-0.01,0.99-0.23
			l4.81-3.67c0.29-0.22,0.46-0.54,0.48-0.9c0.03-0.36-0.1-0.7-0.35-0.96c0,0-8.79-8.97-8.79-8.97
			C68.55,161.03,66.82,162.35,64.92,162.53z"/>
	</g>
</g>
</svg>
