<?xml version="1.0" encoding="utf-8"?>
<!-- Generator: Adobe Illustrator 24.0.0, SVG Export Plug-In . SVG Version: 6.00 Build 0)  -->
<svg version="1.1" id="Capa_1" xmlns="http://www.w3.org/2000/svg" xmlns:xlink="http://www.w3.org/1999/xlink" x="0px" y="0px"
	 viewBox="0 0 393 180" style="enable-background:new 0 0 393 180;" xml:space="preserve">
<style type="text/css">
	.st0{fill:#00AEEF;}
</style>
<g>
	<g>
		<path class="st0" d="M75.9,27.7H103c1.8,0,3,0.2,3.6,0.6c0.6,0.4,0.8,1.4,0.8,3c0,1.4-0.2,2.5-0.6,3c-0.4,0.6-1.3,1.1-2.8,1.6
			c-1.3,0.4-2.2,0.9-2.5,1.4c-0.4,0.5-0.5,1.4-0.5,2.6v66.2c0,1,0.2,1.7,0.5,2.1c0.3,0.5,1.1,0.9,2.5,1.4c1.9,0.7,2.8,1.6,2.8,2.7
			c0,2.9-0.1,4.5-0.4,4.8c-0.3,0.3-1.1,0.5-2.7,0.5H69.6c-1.5,0-2.2-0.9-2.2-2.7c0-1.6,0.1-2.7,0.2-3.5c0.2-0.8,1.1-1.4,2.8-1.9
			c1.9-0.6,2.9-1.5,2.9-3V59.7L59.5,97.6h-8.4L37.6,60.9v45.6c0,1.5,0.9,2.6,2.8,3.3c2.2,0.8,3.4,2.3,3.4,4.4c0,2.4-1.1,3.6-3.4,3.6
			H23.7c-1.9,0-2.8-1.1-2.8-3.4c0-1.6,0.8-2.8,2.4-3.7c1.2-0.7,1.9-1.3,2.2-1.7c0.3-0.4,0.5-1.2,0.5-2.3V42.3c0-1.8-0.2-3.1-0.6-4.1
			c-0.4-0.9-1.4-1.7-2.8-2.3c-1.5-0.6-2.3-1.2-2.3-1.8l0.1-2.4c0-1.7,0.2-2.8,0.5-3.3c0.3-0.4,1-0.6,2-0.6h28.3l12.3,34.5L75.9,27.7
			z"/>
		<path class="st0" d="M111,32.4v-3c0-1.2,0.8-1.7,2.5-1.7h36.7c1.4,0,2.3,0.1,2.7,0.4c0.4,0.3,0.6,1,0.6,2.3c0,2-0.1,3.2-0.4,3.7
			c-0.3,0.5-0.9,0.8-1.9,0.9c-3.2,0.4-4.8,1.9-4.8,4.4v67c0,1.4,1.1,2.5,3.4,3.3c1.5,0.5,2.4,1,2.7,1.4c0.3,0.4,0.5,1.1,0.5,2.1v2.2
			c0,1.2-0.2,1.9-0.5,2c-0.3,0.1-1.1,0.2-2.4,0.2h-37.4c-1.4,0-2.1-0.4-2.1-1.2c0-2.7,0.1-4.3,0.4-4.9c0.3-0.6,1.1-1.1,2.7-1.4
			c2.8-0.6,4.1-1.6,4.1-3.2V40.8c0-1.6-0.3-2.7-0.8-3.5c-0.5-0.8-1.6-1.5-3.4-2c-1.3-0.4-2.1-0.8-2.3-1.1
			C111.2,33.9,111,33.3,111,32.4"/>
		<path class="st0" d="M175.8,66.7V106c0,1.6,1.3,2.9,3.8,3.7c2.1,0.7,3.2,1.7,3.2,3c0,2.7-0.1,4.2-0.3,4.5
			c-0.2,0.3-0.9,0.4-2.3,0.4H160c-1,0-1.7-0.3-1.9-0.9c-0.3-0.6-0.4-2-0.4-4.3c0-1,0.7-1.8,2-2.2c2.6-0.8,3.9-1.8,3.9-2.9V41.6
			c0-1.6-0.2-2.8-0.6-3.6c-0.4-0.8-1.3-1.5-2.7-2c-1.3-0.4-2.1-0.9-2.5-1.4c-0.4-0.5-0.6-1.5-0.6-3c0-2.6,0.9-3.9,2.8-3.9h21.2
			L207,71.2V39.1c0-1.8-1.3-3.1-3.8-3.8c-1.5-0.5-2.4-1-2.9-1.6c-0.4-0.6-0.7-1.8-0.7-3.6c0-1.1,0.2-1.8,0.5-2
			c0.3-0.2,0.9-0.4,1.8-0.4h21.1c1.2,0.1,1.8,1.3,1.8,3.7c0,1.4-0.1,2.2-0.3,2.6c-0.2,0.4-0.8,0.7-1.6,1c-1.8,0.5-2.9,1-3.4,1.5
			c-0.5,0.5-0.7,1.1-0.7,2v79.2h-13L175.8,66.7z"/>
		<path class="st0" d="M263.8,34.6v31.8h5.2c1.4,0,2.5-0.2,3.1-0.7c0.7-0.4,1.2-1.4,1.5-2.9c0.6-2.6,1.1-4.2,1.5-4.7
			c0.4-0.5,1-0.8,1.8-0.8c4,0,6.3,0.1,6.9,0.4c0.5,0.2,0.8,1.2,0.8,2.8V79c0,1.2-0.3,1.9-0.8,2.3c-0.5,0.4-2.1,0.5-4.7,0.5
			c-1.7,0-2.9-0.2-3.5-0.7c-0.6-0.5-1.2-1.8-1.7-3.9c-0.6-2-1.1-3.2-1.6-3.6c-0.5-0.4-1.4-0.7-2.5-0.7h-6v38.4h4.1
			c2.5,0,4.2-0.5,5.2-1.5c0.9-1,2.5-4,4.6-8.8c0.9-2,1.8-3.4,2.7-4c0.9-0.6,2.5-1,4.8-1c3.2,0,4.8,0.7,4.8,2.2c0,0.4-0.1,1.1-0.3,2
			l-2.8,12.7c-0.5,2.3-0.9,3.7-1.3,4.2c-0.3,0.5-1.4,0.7-3.1,0.7h-51.1c-1.3,0-2.1-0.2-2.5-0.6c-0.4-0.4-0.5-1.7-0.5-3.7
			c0-1.3,0.9-2.2,2.8-2.8c2.8-0.9,4.2-2,4.2-3.5V37.5c-0.1-0.7-1.2-1.4-3.4-2.1c-1.5-0.5-2.4-1-2.7-1.4c-0.3-0.4-0.4-1.5-0.4-3.2
			c0-1.4,0.2-2.3,0.5-2.6c0.3-0.3,1.2-0.4,2.7-0.4h48.9c1.2,0,2.1,0.2,2.7,0.4c0.6,0.3,1,1,1.3,2.1l3.9,14.4
			c0.2,0.7,0.3,1.2,0.3,1.5c0,1-1.2,1.5-3.7,1.5c-2.8,0-4.6-0.2-5.6-0.7c-0.9-0.5-1.8-1.6-2.7-3.5c-1.6-3.3-2.9-5.7-4.1-7
			c-1.1-1.3-2.4-2-3.8-2H263.8z"/>
		<path class="st0" d="M299.9,105.3V37.8c-0.2-0.7-1.1-1.3-2.8-1.7c-1.3-0.3-2.2-0.7-2.7-1.3c-0.5-0.6-0.7-1.8-0.7-3.7
			c0-1.4,0.3-2.3,1-2.7c0.7-0.4,2.4-0.7,5.1-0.7h36.7c10.5,0,19.1,3.5,26,10.5c6.9,7,10.3,18.7,10.3,35c0,14.9-3.3,26-10,33.4
			c-6.6,7.4-15.4,11.1-26.3,11.1h-40.4c-1.1,0-1.9-0.2-2.3-0.6c-0.4-0.4-0.7-1.3-0.7-2.6c0-1.6,0.1-2.6,0.2-3
			c0.2-0.4,0.9-0.9,2.2-1.4C298.5,109,299.9,107.4,299.9,105.3 M328.4,34.3v77.2h4.1c2.9,0,5-0.9,6.3-2.6c1.3-1.7,2-4.8,2-9.2v-57
			c0-2.5-0.8-4.5-2.5-6.1c-1.6-1.6-4-2.3-7-2.3H328.4z"/>
		<path class="st0" d="M20.3,134.5h6.4c0.2,0,0.4,0,0.4,0.1c0.1,0.1,0.1,0.3,0.1,0.6c0,0.4-0.1,0.6-0.4,0.7
			c-0.2,0.1-0.4,0.2-0.4,0.3c-0.1,0.1-0.1,0.3-0.1,0.5V149c0,0.3,0.1,0.6,0.4,0.8c0.3,0.2,0.6,0.3,1,0.3c0.4,0,0.7-0.1,0.9-0.3
			c0.3-0.2,0.4-0.5,0.4-0.8v-12.2c0-0.2,0-0.4-0.1-0.4c-0.1-0.1-0.2-0.2-0.4-0.3c-0.3-0.2-0.5-0.5-0.5-0.9c0-0.3,0-0.5,0.1-0.6
			c0.1-0.1,0.2-0.1,0.4-0.1h3.2c0.4,0,0.5,0.1,0.5,0.4v0.5c0,0.2,0,0.4-0.1,0.4c0,0.1-0.2,0.1-0.3,0.2c-0.5,0.1-0.7,0.4-0.7,0.7
			v11.9c0,1.1-0.4,2-1.3,2.7c-0.9,0.7-2.1,1-3.7,1c-1.8,0-3.1-0.3-4-1c-0.9-0.7-1.4-1.7-1.4-3v-11.5c0-0.3-0.2-0.5-0.7-0.7
			c-0.2-0.1-0.4-0.1-0.4-0.2c0-0.1-0.1-0.2-0.1-0.4c0-0.4,0-0.7,0.1-0.8C19.8,134.6,20,134.5,20.3,134.5"/>
		<path class="st0" d="M39,138.7c1.2-1.1,2.5-1.6,4-1.6c1,0,1.8,0.2,2.4,0.7c0.5,0.5,0.8,1.1,0.8,1.8v10.4c0,0.2,0.1,0.4,0.4,0.5
			c0.2,0.1,0.3,0.4,0.3,0.8c0,0.3,0,0.5-0.1,0.6c-0.1,0.1-0.2,0.1-0.5,0.1h-4.2c-0.6-0.4-0.9-0.9-0.9-1.5v-10.4c0-0.6-0.3-0.9-1-0.9
			c-0.4,0-0.9,0.2-1.4,0.5v10.2c0,0.3,0.2,0.5,0.5,0.6c0.2,0.1,0.3,0.2,0.3,0.5v0.6c0,0.2-0.2,0.4-0.7,0.4h-5.3
			c-0.3,0-0.4,0-0.5-0.1c-0.1-0.1-0.1-0.2-0.1-0.4v-0.4c0-0.2,0.1-0.4,0.3-0.4c0.2-0.1,0.4-0.2,0.5-0.3c0.1-0.1,0.1-0.4,0.1-0.7V139
			c0-0.3-0.2-0.4-0.5-0.6c-0.2-0.1-0.3-0.2-0.3-0.3v-0.6c0-0.2,0.1-0.3,0.4-0.3h4.9c0.2,0,0.3,0,0.4,0.1c0,0,0.1,0.1,0.1,0.3V138.7z
			"/>
		<path class="st0" d="M66.4,134.5h5.3c0.4,0,0.6,0,0.7,0.1c0.1,0.1,0.2,0.3,0.2,0.6c0,0.3,0,0.5-0.1,0.6c-0.1,0.1-0.3,0.2-0.5,0.3
			c-0.3,0.1-0.4,0.2-0.5,0.3c-0.1,0.1-0.1,0.3-0.1,0.5v12.9c0,0.2,0,0.3,0.1,0.4c0.1,0.1,0.2,0.2,0.5,0.3c0.4,0.1,0.6,0.3,0.6,0.5
			c0,0.6,0,0.9-0.1,0.9c-0.1,0.1-0.2,0.1-0.5,0.1h-6.6c-0.3,0-0.4-0.2-0.4-0.5c0-0.3,0-0.5,0-0.7c0-0.1,0.2-0.3,0.6-0.4
			c0.4-0.1,0.6-0.3,0.6-0.6v-9.2l-2.7,7.4h-1.6l-2.6-7.2v8.9c0,0.3,0.2,0.5,0.5,0.6c0.4,0.2,0.7,0.4,0.7,0.8c0,0.5-0.2,0.7-0.7,0.7
			h-3.2c-0.4,0-0.6-0.2-0.6-0.7c0-0.3,0.2-0.6,0.5-0.7c0.2-0.1,0.4-0.3,0.4-0.3c0.1-0.1,0.1-0.2,0.1-0.4v-12.6c0-0.3,0-0.6-0.1-0.8
			c-0.1-0.2-0.3-0.3-0.5-0.5c-0.3-0.1-0.4-0.2-0.4-0.4l0-0.5c0-0.3,0-0.6,0.1-0.6c0.1-0.1,0.2-0.1,0.4-0.1h5.5l2.4,6.7L66.4,134.5z"
			/>
		<path class="st0" d="M73.4,138.3v-0.7c0-0.2,0.2-0.4,0.6-0.4h4.7c0.3,0,0.5,0.1,0.5,0.4v12.5c0,0.2,0,0.3,0,0.3
			c0,0.1,0.1,0.1,0.3,0.1c0.3,0.1,0.5,0.3,0.5,0.7c0,0.4,0,0.6-0.1,0.7c0,0.1-0.2,0.1-0.5,0.1h-5.8c-0.1,0-0.2-0.1-0.3-0.1
			s-0.1-0.3-0.1-0.6c0-0.4,0.1-0.6,0.4-0.7c0.3-0.1,0.5-0.2,0.5-0.4v-10.9c0-0.4-0.2-0.7-0.6-0.8C73.5,138.6,73.4,138.5,73.4,138.3
			 M77.6,134.1c1.1,0,1.7,0.3,1.7,0.8c0,0.4-0.4,0.8-1.1,1.1c-0.7,0.3-1.6,0.5-2.6,0.5c-1.2,0-1.8-0.3-1.8-0.9
			c0-0.5,0.4-0.8,1.3-1.1C75.9,134.2,76.8,134.1,77.6,134.1"/>
		<path class="st0" d="M87.1,138.7c1.2-1.1,2.5-1.6,4-1.6c1,0,1.8,0.2,2.4,0.7c0.5,0.5,0.8,1.1,0.8,1.8v10.4c0,0.2,0.1,0.4,0.4,0.5
			c0.2,0.1,0.3,0.4,0.3,0.8c0,0.3,0,0.5-0.1,0.6c-0.1,0.1-0.2,0.1-0.5,0.1h-4.2c-0.6-0.4-0.9-0.9-0.9-1.5v-10.4c0-0.6-0.3-0.9-1-0.9
			c-0.4,0-0.9,0.2-1.4,0.5v10.2c0,0.3,0.2,0.5,0.5,0.6c0.2,0.1,0.3,0.2,0.3,0.5v0.6c0,0.2-0.2,0.4-0.7,0.4h-5.3
			c-0.3,0-0.4,0-0.5-0.1c-0.1-0.1-0.1-0.2-0.1-0.4v-0.4c0-0.2,0.1-0.4,0.3-0.4c0.2-0.1,0.4-0.2,0.5-0.3c0.1-0.1,0.1-0.4,0.1-0.7V139
			c0-0.3-0.2-0.4-0.5-0.6c-0.2-0.1-0.3-0.2-0.3-0.3v-0.6c0-0.2,0.1-0.3,0.4-0.3h4.9c0.2,0,0.3,0,0.4,0.1c0,0,0.1,0.1,0.1,0.3V138.7z
			"/>
		<path class="st0" d="M96.3,138.3v-0.7c0-0.2,0.2-0.4,0.6-0.4h4.7c0.3,0,0.5,0.1,0.5,0.4v12.5c0,0.2,0,0.3,0,0.3
			c0,0.1,0.1,0.1,0.3,0.1c0.3,0.1,0.5,0.3,0.5,0.7c0,0.4,0,0.6-0.1,0.7c0,0.1-0.2,0.1-0.5,0.1h-5.8c-0.1,0-0.2-0.1-0.3-0.1
			s-0.1-0.3-0.1-0.6c0-0.4,0.1-0.6,0.4-0.7c0.3-0.1,0.5-0.2,0.5-0.4v-10.9c0-0.4-0.2-0.7-0.6-0.8C96.4,138.6,96.3,138.5,96.3,138.3
			 M100.5,134.1c1.1,0,1.7,0.3,1.7,0.8c0,0.4-0.4,0.8-1.1,1.1c-0.7,0.3-1.6,0.5-2.6,0.5c-1.2,0-1.8-0.3-1.8-0.9
			c0-0.5,0.4-0.8,1.3-1.1C98.8,134.2,99.6,134.1,100.5,134.1"/>
		<path class="st0" d="M112,137.5l0.8,3c0,0.1,0,0.2,0,0.3c0,0.2-0.3,0.3-0.8,0.3c-0.4,0-0.6,0-0.8-0.1c-0.2-0.1-0.3-0.2-0.6-0.5
			c-0.2-0.3-0.6-0.7-1.1-1.2c-0.5-0.5-0.9-0.7-1.3-0.7c-0.1,0-0.3,0.1-0.4,0.2c-0.1,0.1-0.2,0.2-0.2,0.4c0,0.4,0.7,1.4,2.2,3.1
			c1.2,1.5,2.1,2.7,2.5,3.5c0.4,0.9,0.7,1.8,0.7,2.9c0,1.1-0.3,2-1,2.7c-0.7,0.6-1.5,1-2.4,1c-0.6,0-1.2-0.2-1.8-0.5
			c-0.3-0.2-0.6-0.2-0.7-0.2c-0.1,0-0.2,0.1-0.2,0.2c0,0.2-0.1,0.3-0.2,0.4c-0.1,0.1-0.3,0.1-0.8,0.1c-0.3,0-0.6,0-0.7-0.1
			c-0.1-0.1-0.2-0.2-0.2-0.4l-0.7-3c0-0.1,0-0.2,0-0.3c0-0.2,0.3-0.3,1-0.3c0.3,0,0.6,0,0.7,0.1c0.1,0.1,0.3,0.3,0.5,0.6
			c0.8,1.2,1.5,1.8,2.2,1.8c0.4,0,0.7-0.2,0.7-0.6c0-0.3-0.2-0.8-0.5-1.3c-0.3-0.5-1-1.4-1.9-2.5c-1-1.3-1.7-2.3-2.2-3.1
			c-0.5-0.8-0.7-1.7-0.7-2.5c0-1.1,0.3-2,1-2.6c0.7-0.6,1.5-0.8,2.5-0.8c0.5,0,1.1,0.1,1.7,0.4c0.3,0.1,0.6,0.2,0.7,0.2
			c0.2,0,0.3-0.1,0.3-0.2c0-0.2,0.1-0.3,0.2-0.3c0.1,0,0.4-0.1,0.8-0.1c0.2,0,0.4,0,0.5,0.1C111.9,137.2,112,137.3,112,137.5"/>
		<path class="st0" d="M115.1,138.7h-0.6c-0.2,0-0.3,0-0.3,0c0,0-0.1-0.1-0.1-0.2v-0.8c0-0.1,0-0.2,0.1-0.3c0,0,0.2-0.1,0.4-0.1
			c0.7-0.1,1.4-0.4,2.2-0.9s1.2-1,1.3-1.6c0-0.2,0.1-0.3,0.2-0.4c0.1-0.1,0.2-0.1,0.5-0.1h1c0.3,0,0.4,0.1,0.4,0.4v2.5h0.9
			c0.3,0,0.5,0.1,0.5,0.4v0.8c0,0.2-0.2,0.3-0.5,0.3h-0.9V150c0,0.4,0.2,0.7,0.7,0.8c0.2,0.1,0.4,0.2,0.5,0.3
			c0.1,0.1,0.1,0.3,0.1,0.6c0,0.2,0,0.3-0.1,0.3c0,0-0.2,0-0.4,0h-4.7c-0.7-0.5-1.1-1.2-1.1-2.1V138.7z"/>
		<path class="st0" d="M128.2,144.4v4.5c0,0.6,0.2,1,0.5,1.4c0.3,0.3,0.7,0.5,1.2,0.5c0.7,0,1.4-0.2,1.8-0.7
			c0.5-0.5,0.7-1.1,0.7-1.9c0-0.4,0.1-0.7,0.2-0.8c0.1-0.1,0.5-0.1,1.1-0.1c0.5,0,0.9,0,1,0.1c0.1,0.1,0.2,0.3,0.2,0.6
			c0,1.1-0.5,2.1-1.5,3c-1,0.9-2.3,1.3-3.9,1.3c-1.9,0-3.5-0.6-4.8-1.9c-1.3-1.2-2-3.1-2-5.6c0-2.5,0.6-4.4,1.8-5.7
			c1.2-1.3,2.8-2,4.8-2c1.7,0,3,0.6,4.1,1.7c1,1.1,1.5,2.7,1.5,4.7v1H128.2z M130.2,143.1v-3.6c0-0.7-0.3-1-1-1c-0.7,0-1,0.3-1,1
			v3.6H130.2z"/>
		<path class="st0" d="M141.6,140.1c0.1-0.2,0.3-0.5,0.4-0.9c0.4-0.9,0.7-1.5,1.1-1.8c0.4-0.2,0.8-0.4,1.2-0.4c0.6,0,1,0.2,1.3,0.6
			c0.3,0.4,0.5,0.9,0.5,1.6c0,1.3-0.5,2-1.5,2c-0.5,0-0.9-0.2-1.2-0.7c-0.2-0.3-0.3-0.4-0.5-0.4c-0.4,0-0.7,0.4-0.7,1.1v8.7
			c0,0.3,0.2,0.5,0.5,0.6c0.3,0.1,0.5,0.3,0.5,0.6v0.5c0,0.2,0,0.3-0.1,0.3c-0.1,0-0.2,0.1-0.5,0.1h-5.6c-0.4,0-0.6-0.1-0.6-0.4
			v-0.6c0-0.2,0.1-0.3,0.2-0.4c0.3-0.1,0.5-0.3,0.5-0.6v-11c0-0.2-0.1-0.4-0.4-0.5c-0.3-0.1-0.4-0.2-0.4-0.3c0-0.1-0.1-0.2-0.1-0.6
			c0-0.3,0.1-0.4,0.2-0.5c0.1-0.1,0.3-0.1,0.5-0.1h4c0.2,0,0.3,0,0.4,0.1c0.1,0.1,0.1,0.3,0.1,0.6V140.1z"/>
		<path class="st0" d="M147.1,138.3v-0.7c0-0.2,0.2-0.4,0.6-0.4h4.8c0.3,0,0.5,0.1,0.5,0.4v12.5c0,0.2,0,0.3,0,0.3
			c0,0.1,0.1,0.1,0.3,0.1c0.3,0.1,0.5,0.3,0.5,0.7c0,0.4,0,0.6-0.1,0.7c0,0.1-0.2,0.1-0.5,0.1h-5.8c-0.1,0-0.2-0.1-0.3-0.1
			c0-0.1-0.1-0.3-0.1-0.6c0-0.4,0.1-0.6,0.4-0.7c0.3-0.1,0.5-0.2,0.5-0.4v-10.9c0-0.4-0.2-0.7-0.6-0.8
			C147.2,138.6,147.1,138.5,147.1,138.3 M151.3,134.1c1.1,0,1.7,0.3,1.7,0.8c0,0.4-0.4,0.8-1.1,1.1c-0.8,0.3-1.6,0.5-2.6,0.5
			c-1.2,0-1.8-0.3-1.8-0.9c0-0.5,0.4-0.8,1.3-1.1C149.6,134.2,150.4,134.1,151.3,134.1"/>
		<path class="st0" d="M161.6,137.1c1.9,0,3.4,0.6,4.7,1.8c1.3,1.2,1.9,3,1.9,5.5c0,2.6-0.6,4.6-1.9,5.9c-1.3,1.3-2.9,2-4.7,2
			c-1.3,0-2.4-0.3-3.4-0.9c-1-0.6-1.7-1.4-2.2-2.4c-0.5-1-0.8-2.4-0.8-4.2c0-2.5,0.6-4.4,1.8-5.7
			C158.1,137.7,159.7,137.1,161.6,137.1 M162.7,139.8c0-0.9-0.4-1.4-1.1-1.4c-0.8,0-1.2,0.6-1.2,1.7v9.1c0,1.1,0.4,1.6,1.1,1.6
			c0.8,0,1.2-0.5,1.2-1.6V139.8z"/>
		<path class="st0" d="M182.6,144.4v4.5c0,0.6,0.2,1,0.5,1.4c0.3,0.3,0.7,0.5,1.2,0.5c0.8,0,1.4-0.2,1.8-0.7
			c0.5-0.5,0.7-1.1,0.7-1.9c0-0.4,0.1-0.7,0.2-0.8c0.1-0.1,0.5-0.1,1.1-0.1c0.5,0,0.9,0,1,0.1c0.1,0.1,0.2,0.3,0.2,0.6
			c0,1.1-0.5,2.1-1.5,3c-1,0.9-2.3,1.3-3.9,1.3c-1.9,0-3.5-0.6-4.8-1.9c-1.3-1.2-2-3.1-2-5.6c0-2.5,0.6-4.4,1.8-5.7
			c1.2-1.3,2.8-2,4.8-2c1.7,0,3,0.6,4.1,1.7c1,1.1,1.5,2.7,1.5,4.7v1H182.6z M184.7,143.1v-3.6c0-0.7-0.3-1-1-1c-0.7,0-1,0.3-1,1
			v3.6H184.7z"/>
		<path class="st0" d="M196.4,138.7c1.2-1.1,2.5-1.6,4.1-1.6c1,0,1.8,0.2,2.4,0.7c0.6,0.5,0.8,1.1,0.8,1.8v10.4
			c0,0.2,0.1,0.4,0.4,0.5c0.2,0.1,0.3,0.4,0.3,0.8c0,0.3,0,0.5-0.1,0.6c-0.1,0.1-0.2,0.1-0.5,0.1h-4.2c-0.6-0.4-0.9-0.9-0.9-1.5
			v-10.4c0-0.6-0.3-0.9-0.9-0.9c-0.4,0-0.9,0.2-1.4,0.5v10.2c0,0.3,0.2,0.5,0.5,0.6c0.2,0.1,0.3,0.2,0.3,0.5v0.6
			c0,0.2-0.2,0.4-0.7,0.4h-5.3c-0.3,0-0.4,0-0.5-0.1c-0.1-0.1-0.1-0.2-0.1-0.4v-0.4c0-0.2,0.1-0.4,0.3-0.4c0.2-0.1,0.4-0.2,0.5-0.3
			c0.1-0.1,0.1-0.4,0.1-0.7V139c0-0.3-0.2-0.4-0.5-0.6c-0.2-0.1-0.3-0.2-0.3-0.3v-0.6c0-0.2,0.1-0.3,0.4-0.3h4.9
			c0.2,0,0.3,0,0.4,0.1c0,0,0.1,0.1,0.1,0.3V138.7z"/>
		<path class="st0" d="M213.1,135.4v-0.5c0-0.2,0.2-0.3,0.6-0.3h4.6c0.2,0,0.4,0,0.5,0c0.1,0,0.1,0.2,0.1,0.4v15.2
			c0,0.3,0.1,0.5,0.4,0.6c0.2,0.1,0.3,0.2,0.3,0.4v0.6c0,0.2-0.2,0.3-0.7,0.3h-5.5c-0.3,0-0.5-0.1-0.5-0.3v-0.6
			c0-0.3,0.2-0.4,0.5-0.6c0.2-0.1,0.3-0.1,0.4-0.2c0-0.1,0.1-0.2,0.1-0.4v-13.5c0-0.3-0.1-0.4-0.4-0.5
			C213.3,135.9,213.1,135.7,213.1,135.4"/>
		<path class="st0" d="M228.7,141.5v-2.1c0-0.6-0.3-0.9-1-0.9c-0.9,0-1.3,0.4-1.3,1.3c0,0.5-0.1,0.9-0.2,1.1c-0.2,0.2-0.5,0.4-1,0.5
			c-0.5,0.1-1.1,0.2-1.7,0.2c-1.3,0-1.9-0.5-1.9-1.5c0-0.9,0.5-1.7,1.6-2.3c1.1-0.6,2.5-0.9,4.3-0.9c1.2,0,2.2,0.1,3.1,0.3
			c0.9,0.2,1.7,0.6,2.2,1.2c0.6,0.6,0.8,1.2,0.8,1.8v9.9c0,0,0.2,0.2,0.5,0.3c0.2,0.1,0.3,0.3,0.3,0.5c0,0.3-0.1,0.5-0.2,0.6
			c-0.1,0.1-0.4,0.2-0.8,0.3c-0.4,0.1-1,0.2-1.6,0.2c-0.8,0-1.4-0.1-1.9-0.3c-0.5-0.2-0.9-0.6-1.2-1.2c-0.9,0.7-1.6,1.1-2.1,1.3
			c-0.5,0.2-1.1,0.3-1.7,0.3c-1.3,0-2.2-0.4-2.9-1.1c-0.7-0.7-1-1.9-1-3.5c0-1.6,0.3-2.8,1-3.4c0.6-0.6,1.9-1.2,3.8-1.8
			C227,142.1,227.9,141.8,228.7,141.5 M228.7,143c-1.1,0.4-1.8,0.8-2,1.2c-0.2,0.5-0.3,1.5-0.3,3.1c0,1.2,0.1,1.9,0.3,2.2
			c0.2,0.3,0.5,0.5,0.9,0.5c0.8,0,1.1-0.5,1.1-1.4V143z"/>
		<path class="st0" d="M252.8,134.2h0.8c0.2,0,0.3,0.1,0.4,0.1c0.1,0.1,0.2,0.4,0.2,0.8l0.3,3.5c0,0.1,0,0.1,0,0.2
			c0,0.3-0.1,0.4-0.2,0.5c-0.1,0.1-0.4,0.2-0.7,0.2c-0.4,0-0.7-0.1-0.9-0.3c-0.2-0.2-0.3-0.6-0.5-1.2c-0.4-1.6-1-2.4-1.7-2.4
			c-0.6,0-0.9,0.6-0.9,1.7v12.3c0,0.8,0.3,1.2,1,1.2c0.8,0,1.3-0.7,1.4-2c0-0.4,0.1-0.7,0.3-0.8c0.2-0.1,0.5-0.2,1.1-0.2
			c0.4,0,0.7,0.1,0.9,0.2c0.2,0.1,0.2,0.3,0.2,0.7c0,1-0.4,1.9-1.3,2.6c-0.9,0.7-1.9,1-3.2,1c-1.2,0-2.3-0.3-3.2-0.9
			c-0.9-0.6-1.7-1.6-2.4-3c-0.7-1.4-1-3.2-1-5.4c0-2.1,0.3-3.7,0.9-5c0.6-1.2,1.3-2.2,2.2-2.9c0.9-0.7,1.9-1,3.1-1
			c0.7,0,1.3,0.1,1.9,0.4c0.2,0.1,0.3,0.1,0.5,0.1c0.1,0,0.3-0.1,0.5-0.3C252.4,134.3,252.6,134.2,252.8,134.2"/>
		<path class="st0" d="M262.1,137.1c1.9,0,3.4,0.6,4.7,1.8c1.3,1.2,1.9,3,1.9,5.5c0,2.6-0.6,4.6-1.9,5.9c-1.3,1.3-2.9,2-4.7,2
			c-1.3,0-2.4-0.3-3.4-0.9c-1-0.6-1.7-1.4-2.2-2.4c-0.5-1-0.8-2.4-0.8-4.2c0-2.5,0.6-4.4,1.8-5.7
			C258.6,137.7,260.1,137.1,262.1,137.1 M263.2,139.8c0-0.9-0.4-1.4-1.1-1.4c-0.8,0-1.2,0.6-1.2,1.7v9.1c0,1.1,0.4,1.6,1.1,1.6
			c0.8,0,1.2-0.5,1.2-1.6V139.8z"/>
		<path class="st0" d="M283,138.8c1.4-1.1,2.8-1.7,4-1.7c0.5,0,1.1,0.1,1.6,0.2c0.5,0.2,0.9,0.5,1.2,0.9c0.3,0.5,0.5,0.9,0.5,1.5
			V150c0,0.2,0.1,0.4,0.3,0.6c0.2,0.2,0.4,0.4,0.4,0.6v0.5c0,0.3-0.2,0.4-0.5,0.4h-4.2c-0.6-0.3-0.9-0.9-0.9-1.6v-10.3
			c0-0.5-0.3-0.8-1-0.8c-0.4,0-0.7,0.1-1,0.2c-0.2,0.2-0.3,0.3-0.3,0.6v9.8c0,0.2,0.2,0.4,0.4,0.6c0.2,0.1,0.3,0.2,0.3,0.3v0.7
			c0,0.3-0.2,0.4-0.5,0.4h-4.3c-0.5-0.4-0.8-0.9-0.8-1.6v-10.3c0-0.5-0.3-0.7-0.8-0.7c-0.2,0-0.6,0.1-1.1,0.3c0,0-0.1,0-0.2,0.1
			v10.2c0,0.2,0.2,0.4,0.5,0.6c0.2,0.1,0.3,0.2,0.3,0.4v0.6c0,0.3-0.2,0.4-0.5,0.4h-5.6c-0.3,0-0.4-0.1-0.4-0.3v-0.7
			c0-0.1,0.1-0.3,0.4-0.5c0.3-0.2,0.4-0.4,0.4-0.5v-11c0-0.3-0.2-0.5-0.5-0.6c-0.2-0.1-0.3-0.2-0.3-0.4v-0.6c0-0.2,0.2-0.3,0.6-0.3
			h4.7c0.3,0,0.5,0.1,0.5,0.3v1.1c1.3-1.1,2.6-1.6,4-1.6C281.2,137.1,282.3,137.6,283,138.8"/>
		<path class="st0" d="M293,138.9c-0.1,0-0.2-0.1-0.3-0.1c-0.2-0.1-0.4-0.2-0.5-0.2c-0.1-0.1-0.1-0.2-0.1-0.5c0-0.1,0-0.2,0-0.3
			c0-0.2,0-0.4,0.1-0.4c0.1-0.1,0.3-0.1,0.6-0.1h4.6c0.2,0,0.4,0,0.4,0.1c0.1,0.1,0.1,0.2,0.1,0.4v10.7c0,0.9,0.4,1.4,1.1,1.4
			c0.5,0,0.9-0.2,1.2-0.5v-10.1c0-0.3-0.2-0.5-0.5-0.6c-0.2-0.1-0.3-0.2-0.3-0.2c0-0.1-0.1-0.4-0.1-0.8c0-0.2,0.2-0.3,0.5-0.3h4.9
			c0.2,0,0.3,0,0.4,0.1c0,0,0.1,0.2,0.1,0.4v12.5c0,0.2,0.1,0.4,0.4,0.5c0.3,0.1,0.5,0.3,0.5,0.7c0,0.4,0,0.7-0.1,0.7
			c0,0.1-0.2,0.1-0.5,0.1H301c-0.3,0-0.5,0-0.6-0.1c-0.1-0.1-0.2-0.2-0.2-0.5v-0.3c0-0.3,0-0.5,0-0.5c-1.6,1-2.9,1.5-4,1.5
			c-0.9,0-1.7-0.2-2.3-0.7c-0.6-0.5-0.9-1.3-0.9-2.6V138.9z"/>
		<path class="st0" d="M313,138.7c1.2-1.1,2.5-1.6,4-1.6c1,0,1.8,0.2,2.4,0.7c0.5,0.5,0.8,1.1,0.8,1.8v10.4c0,0.2,0.1,0.4,0.4,0.5
			c0.2,0.1,0.3,0.4,0.3,0.8c0,0.3,0,0.5-0.1,0.6c-0.1,0.1-0.2,0.1-0.5,0.1h-4.2c-0.6-0.4-0.9-0.9-0.9-1.5v-10.4
			c0-0.6-0.3-0.9-0.9-0.9c-0.4,0-0.9,0.2-1.4,0.5v10.2c0,0.3,0.2,0.5,0.5,0.6c0.2,0.1,0.3,0.2,0.3,0.5v0.6c0,0.2-0.2,0.4-0.7,0.4
			h-5.3c-0.3,0-0.4,0-0.5-0.1c-0.1-0.1-0.1-0.2-0.1-0.4v-0.4c0-0.2,0.1-0.4,0.3-0.4c0.2-0.1,0.4-0.2,0.5-0.3
			c0.1-0.1,0.1-0.4,0.1-0.7V139c0-0.3-0.2-0.4-0.5-0.6c-0.2-0.1-0.3-0.2-0.3-0.3v-0.6c0-0.2,0.1-0.3,0.4-0.3h4.9
			c0.2,0,0.3,0,0.4,0.1c0,0,0.1,0.1,0.1,0.3V138.7z"/>
		<path class="st0" d="M322.2,138.3v-0.7c0-0.2,0.2-0.4,0.6-0.4h4.8c0.3,0,0.5,0.1,0.5,0.4v12.5c0,0.2,0,0.3,0,0.3
			c0,0.1,0.1,0.1,0.3,0.1c0.3,0.1,0.5,0.3,0.5,0.7c0,0.4,0,0.6-0.1,0.7c0,0.1-0.2,0.1-0.5,0.1h-5.8c-0.1,0-0.2-0.1-0.3-0.1
			c0-0.1-0.1-0.3-0.1-0.6c0-0.4,0.1-0.6,0.4-0.7c0.3-0.1,0.5-0.2,0.5-0.4v-10.9c0-0.4-0.2-0.7-0.6-0.8
			C322.3,138.6,322.2,138.5,322.2,138.3 M326.3,134.1c1.1,0,1.7,0.3,1.7,0.8c0,0.4-0.4,0.8-1.1,1.1c-0.7,0.3-1.6,0.5-2.6,0.5
			c-1.2,0-1.8-0.3-1.8-0.9c0-0.5,0.4-0.8,1.3-1.1C324.7,134.2,325.5,134.1,326.3,134.1"/>
		<path class="st0" d="M337.9,138.2v-1.9c0-0.3-0.2-0.5-0.5-0.5c-0.2,0-0.3,0-0.4-0.1c-0.1-0.1-0.1-0.2-0.1-0.4v-0.4
			c0-0.2,0-0.3,0.1-0.3c0.1,0,0.2-0.1,0.5-0.1h4.7c0.3,0,0.4,0,0.5,0.1c0.1,0.1,0.1,0.2,0.1,0.4v15.1c0,0.3,0.2,0.5,0.7,0.6
			c0.2,0.1,0.4,0.2,0.4,0.3v0.6c0,0.2-0.1,0.4-0.4,0.4h-5.2c-0.2,0-0.3,0-0.3-0.1c0,0-0.1-0.2-0.1-0.6c0-0.1,0-0.2,0-0.3
			c-1.1,0.7-2.1,1.1-3,1.1c-3.1,0-4.7-2.3-4.7-7.1c0-3.3,0.4-5.5,1.3-6.6c0.8-1,1.9-1.6,3.3-1.6
			C335.7,137.1,336.8,137.4,337.9,138.2 M337.9,139.4c-0.5-0.2-0.8-0.3-1.1-0.3c-0.3,0-0.6,0.1-0.8,0.3c-0.2,0.2-0.3,0.5-0.3,0.8v9
			c0,0.3,0.1,0.5,0.3,0.7c0.2,0.2,0.4,0.3,0.7,0.3c0.3,0,0.5-0.1,0.8-0.3c0.3-0.2,0.4-0.3,0.4-0.5V139.4z"/>
		<path class="st0" d="M352.7,141.5v-2.1c0-0.6-0.3-0.9-1-0.9c-0.9,0-1.3,0.4-1.3,1.3c0,0.5-0.1,0.9-0.2,1.1c-0.2,0.2-0.5,0.4-1,0.5
			c-0.5,0.1-1.1,0.2-1.7,0.2c-1.3,0-1.9-0.5-1.9-1.5c0-0.9,0.5-1.7,1.6-2.3c1.1-0.6,2.5-0.9,4.3-0.9c1.2,0,2.2,0.1,3.1,0.3
			c0.9,0.2,1.7,0.6,2.2,1.2c0.6,0.6,0.8,1.2,0.8,1.8v9.9c0,0,0.2,0.2,0.4,0.3c0.2,0.1,0.3,0.3,0.3,0.5c0,0.3-0.1,0.5-0.2,0.6
			c-0.1,0.1-0.4,0.2-0.8,0.3c-0.4,0.1-0.9,0.2-1.6,0.2c-0.8,0-1.4-0.1-1.9-0.3c-0.5-0.2-0.9-0.6-1.2-1.2c-0.9,0.7-1.6,1.1-2.1,1.3
			c-0.5,0.2-1.1,0.3-1.7,0.3c-1.3,0-2.2-0.4-2.9-1.1c-0.7-0.7-1-1.9-1-3.5c0-1.6,0.3-2.8,1-3.4c0.6-0.6,1.9-1.2,3.8-1.8
			C350.9,142.1,351.9,141.8,352.7,141.5 M352.7,143c-1.1,0.4-1.8,0.8-2,1.2c-0.2,0.5-0.3,1.5-0.3,3.1c0,1.2,0.1,1.9,0.3,2.2
			c0.2,0.3,0.5,0.5,0.9,0.5c0.8,0,1.1-0.5,1.1-1.4V143z"/>
		<path class="st0" d="M367.4,138.2v-1.9c0-0.3-0.2-0.5-0.5-0.5c-0.2,0-0.3,0-0.4-0.1c-0.1-0.1-0.1-0.2-0.1-0.4v-0.4
			c0-0.2,0-0.3,0.1-0.3c0.1,0,0.2-0.1,0.5-0.1h4.7c0.3,0,0.4,0,0.5,0.1c0.1,0.1,0.1,0.2,0.1,0.4v15.1c0,0.3,0.2,0.5,0.7,0.6
			c0.2,0.1,0.4,0.2,0.4,0.3v0.6c0,0.2-0.1,0.4-0.4,0.4h-5.2c-0.2,0-0.3,0-0.3-0.1c0,0-0.1-0.2-0.1-0.6c0-0.1,0-0.2,0-0.3
			c-1.1,0.7-2.1,1.1-3,1.1c-3.1,0-4.7-2.3-4.7-7.1c0-3.3,0.4-5.5,1.3-6.6c0.8-1,1.9-1.6,3.3-1.6
			C365.3,137.1,366.3,137.4,367.4,138.2 M367.4,139.4c-0.5-0.2-0.8-0.3-1.1-0.3c-0.3,0-0.6,0.1-0.8,0.3c-0.2,0.2-0.3,0.5-0.3,0.8v9
			c0,0.3,0.1,0.5,0.3,0.7c0.2,0.2,0.4,0.3,0.7,0.3c0.3,0,0.5-0.1,0.8-0.3c0.3-0.2,0.4-0.3,0.4-0.5V139.4z"/>
	</g>
</g>
</svg>
