<svg id="Capa_1" data-name="Capa 1" xmlns="http://www.w3.org/2000/svg" xmlns:xlink="http://www.w3.org/1999/xlink" viewBox="0 0 2350.42 1904.22"><defs><style>.cls-1{fill:#043284;}.cls-2{fill:#00aeef;}.cls-3{fill:#0097db;}.cls-4{fill:#fff;}.cls-5{fill:#e00c7d;}.cls-6{fill:url(#Degradado_sin_nombre_5);}.cls-7,.cls-8,.cls-9{fill:none;stroke-width:1.25px;}.cls-11,.cls-12,.cls-7,.cls-8,.cls-9{stroke-miterlimit:10;}.cls-7{stroke:url(#Degradado_sin_nombre_5-2);}.cls-8{stroke-dasharray:24.08 24.08;stroke:url(#Degradado_sin_nombre_5-3);}.cls-9{stroke:url(#Degradado_sin_nombre_5-4);}.cls-10{fill:url(#Degradado_sin_nombre_5-5);}.cls-11,.cls-12{fill:#105b83;stroke:#105b83;}.cls-11{stroke-width:2px;}.cls-12{stroke-width:1.27px;}.cls-13{fill:#006db7;}</style><linearGradient id="Degradado_sin_nombre_5" x1="2144.46" y1="-1294.84" x2="2290.51" y2="-1294.84" gradientTransform="matrix(1, 0, 0, -1, 0, 586)" gradientUnits="userSpaceOnUse"><stop offset="0" stop-color="#125dff"/><stop offset="1" stop-color="#22caef"/></linearGradient><linearGradient id="Degradado_sin_nombre_5-2" x1="1991.8" y1="-1182.47" x2="2329.03" y2="-1186.59" gradientTransform="matrix(1, 0, 0, -1, -27.66, 571.7)" xlink:href="#Degradado_sin_nombre_5"/><linearGradient id="Degradado_sin_nombre_5-3" x1="1991.44" y1="-1211.76" x2="2328.67" y2="-1215.88" xlink:href="#Degradado_sin_nombre_5"/><linearGradient id="Degradado_sin_nombre_5-4" x1="1990.86" y1="-1258.99" x2="2328.09" y2="-1263.12" xlink:href="#Degradado_sin_nombre_5"/><linearGradient id="Degradado_sin_nombre_5-5" x1="2065.58" y1="-1304.57" x2="2378.08" y2="-1304.57" gradientTransform="matrix(1, 0, 0, -1, -27.66, 571.7)" xlink:href="#Degradado_sin_nombre_5"/></defs><title>mapa_arte_movil</title><path class="cls-1" d="M62.36,184.88H62.28a43.41,43.41,0,0,1-5.07-2,0.8,0.8,0,0,1,.67-1.46,42.6,42.6,0,0,0,4.89,1.9,0.8,0.8,0,0,1-.41,1.54v0Zm-10.61-5a1,1,0,0,1-.26-0.11,49.4,49.4,0,0,1-4.39-3.2,0.8,0.8,0,0,1,.92-1.31l0.09,0.07a47.42,47.42,0,0,0,4.24,3.09,0.81,0.81,0,0,1,.25,1.11A0.84,0.84,0,0,1,51.75,179.87Zm-9-7.52a0.78,0.78,0,0,1-.41-0.23c-1.23-1.3-2.42-2.74-3.52-4.13a0.8,0.8,0,0,1,1.28-1h0a49.63,49.63,0,0,0,3.41,4,0.8,0.8,0,0,1,0,1.13h0A0.78,0.78,0,0,1,42.75,172.35ZM35.69,163a0.83,0.83,0,0,1-.51-0.37,52.38,52.38,0,0,1-2.53-4.81,0.78,0.78,0,0,1,.36-1h0a0.79,0.79,0,0,1,1.06.37h0c0.74,1.59,1.57,3.16,2.45,4.66a0.8,0.8,0,0,1-.28,1.1h0A0.91,0.91,0,0,1,35.69,163Zm-4.84-10.7a0.8,0.8,0,0,1-.59-0.53,53.7,53.7,0,0,1-1.41-5.24,0.79,0.79,0,0,1,.61-0.91,0.81,0.81,0,0,1,1,.61,50.43,50.43,0,0,0,1.38,5.08,0.8,0.8,0,0,1-.52,1h0A0.73,0.73,0,0,1,30.85,152.27Zm-2.38-11.5a0.79,0.79,0,0,1-.63-0.71,47.16,47.16,0,0,1-.16-5.47,0.8,0.8,0,0,1,1.6,0,48.26,48.26,0,0,0,.16,5.25,0.8,0.8,0,0,1-.73.87A0.67,0.67,0,0,1,28.47,140.77Zm0.47-11.72a0.79,0.79,0,0,1-.61-0.91c0.12-.73.26-1.46,0.43-2.19,0.23-1,.5-2.09.81-3.11a0.83,0.83,0,0,1,1-.54,0.81,0.81,0,0,1,.54,1c-0.3,1-.57,2-0.79,3q-0.24,1-.41,2.11a0.8,0.8,0,0,1-.91.66H28.93Zm3.53-11.18-0.16-.05a0.8,0.8,0,0,1-.38-1.07A45.77,45.77,0,0,1,34.55,112a0.82,0.82,0,0,1,1.11-.26,0.81,0.81,0,0,1,.25,1.11,45.13,45.13,0,0,0-2.52,4.56,0.8,0.8,0,0,1-.9.48h0Zm58.41,8.36h0a18,18,0,0,1-5.16-2.12,0.8,0.8,0,0,1,.84-1.37,16,16,0,0,0,4.7,1.93,0.8,0.8,0,0,1-.36,1.56h0Zm6.38,0.43a0.8,0.8,0,0,1,.09-1.59,17,17,0,0,0,5-1.25,0.8,0.8,0,1,1,.63,1.48h0a18.57,18.57,0,0,1-5.4,1.37,0.79,0.79,0,0,1-.29,0h0Zm-15.9-6.82a0.85,0.85,0,0,1-.47-0.31,20.16,20.16,0,0,1-2.59-4.91,0.79,0.79,0,0,1,.46-1h0a0.81,0.81,0,0,1,1,.47,18.39,18.39,0,0,0,2.39,4.56,0.8,0.8,0,0,1-.18,1.12h0A0.79,0.79,0,0,1,81.36,119.84ZM38.85,108a0.78,0.78,0,0,1-.34-0.16,0.8,0.8,0,0,1-.11-1.13h0a50.57,50.57,0,0,1,3.69-4,0.8,0.8,0,1,1,1.12,1.15h0a49.17,49.17,0,0,0-3.58,3.86,0.78,0.78,0,0,1-.81.28Zm68.79,13.68a0.83,0.83,0,0,1-.36-0.18,0.8,0.8,0,0,1-.07-1.13,11.76,11.76,0,0,0,1.82-2.8,12.25,12.25,0,0,0,.6-1.54,0.79,0.79,0,0,1,1-.53h0a0.8,0.8,0,0,1,.52,1,14.26,14.26,0,0,1-.68,1.73,13,13,0,0,1-2.08,3.18,0.79,0.79,0,0,1-.79.25h0ZM77.55,108.9a0.8,0.8,0,0,1-.63-0.72,26.61,26.61,0,0,1,.22-5.47A0.79,0.79,0,0,1,78,102h0a0.82,0.82,0,0,1,.68.91,24,24,0,0,0-.2,5.17,0.79,0.79,0,0,1-.74.85h0a0.65,0.65,0,0,1-.26-0.09Zm-30.22-9a0.91,0.91,0,0,1-.47-0.3A0.8,0.8,0,0,1,47,98.5a54,54,0,0,1,4.49-3.06,0.8,0.8,0,0,1,.83,1.38,50.63,50.63,0,0,0-4.35,3A0.84,0.84,0,0,1,47.33,99.92Zm63.5,10.76a0.79,0.79,0,0,1-.62-0.7A18.15,18.15,0,0,0,109,105a0.8,0.8,0,1,1,1.49-.61,20,20,0,0,1,1.36,5.39,0.81,0.81,0,0,1-.7.91h0A0.78,0.78,0,0,1,110.83,110.69ZM57.41,93.91a0.82,0.82,0,0,1-.55-0.46,0.79,0.79,0,0,1,.38-1.05h0c1.64-.75,3.34-1.42,5-2a0.8,0.8,0,0,1,.52,1.51,52.63,52.63,0,0,0-4.9,2A0.82,0.82,0,0,1,57.41,93.91Zm22,3.47H79.29a0.8,0.8,0,0,1-.44-1h0a25.25,25.25,0,0,1,1.89-3.65c0.25-.39.5-0.78,0.77-1.16a0.8,0.8,0,0,1,1.39.8l-0.08.12c-0.25.36-.48,0.73-0.72,1.09A24.38,24.38,0,0,0,80.34,97,0.8,0.8,0,0,1,79.43,97.38Zm26.77,2.74a0.77,0.77,0,0,1-.43-0.26A23.64,23.64,0,0,0,102,96.33,0.8,0.8,0,0,1,103,95a24.81,24.81,0,0,1,4,3.77,0.8,0.8,0,0,1-.08,1.13A0.86,0.86,0,0,1,106.2,100.12Zm-37.6-9.88a0.8,0.8,0,0,1,0-1.57A52.4,52.4,0,0,1,74,87.85a0.8,0.8,0,0,1,.91.68v0a0.78,0.78,0,0,1-.64.9H74.16a48.76,48.76,0,0,0-5.2.8A0.84,0.84,0,0,1,68.59,90.24Zm28.27,2.91-0.17-.05a38.19,38.19,0,0,0-4.88-1.9,0.8,0.8,0,0,1,.48-1.53,42.86,42.86,0,0,1,5.08,2A0.8,0.8,0,0,1,96.87,93.15ZM80.26,89.23a0.8,0.8,0,0,1,.19-1.59,46.17,46.17,0,0,1,5.42.53,0.78,0.78,0,0,1,.67.87v0a0.8,0.8,0,0,1-.91.67,44.69,44.69,0,0,0-5.17-.5Zm5.94-1.38a0.76,0.76,0,0,1-.41-0.24,0.8,0.8,0,0,1,0-1.13,35.24,35.24,0,0,1,4.29-3.39,0.8,0.8,0,0,1,1.11.22,0.79,0.79,0,0,1-.2,1.1h0a33,33,0,0,0-4.09,3.24A0.81,0.81,0,0,1,86.2,87.86ZM96,81.47A0.82,0.82,0,0,1,95.42,81,0.79,0.79,0,0,1,95.81,80h0a45.8,45.8,0,0,1,5.08-2,0.8,0.8,0,0,1,1,.52,0.79,0.79,0,0,1-.47,1,43.07,43.07,0,0,0-4.89,1.9,0.83,0.83,0,0,1-.58.05ZM107.19,78a0.8,0.8,0,0,1,0-1.57c1.71-.31,3.52-0.56,5.36-0.73a0.8,0.8,0,0,1,.16,1.6c-1.82.16-3.57,0.41-5.23,0.71a0.75,0.75,0,0,1-.29-0.05v0Zm11.7-1a0.8,0.8,0,0,1,.16-1.59c1.72,0,3.48,0,5.39.09a0.8,0.8,0,1,1-.07,1.61c-1.82-.08-3.65-0.11-5.3-0.09Zm11.75,0.48a0.8,0.8,0,0,1,.24-1.58c1.82,0.14,3.57.3,5.34,0.47a0.8,0.8,0,0,1-.16,1.6q-2.65-.26-5.32-0.47Z" transform="translate(-27.66 -14.3)"/><path class="cls-1" d="M419.3,38.75a0.71,0.71,0,0,0-.72.67v1.12a17.27,17.27,0,0,0,.46,3.65,0.69,0.69,0,0,0,.84.51h0a0.7,0.7,0,0,0,.51-0.84,16.72,16.72,0,0,1-.42-4.39,0.69,0.69,0,0,0-.66-0.73h0Z" transform="translate(-27.66 -14.3)"/><path class="cls-1" d="M378.58,21.74c-0.67.5-1.33,1-2,1.61s-1.08,1-1.59,1.51a0.74,0.74,0,0,0-.19.5,0.69,0.69,0,0,0,1.19.46c0.49-.5,1-1,1.5-1.44s1.23-1,1.87-1.53a0.69,0.69,0,1,0-.73-1.18l-0.1.07h0Z" transform="translate(-27.66 -14.3)"/><path class="cls-1" d="M422.66,48.49a0.68,0.68,0,0,0-1-.08h0a0.66,0.66,0,0,0-.24.54,0.63,0.63,0,0,0,.16.43,9.83,9.83,0,0,0,4,2.79,0.7,0.7,0,0,0,.91-0.4h0a0.69,0.69,0,0,0-.38-0.9h0A8.7,8.7,0,0,1,422.66,48.49Z" transform="translate(-27.66 -14.3)"/><path class="cls-1" d="M387.71,16.92a34.47,34.47,0,0,0-4.33,1.82,0.69,0.69,0,0,0-.38.64,0.66,0.66,0,0,0,.07.29,0.69,0.69,0,0,0,.91.3,33.61,33.61,0,0,1,4.16-1.75,0.69,0.69,0,1,0-.45-1.31h0Z" transform="translate(-27.66 -14.3)"/><path class="cls-1" d="M397.83,15a34.66,34.66,0,0,0-4.67.51,0.68,0.68,0,0,0-.57.69v0.1a0.69,0.69,0,0,0,.8.57h0a37,37,0,0,1,4.5-.49,0.68,0.68,0,0,0,.66-0.7h0a0.68,0.68,0,0,0-.69-0.68h0Z" transform="translate(-27.66 -14.3)"/><path class="cls-1" d="M417,21a0.69,0.69,0,1,0,.74-1.17l-0.07,0a39,39,0,0,0-4.22-2,0.69,0.69,0,0,0-.91.37h0a0.73,0.73,0,0,0-.05.27,0.69,0.69,0,0,0,.43.62A39,39,0,0,1,417,21Z" transform="translate(-27.66 -14.3)"/><path class="cls-1" d="M465.2,22.27a0.7,0.7,0,0,0,1-.14,0.68,0.68,0,0,0-.13-1h0a36.83,36.83,0,0,0-3.93-2.57,0.68,0.68,0,0,0-.91.26,0.71,0.71,0,0,0-.09.36,0.68,0.68,0,0,0,.36.58A36.28,36.28,0,0,1,465.2,22.27Z" transform="translate(-27.66 -14.3)"/><path class="cls-1" d="M472.27,29.24a0.69,0.69,0,0,0,1.14-.79l0-.05a39,39,0,0,0-3.08-3.53,0.69,0.69,0,0,0-1,0,0.67,0.67,0,0,0-.21.51,0.67,0.67,0,0,0,.2.47A37.55,37.55,0,0,1,472.27,29.24Z" transform="translate(-27.66 -14.3)"/><path class="cls-1" d="M368.49,54.14a0.7,0.7,0,0,0,.47-0.88v0c-0.06-.2-0.12-0.4-0.17-0.59a25.13,25.13,0,0,1-.74-3.79,0.69,0.69,0,0,0-1.38.09V49a26.91,26.91,0,0,0,.78,4c0.05,0.2.12,0.41,0.18,0.62a0.69,0.69,0,0,0,.86.47h0Z" transform="translate(-27.66 -14.3)"/><path class="cls-1" d="M370.47,34A30.1,30.1,0,0,1,372.65,30a0.69,0.69,0,1,0-1.11-.83l0,0.07a31.21,31.21,0,0,0-2.28,4.12,0.72,0.72,0,0,0,.35.91A0.69,0.69,0,0,0,370.47,34Z" transform="translate(-27.66 -14.3)"/><path class="cls-1" d="M373.29,63a0.69,0.69,0,0,0,.15-1,31,31,0,0,1-2.42-3.8,0.69,0.69,0,0,0-1.3.35,0.66,0.66,0,0,0,.08.31,33,33,0,0,0,2.49,4,0.68,0.68,0,0,0,.95.19Z" transform="translate(-27.66 -14.3)"/><path class="cls-1" d="M368,43.51a28.48,28.48,0,0,1,.75-4.43,0.69,0.69,0,0,0-1.34-.34,30.21,30.21,0,0,0-.78,4.65,0.17,0.17,0,0,0,0,.07,0.69,0.69,0,0,0,1.39,0v0Z" transform="translate(-27.66 -14.3)"/><path class="cls-1" d="M481,52.18a0.7,0.7,0,0,0-.67.71,41.34,41.34,0,0,1-.14,4.56v0.07a0.69,0.69,0,0,0,1.38,0,44.32,44.32,0,0,0,.14-4.68,0.68,0.68,0,0,0-.7-0.67h0Z" transform="translate(-27.66 -14.3)"/><path class="cls-1" d="M447.53,15a0.67,0.67,0,0,0-.65-0.7h-1.46a27,27,0,0,0-3.29.32,0.7,0.7,0,0,0-.58.7v0.09a0.69,0.69,0,0,0,.79.57,26,26,0,0,1,3.12-.3h1.36A0.7,0.7,0,0,0,447.53,15Z" transform="translate(-27.66 -14.3)"/><path class="cls-1" d="M479.4,62.79a38.2,38.2,0,0,1-1.19,4.37,0.75,0.75,0,0,0,0,.24,0.69,0.69,0,0,0,.47.64,0.68,0.68,0,0,0,.89-0.38l0-.06A42.92,42.92,0,0,0,480.84,63a0.7,0.7,0,0,0-.54-0.82A0.69,0.69,0,0,0,479.4,62.79Z" transform="translate(-27.66 -14.3)"/><path class="cls-1" d="M436.66,16.08a30.19,30.19,0,0,0-4.26,2,0.72,0.72,0,0,0-.36.62,0.84,0.84,0,0,0,.09.33,0.69,0.69,0,0,0,.91.26,27.53,27.53,0,0,1,4.07-1.92,0.7,0.7,0,0,0,.4-0.91h0A0.69,0.69,0,0,0,436.66,16.08Z" transform="translate(-27.66 -14.3)"/><path class="cls-1" d="M457.4,17.12a0.68,0.68,0,0,0-.37-0.9l0,0a32.6,32.6,0,0,0-4.56-1.3,0.7,0.7,0,0,0-.82.54,0.91,0.91,0,0,0,0,.16,0.69,0.69,0,0,0,.55.67,29.9,29.9,0,0,1,4.33,1.24,0.69,0.69,0,0,0,.91-0.38v0Z" transform="translate(-27.66 -14.3)"/><path class="cls-1" d="M475.51,32.84a0.69,0.69,0,0,0-.36.63,0.63,0.63,0,0,0,.08.31l0.25,0.47c0.62,1.18,1.19,2.4,1.71,3.65a0.69,0.69,0,0,0,1.28-.53c-0.53-1.27-1.11-2.53-1.75-3.74-0.09-.16-0.18-0.33-0.26-0.49A0.7,0.7,0,0,0,475.51,32.84Z" transform="translate(-27.66 -14.3)"/><path class="cls-1" d="M479.41,42.18a0.69,0.69,0,0,0-.51.68,0.52,0.52,0,0,0,0,.16,40.63,40.63,0,0,1,.91,4.43,0.69,0.69,0,0,0,.78.58,0.7,0.7,0,0,0,.58-0.79,43,43,0,0,0-1-4.56A0.68,0.68,0,0,0,479.41,42.18Z" transform="translate(-27.66 -14.3)"/><path class="cls-1" d="M407.16,15.81a35.57,35.57,0,0,0-3.7-.61,0.68,0.68,0,0,0-.76.6h0a0.31,0.31,0,0,0,0,.09,0.7,0.7,0,0,0,.62.67,32.69,32.69,0,0,1,3.55.58c0.3,0.06.6,0.13,0.91,0.21a0.69,0.69,0,0,0,.33-1.35h0Z" transform="translate(-27.66 -14.3)"/><path class="cls-1" d="M420.84,34.2a22.65,22.65,0,0,1,1.68-4.14,0.67,0.67,0,0,0-.29-0.91h0a0.68,0.68,0,0,0-.91.29,24.21,24.21,0,0,0-1.82,4.39,0.91,0.91,0,0,0,0,.21,0.69,0.69,0,0,0,1.36.18v0Z" transform="translate(-27.66 -14.3)"/><path class="cls-1" d="M435,48a0.7,0.7,0,0,0-.91.26,6.22,6.22,0,0,1-2.2,2.28,4.76,4.76,0,0,1-.84.41,0.71,0.71,0,0,0-.45.67,0.72,0.72,0,0,0,.78.65l0.13,0a7.48,7.48,0,0,0,1-.52A7.62,7.62,0,0,0,435.3,49a0.7,0.7,0,0,0-.23-1Z" transform="translate(-27.66 -14.3)"/><path class="cls-1" d="M427.78,21.35a28.91,28.91,0,0,0-3.21,3.22c-0.71-.6-1.43-1.18-2.17-1.72a0.7,0.7,0,0,0-1,.15,0.73,0.73,0,0,0-.14.43,0.7,0.7,0,0,0,.28.54,43.77,43.77,0,0,1,3.49,2.89,0.69,0.69,0,0,0,.91-1l-0.39-.36a28,28,0,0,1,3.07-3.08,0.7,0.7,0,0,0,.07-1A0.69,0.69,0,0,0,427.78,21.35Z" transform="translate(-27.66 -14.3)"/><path class="cls-1" d="M428.9,29.81a0.69,0.69,0,0,0-.08,1v0a41.86,41.86,0,0,1,2.74,3.65,0.7,0.7,0,0,0,1,.18,0.68,0.68,0,0,0,.18-0.91A45,45,0,0,0,429.89,30a0.69,0.69,0,0,0-1-.21Z" transform="translate(-27.66 -14.3)"/><path class="cls-1" d="M434.56,38.2a0.68,0.68,0,0,0-.43.66,0.6,0.6,0,0,0,.05.25,13.16,13.16,0,0,1,1,4v0.19a0.68,0.68,0,0,0,.72.65h0a0.66,0.66,0,0,0,.65-0.73V43a14.5,14.5,0,0,0-1.12-4.46,0.69,0.69,0,0,0-.9-0.38h0Z" transform="translate(-27.66 -14.3)"/><path class="cls-2" d="M190.42,106.15c-1.74-2-2.39-4.67-2.39-7.93a36.35,36.35,0,0,1,1.41-9.46c1.09-4.13,2-8,2-10.76a11.08,11.08,0,0,0-.22-2.17,2.37,2.37,0,0,0-.21-0.55c-0.11-.11-0.11,0-0.22.11a8.72,8.72,0,0,0-1.63,1.09,32.45,32.45,0,0,0-4.35,4.35c-2.94,3.58-6,7.93-7.93,10.87-1.3,2-2.06,3.26-2.06,3.26l-0.11.11a2.88,2.88,0,0,1-3.8.77,2.74,2.74,0,0,1-.77-3.79h0l0.33-.66a19.48,19.48,0,0,0,1.74-8.26,6,6,0,0,0-.44-2.94,1.56,1.56,0,0,0-.44.22,9.18,9.18,0,0,0-1.62,1,37.45,37.45,0,0,0-4.46,4.15C162,88.9,158.82,93,156.72,95.75c-1.41,1.82-2.17,3-2.17,3a2.81,2.81,0,0,1-5-2.35l6.59-22.68a2.85,2.85,0,0,1,3.47-1.82,2.74,2.74,0,0,1,1.85,3.4l0,0.07-2.5,8.7a54.34,54.34,0,0,1,5.54-5.65c2.4-2,4.35-3.65,7.4-3.8h0.33a5.38,5.38,0,0,1,4.56,3.47,8.34,8.34,0,0,1,.77,2.83,70.09,70.09,0,0,1,6.3-7.3c2.28-2.06,4.35-3.91,7.39-4a4.91,4.91,0,0,1,3.48,1.52,6.46,6.46,0,0,1,1.74,3.26,13.76,13.76,0,0,1,.43,3.58c0,3.8-1,7.93-2.06,12.18a28.57,28.57,0,0,0-1.28,8c0,2.39.54,3.8,1.09,4.46a2.85,2.85,0,0,0,2.5,1c2,0,5.22-1.09,8.7-3.26a62.36,62.36,0,0,0,11.43-9.67c2.83-3.16,5.11-6,6.74-8,5.22-6.09,6.74-4.13,6.74-4.13a2.64,2.64,0,0,1,.76,3.91s-4.13,5.47-10.21,12a64.2,64.2,0,0,1-12.5,10.65c-4,2.5-7.93,4.17-11.58,4.17h-0.11A8.36,8.36,0,0,1,190.42,106.15Z" transform="translate(-27.66 -14.3)"/><path class="cls-2" d="M221.07,99.74a7.07,7.07,0,0,1-1-3.8c0.11-4.56,2.61-10.44,6.63-15.66s9.79-9.78,17-9.89a17.25,17.25,0,0,1,7.39,1.82,2.74,2.74,0,0,1-1.3,5.22,3.1,3.1,0,0,1,.22,1.74l-0.11.33c0,0.33-.11.91-0.11,1.41A12.46,12.46,0,0,0,251,86.15a9.63,9.63,0,0,0,5.54,4.46,9,9,0,0,0,2.61.32c3.48,0.11,8.59-1.62,13.37-3.91a90.87,90.87,0,0,0,12-6.74l3-2a2.77,2.77,0,1,1,3.16,4.56h0a124.12,124.12,0,0,1-10.94,6.74c-6.23,3.37-13.84,6.84-20.57,6.84a15.4,15.4,0,0,1-4.47-.64,14.53,14.53,0,0,1-8.59-7.18A10,10,0,0,1,245,85.82a101.89,101.89,0,0,1-10.22,10.76c-3.8,3.37-6.52,5.11-9.56,5.22H225A4.89,4.89,0,0,1,221.07,99.74Zm10-16.09c-3.47,4.35-5.54,9.89-5.47,12.28v0.21c0.91-.21,2.94-1.3,5.54-3.69A126.29,126.29,0,0,0,245.09,77a1.45,1.45,0,0,1,.76-0.66,8.39,8.39,0,0,0-2.17-.32h-0.11c-4.43,0-9,3.22-12.5,7.72Z" transform="translate(-27.66 -14.3)"/><path class="cls-2" d="M274.87,159.85a2.83,2.83,0,0,1-2.06-3.37c5.33-21.41,14.46-76,15.65-84.89a2.8,2.8,0,0,1,5.54.76c-0.22,1.52-.66,4.24-1.3,7.82a89.13,89.13,0,0,1,6.52-8c3.58-3.8,6.3-5.75,9.68-6a5.54,5.54,0,0,1,4.78,3,10.94,10.94,0,0,1,1.09,5.33,33.08,33.08,0,0,1-2.28,11.08,35,35,0,0,0,3.58.22c5.76,0,14-1.82,24.68-7.3a3,3,0,0,1,3.8,1.19,2.9,2.9,0,0,1-1.3,3.8C332,89.18,323,91.35,316.06,91.35a27.47,27.47,0,0,1-6.19-.65c-2.83,4.67-7,8.8-12.83,8.91a13.32,13.32,0,0,1-7.17-2.28c-3.48,20.06-8.26,46.74-11.74,60.43a2.67,2.67,0,0,1-2.61,2.18C275.31,160,275.09,159.85,274.87,159.85ZM297,94.09c2.51,0.11,5.23-1.82,7.51-5.22h-0.77a13.51,13.51,0,0,0-6.84,2.28,14.59,14.59,0,0,0-2.74,2.29A5.65,5.65,0,0,0,297,94.09Zm6.2-18.15a93.09,93.09,0,0,0-7.4,9.46,17.14,17.14,0,0,1,7.93-2.07,11.86,11.86,0,0,1,3.37.44,27,27,0,0,0,2.06-9.24,8.66,8.66,0,0,0-.43-2.83c-0.55.15-2.72,1.06-5.54,4.24h0Z" transform="translate(-27.66 -14.3)"/><path class="cls-2" d="M333.68,99.74a7.06,7.06,0,0,1-1-3.8c0.1-4.56,2.61-10.44,6.63-15.66s9.78-9.78,17-9.89a17.25,17.25,0,0,1,7.39,1.82,2.74,2.74,0,0,1-1.3,5.22,3.1,3.1,0,0,1,.22,1.74l-0.11.33c0,0.33-.11.91-0.11,1.41a12.46,12.46,0,0,0,1.19,5.22,9.63,9.63,0,0,0,5.54,4.46,9,9,0,0,0,2.61.32c3.48,0.11,8.59-1.62,13.37-3.91a90.87,90.87,0,0,0,12-6.74l3-2a2.77,2.77,0,1,1,3.16,4.56h0a124.12,124.12,0,0,1-10.94,6.74c-6.23,3.39-13.84,6.86-20.58,6.86a15.4,15.4,0,0,1-4.45-.65,14.53,14.53,0,0,1-8.59-7.18,10,10,0,0,1-1.09-2.83,102.91,102.91,0,0,1-10.21,10.76c-3.81,3.37-6.53,5.11-9.57,5.22h-0.17A4.89,4.89,0,0,1,333.68,99.74Zm10-16.09c-3.47,4.35-5.54,9.89-5.47,12.28v0.21c0.91-.21,2.94-1.3,5.54-3.69A126.29,126.29,0,0,0,357.7,77a1.45,1.45,0,0,1,.76-0.66,8.39,8.39,0,0,0-2.17-.32h-0.11c-4.46,0-9,3.22-12.5,7.72Z" transform="translate(-27.66 -14.3)"/><rect class="cls-3" x="100.92" y="92.97" width="26.29" height="63.82" rx="7.5" ry="7.5"/><path class="cls-3" d="M136.08,163.59V114.76h11.31v48.83H136.08Z" transform="translate(-27.66 -14.3)"/><path class="cls-3" d="M185.67,171.09a7.5,7.5,0,0,1-7.49-7.5V143.78a9.22,9.22,0,0,0-.09-1.37h0a2.42,2.42,0,0,0-1.11.2l-0.07.14a5.32,5.32,0,0,0-.32,2.28v18.56a7.5,7.5,0,0,1-7.5,7.5h-10.9a7.5,7.5,0,0,1-7.51-7.48V126.06a7.5,7.5,0,0,1,7.5-7.5h10.4a7.47,7.47,0,0,1,3.57.91A26.45,26.45,0,0,1,181,118a24.93,24.93,0,0,1,11.36,2.58,20.29,20.29,0,0,1,8.73,8.51,26.68,26.68,0,0,1,3,13v21.52a7.5,7.5,0,0,1-7.49,7.5H185.67Z" transform="translate(-27.66 -14.3)"/><path class="cls-3" d="M181,125.51a17.51,17.51,0,0,1,8,1.78,13,13,0,0,1,5.54,5.47,19.28,19.28,0,0,1,2,9.31v21.52H185.67V143.78c0-3-.66-5.25-2-6.7a7.23,7.23,0,0,0-5.61-2.16,9.82,9.82,0,0,0-4.64,1.09,7.52,7.52,0,0,0-3.21,3.31,12.46,12.46,0,0,0-1.15,5.72v18.56H158.19V126.06h10.4v10.4l-2-3.15a13.94,13.94,0,0,1,5.79-5.78A17.86,17.86,0,0,1,181,125.51Z" transform="translate(-27.66 -14.3)"/><path class="cls-3" d="M221.74,171.64c-6.34,0-11.51-1.82-15.39-5.35-4.07-3.72-6.14-9-6.14-15.6v-8.12a7.51,7.51,0,0,1-5.78-7.3V126.9a7.51,7.51,0,0,1,5.78-7.3v-1.82a7.5,7.5,0,0,1,7.5-7.5h10.88a7.5,7.5,0,0,1,7.5,7.5h0v1.64h1.82a7.5,7.5,0,0,1,7.5,7.5h0v8.37a7.5,7.5,0,0,1-7.5,7.49h-1.82v4a7.66,7.66,0,0,1,1.58-.16,7.5,7.5,0,0,1,7,4.82l2.94,7.68a7.5,7.5,0,0,1-2.67,8.78,19.15,19.15,0,0,1-6.5,2.94A27.17,27.17,0,0,1,221.74,171.64Z" transform="translate(-27.66 -14.3)"/><path class="cls-3" d="M201.92,135.27V126.9h26v8.37h-26Zm19.82,28.87q-6.64,0-10.32-3.38t-3.7-10.08V117.76h10.88v32.83a5,5,0,0,0,1.26,3.65,4.56,4.56,0,0,0,3.42,1.3,7,7,0,0,0,4.4-1.4l2.93,7.67a11.8,11.8,0,0,1-4,1.78A19.78,19.78,0,0,1,221.74,164.15Z" transform="translate(-27.66 -14.3)"/><path class="cls-3" d="M254.17,171.64a31.61,31.61,0,0,1-14.71-3.36A25.93,25.93,0,0,1,229,158.66a26.22,26.22,0,0,1-3.74-13.84A26.55,26.55,0,0,1,228.9,131a26.06,26.06,0,0,1,10-9.56,29.87,29.87,0,0,1,27.28-.19,25,25,0,0,1,10,9.5A27.61,27.61,0,0,1,279.83,145a15.22,15.22,0,0,1-.1,2.06l-0.15,1.61a7.48,7.48,0,0,1-3.47,5.6,7.51,7.51,0,0,1-.81,8.8,24.36,24.36,0,0,1-9.32,6.49A31.44,31.44,0,0,1,254.17,171.64Z" transform="translate(-27.66 -14.3)"/><path class="cls-3" d="M254.17,164.15a24.2,24.2,0,0,1-11.26-2.51,18.45,18.45,0,0,1-7.5-6.88,18.71,18.71,0,0,1-2.65-10,19.08,19.08,0,0,1,2.62-10,18.49,18.49,0,0,1,7.15-6.84,22.42,22.42,0,0,1,20.19-.14,17.56,17.56,0,0,1,7,6.69,20.18,20.18,0,0,1,2.58,10.43,9.91,9.91,0,0,1-.07,1.42c-0.07.51-.09,1-0.14,1.5H241.61v-6.38h24.77l-4.19,1.88a10.49,10.49,0,0,0-1.19-5.09,8.67,8.67,0,0,0-3.28-3.38,9.52,9.52,0,0,0-4.88-1.22,9.7,9.7,0,0,0-4.92,1.22,8.5,8.5,0,0,0-3.32,3.55,10.78,10.78,0,0,0-1.19,5.2v1.67a10.59,10.59,0,0,0,1.36,5.41,8.89,8.89,0,0,0,3.84,3.56,13.07,13.07,0,0,0,5.83,1.22,14.16,14.16,0,0,0,5.26-.91,12.77,12.77,0,0,0,4.15-2.74l5.79,6.28a17,17,0,0,1-6.48,4.5A24,24,0,0,1,254.17,164.15Z" transform="translate(-27.66 -14.3)"/><path class="cls-3" d="M279.56,171.09a7.5,7.5,0,0,1-7.5-7.5h0V126.06a7.5,7.5,0,0,1,7.5-7.5H290a7.47,7.47,0,0,1,3.65.91,27.81,27.81,0,0,1,9.28-1.49,7.49,7.49,0,0,1,7.49,7.49h0v10a7.49,7.49,0,0,1-7.48,7.5h0a6.67,6.67,0,0,1-.74,0l-1-.08h-0.7a2.89,2.89,0,0,0-2.13.55h0a5.69,5.69,0,0,0-.35,2.42v17.69a7.5,7.5,0,0,1-7.5,7.5H279.56Z" transform="translate(-27.66 -14.3)"/><path class="cls-3" d="M279.56,163.59V126.06H290v10.61l-1.47-3.07a12.07,12.07,0,0,1,5.37-6,18.29,18.29,0,0,1,9-2.05v10c-0.47,0-.91-0.08-1.26-0.1s-0.77,0-1.19,0a10.24,10.24,0,0,0-7.22,2.54c-1.82,1.7-2.74,4.34-2.74,7.92v17.69h-10.9Z" transform="translate(-27.66 -14.3)"/><path class="cls-3" d="M318.48,171.64a24.72,24.72,0,0,1-10.76-2.22,18.82,18.82,0,0,1-7.87-6.77,18.55,18.55,0,0,1,0-19.82,16,16,0,0,1,2.6-3.06l-3.23-6.29a7.5,7.5,0,0,1,2.34-9.56,31.38,31.38,0,0,1,9.73-4.45A41,41,0,0,1,322.07,118c7.52,0,13.68,2,18.19,5.84,4.9,4.18,7.38,10.34,7.38,18.33v21.4a7.5,7.5,0,0,1-7.5,7.5H329.92a7.48,7.48,0,0,1-3.16-.7A25.61,25.61,0,0,1,318.48,171.64Z" transform="translate(-27.66 -14.3)"/><path class="cls-3" d="M318.48,164.15a17.42,17.42,0,0,1-7.53-1.5,11.53,11.53,0,0,1-4.82-4.09,10.42,10.42,0,0,1-1.67-5.79,10.52,10.52,0,0,1,1.63-5.86,10.7,10.7,0,0,1,5.2-3.94,25.13,25.13,0,0,1,9.28-1.43h10v6.38h-8.79c-2.55,0-4.31.42-5.26,1.26a4,4,0,0,0-1.43,3.14,3.9,3.9,0,0,0,1.64,3.31,7.4,7.4,0,0,0,4.5,1.22,9.3,9.3,0,0,0,4.89-1.3,7.41,7.41,0,0,0,3.14-3.79l1.67,5a9.65,9.65,0,0,1-4.32,5.47A15.5,15.5,0,0,1,318.48,164.15Zm11.44-.56v-7.3l-0.69-1.61V141.55a7,7,0,0,0-2.12-5.47c-1.42-1.3-3.59-2-6.53-2a19.15,19.15,0,0,0-5.89.91,15.5,15.5,0,0,0-4.92,2.55l-3.9-7.61a23.55,23.55,0,0,1,7.39-3.35,33,33,0,0,1,8.79-1.19q8.58,0,13.32,4t4.74,12.63v21.47H329.92Z" transform="translate(-27.66 -14.3)"/><path class="cls-3" d="M368.36,171.64A30.51,30.51,0,0,1,354,168.31a26.45,26.45,0,0,1,0-47A30.53,30.53,0,0,1,368.33,118a28.21,28.21,0,0,1,14,3.44A22.57,22.57,0,0,1,392,132a7.51,7.51,0,0,1-3.25,9.71l-5.9,3.14,5.95,3.24a7.5,7.5,0,0,1,3.22,9.72,22.61,22.61,0,0,1-9.65,10.44A28.18,28.18,0,0,1,368.36,171.64Zm-0.07-29.71a2.6,2.6,0,0,0-1.35.29,1.53,1.53,0,0,0-.66.68,4.23,4.23,0,0,0-.37,1.9,4.18,4.18,0,0,0,.34,1.92,1.57,1.57,0,0,0,.66.69,2.6,2.6,0,0,0,1.35.29,2.24,2.24,0,0,0,1.14-.27,2.9,2.9,0,0,0,.69-0.91,7.55,7.55,0,0,1,1.3-1.71,7.3,7.3,0,0,1-1.19-1.61,2.92,2.92,0,0,0-.82-1,2,2,0,0,0-1.08-.24h0Z" transform="translate(-27.66 -14.3)"/><path class="cls-3" d="M368.36,164.15a22.93,22.93,0,0,1-10.82-2.48,18.58,18.58,0,0,1-7.43-6.87,18.91,18.91,0,0,1,6.07-26.05q0.66-.41,1.36-0.77a23,23,0,0,1,10.82-2.47A20.66,20.66,0,0,1,378.67,128a15.08,15.08,0,0,1,6.49,7.09l-8.45,4.56a9.84,9.84,0,0,0-3.65-3.91,9.56,9.56,0,0,0-4.78-1.25,10.14,10.14,0,0,0-5,1.22,9.07,9.07,0,0,0-3.52,3.57,12.66,12.66,0,0,0,0,11.15,9,9,0,0,0,3.52,3.56,10,10,0,0,0,5,1.26,9.73,9.73,0,0,0,4.78-1.22,9.46,9.46,0,0,0,3.65-3.94l8.45,4.61a15.1,15.1,0,0,1-6.49,7A20.57,20.57,0,0,1,368.36,164.15Z" transform="translate(-27.66 -14.3)"/><path class="cls-3" d="M407.35,171.64c-6.33,0-11.51-1.82-15.39-5.35-4.07-3.72-6.13-9-6.13-15.6v-8.12a7.5,7.5,0,0,1-5.79-7.3V126.9a7.51,7.51,0,0,1,5.79-7.3v-1.82a7.5,7.5,0,0,1,7.49-7.5h10.89a7.5,7.5,0,0,1,7.49,7.5v1.64h1.82a7.5,7.5,0,0,1,7.5,7.5h0v8.37a7.5,7.5,0,0,1-7.5,7.49H411.7v4a7.66,7.66,0,0,1,1.58-.16,7.35,7.35,0,0,1,2,.28,7.5,7.5,0,0,1,5,4.56l2.93,7.68a7.49,7.49,0,0,1-2.67,8.78,19.15,19.15,0,0,1-6.5,2.94A27.17,27.17,0,0,1,407.35,171.64Z" transform="translate(-27.66 -14.3)"/><path class="cls-3" d="M387.54,135.27V126.9h26v8.37h-26Zm19.81,28.87q-6.64,0-10.32-3.38t-3.7-10.08V117.76h10.89v32.83a5,5,0,0,0,1.25,3.65,4.56,4.56,0,0,0,3.42,1.3,7,7,0,0,0,4.4-1.4l2.93,7.67a11.8,11.8,0,0,1-4,1.78A19.78,19.78,0,0,1,407.35,164.15Z" transform="translate(-27.66 -14.3)"/><path class="cls-3" d="M427.78,120.83a6.89,6.89,0,0,1-4.89-1.74,5.91,5.91,0,0,1-.29-8.35l0.29-.29a6.89,6.89,0,0,1,4.89-1.74,7.2,7.2,0,0,1,4.88,1.63,5.34,5.34,0,0,1,1.89,4.22,6,6,0,0,1-1.82,4.5A6.79,6.79,0,0,1,427.78,120.83Zm-5.47,42.76V126.06h10.88v37.53H422.31Z" transform="translate(-27.66 -14.3)"/><path class="cls-3" d="M422.34,171.09a7.5,7.5,0,0,1-7.5-7.5h0V126.06a7.47,7.47,0,0,1,1-3.73,13.45,13.45,0,0,1,2-17.39,14.35,14.35,0,0,1,10-3.74,14.66,14.66,0,0,1,9.79,3.47,12.89,12.89,0,0,1,4.46,9.88,13.56,13.56,0,0,1-2.33,7.76,7.45,7.45,0,0,1,1,3.75v37.53a7.5,7.5,0,0,1-7.5,7.5H422.34Z" transform="translate(-27.66 -14.3)"/><path class="cls-3" d="M453.52,171.09a7.51,7.51,0,0,1-6.91-4.56L430.85,129a7.5,7.5,0,0,1,6.9-10.4H449a7.5,7.5,0,0,1,6.94,4.68l3.56,8.76,3.73-8.85a7.49,7.49,0,0,1,6.9-4.56h10.47a7.51,7.51,0,0,1,6.9,10.41L471.7,166.5a7.51,7.51,0,0,1-6.91,4.56Z" transform="translate(-27.66 -14.3)"/><path class="cls-3" d="M453.52,163.59l-15.77-37.53H449l13.11,32.29h-5.58l13.6-32.29h10.47l-15.84,37.53H453.52Z" transform="translate(-27.66 -14.3)"/><path class="cls-3" d="M501.86,171.64a29.43,29.43,0,0,1-14.2-3.42,26.56,26.56,0,0,1-10.14-9.53,27.36,27.36,0,0,1,0-27.81,26.37,26.37,0,0,1,10.18-9.52,31.48,31.48,0,0,1,28.27,0,26.54,26.54,0,0,1,0,46.89A29.62,29.62,0,0,1,501.86,171.64Zm0-29.71a2.1,2.1,0,0,0-1.11.24,1.74,1.74,0,0,0-.68.74,4.38,4.38,0,0,0-.33,1.92,4.24,4.24,0,0,0,.35,1.92,1.82,1.82,0,0,0,.66.74,2.17,2.17,0,0,0,1.12.24,2.13,2.13,0,0,0,1.12-.24,1.45,1.45,0,0,0,.57-0.66,4.47,4.47,0,0,0,.36-2,4.56,4.56,0,0,0-.34-2,1.56,1.56,0,0,0-.6-0.67,2.13,2.13,0,0,0-1.12-.24h0Z" transform="translate(-27.66 -14.3)"/><path class="cls-3" d="M501.86,164.15a22,22,0,0,1-10.63-2.51,19.15,19.15,0,0,1-7.3-6.88,19.83,19.83,0,0,1,0-19.95,18.83,18.83,0,0,1,7.3-6.84,24,24,0,0,1,21.24,0,19,19,0,0,1,0,33.66A22.11,22.11,0,0,1,501.86,164.15Zm0-8.93a9.57,9.57,0,0,0,4.89-1.26,8.83,8.83,0,0,0,3.41-3.59,12.9,12.9,0,0,0,0-11.12,8.93,8.93,0,0,0-3.41-3.57,10.17,10.17,0,0,0-9.77,0,9.22,9.22,0,0,0-3.46,3.57,12.66,12.66,0,0,0,0,11.12A9.12,9.12,0,0,0,497,154a9.51,9.51,0,0,0,4.88,1.26h0Z" transform="translate(-27.66 -14.3)"/><path class="cls-4" d="M136.08,164.57V115.74h11.3v48.83h-11.3Z" transform="translate(-27.66 -14.3)"/><path class="cls-4" d="M181,126.48a17.46,17.46,0,0,1,8,1.82,13,13,0,0,1,5.54,5.47,19.28,19.28,0,0,1,2,9.38v21.49H185.66V144.8q0-4.56-2-6.7a7.3,7.3,0,0,0-5.62-2.16,9.85,9.85,0,0,0-4.64,1.09,7.51,7.51,0,0,0-3.2,3.31,12.33,12.33,0,0,0-1.16,5.72v18.56H158.17V127h10.4v10.4l-2-3.15a13.88,13.88,0,0,1,5.79-5.78A17.82,17.82,0,0,1,181,126.48Z" transform="translate(-27.66 -14.3)"/><path class="cls-4" d="M201.91,136.25v-8.37h26v8.37h-26Zm19.81,28.87q-6.64,0-10.32-3.38t-3.69-10V118.78h10.88v32.78a5.06,5.06,0,0,0,1.25,3.65,4.56,4.56,0,0,0,3.42,1.3,7,7,0,0,0,4.4-1.4l2.93,7.67a11.8,11.8,0,0,1-4,1.78A19.73,19.73,0,0,1,221.72,165.12Z" transform="translate(-27.66 -14.3)"/><path class="cls-4" d="M254.15,165.12a24.2,24.2,0,0,1-11.26-2.51,18.24,18.24,0,0,1-10.13-16.82,19.08,19.08,0,0,1,2.62-10,18.55,18.55,0,0,1,7.15-6.84,22.42,22.42,0,0,1,20.19-.14,17.56,17.56,0,0,1,7,6.69,20.06,20.06,0,0,1,2.58,10.43,9.91,9.91,0,0,1-.07,1.42c-0.07.51-.09,1-0.14,1.5H241.6v-6.38h24.76l-4.19,1.88a10.39,10.39,0,0,0-1.15-5,8.67,8.67,0,0,0-3.28-3.38,9.52,9.52,0,0,0-4.88-1.22,9.7,9.7,0,0,0-4.92,1.22,8.42,8.42,0,0,0-3.34,3.38,10.75,10.75,0,0,0-1.19,5.2v1.67a10.5,10.5,0,0,0,1.36,5.41,8.82,8.82,0,0,0,3.83,3.56,13.07,13.07,0,0,0,5.83,1.22,13.94,13.94,0,0,0,5.26-.91,12.77,12.77,0,0,0,4.16-2.74l5.78,6.28a16.82,16.82,0,0,1-6.48,4.5A24,24,0,0,1,254.15,165.12Z" transform="translate(-27.66 -14.3)"/><path class="cls-4" d="M279.54,164.57V127h10.4v10.6l-1.47-3.06a12.11,12.11,0,0,1,5.37-6,18.32,18.32,0,0,1,9-2.05v10c-0.47,0-.91-0.08-1.26-0.1s-0.77,0-1.19,0a10.21,10.21,0,0,0-7.21,2.54c-1.82,1.7-2.74,4.34-2.74,7.92v17.72Z" transform="translate(-27.66 -14.3)"/><path class="cls-4" d="M318.48,165.12a17.33,17.33,0,0,1-7.53-1.5,11.36,11.36,0,0,1-4.81-4.08,11,11,0,0,1,0-11.65,10.65,10.65,0,0,1,5.2-3.94,25.13,25.13,0,0,1,9.28-1.43h10v6.38H321.8c-2.56,0-4.31.42-5.27,1.26a4,4,0,0,0-1.42,3.14,3.89,3.89,0,0,0,1.63,3.31,7.41,7.41,0,0,0,4.51,1.22,9.29,9.29,0,0,0,4.88-1.3,7.37,7.37,0,0,0,3.14-3.79l1.68,5a9.72,9.72,0,0,1-4.32,5.47A15.57,15.57,0,0,1,318.48,165.12Zm11.45-.56v-7.3l-0.7-1.61V142.52a7,7,0,0,0-2.12-5.47c-1.42-1.3-3.59-2-6.52-2a19.15,19.15,0,0,0-5.9.91,15.56,15.56,0,0,0-4.92,2.55l-3.9-7.61a23.51,23.51,0,0,1,7.4-3.35,32.93,32.93,0,0,1,8.78-1.19q8.59,0,13.32,4t4.74,12.63v21.41Z" transform="translate(-27.66 -14.3)"/><path class="cls-4" d="M368.34,165.12a23,23,0,0,1-10.82-2.48,18.94,18.94,0,0,1,0-33.69,23,23,0,0,1,10.82-2.47A20.69,20.69,0,0,1,378.67,129a15.1,15.1,0,0,1,6.48,7.09l-8.44,4.56a9.79,9.79,0,0,0-3.65-3.91,9.54,9.54,0,0,0-4.78-1.25,10.1,10.1,0,0,0-5,1.25,9.12,9.12,0,0,0-3.53,3.56,12.77,12.77,0,0,0,0,11.16,9.12,9.12,0,0,0,3.53,3.56,10,10,0,0,0,5,1.26,9.7,9.7,0,0,0,4.78-1.22,9.42,9.42,0,0,0,3.65-3.94l8.44,4.56a15.13,15.13,0,0,1-6.48,7A20.69,20.69,0,0,1,368.34,165.12Z" transform="translate(-27.66 -14.3)"/><path class="cls-4" d="M387.52,136.25v-8.37h26v8.37h-26Zm19.81,28.87q-6.62,0-10.32-3.38t-3.69-10V118.78h10.9v32.78a5,5,0,0,0,1.26,3.65,4.56,4.56,0,0,0,3.41,1.3,7,7,0,0,0,4.4-1.4l2.93,7.67a11.76,11.76,0,0,1-4,1.78A19.8,19.8,0,0,1,407.33,165.12Z" transform="translate(-27.66 -14.3)"/><path class="cls-4" d="M427.77,121.8a6.87,6.87,0,0,1-4.88-1.74,5.89,5.89,0,0,1-.32-8.33l0.32-.32a6.87,6.87,0,0,1,4.88-1.75,7.15,7.15,0,0,1,4.88,1.64,5.34,5.34,0,0,1,1.89,4.22,6,6,0,0,1-1.82,4.5A6.79,6.79,0,0,1,427.77,121.8Zm-5.47,42.76V127h10.92v37.53H422.29Z" transform="translate(-27.66 -14.3)"/><path class="cls-4" d="M453.5,164.57L437.74,127H449l13.11,32.29H456.5L470.11,127h10.46l-15.83,37.53H453.5Z" transform="translate(-27.66 -14.3)"/><path class="cls-4" d="M501.85,165.12a22.05,22.05,0,0,1-10.64-2.51,19.15,19.15,0,0,1-7.3-6.88,19.89,19.89,0,0,1,0-19.95,18.83,18.83,0,0,1,7.3-6.84,24,24,0,0,1,21.24,0,19,19,0,0,1,0,33.66A22.1,22.1,0,0,1,501.85,165.12Zm0-8.93a9.53,9.53,0,0,0,4.88-1.26,9,9,0,0,0,3.42-3.59,13,13,0,0,0,0-11.13,9,9,0,0,0-3.42-3.56,10.17,10.17,0,0,0-9.77,0,9.24,9.24,0,0,0-3.45,3.56,12.59,12.59,0,0,0,0,11.13,9.12,9.12,0,0,0,3.45,3.59A9.54,9.54,0,0,0,501.85,156.19Z" transform="translate(-27.66 -14.3)"/><path class="cls-2" d="M476.18,81.05a0.44,0.44,0,0,1-.59,0,11.86,11.86,0,0,0-15.79.39,11.64,11.64,0,0,0-1.13,15.76,0.44,0.44,0,0,1-.06.62h0a0.45,0.45,0,0,1-.62-0.07,12.62,12.62,0,0,1,18.18-17.33,0.45,0.45,0,0,1,0,.62h0Z" transform="translate(-27.66 -14.3)"/><path class="cls-2" d="M477.31,79.39a0.44,0.44,0,0,1-.58,0A13.83,13.83,0,0,0,464,76.6a0.44,0.44,0,0,1-.54-0.3,0.43,0.43,0,0,1,.28-0.54h0a14.7,14.7,0,0,1,13.6,3,0.44,0.44,0,0,1,0,.62h0Z" transform="translate(-27.66 -14.3)"/><path class="cls-2" d="M457,98.91a0.44,0.44,0,0,1-.62,0l0,0A14.67,14.67,0,0,1,454,85.19a0.43,0.43,0,0,1,.54-0.28h0a0.45,0.45,0,0,1,.28.56A13.84,13.84,0,0,0,457,98.29a0.44,0.44,0,0,1,0,.62h0Z" transform="translate(-27.66 -14.3)"/><path class="cls-2" d="M472.14,84.91a0.45,0.45,0,0,1-.61,0c-3-2.89-6.38-4.87-9.12-5.33A11.8,11.8,0,0,0,457.85,84c0.32,2.74,2.14,6.24,4.9,9.38a0.43,0.43,0,0,1,0,.61h0a0.44,0.44,0,0,1-.62,0h0c-2.92-3.33-4.84-7.07-5.13-10a0.41,0.41,0,0,1,.05-0.26,12.71,12.71,0,0,1,5.14-4.92,0.44,0.44,0,0,1,.26,0c2.92,0.43,6.57,2.52,9.76,5.58a0.44,0.44,0,0,1,0,.62h0Z" transform="translate(-27.66 -14.3)"/><path class="cls-2" d="M462.69,93.94a0.44,0.44,0,0,1-.62,0h0c-2.92-3.33-4.84-7.07-5.13-10a0.41,0.41,0,0,1,.05-0.26,12.71,12.71,0,0,1,5.14-4.92,0.44,0.44,0,0,1,.26,0c2.89,0.42,6.38,2.37,9.5,5.34a0.44,0.44,0,0,1-.6.64h0c-2.93-2.74-6.24-4.65-8.89-5.09A11.8,11.8,0,0,0,457.83,84c0.32,2.74,2.14,6.24,4.9,9.38A0.44,0.44,0,0,1,462.69,93.94Z" transform="translate(-27.66 -14.3)"/><path class="cls-2" d="M467.41,89.43a0.45,0.45,0,0,1-.62,0l-7.61-8a0.44,0.44,0,0,1,.57-0.67l0.06,0.07,7.62,8A0.44,0.44,0,0,1,467.41,89.43Z" transform="translate(-27.66 -14.3)"/><path class="cls-2" d="M458.64,97.81a0.45,0.45,0,0,1-.63,0l0,0a11.59,11.59,0,0,1-1.29-2,0.41,0.41,0,0,1,0-.27c0.47-3.25,2.88-7.2,6.38-10.59s7.61-5.6,10.88-5.93a0.46,0.46,0,0,1,.08.91c-3,.31-7,2.49-10.36,5.69s-5.63,6.86-6.1,9.86a10.73,10.73,0,0,0,1.13,1.75A0.44,0.44,0,0,1,458.64,97.81Z" transform="translate(-27.66 -14.3)"/><path class="cls-2" d="M479.91,102.54a0.38,0.38,0,0,1-.22.11l-1.58.3a7,7,0,0,0-3.51,1.82l-6.79,6.48a0.44,0.44,0,0,1-.62,0h0l-10-10.43a0.44,0.44,0,0,1,0-.62h0L464,93.72a7.8,7.8,0,0,1,4-2.06l1.3-.25,0.3-1.29a7.89,7.89,0,0,1,2.22-3.86l6.79-6.48a0.44,0.44,0,0,1,.62,0h0l10,10.43a0.45,0.45,0,0,1,0,.62l-6.82,6.53a7,7,0,0,0-2,3.43l-0.36,1.56A0.41,0.41,0,0,1,479.91,102.54Zm-12.38,7.76,6.46-6.17a7.87,7.87,0,0,1,4-2l1.3-.25,0.31-1.29a7.75,7.75,0,0,1,2.22-3.86l6.46-6.17-9.32-9.79-6.46,6.17a6.93,6.93,0,0,0-2,3.43l-0.37,1.58a0.44,0.44,0,0,1-.35.34l-1.57.29a7,7,0,0,0-3.52,1.82l-6.46,6.17Z" transform="translate(-27.66 -14.3)"/><path class="cls-2" d="M481.46,104.14a0.46,0.46,0,0,1-.22.11l-1.82.34a7.91,7.91,0,0,0-4,2.05l-7.62,7.3a0.44,0.44,0,0,1-.62,0h0l-4.81-5a0.44,0.44,0,0,1,.63-0.61l4.51,4.72,7.3-7a8.77,8.77,0,0,1,4.43-2.27l1.49-.28,0.36-1.49a8.71,8.71,0,0,1,2.48-4.31l7.3-7L486.37,86a0.44,0.44,0,0,1,.57-0.67L487,85.37l4.81,5a0.44,0.44,0,0,1,0,.62h0l-7.63,7.3a8,8,0,0,0-2.23,3.89L481.53,104A0.45,0.45,0,0,1,481.46,104.14Z" transform="translate(-27.66 -14.3)"/><path class="cls-2" d="M479.91,102.54a0.44,0.44,0,0,1-.62,0h0l-5.23-5.47a0.44,0.44,0,0,1,.63-0.61h0l5.24,5.47A0.45,0.45,0,0,1,479.91,102.54Z" transform="translate(-27.66 -14.3)"/><path class="cls-2" d="M472.68,94.93a0.44,0.44,0,0,1-.62,0h0l-2.74-2.84a0.44,0.44,0,0,1,0-.62h0a0.45,0.45,0,0,1,.62,0l2.74,2.83A0.45,0.45,0,0,1,472.68,94.93Z" transform="translate(-27.66 -14.3)"/><path class="cls-2" d="M466.58,96.55l-5,4.74a0.44,0.44,0,0,1-.62,0h0a0.45,0.45,0,0,1,0-.62l5-4.74a0.44,0.44,0,0,1,.61.64v0Z" transform="translate(-27.66 -14.3)"/><path class="cls-2" d="M468.43,98.48l-5,4.74a0.44,0.44,0,0,1-.62,0h0a0.45,0.45,0,0,1,0-.62l5-4.75a0.45,0.45,0,0,1,.62,0,0.44,0.44,0,0,1,0,.62h0Z" transform="translate(-27.66 -14.3)"/><path class="cls-2" d="M470.28,100.43l-5,4.74a0.44,0.44,0,0,1-.6-0.64h0l5-4.74A0.44,0.44,0,0,1,470.28,100.43Z" transform="translate(-27.66 -14.3)"/><path class="cls-2" d="M472.14,102.36l-5,4.75a0.45,0.45,0,0,1-.62,0,0.44,0.44,0,0,1,0-.62h0l5-4.74a0.44,0.44,0,1,1,.61.63Z" transform="translate(-27.66 -14.3)"/><path class="cls-2" d="M479.54,84.17l-5,4.74a0.44,0.44,0,0,1-.61-0.64l5-4.74a0.44,0.44,0,1,1,.61.64h0Z" transform="translate(-27.66 -14.3)"/><path class="cls-2" d="M481.39,86.11l-5,4.74a0.44,0.44,0,1,1-.61-0.63h0l5-4.75a0.45,0.45,0,0,1,.62,0,0.44,0.44,0,0,1,0,.62Z" transform="translate(-27.66 -14.3)"/><path class="cls-2" d="M483.24,88l-5,4.77a0.44,0.44,0,0,1-.61-0.64l5-4.74a0.44,0.44,0,1,1,.61.64v0Z" transform="translate(-27.66 -14.3)"/><path class="cls-2" d="M485.09,90l-5,4.75a0.45,0.45,0,0,1-.62,0,0.44,0.44,0,0,1,0-.62h0l5-4.76a0.44,0.44,0,1,1,.61.63h0Z" transform="translate(-27.66 -14.3)"/><path class="cls-5" d="M103.17,195.66a0.66,0.66,0,0,1-.22-0.13L77.3,175.19a0.82,0.82,0,0,1,.52-1.47l33.26,0.35a0.81,0.81,0,0,1,.53.2l25.07,21.89a0.82,0.82,0,0,1,.22.91,0.8,0.8,0,0,1-.81.51l-32.68-1.87A1,1,0,0,1,103.17,195.66Zm-23-20.26,23.57,18.66,30,1.72-23-20.06Z" transform="translate(-27.66 -14.3)"/><path class="cls-5" d="M103.12,179.89a0.82,0.82,0,0,1,.3-1.59l12.66,0.13a0.83,0.83,0,0,1,0,1.65l-12.65-.14A0.76,0.76,0,0,1,103.12,179.89Z" transform="translate(-27.66 -14.3)"/><path class="cls-5" d="M98.36,208.28a52,52,0,0,1-17-10.75,3,3,0,0,1-.72-3.22l5-13.19a0.81,0.81,0,0,1,1.28-.35l16.83,13.28,21.37,1.26a0.83,0.83,0,0,1,.73,1.11l-5,13.18a3,3,0,0,1-2.68,1.93A52,52,0,0,1,98.36,208.28ZM86.83,182.76l-4.62,12.13a1.36,1.36,0,0,0,.32,1.45,48.68,48.68,0,0,0,35.57,13.55,1.35,1.35,0,0,0,1.2-.91l4.62-12.13-20.52-1.18a0.78,0.78,0,0,1-.47-0.18Z" transform="translate(-27.66 -14.3)"/><path class="cls-5" d="M94.92,200.76a52,52,0,0,1-11.59-8.32,3,3,0,0,1-.71-3.22,0.82,0.82,0,0,1,1.53.58,1.36,1.36,0,0,0,.32,1.45,50.37,50.37,0,0,0,11.13,8,0.82,0.82,0,0,1,.35,1.1A0.83,0.83,0,0,1,94.92,200.76Z" transform="translate(-27.66 -14.3)"/><path class="cls-5" d="M123.31,216.33a0.81,0.81,0,0,1-.48-1v0l7.3-19.15a0.82,0.82,0,0,1,1.53.58l-7.3,19.11a0.81,0.81,0,0,1-1,.53h0Z" transform="translate(-27.66 -14.3)"/><path class="cls-5" d="M119.83,225.35a5.65,5.65,0,1,1,7.3-3.26A5.65,5.65,0,0,1,119.83,225.35Zm3.44-9a4,4,0,1,0,2.3,5.17h0a4,4,0,0,0-2.26-5.16h0Z" transform="translate(-27.66 -14.3)"/><path class="cls-5" d="M119.83,225.35a5.65,5.65,0,1,1,7.3-3.26A5.65,5.65,0,0,1,119.83,225.35Zm3.44-9a4,4,0,1,0,2.3,5.17h0a4,4,0,0,0-2.26-5.16h0Z" transform="translate(-27.66 -14.3)"/><path class="cls-5" d="M117.26,241.37L111.1,239a3,3,0,0,1-1.74-1.75,3,3,0,0,1,.16-2.45l7.1-13.41a0.82,0.82,0,0,1,.66-0.43,0.85,0.85,0,0,1,.86.52,3.95,3.95,0,0,0,5.53,2.11,0.82,0.82,0,0,1,1,.16,0.84,0.84,0,0,1,.21.78l-3.65,14.73a3,3,0,0,1-3.63,2.2l-0.35-.11h0Zm0.12-17.87L111,235.59a1.35,1.35,0,0,0,.56,1.83l0.16,0.07,6.14,2.34a1.34,1.34,0,0,0,1.82-.91l3.26-13.29A5.71,5.71,0,0,1,117.38,223.51Z" transform="translate(-27.66 -14.3)"/><g id="Capa_1-2" data-name="Capa 1"><path class="cls-6" d="M2289.77,1878.19l-0.88,1.29a4.27,4.27,0,0,1-3.37,1.87l-129.72,4.76a4.27,4.27,0,0,0-3.46,2h0a4.25,4.25,0,0,1-7.7-3.43l2.94-10.09a4.25,4.25,0,0,1,4.08-3.06h134.58A4.26,4.26,0,0,1,2289.77,1878.19Z" transform="translate(-27.66 -14.3)"/><line class="cls-7" x1="2301.37" y1="1758.29" x2="2289.83" y2="1758.15"/><path class="cls-8" d="M2293.41,1772.16l-221.88-2.72c-35.92-.44-66.52,24.1-76.62,58.11" transform="translate(-27.66 -14.3)"/><path class="cls-9" d="M1992.32,1839.3a86.89,86.89,0,0,0-.91,11.5h0" transform="translate(-27.66 -14.3)"/><rect class="cls-10" x="2037.92" y="1848.33" width="312.5" height="55.89" rx="26.64" ry="26.64"/><path class="cls-2" d="M2061.77,1787.68h94a43.19,43.19,0,0,1,43.19,43.19h0a43.19,43.19,0,0,1-43.19,43.19h-94a43.19,43.19,0,0,1-43.19-43.19h0A43.19,43.19,0,0,1,2061.77,1787.68Z" transform="translate(-27.66 -14.3)"/><path class="cls-4" d="M2063.93,1843.88a19.14,19.14,0,0,1-6.84-1.2A15.89,15.89,0,0,1,2048,1834a17.45,17.45,0,0,1,0-13.17,15.77,15.77,0,0,1,3.63-5.23,16.38,16.38,0,0,1,5.48-3.42,20.11,20.11,0,0,1,14.32.22,14.62,14.62,0,0,1,5.61,4.2l-4.72,4.36a11.06,11.06,0,0,0-3.63-2.79,10.24,10.24,0,0,0-4.36-.93,11,11,0,0,0-4.09.73,9.23,9.23,0,0,0-3.24,2.09,9.58,9.58,0,0,0-2.11,3.22,11.77,11.77,0,0,0,0,8.27,9.68,9.68,0,0,0,2.11,3.22,9.23,9.23,0,0,0,3.23,2.09,11.23,11.23,0,0,0,4.09.73,10.24,10.24,0,0,0,4.36-.93,10.84,10.84,0,0,0,3.63-2.84l4.69,4.36a14.77,14.77,0,0,1-5.61,4.22A18.6,18.6,0,0,1,2063.93,1843.88Z" transform="translate(-27.66 -14.3)"/><path class="cls-4" d="M2081.5,1843.34v-33.7h7.09v33.7h-7.09Z" transform="translate(-27.66 -14.3)"/><path class="cls-4" d="M2098.72,1815.5a4.49,4.49,0,0,1-3.18-1.14,3.84,3.84,0,0,1-.2-5.43l0.2-.2a4.49,4.49,0,0,1,3.18-1.13,4.68,4.68,0,0,1,3.18,1.06,3.5,3.5,0,0,1,1.22,2.75,3.9,3.9,0,0,1-1.2,2.93A4.43,4.43,0,0,1,2098.72,1815.5Zm-3.54,27.84V1818.9h7.08v24.44h-7.08Z" transform="translate(-27.66 -14.3)"/><path class="cls-4" d="M2120.65,1843.72a14.94,14.94,0,0,1-7-1.61,12.06,12.06,0,0,1-4.83-4.47,12.32,12.32,0,0,1,3.95-17q0.43-.27.88-0.5a15.06,15.06,0,0,1,7-1.61,13.54,13.54,0,0,1,6.73,1.61,9.89,9.89,0,0,1,4.22,4.55l-5.5,3a6.41,6.41,0,0,0-2.38-2.55,6.23,6.23,0,0,0-3.11-.82,6.61,6.61,0,0,0-3.27.82,6,6,0,0,0-2.3,2.32,8.29,8.29,0,0,0,0,7.23,5.94,5.94,0,0,0,2.3,2.31,6.51,6.51,0,0,0,3.27.82,6.32,6.32,0,0,0,3.11-.8,6.13,6.13,0,0,0,2.38-2.56l5.5,3a9.92,9.92,0,0,1-4.22,4.56A13.43,13.43,0,0,1,2120.65,1843.72Z" transform="translate(-27.66 -14.3)"/><path class="cls-4" d="M2185.45,1869l-1.81-.32a44.8,44.8,0,0,1-8.74-2.51c-2.47-1-4.54-1.78-6.2-2.42-7-2.71-7.91-3.05-7.74-5.44a3.29,3.29,0,0,1,1.12-2.26,3.33,3.33,0,0,1,2.39-.8l6.38,1.45a0.16,0.16,0,0,0,.16,0h0a0.18,0.18,0,0,0,0-.21l-15.9-18.29a3.29,3.29,0,0,1,5-4.33h0l7,8a0.18,0.18,0,1,0,.27-0.24,3.3,3.3,0,0,1,5-4.32h0l2.1,2.39a0.18,0.18,0,0,0,.26-0.24,3.29,3.29,0,0,1,2.72-5.44,3.22,3.22,0,0,1,2.25,1.13l1.79,2a0.18,0.18,0,0,0,.27-0.23,3.29,3.29,0,0,1,5-4.32l4.53,5.21a46.48,46.48,0,0,1,7.37,11.6l2.58,5.83Z" transform="translate(-27.66 -14.3)"/><path class="cls-11" d="M2156.91,1833a3.11,3.11,0,0,1,.92,0c1.53,0.16,2.51,1.32,3.45,2.42l5.39,6.31c0.24,0.28.74,0.55,0.91,0.22a5.36,5.36,0,0,1-.81-2.59,3.16,3.16,0,0,1,4-2.78c1.67,0.57,2.49,2.43,3.86,3.55,0.38-.35,0-1-0.19-1.42a3,3,0,0,1,3.45-4.31c1.4,0.36,2.34,1.65,3.23,2.79a0.61,0.61,0,0,0,.51.32c0.42-.08.21-0.72,0-1.07a3,3,0,0,1,3.17-4.51,5.73,5.73,0,0,1,2.55,1.8,62.64,62.64,0,0,1,13.66,21.57l-14.57,12.63a3.23,3.23,0,0,1-1.22.78,3.15,3.15,0,0,1-1.43-.08c-6.67-1.48-13-4.13-19.33-6.76-1.57-.66-3.39-1.66-3.46-3.36a3,3,0,0,1,2.23-2.75,6.77,6.77,0,0,1,3.75.18,21.58,21.58,0,0,0,3.69.9,0.52,0.52,0,0,0,.49-0.13,0.5,0.5,0,0,0-.18-0.61c-4.89-5.62-9.08-10.75-14-16.37-1.16-1.33-2.53-3-2-4.91A2.53,2.53,0,0,1,2156.91,1833Zm-1.54.4a3.4,3.4,0,0,0-.43,4.79l0.06,0.07,15.2,17.5a0.34,0.34,0,0,1-.33.56l-5.39-1.22a3.47,3.47,0,0,0-3.7,3.21c-0.22,3.14,1.44,3,14,8a44.92,44.92,0,0,0,8.82,2.53l1.7,0.3a0.34,0.34,0,0,0,.29-0.08l15.59-13.54a0.35,0.35,0,0,0,.09-0.4l-2.52-5.67a46.58,46.58,0,0,0-7.41-11.72l-4.5-5.17a3.41,3.41,0,0,0-2.37-1.19,3.47,3.47,0,0,0-2.86,5.74l-1.79-2.06a3.43,3.43,0,0,0-2.38-1.19,3.47,3.47,0,0,0-2.86,5.74l-2.11-2.43a3.47,3.47,0,0,0-6.08,2.64,0.34,0.34,0,0,1-.59.27l-5.57-6.35a3.44,3.44,0,0,0-2.37-1.18A3.39,3.39,0,0,0,2155.37,1833.39Z" transform="translate(-27.66 -14.3)"/><path class="cls-4" d="M2191.38,1873.23a1.61,1.61,0,0,1-2.27-.15h0l-3.58-4.13,15.64-13.57,3.59,4.13a1.62,1.62,0,0,1-.17,2.28Z" transform="translate(-27.66 -14.3)"/><path class="cls-12" d="M2201.15,1855.62l3.46,4a1.44,1.44,0,0,1-.14,2l-13.21,11.46a1.44,1.44,0,0,1-2-.14l-3.46-4,15.38-13.34m0-.5-15.91,13.81,3.7,4.26a1.79,1.79,0,0,0,2.52.18h0l13.2-11.46a1.79,1.79,0,0,0,.18-2.52h0l-3.7-4.26h0Z" transform="translate(-27.66 -14.3)"/><polygon class="cls-4" points="2124.62 1816.12 2114.34 1809.88 2119.87 1805.07 2124.62 1816.12"/><polygon class="cls-4" points="2137.15 1817 2143.4 1806.72 2148.21 1812.25 2137.15 1817"/><polygon class="cls-4" points="2123.74 1828.66 2117.5 1838.94 2112.69 1833.4 2123.74 1828.66"/><polygon class="cls-4" points="2131.13 1813.19 2128.27 1801.49 2135.59 1802.01 2131.13 1813.19"/><polygon class="cls-4" points="2120.8 1822.15 2109.11 1825.01 2109.63 1817.69 2120.8 1822.15"/><path class="cls-4" d="M2090,1894.72a5.53,5.53,0,0,1-2.73-.68,5,5,0,0,1-1.9-1.89,6.19,6.19,0,0,1,0-5.68,4.9,4.9,0,0,1,1.9-1.88,5.63,5.63,0,0,1,2.73-.67,4.84,4.84,0,0,1,2.37.58,4.13,4.13,0,0,1,1.63,1.72,6.58,6.58,0,0,1,.61,3,6.9,6.9,0,0,1-.59,3,4.06,4.06,0,0,1-1.64,1.78A4.76,4.76,0,0,1,2090,1894.72Zm0.3-2.12a3.23,3.23,0,0,0,1.59-.39A2.86,2.86,0,0,0,2093,1891a3.84,3.84,0,0,0,0-3.53,2.9,2.9,0,0,0-1.12-1.13,3.36,3.36,0,0,0-3.18,0,3,3,0,0,0-1.12,1.13,3.84,3.84,0,0,0,0,3.53,2.92,2.92,0,0,0,1.12,1.14,3.23,3.23,0,0,0,1.58.39Zm3.2,2v-2.49l0.1-2.8-0.2-2.8V1880h2.45v14.64h-2.35Z" transform="translate(-27.66 -14.3)"/><path class="cls-4" d="M2104,1894.72a6.46,6.46,0,0,1-3.06-.7,5.07,5.07,0,0,1-2-1.93,5.36,5.36,0,0,1-.72-2.78,5.56,5.56,0,0,1,.7-2.79,5,5,0,0,1,1.94-1.91,6,6,0,0,1,5.55,0,5,5,0,0,1,1.9,1.9,5.74,5.74,0,0,1,.69,2.88v0.73h-8.78v-1.64h7.47l-1,.51a3,3,0,0,0-.38-1.59,2.87,2.87,0,0,0-1.07-1.09,3.4,3.4,0,0,0-3.16,0,2.83,2.83,0,0,0-1.07,1.1,3.4,3.4,0,0,0-.38,1.64v0.4a3.17,3.17,0,0,0,.43,1.67,2.87,2.87,0,0,0,1.23,1.13,4,4,0,0,0,1.81.39,4.47,4.47,0,0,0,1.6-.27,3.4,3.4,0,0,0,1.26-.87l1.33,1.52a4.64,4.64,0,0,1-1.79,1.27A6.35,6.35,0,0,1,2104,1894.72Z" transform="translate(-27.66 -14.3)"/><path class="cls-4" d="M2111.36,1898.36V1884h2.35v2.49l-0.08,2.8,0.2,2.8v6.28h-2.47Zm5.85-3.64a4.63,4.63,0,0,1-2.34-.6,4.14,4.14,0,0,1-1.68-1.78,6.61,6.61,0,0,1-.62-3,6.71,6.71,0,0,1,.6-3,4.06,4.06,0,0,1,1.65-1.77,4.89,4.89,0,0,1,2.39-.58,5.63,5.63,0,0,1,2.75.67,5,5,0,0,1,1.89,1.88,5.51,5.51,0,0,1,.7,2.84,5.58,5.58,0,0,1-.7,2.85,4.88,4.88,0,0,1-1.89,1.88A5.52,5.52,0,0,1,2117.21,1894.72Zm-0.28-2.12a3.23,3.23,0,0,0,1.59-.39,2.84,2.84,0,0,0,1.11-1.14,3.92,3.92,0,0,0,0-3.53,2.87,2.87,0,0,0-1.11-1.13,3.23,3.23,0,0,0-1.59-.4,3.27,3.27,0,0,0-1.6.4,2.83,2.83,0,0,0-1.12,1.13,3.92,3.92,0,0,0,0,3.53,2.8,2.8,0,0,0,1.12,1.14,3.27,3.27,0,0,0,1.6.34v0.05Z" transform="translate(-27.66 -14.3)"/><path class="cls-4" d="M2127.94,1894.72a4.93,4.93,0,0,1-2.07-.41,3.19,3.19,0,0,1-1.37-1.12,2.82,2.82,0,0,1-.49-1.63,3,3,0,0,1,.43-1.6,2.8,2.8,0,0,1,1.39-1.12,6.51,6.51,0,0,1,2.56-.42h3.06v1.64h-2.88a2.59,2.59,0,0,0-1.7.4,1.32,1.32,0,0,0-.43,1,1.28,1.28,0,0,0,.53,1.07,2.48,2.48,0,0,0,1.48.39,3.26,3.26,0,0,0,1.63-.41,2.38,2.38,0,0,0,1-1.23l0.41,1.48a2.74,2.74,0,0,1-1.27,1.44A4.74,4.74,0,0,1,2127.94,1894.72Zm3.32-.14v-2.13l-0.14-.46v-3.73a2.18,2.18,0,0,0-.65-1.68,2.86,2.86,0,0,0-2-.61,5.76,5.76,0,0,0-1.74.28,4.25,4.25,0,0,0-1.45.77l-1-1.8a5.75,5.75,0,0,1,2-1,9,9,0,0,1,2.44-.33,5.23,5.23,0,0,1,3.54,1.1,4.24,4.24,0,0,1,1.25,3.38v6.18Z" transform="translate(-27.66 -14.3)"/><path class="cls-4" d="M2136.74,1894.53V1884h2.35v2.9l-0.28-.85a3.35,3.35,0,0,1,1.49-1.62,5.36,5.36,0,0,1,2.54-.55v2.35l-0.3-.05h-0.27a3,3,0,0,0-2.23.82,3.27,3.27,0,0,0-.83,2.44v5.11h-2.47Z" transform="translate(-27.66 -14.3)"/><path class="cls-4" d="M2143.92,1886v-2h7v2h-7Zm5.37,8.63a3.73,3.73,0,0,1-2.68-.9,3.47,3.47,0,0,1-.95-2.66v-9.45h2.47V1891a1.65,1.65,0,0,0,.38,1.17,1.4,1.4,0,0,0,1.08.41,2.17,2.17,0,0,0,1.38-.43l0.69,1.76a3.07,3.07,0,0,1-1.07.53,4.69,4.69,0,0,1-1.3.23v0Z" transform="translate(-27.66 -14.3)"/><path class="cls-4" d="M2156.87,1894.72a4.93,4.93,0,0,1-2.07-.41,3.22,3.22,0,0,1-1.38-1.12,2.89,2.89,0,0,1-.48-1.63,3.08,3.08,0,0,1,.42-1.6,2.87,2.87,0,0,1,1.4-1.12,6.51,6.51,0,0,1,2.56-.42h3.06v1.64h-2.88a2.59,2.59,0,0,0-1.7.4,1.32,1.32,0,0,0-.43,1,1.28,1.28,0,0,0,.53,1.07,2.48,2.48,0,0,0,1.48.39,3.26,3.26,0,0,0,1.63-.41,2.36,2.36,0,0,0,1-1.23l0.42,1.48a2.74,2.74,0,0,1-1.27,1.44A4.77,4.77,0,0,1,2156.87,1894.72Zm3.31-.14v-2.13L2160,1892v-3.73a2.15,2.15,0,0,0-.65-1.68,2.82,2.82,0,0,0-2-.61,5.87,5.87,0,0,0-1.75.28,4.45,4.45,0,0,0-1.45.77l-1-1.8a5.75,5.75,0,0,1,2-1,8.93,8.93,0,0,1,2.44-.33,5.23,5.23,0,0,1,3.54,1.1,4.28,4.28,0,0,1,1.25,3.38v6.18Z" transform="translate(-27.66 -14.3)"/><path class="cls-4" d="M2179,1883.87a4.92,4.92,0,0,1,2.24.5,3.51,3.51,0,0,1,1.53,1.5,5.57,5.57,0,0,1,.55,2.62v6h-2.47v-5.72a3.08,3.08,0,0,0-.61-2.1,2.22,2.22,0,0,0-1.76-.69,2.81,2.81,0,0,0-1.43.36,2.42,2.42,0,0,0-1,1,3.94,3.94,0,0,0-.35,1.76v5.35h-2.47v-5.72a3.08,3.08,0,0,0-.61-2.1,2.22,2.22,0,0,0-1.75-.69,2.79,2.79,0,0,0-1.43.36,2.39,2.39,0,0,0-1,1,3.94,3.94,0,0,0-.35,1.76v5.35h-2.46V1884H2168v2.8l-0.41-.83a3.57,3.57,0,0,1,1.55-1.55,4.87,4.87,0,0,1,2.32-.54,4.56,4.56,0,0,1,2.57.73,3.51,3.51,0,0,1,1.45,2.21l-1-.33a4.07,4.07,0,0,1,1.69-1.9A5.29,5.29,0,0,1,2179,1883.87Z" transform="translate(-27.66 -14.3)"/><path class="cls-4" d="M2191.42,1894.72a6.5,6.5,0,0,1-3.07-.7,5,5,0,0,1-2-1.93,5.36,5.36,0,0,1-.72-2.78,5.45,5.45,0,0,1,.7-2.79,5,5,0,0,1,1.93-1.91,6,6,0,0,1,5.56,0,4.86,4.86,0,0,1,1.89,1.9,5.74,5.74,0,0,1,.69,2.88v0.73h-8.78v-1.64H2195l-1,.51a3.07,3.07,0,0,0-.37-1.59,2.9,2.9,0,0,0-1.08-1.09,3.07,3.07,0,0,0-1.57-.39,3.18,3.18,0,0,0-1.59.39,2.81,2.81,0,0,0-1.06,1.1,3.29,3.29,0,0,0-.39,1.64v0.4a3.18,3.18,0,0,0,.44,1.67,2.9,2.9,0,0,0,1.22,1.13,4.06,4.06,0,0,0,1.82.39,4.51,4.51,0,0,0,1.6-.27,3.57,3.57,0,0,0,1.26-.87l1.32,1.52a4.57,4.57,0,0,1-1.79,1.27A6.26,6.26,0,0,1,2191.42,1894.72Z" transform="translate(-27.66 -14.3)"/><path class="cls-4" d="M2204.72,1883.87a5,5,0,0,1,2.26.5,3.66,3.66,0,0,1,1.57,1.5,5.33,5.33,0,0,1,.57,2.62v6h-2.47v-5.72a2.94,2.94,0,0,0-.64-2,2.44,2.44,0,0,0-1.85-.69,3.17,3.17,0,0,0-1.53.36,2.45,2.45,0,0,0-1,1.05,3.87,3.87,0,0,0-.36,1.77v5.33h-2.47V1884h2.35v2.84l-0.42-.87a3.82,3.82,0,0,1,1.61-1.55A5.28,5.28,0,0,1,2204.72,1883.87Z" transform="translate(-27.66 -14.3)"/><path class="cls-4" d="M2210.85,1886v-2h7v2h-7Zm5.37,8.63a3.73,3.73,0,0,1-2.68-.9,3.51,3.51,0,0,1-.95-2.66v-9.45h2.47V1891a1.65,1.65,0,0,0,.38,1.17,1.4,1.4,0,0,0,1.08.41,2.17,2.17,0,0,0,1.38-.43l0.69,1.76a3.07,3.07,0,0,1-1.07.53,4.69,4.69,0,0,1-1.3.23v0Z" transform="translate(-27.66 -14.3)"/><path class="cls-4" d="M2225,1894.72a5.9,5.9,0,0,1-2.88-.7,5.38,5.38,0,0,1,0-9.41,5.9,5.9,0,0,1,2.88-.69,6,6,0,0,1,2.91.69,5.15,5.15,0,0,1,2,1.9,5.77,5.77,0,0,1,0,5.58,5.16,5.16,0,0,1-2,1.93A6,6,0,0,1,2225,1894.72Zm0-2.12a3.29,3.29,0,0,0,1.62-.39,2.8,2.8,0,0,0,1.12-1.14,4.09,4.09,0,0,0,0-3.53,2.83,2.83,0,0,0-1.12-1.13,3.42,3.42,0,0,0-3.21,0,2.94,2.94,0,0,0-1.11,1.13,4,4,0,0,0,0,3.53,2.9,2.9,0,0,0,1.11,1.14,3.23,3.23,0,0,0,1.59.34v0.05Z" transform="translate(-27.66 -14.3)"/><path class="cls-4" d="M2242.9,1894.72a5.5,5.5,0,0,1-2.73-.68,5,5,0,0,1-1.91-1.89,6.19,6.19,0,0,1,0-5.68,4.93,4.93,0,0,1,1.91-1.88,5.6,5.6,0,0,1,2.73-.67,4.89,4.89,0,0,1,2.37.58,4.11,4.11,0,0,1,1.65,1.77,6.57,6.57,0,0,1,.62,3,6.76,6.76,0,0,1-.6,3,4,4,0,0,1-1.63,1.78A4.76,4.76,0,0,1,2242.9,1894.72Zm0.29-2.12a3.18,3.18,0,0,0,1.59-.39,2.88,2.88,0,0,0,1.13-1.14,3.92,3.92,0,0,0,0-3.53,2.92,2.92,0,0,0-1.13-1.13,3.34,3.34,0,0,0-3.17,0,2.92,2.92,0,0,0-1.13,1.13,3.92,3.92,0,0,0,0,3.53,2.88,2.88,0,0,0,1.13,1.14,3.16,3.16,0,0,0,1.58.34v0.05Zm3.2,2v-2.49l0.1-2.8-0.2-2.8V1880h2.45v14.64h-2.35Z" transform="translate(-27.66 -14.3)"/><path class="cls-4" d="M2256.95,1894.72a6.5,6.5,0,0,1-3.07-.7,5.1,5.1,0,0,1-2-1.93,5.36,5.36,0,0,1-.72-2.78,5.45,5.45,0,0,1,.7-2.79,5,5,0,0,1,1.93-1.91,6,6,0,0,1,5.56,0,4.86,4.86,0,0,1,1.89,1.9,5.74,5.74,0,0,1,.69,2.88v0.73h-8.78v-1.64h7.48l-1,.51a3.07,3.07,0,0,0-.37-1.59,2.9,2.9,0,0,0-1.08-1.09,3.07,3.07,0,0,0-1.57-.39,3.18,3.18,0,0,0-1.59.39,2.81,2.81,0,0,0-1.06,1.1,3.29,3.29,0,0,0-.39,1.64v0.4a3.18,3.18,0,0,0,.44,1.67,2.9,2.9,0,0,0,1.22,1.13,4.06,4.06,0,0,0,1.82.39,4.51,4.51,0,0,0,1.6-.27,3.57,3.57,0,0,0,1.26-.87l1.32,1.52a4.57,4.57,0,0,1-1.79,1.27A6.26,6.26,0,0,1,2256.95,1894.72Z" transform="translate(-27.66 -14.3)"/><path class="cls-4" d="M2268.31,1886v-2h7v2h-7Zm5.37,8.63a3.73,3.73,0,0,1-2.68-.9,3.51,3.51,0,0,1-1-2.66v-9.45h2.47V1891a1.65,1.65,0,0,0,.38,1.17,1.4,1.4,0,0,0,1.08.41,2.17,2.17,0,0,0,1.38-.43L2276,1894a3.07,3.07,0,0,1-1.07.53,4.69,4.69,0,0,1-1.3.23v0Z" transform="translate(-27.66 -14.3)"/><path class="cls-4" d="M2282.54,1894.72a5.29,5.29,0,0,1-2.37-.51,3.66,3.66,0,0,1-1.6-1.54,5.36,5.36,0,0,1-.57-2.61v-6h2.47v5.66a3,3,0,0,0,.64,2.12,2.36,2.36,0,0,0,1.83.71,3,3,0,0,0,1.5-.36,2.44,2.44,0,0,0,1-1.07,3.81,3.81,0,0,0,.37-1.75V1884h2.46v10.54h-2.35v-2.86l0.42,0.86a3.64,3.64,0,0,1-1.56,1.57A4.63,4.63,0,0,1,2282.54,1894.72Z" transform="translate(-27.66 -14.3)"/><path class="cls-4" d="M2298.21,1882.25a1.57,1.57,0,0,1-1.14-.43,1.44,1.44,0,0,1-.44-1,1.4,1.4,0,0,1,.44-1.05,1.74,1.74,0,0,1,2.27,0,1.31,1.31,0,0,1,.45,1,1.51,1.51,0,0,1-1.49,1.53h-0.09v-0.05Zm-1.2,12.28V1884h2.47v10.54H2297Z" transform="translate(-27.66 -14.3)"/><path class="cls-4" d="M2308.64,1883.87a5,5,0,0,1,2.26.5,3.55,3.55,0,0,1,1.57,1.5,5.32,5.32,0,0,1,.58,2.62v6h-2.47v-5.72a2.94,2.94,0,0,0-.66-2.1,2.44,2.44,0,0,0-1.85-.69,3.21,3.21,0,0,0-1.54.36,2.48,2.48,0,0,0-1,1.05,3.74,3.74,0,0,0-.37,1.77v5.33h-2.46V1884H2305v2.84l-0.41-.87a3.77,3.77,0,0,1,1.61-1.55A5.24,5.24,0,0,1,2308.64,1883.87Z" transform="translate(-27.66 -14.3)"/><path class="cls-4" d="M2314.78,1886v-2h7v2h-7Zm5.37,8.63a3.73,3.73,0,0,1-2.68-.9,3.47,3.47,0,0,1-1-2.66v-9.45H2319V1891a1.65,1.65,0,0,0,.39,1.17,1.37,1.37,0,0,0,1.07.41,2.18,2.18,0,0,0,1.39-.43l0.69,1.76a3.07,3.07,0,0,1-1.07.53,4.69,4.69,0,0,1-1.33.23v0Z" transform="translate(-27.66 -14.3)"/><path class="cls-4" d="M2329.15,1894.72a6.5,6.5,0,0,1-3.07-.7,5,5,0,0,1-2-1.93,5.36,5.36,0,0,1-.72-2.78,5.45,5.45,0,0,1,.7-2.79,5,5,0,0,1,1.93-1.91,5.65,5.65,0,0,1,2.81-.69,5.59,5.59,0,0,1,2.74.67,4.82,4.82,0,0,1,1.9,1.9,5.74,5.74,0,0,1,.69,2.88v0.73h-8.78v-1.64h7.48l-1,.51a3.07,3.07,0,0,0-.37-1.59,2.9,2.9,0,0,0-1.08-1.09,3.1,3.1,0,0,0-1.57-.39,3.18,3.18,0,0,0-1.59.39,2.81,2.81,0,0,0-1.06,1.1,3.29,3.29,0,0,0-.39,1.64v0.4a3.18,3.18,0,0,0,.44,1.67,2.84,2.84,0,0,0,1.22,1.13,4.06,4.06,0,0,0,1.82.39,4.42,4.42,0,0,0,1.59-.27,3.52,3.52,0,0,0,1.27-.87l1.32,1.52a4.57,4.57,0,0,1-1.79,1.27A6.26,6.26,0,0,1,2329.15,1894.72Z" transform="translate(-27.66 -14.3)"/><path class="cls-4" d="M2336.47,1894.53V1884h2.35v2.9l-0.28-.85a3.35,3.35,0,0,1,1.47-1.62,5.35,5.35,0,0,1,2.53-.55v2.35l-0.29-.05H2342a3,3,0,0,0-2.23.82,3.31,3.31,0,0,0-.83,2.44v5.11h-2.48Z" transform="translate(-27.66 -14.3)"/><path class="cls-4" d="M2349.51,1894.72a6.53,6.53,0,0,1-3.07-.7,5.1,5.1,0,0,1-2-1.93,5.36,5.36,0,0,1-.72-2.78,5.45,5.45,0,0,1,.7-2.79,5.06,5.06,0,0,1,1.93-1.91,5.69,5.69,0,0,1,2.82-.69,5.61,5.61,0,0,1,2.74.67,4.86,4.86,0,0,1,1.89,1.9,5.74,5.74,0,0,1,.69,2.88v0.35a2.34,2.34,0,0,1,0,.38h-8.78v-1.64h7.48l-1,.51a3,3,0,0,0-.37-1.59,2.83,2.83,0,0,0-1.08-1.09,3.06,3.06,0,0,0-1.56-.39,3.12,3.12,0,0,0-1.59.39,2.76,2.76,0,0,0-1.07,1.1,3.29,3.29,0,0,0-.38,1.64v0.4a3.17,3.17,0,0,0,.43,1.67,2.9,2.9,0,0,0,1.22,1.13,4.09,4.09,0,0,0,1.82.39,4.51,4.51,0,0,0,1.6-.27,3.57,3.57,0,0,0,1.26-.87l1.32,1.52a4.6,4.6,0,0,1-1.78,1.22A6.35,6.35,0,0,1,2349.51,1894.72Zm-2.09-12.12,2.66-2.7H2353l-3.43,2.7h-2.16Z" transform="translate(-27.66 -14.3)"/><path class="cls-4" d="M2360.09,1894.72a9.27,9.27,0,0,1-2.54-.35,6.41,6.41,0,0,1-1.92-.84l0.94-1.87a7,7,0,0,0,1.7.75,7.12,7.12,0,0,0,2,.29,3.42,3.42,0,0,0,1.69-.31,1,1,0,0,0,.53-0.85,0.73,0.73,0,0,0-.36-0.66,2.87,2.87,0,0,0-.93-0.35c-0.38-.08-0.8-0.15-1.27-0.21a13.81,13.81,0,0,1-1.4-.27,4.93,4.93,0,0,1-1.27-.49,2.62,2.62,0,0,1-.93-0.88,2.65,2.65,0,0,1-.36-1.46,2.73,2.73,0,0,1,.58-1.75,3.64,3.64,0,0,1,1.6-1.14,6.74,6.74,0,0,1,2.46-.41,9.91,9.91,0,0,1,2.15.24,6,6,0,0,1,1.8.67l-1,1.87a5,5,0,0,0-1.51-.62,7.11,7.11,0,0,0-1.51-.16,3.32,3.32,0,0,0-1.67.33,1,1,0,0,0-.54.85,0.79,0.79,0,0,0,.36.71,2.71,2.71,0,0,0,.92.37,10.19,10.19,0,0,0,1.28.23,11.36,11.36,0,0,1,1.39.27,6.19,6.19,0,0,1,1.27.48,2.51,2.51,0,0,1,.94.86,3,3,0,0,1-.23,3.16,3.82,3.82,0,0,1-1.65,1.13A7.16,7.16,0,0,1,2360.09,1894.72Z" transform="translate(-27.66 -14.3)"/><path class="cls-13" d="M2038.16,1887.8a10.39,10.39,0,0,1-5-1.17,9.17,9.17,0,0,1-3.64-3.48,9.4,9.4,0,0,1-1.29-4.86,9.55,9.55,0,0,1,1.25-4.83,9.13,9.13,0,0,1,3.5-3.45,9.72,9.72,0,0,1,4.8-1.21,9.6,9.6,0,0,1,4.73,1.19,9,9,0,0,1,3.5,3.48,9.79,9.79,0,0,1,1.22,4.88v0.55a6.19,6.19,0,0,1,0,.63,4.56,4.56,0,0,1-.58,1.78,4.64,4.64,0,0,1-1.11,3.32,8.69,8.69,0,0,1-3.36,2.42A10.38,10.38,0,0,1,2038.16,1887.8Z" transform="translate(-27.66 -14.3)"/><path class="cls-13" d="M2038.16,1883.13a5.69,5.69,0,0,1-2.74-.63,4.45,4.45,0,0,1-1.82-1.72,4.82,4.82,0,0,1-.65-2.49,4.91,4.91,0,0,1,.63-2.5,4.49,4.49,0,0,1,1.73-1.7,5.09,5.09,0,0,1,2.52-.62,5,5,0,0,1,2.45.6,4.34,4.34,0,0,1,1.7,1.7,5.19,5.19,0,0,1,.62,2.58V1879h-7.9v-1.47h6.69l-0.86.46a2.68,2.68,0,0,0-.34-1.43,2.55,2.55,0,0,0-1-1,2.7,2.7,0,0,0-1.4-.35,2.76,2.76,0,0,0-1.43.35,2.56,2.56,0,0,0-1,1,3,3,0,0,0-.34,1.48v0.35a2.89,2.89,0,0,0,.39,1.5,2.6,2.6,0,0,0,1.09,1,3.66,3.66,0,0,0,1.63.35,3.87,3.87,0,0,0,1.43-.25,3,3,0,0,0,1.13-.78l1.32,1.38a4,4,0,0,1-1.6,1.14A5.61,5.61,0,0,1,2038.16,1883.13Z" transform="translate(-27.66 -14.3)"/><path class="cls-13" d="M2051.8,1887.72a4.72,4.72,0,0,0-4.88,0h-2.21a4.67,4.67,0,0,1-4.7-4.64s0,0,0-.07v-9.43a4.67,4.67,0,0,1,4.66-4.68h2.12a4.84,4.84,0,0,1,1.08.13,10.17,10.17,0,0,1,2.17-.23,9.07,9.07,0,0,1,4.09.93,7.89,7.89,0,0,1,3.41,3.24,9.41,9.41,0,0,1,1.11,4.63V1883a4.67,4.67,0,0,1-4.63,4.71h-2.22Z" transform="translate(-27.66 -14.3)"/><path class="cls-13" d="M2050.07,1873.47a4.57,4.57,0,0,1,2,.44,3.31,3.31,0,0,1,1.4,1.35,4.77,4.77,0,0,1,.51,2.34V1883h-2.2v-5.12a2.66,2.66,0,0,0-.59-1.88,2.2,2.2,0,0,0-1.66-.61,2.88,2.88,0,0,0-1.37.31,2.19,2.19,0,0,0-.93.95,3.36,3.36,0,0,0-.33,1.58V1883h-2.19v-9.43h2.11v2.54l-0.37-.78a3.24,3.24,0,0,1,1.43-1.38A4.65,4.65,0,0,1,2050.07,1873.47Z" transform="translate(-27.66 -14.3)"/><path class="cls-13" d="M2066.12,1887.8a10.39,10.39,0,0,1-5-1.17,9.2,9.2,0,0,1-3.65-3.48,9.91,9.91,0,0,1,0-9.69A9.18,9.18,0,0,1,2061,1870a9.79,9.79,0,0,1,4.81-1.21,9.54,9.54,0,0,1,4.72,1.19,9,9,0,0,1,3.5,3.48,9.79,9.79,0,0,1,1.22,4.88v1.18a4.56,4.56,0,0,1-.58,1.78,4.69,4.69,0,0,1-1.11,3.32,8.72,8.72,0,0,1-3.37,2.42A10.33,10.33,0,0,1,2066.12,1887.8Z" transform="translate(-27.66 -14.3)"/><path class="cls-13" d="M2066.12,1883.13a5.75,5.75,0,0,1-2.75-.63,4.51,4.51,0,0,1-1.82-1.72,4.81,4.81,0,0,1-.64-2.49,4.91,4.91,0,0,1,.63-2.5,4.42,4.42,0,0,1,1.73-1.7,5.06,5.06,0,0,1,2.52-.62,5,5,0,0,1,2.45.6,4.41,4.41,0,0,1,1.7,1.7,5.18,5.18,0,0,1,.61,2.58V1879h-7.86v-1.47h6.69l-0.86.46a2.68,2.68,0,0,0-.34-1.43,2.55,2.55,0,0,0-1-1,2.72,2.72,0,0,0-1.4-.35,2.76,2.76,0,0,0-1.43.35,2.56,2.56,0,0,0-.95,1,3,3,0,0,0-.34,1.48v0.35a2.89,2.89,0,0,0,.38,1.5,2.69,2.69,0,0,0,1.1,1,3.64,3.64,0,0,0,1.62.35,3.8,3.8,0,0,0,1.43-.25,2.81,2.81,0,0,0,1.13-.78l1.19,1.36a4.11,4.11,0,0,1-1.6,1.14A5.64,5.64,0,0,1,2066.12,1883.13Z" transform="translate(-27.66 -14.3)"/><rect class="cls-13" x="2040.34" y="1850.93" width="11.55" height="22.45" rx="4.67" ry="4.67"/><path class="cls-13" d="M2072.67,1883V1869.9h2.21V1883h-2.21Z" transform="translate(-27.66 -14.3)"/><path class="cls-4" d="M2038.66,1883.39a5.8,5.8,0,0,1-2.74-.62,4.53,4.53,0,0,1-1.82-1.73,4.82,4.82,0,0,1-.65-2.49,4.91,4.91,0,0,1,.63-2.5,4.49,4.49,0,0,1,1.73-1.7,5.09,5.09,0,0,1,2.52-.62,5,5,0,0,1,2.45.6,4.41,4.41,0,0,1,1.7,1.7,5.18,5.18,0,0,1,.61,2.58v0.65h-7.89v-1.47h6.69l-0.86.46a2.71,2.71,0,0,0-.34-1.43,2.55,2.55,0,0,0-1-1,2.8,2.8,0,0,0-1.4-.35,2.86,2.86,0,0,0-1.43.35,2.56,2.56,0,0,0-1,1,3,3,0,0,0-.34,1.48v0.35a2.84,2.84,0,0,0,.39,1.5,2.54,2.54,0,0,0,1.09,1,3.66,3.66,0,0,0,1.63.35,3.87,3.87,0,0,0,1.43-.25,3,3,0,0,0,1.13-.77l1.18,1.36a4.25,4.25,0,0,1-1.6,1.14A5.8,5.8,0,0,1,2038.66,1883.39Z" transform="translate(-27.66 -14.3)"/><path class="cls-4" d="M2050.57,1873.72a4.57,4.57,0,0,1,2,.44,3.28,3.28,0,0,1,1.4,1.36,4.72,4.72,0,0,1,.51,2.34v5.4h-2.2v-5.12a2.62,2.62,0,0,0-.59-1.87,2.17,2.17,0,0,0-1.66-.62,2.8,2.8,0,0,0-1.37.32,2.17,2.17,0,0,0-.93.94,3.39,3.39,0,0,0-.33,1.58v4.77h-2.19v-9.43h2.11v2.54l-0.38-.78a3.31,3.31,0,0,1,1.44-1.38A4.65,4.65,0,0,1,2050.57,1873.72Z" transform="translate(-27.66 -14.3)"/><path class="cls-4" d="M2066.62,1883.39a5.87,5.87,0,0,1-2.75-.62A4.6,4.6,0,0,1,2062,1881a5.22,5.22,0,0,1,0-5,4.49,4.49,0,0,1,1.73-1.7,5.06,5.06,0,0,1,2.52-.62,5,5,0,0,1,2.45.6,4.41,4.41,0,0,1,1.7,1.7,5.18,5.18,0,0,1,.61,2.58v0.65h-7.86v-1.47h6.69l-0.86.46a2.71,2.71,0,0,0-.34-1.43,2.55,2.55,0,0,0-1-1,2.8,2.8,0,0,0-1.4-.35,2.86,2.86,0,0,0-1.43.35,2.56,2.56,0,0,0-.95,1,3,3,0,0,0-.34,1.48v0.35a2.84,2.84,0,0,0,.38,1.5,2.62,2.62,0,0,0,1.1,1,3.64,3.64,0,0,0,1.62.35,3.8,3.8,0,0,0,1.43-.25,2.89,2.89,0,0,0,1.13-.77l1.19,1.36a4.33,4.33,0,0,1-1.6,1.14A5.83,5.83,0,0,1,2066.62,1883.39Z" transform="translate(-27.66 -14.3)"/><path class="cls-4" d="M2073.17,1883.27v-13.11h2.21v13.11h-2.21Z" transform="translate(-27.66 -14.3)"/></g></svg>