<svg id="Nicaruaga" xmlns="http://www.w3.org/2000/svg" viewBox="0 0 436.71 377.36"><defs><style>.cls-1,.cls-4{fill:#fff3da;}.cls-1,.cls-2,.cls-3,.cls-4,.cls-5,.cls-6,.cls-7{stroke:#999;stroke-linecap:round;stroke-linejoin:round;stroke-width:0.25px;}.cls-2{fill:#ffe3ca;}.cls-2,.cls-4,.cls-6,.cls-7{fill-rule:evenodd;}.cls-3,.cls-6{fill:#ebedc3;}.cls-5,.cls-7{fill:#fcd4c7;}</style></defs><title>NIcaragua</title><path id="South_Caribbean_Coast_Autonomous_Region" data-name="South Caribbean Coast Autonomous Region" class="cls-1" d="M486.61,348.29l0.59-1.42,0.56-.89,0-.28,0-.17-0.1-.07-0.13,0-1.75,1.21-0.6,2.74,0.19,3.13,0.64,2.36,0.54,0.73,0-1.16-0.5-3.18,0.15-1.4Zm17.49-48.43-0.82-2.77L502,294.58l-0.28-.84v-5.09l2.86-23-1.86-11.34h0l-1.56.2-4.27-.27-3.47.16-1.56-.52-8.38-4.91-6.4-4.69-0.37-.35-0.25-.39-0.07-.46,0.06-.49,0.19-.5,0.31-.5,1.61-2,0.31-.52,0.19-.5,0.05-.49-0.32-.4-0.66-.33-1.47-.41-0.89-.37-0.67-.4-0.87-.36-1.64-.26-6.9-.28-1.29-.11-0.35-.23-0.89-.16,0.48,1,0.09,0.87-0.33.38-0.77-.47h-0.58l-0.77.44-0.39,0-0.58-.4-0.71,1.84-1,.21-1.31-.5-1.61-.3,0.44,0.47,0.46,0.88,0.26,0.39-1.34-.26-2.06.62-0.73-.36-0.55-.11-0.48-.55-0.35-.63-1.64-5.18-0.22-.43-0.67-.18-1.15.15L442.54,234l-0.83,0-1-.29-0.58-.38-0.54-.26-0.46-.12-0.65-.07-0.55,0-0.64.21-0.9.59-1,1.14-1.06.38-1.68.22-11.87.05-22,2.69-3.67,4.95-0.27.45-0.27.59,0.18,0.08,0.18,0.1,0.62,0.59,0.2,0.11,0.2,0.09,0.24,0.07,0.21,0.09,0.18,0.11,0.34,0.28,0.66,0.85,0.1,0.2,0.53,1.7,1.24,2.56,0.24,0.34,0.28,0.32,0.17,0.13,0.2,0.11,0.23,0.07,0.26,0h0.28l0.26,0,0.24-.06,1-.57,0.21-.09,0.24-.05,0.22,0,0.23,0-0.06.06-0.32.21-0.57.45-0.05,0-1.79,2-0.36.73-0.53,2.92-0.1,1.26-0.08.29-0.36.87L399,261.47l-0.24.08-0.37-.08-0.47.19-0.91.7-0.45,0-0.51-.37-1.09-.28-1.17,0-1.6.44-1,.11-1.25.86-1.78,1.72-1.93,1.33-1.72-.33-0.61,1.44L383,268.6l-0.53.49-1,.69-0.33.4-1.11-.35-5-.88-0.86.1-2.32.7-1.19.23-1,0-0.93-.11-1.51-.46-0.73-.14-0.86.12-0.29.42,0,1.38-0.29.84-1,.87-0.82.28-1,0-0.94-.13-1.25.1-0.75.39-0.57.57-0.33.69-0.15.86,0.09,0.82,0.82,1.66,0.37,1,0.66,3,2.2,4.74,1.44,0.45,0.68-.67-0.09-1.3-0.87-1.41,1.14-1.08,0.29-.16,0-.26,0.62-.53,0.71-.43,0.25,0,0.37-1.28,0.3-2.44,0.44-1,1.63-1.48,1.59,0,1.58,0.86,2.5,1.9,0.42,0.17,0.67,1.08,0.76,0.42,0.5,0.45,0.52,0.61,0.73,1.39,0.37,1.1,0.11,1.61-0.25,1.36,0,0.39,0.09,0.29,1,0.5,0.45,0.45,2,3,2.46,2.27,0.5,0.85,1.86,4.16,1.78,2.7,1.13,1.11,0.54,0.91,0.17,0.59-0.11.51L390.15,305l-0.24,1.07-0.1,1.48,0.36,2.81,0.44,1.42,0.62,1.05,0.58,0.64,0.62,0.52,0.5,0.55,3,5.37,0.27,1.32-0.54,2,0.12,2.87,1.13,5.2,5.4,13.68,0.59,0.89,10.88,5.24-3.32,1.39-0.68.6,0.07,0.38,0.09,0.25,0.61,1.15,0.44,1.45,1.72,6,1.27,2.35,0.7,0.59,0.54,0.57,0.2,0.55-0.1,1,0.11,2.27,0.92,2.2,0.85,2.73,0,0.7-0.15,1-0.84,2-1.2,4.18-0.24,1.68,0,1.13,0.63,3.36,0.32,3.36,5.65,2.1,2.46,1.51,6.79,4.25,1.32,1.32,0.5,1.19,0.06,1.08,0.17,1.11,0.64,1.32,0.77,0.8,0.79,0.57,4,2.07,3.36,2.43,2.42,2.43,0.74,1,1.74,2.87,0.43,0.5,0.35,0.23,0.26,0,0.3,0.07,0.32,0.15,0.54,0.32,0.25,0.09,0.48,0.13,0.64,0.24,0.24,0h0.19l0.87-.11h0.54l0.23,0,0.54,0.13,1.39,0.56,1.06,0.36,2.7-.35,0.55,0.05,0.27,0.15-0.07.48v0.25l0,0.23,0.12,0.18,0.93,1,0.84,0.69,0.45,0.22,0.34,0,0.73-.39,0.53-.12,0.19-.07,0.38-.2,0.17-.13,0.43-.25,0.31-.12,0.63-.11,0.52,0.09,0.82,0.31,0.39,0.05h0.32l0.19-.1,0.22-.08,0.2-.09,0.18-.12,0.67-.27,0.82-.11,0.42-.11,1.19-.56,0.25,0,0.14,0.16,0,0.27-0.13,1.61v0.28l0.11,0.47,0.1,0.21,0.25,0.35,0.29,0.3,0.13,0.17,0.09,0.22,0,0.26v0.57l0.06,0.34,0.13,0.34,0.37,0.45,0.29,0.16h0.25l0.2-.09,0.18-.11,0.2-.1,0.6,0,1,0.07,3.35,0.66,0.63,0.21,0.19,0.13,0.29,0.28,1.55,2,1.23,2,2.2,2.39,1.47,1.14h0l-0.61-1.67-1.55-1-0.72-.69-2-3.26L481,427.32l-2.56-4-1.84-4.52L474,407.46v-8.79l0.45-1.49,0.78-1.34,2.7-3.46h0.53l1.81,0.28,1.15-3.07,0.82-4.07,0.87-2.69,0.68-.65,0.71-.34,0.83-.13,1,0,0.77-.28,0.85-1.26,0.67-.29,0.1-.21,1.18-.39,1.21-.25,0.17,0.25,0.68-.64,0.33-.53,0.11-.68,0-1.12-0.21-3.06-3.94-15.87-0.82-.71-1.42,0-0.75.34-0.47.89-0.58,1.69,0.12,0.67,0.35,0.57-0.09.39-1.25.14-0.86-.11-0.83-.3-0.62-.46-0.73-1.67-1.16-1.34-1.36-1.25-1.12-.76,0.36-.75,0.71-.79,0.83-.63,0.73-.25,0.48-.33,1.58-2,0.32-.24,0.44-.16,0.48-.25,0.44-.53,0.1-.58-0.19-.54-0.29-.5-0.14-.48,0.17-.64,0.76-1.6,0.17-.79-0.06-1.15-0.19-1.08-0.35-.93-0.5-.68-2.09-.85-1-.64,0.46-.29,3.51,1.07,1.53-.05,0.48-1.66,0.14-1.4,1.29-1.89,0.31-1.47-0.25-1.15-0.59-.91-1.43-1.51h-0.64l-1.1,1.18-1.36-.8-0.12-1.29,2.58-.28,1.6,0.76,1.5,1.47,1.12,1.7,0.44,1.48-0.68,2-1.24.85-0.72.94,0.89,2.21,2.12,2.66,0.6,1.49L489.5,346l0.63-.24,0.58-.35-0.64-1.87-0.62-11.14L491.34,322l4-8-0.36-.66-1.68-.24-0.75.46L492,314.7l-1.35,4.47-0.39.79-0.18-.55,0.1-1,0.44-1.71,0.1-.87-0.45-1.34-2.67.57L486,314.3l-0.64-1.59,0.28-1.66,0.6-1.76,0.34-1.86L486,303.53l-0.68-.82-0.57-.18-0.69,0-1-.22-0.71,0-0.34.19-0.1-.1v-4.54l0.63-1.15,1.55-.51,3.68-.39,2.73-1.17,4.53-3.82,2.67-1.56-0.88-1.38-0.34-.41,0.41-.66,0.19-.6,0-1.47-0.13-.9-0.33-.34-0.39-.25-0.36-.6-0.12-.61-0.15-1.48v-0.29l-0.19-.18-1.87-1-0.67-1.54,0-1.78,0.76-1.61,1.76-1,2.18-.17,2.28,0.56,1.65,1.39,0.28,2.34-0.26.6-0.39.44-0.35.29-0.15.18-0.14,4.88-0.29,1.18-0.73.83v0.65l1.12,2.66-0.71,3.93-2.1,2.73-3-1h-0.53l-0.17.32L494,295h-0.1l-0.31.17,0.39,2.18L493.81,303l1.87,1.67,0.54,1.2,0.32,1.37-0.07,1-0.51.57-1.76,1.25-0.64.62,1.7,0.92,2-.32,2.13-.77,2.09-.43,2.74-.11,1.72-.57,0.89-1.42,0.22-2.66-0.57-2.17Zm39.79,28.47-0.81,1.53,0.17,1.95,2.46-2.73,0.33-.57-1-.79Zm5.3-10-0.05-.32-0.21-.65-0.38.22-0.38.73,0.24,0.35L549,319l0.42,0.46,0-1Z" transform="translate(-148.82 -78.8)"/><polygon id="Río_San_Juan" data-name="Río San Juan" class="cls-2" points="342.77 358.09 340.96 357.72 339.73 357.9 340.05 358.83 338.55 359.11 337.88 357.26 336.41 356.12 334.2 353.73 332.97 351.69 331.42 349.65 331.12 349.37 330.93 349.24 330.3 349.03 326.94 348.37 325.98 348.29 325.38 348.31 325.17 348.42 325 348.53 324.79 348.62 324.55 348.61 324.25 348.45 323.88 348 323.75 347.66 323.69 347.33 323.67 346.75 323.63 346.5 323.55 346.28 323.42 346.11 323.13 345.81 322.88 345.46 322.78 345.25 322.68 344.78 322.66 344.51 322.8 342.9 322.78 342.63 322.64 342.47 322.38 342.42 321.2 342.99 320.78 343.09 319.97 343.2 319.3 343.47 319.12 343.59 318.92 343.68 318.7 343.76 318.5 343.87 318.19 343.88 317.8 343.82 316.98 343.52 316.46 343.43 315.83 343.54 315.52 343.66 315.09 343.91 314.92 344.03 314.54 344.24 314.35 344.3 313.81 344.42 313.08 344.82 312.74 344.77 312.28 344.55 311.45 343.85 310.52 342.88 310.4 342.69 310.36 342.47 310.37 342.22 310.44 341.73 310.17 341.58 309.62 341.52 306.92 341.87 305.85 341.52 304.46 340.95 303.92 340.82 303.68 340.8 303.14 340.81 302.27 340.93 302.07 340.91 301.83 340.87 301.19 340.63 300.71 340.5 300.46 340.41 299.92 340.09 299.6 339.94 299.3 339.87 299.05 339.88 298.69 339.65 298.26 339.15 296.53 336.27 295.79 335.31 293.37 332.88 290.01 330.45 286.01 328.38 285.22 327.81 284.45 327.01 283.81 325.69 283.64 324.57 283.58 323.5 283.08 322.31 281.76 320.99 274.97 316.75 272.51 315.24 266.86 313.14 266.54 309.79 265.91 306.43 265.94 305.3 266.18 303.62 267.38 299.44 268.22 297.45 268.37 296.49 268.41 295.79 267.56 293.06 266.64 290.86 266.53 288.59 266.63 287.55 266.43 286.99 265.89 286.43 265.18 285.84 263.91 283.49 262.19 277.49 258.93 277.39 257.97 277.18 257.56 277.01 257.24 276.94 256.95 276.9 255.67 277.03 255.32 277 254.6 276.8 254.23 276.8 252.49 277.11 246.22 277.03 245.78 277.1 245.37 277.22 245.09 277.64 239.47 282.84 237.33 284.25 233.69 285.05 232.43 287.01 232.19 287.58 232.19 287.68 232.1 288.03 231.94 288.29 231.58 288.68 231.45 288.89 231.37 289.08 231.25 289.24 230.65 289.88 230.26 290.39 229.98 290.87 229.7 291.08 229.19 291.38 227.6 291.98 227.19 292.03 226.97 291.97 226.58 291.82 226.04 292.03 225.26 292.46 223.56 293.67 222.24 294.33 221.88 294.66 221.67 294.91 220.34 297.2 220.87 297.37 221.11 297.52 222.55 298.9 223.18 299.77 223.85 302.05 224.84 303.04 226.97 304.68 230.36 308.88 232.3 310.1 235.12 314.19 235.82 314.58 236.37 314.68 236.87 314.83 237.44 315.42 237.72 316.11 237.91 317.01 238.03 318.69 238.45 320.46 239.44 321.45 240.58 322.32 241.46 323.7 241.26 324.04 240.74 324.32 240.46 324.73 240.92 325.49 241.95 325.29 242.77 325.29 243.56 325.82 245.98 328.25 246.78 329.48 247.32 331.47 247.32 338.29 247.61 340.16 248.65 342.96 248.54 344.57 247.8 345.39 244.13 348.12 241.41 348.23 240.92 348.43 240.48 348.74 238.28 349.71 237.44 349.88 235.69 349.55 234.37 347.92 232.5 347.54 231.08 347.43 215.77 343.91 214.41 343.88 212.99 344.14 211.61 344.24 209.63 343.3 208.68 343.22 206.85 343.32 206.14 342.96 204.43 341.1 203.57 340.36 200.42 339.26 199.97 339.16 199.74 339.64 203.21 342.82 210.83 345.65 215 347.42 226.44 351.66 233.72 354.13 238.56 356.94 247.34 351.11 253.64 346.94 256.31 346.3 257.82 346.96 261.06 349.3 262.54 349.52 264.38 349.42 266.34 350.04 270.58 351.93 271.05 352.05 271.49 352.23 271.9 352.46 272.25 352.72 274.19 355.14 274.92 355.76 275.68 356.19 276.59 356.55 277.52 356.64 278.33 356.3 282.91 353.31 283.63 352.87 284.44 353.28 284.64 353.93 284.62 354.81 284.8 355.88 285.17 356.51 286.3 357.94 286.54 358.55 287.44 359.39 291.4 360.92 292.3 361.53 293.06 362.38 294.68 363.22 296.15 364.46 296.47 366.54 295.29 367.16 294.94 367.4 294.56 368.07 294.72 368.56 295.07 368.93 295.26 369.23 297.13 370.74 297.58 371.33 298.54 370.63 299.86 370.66 300.47 370.75 301.21 370.85 302.23 370.68 303.81 372.24 304.79 372.61 305.77 371.86 306.36 371.86 307.39 372.88 309.5 371.51 310.95 371.86 311.96 370.85 313.11 370.66 314.05 371.3 314.44 372.78 319.57 376.84 320.14 377.12 320.94 377.24 321.77 377.08 322.95 376.25 323.52 376.06 325.85 376.52 326.17 376.33 327.91 374.28 333.56 372.13 334 372.02 339.59 370.68 342.58 369.13 342.83 366.78 342.05 363.7 341.97 359.97 342 359.56 341.9 359.11 342.52 358.67 343.02 358.78 343.56 358.77 344.17 358.83 342.77 358.09"/><path id="Rivas" class="cls-3" d="M321.53,389.46l1.68,0.13,2.67-.64,1.47-.13,2,1.2,1.62,4.83,1.88,1.07,0.81,0.1,0.88,0.46,0.66,0.1,0.3-.2,1.09-.79,0.38-.2,1.14-.36,0.93-.92,0.33-1.23-0.65-1.35-0.81-1.15-0.25-.87-0.3-.51-1-.18-1.29-.23-1.09-.41-1-.23-1,.33-1.2-1.07-0.28-1.28,0-1.46-0.24-1.64-0.51-.84-0.86-.69-1.08-.51-0.5-.28-0.64-.64-1,.46-3.61.05-1.75.74-1.1,1.46-1.4,3.38-1,1.07,3.3,2Zm61,43.46-7.28-2.47-11.44-4.24-4.16-1.77L352,421.62l-3.47-3.18,0.23-.48-2.48-.56-3.53-.28-7.52-2.71-1.2-.87-1-1-1-.79-2.32-1.43-1.3-.56-1.44-.38-2.81-.28-10.41-10.43-1.53-2.68-2.33-8.9-0.6-1.41-2.62-4.5-1.43-1.25v1.25l-0.68-.61-0.43-.69-0.18-.82,0.06-.92,0.41,0.23,0.84,0.15,0.49,0.23-1.08-5.12L304,372.15l0.16-.15h-0.73l0,0.31,0.53,1.64-1.22-.92-1-1h-0.34l-2.78.81-3.77,1-0.4-.14-0.84-.87-0.33-.35-0.37-.23-0.43-.11h-0.15l-0.21,0-0.24.15-0.25.25-1.33,2.86-0.93,1.53-0.32.22-2.36,1.2-0.3.31-0.64.09-2-.53-3,2-0.26.34L280,381.56l-2.46,4.54h0l0.73,2.33,0.33,0.7,1.23,1.11,3.71,2.12,2.91,3.09,2.27,1.18,2.86,3.48,1.32,1.24,3,0.84,0.28,0.37,1.3,0.93,0.4,0.19,0.75,0.54,9.08,10.23,1.55,2.32,0.8,3.13,0.67,1.54,1.2,0.66,1.65,0.26,4.25,1.78,0.06,0,2.06-3.36,1.56-3.4,2.4-3.24,2.84-1.19,2.44,1.26,2.4,2.17,2.75,1.55,8.62,3.21,11.5,4.27,3.05,1.14,12.23,4.55,13.74,5.09,2,0.22,2-.72Z" transform="translate(-148.82 -78.8)"/><polygon id="Nueva_Segovia" data-name="Nueva Segovia" class="cls-4" points="150.83 98.9 151.61 98.74 152.39 98.41 153.55 98.34 155.42 99.17 156.42 100.69 157.25 102.49 158.6 104.14 160.49 104.8 162.48 104.73 164.21 104.88 165.34 106.16 165.5 106.22 163.46 107.48 162.62 108.48 162.1 109.91 161.98 114.06 161.73 115.22 161.36 116.28 158.9 120.52 158.12 122.54 157.85 124.72 158 129.93 157.07 131.08 155.51 131.86 153.61 133.28 152.18 135.32 151.57 135.76 150.44 135.9 149.65 135.47 148.93 134.81 147.98 134.26 146.51 134.16 142.06 134.54 141.23 134.93 140.33 133.81 139.38 134.19 138.56 135.19 135.99 132.09 134.1 128.72 133.27 127.69 132.58 126.99 129.64 124.58 127.98 125.13 126.11 125.88 125.87 126.27 125.6 126.84 125.09 129.32 124.32 130.29 121.72 129.13 120.07 128.11 118.75 127.72 117.75 127.58 114.22 128.03 111.49 128.07 106.74 126.53 100.62 126.43 99.78 126.53 97.86 127.03 97 127.86 95.67 128.52 94.6 127.59 93.63 127.01 92.19 126.47 91.26 125.8 90.5 124.97 90.13 124.23 88.45 121.71 82.48 120.61 80.6 120.58 80.21 120.87 79.95 121.15 79.3 122.05 78.59 122.58 78.24 122.31 77.91 121.86 77.74 121.07 77.99 116.4 78.07 114.88 78.27 113.66 78.41 113.12 78.82 112.77 79.8 112.08 81.73 111.11 83.51 110.95 87.22 111.42 94.16 110.09 97.53 109.89 100.34 111.45 101.85 111.88 103.09 111.48 104.23 110.87 105.48 110.69 106.82 112.08 107.33 112.44 108.13 112.71 108.73 112.79 113.12 112.51 114.68 112.12 115.95 111.5 116.94 110.38 117.44 109.05 118.11 106.45 119.45 104.32 125.03 98.3 127.97 93.69 128.86 93.09 129.86 92.7 130.89 92.17 131.89 91.12 132.5 90 132.83 89.16 133.28 88.4 134.23 87.53 135.4 86.92 141.92 85.94 141.9 86.92 140.98 88.8 141.22 91.13 147.23 95.51 149.07 97.96 149.65 98.5 150.83 98.9"/><path id="North_Caribbean_Coast_Autonomous_Region" data-name="North Caribbean Coast Autonomous Region" class="cls-5" d="M550.86,119.58l0,0v-0.06l-0.17.08,0.09,0.13h0l0,0.05,0.11-.05Zm-0.41,22,0.17-.22-0.3.22h0.13Zm1.27,0.65h0.16l0-.15-0.19.06v0.08ZM551,121V120.9l-0.17.08,0.09,0.13h0l0,0,0.11-.05,0-.15Zm-0.8,23.82v-0.06l-0.17.07,0.09,0.13h0l0,0.05,0.11-.05,0-.15Zm7.95-15.31v-0.19H558Zm-11.72,10.07,0.23-.08-0.23-.12v0.2ZM552,143l0,0.29,0.21-.07Zm-2.32,1.05,0.08,0.11h0.08l0-.15Zm-1.75,4.21,0.15,0-0.12-.12Zm0-.86-0.14.28,0.16,0Zm4.74-4.44v-0.08h-0.21Zm4.24-8.11v-0.06l-0.17.08,0.09,0.13h0l0,0L557,135l0-.15Zm-0.58.55,0.16-.14-0.2-.25Zm0.05-.65,0.15-.17-0.2-.14Zm1-6.68,0,0.05,0.21-.1-0.17-.07Zm-5.06,18.83v-0.08H552.1Zm4.93-18.07v-0.06l-0.17.08,0.09,0.13h0l0,0,0.11-.05,0-.15Zm-1.27-.21,0.21-.15-0.25-.13Zm-3.39,14.68,0-.22-0.17.11Zm-6-3.45h0.1l-0.07-.12Zm8.38,5.31h0.29l-0.11-.34Zm-2.21,1.33h0.14v-0.24ZM547,139.86l0.13,0-0.16-.16Zm5.19,2.65-0.08-.13-0.09.17,0.12,0Zm-7.42-1.07h0.08l0-.2-0.14.1Zm-12-59.51-1.19.23-2.25,1-3.77-.06-0.35.06-1-.41-0.62-.44,0.07-.46,1-.5-3.75-.4-1.46.1-1.29.85-0.44-1.17-0.89-.55-1.09-.43-1.06-.86-0.82,1.53-1.33,1.47-1.72,1-2,.24L508,82.76l-1-1.6-0.45-.44-1.12-.19-0.86.1-0.29.44,0.57,0.85-0.45.59-0.14.54-0.05,1.34-0.84-.78-0.48.38-0.11,1L503,86.2,502.51,86l-1.26-.37,0.19,0.27,0.23,0.62,0.17,0.31-1.23.37-2.12,1.7-2.09.79-0.42,1-0.18,1.19-0.37,1.08H494.8l-0.72-.93-1.57-.47-1.89-.1-1.69.23-1.59.76-0.33,1,0.81,2.53h-0.63l-0.32-.75-0.63-.4-0.88-.12-1.08.07L484.46,96l-1.77.69-4.75.29,0.61,1L479,98.49l0.66,0.45h-1.57l-1.69.55-1.52.85-1,.94-0.49-.63-0.3-.22-0.33-.1-0.62-.25,0.42,0.83,0.11,0.37-1.09-.29-1.37-1.47-1-.58-0.42,2,0,0.81,0.44,0.72-8.42.45-1.46-.18-0.16-.68-0.44-.24-1.44,0-0.9-.12-0.32-.31-0.22-.41-1.95-1.24-0.62,0-0.93.78,1,2.07,0.59,0.81,0.75,0.73v0.66l-0.58.37-0.36,0-0.4-.21-0.71-.12-0.78.17-0.44.37-0.34.42-0.5.3-2.08.61-1.25.1-1-.43-2-2.18-0.66-.56-0.77-.44-1.18-.41-1.07.08L440,104l0.44,4.13L440,110l-1.75.93-0.94-.07-2.07-.47-1.3-.12-0.65-.47-0.61-2.29-0.83-.85-1.12,1.66-1.18,2.22-1.57,1.94-3.17,1.12-2.2,1.24-0.94.28-1.3-.39-0.89-.77-0.9-.5-1.29.4,0.26-1.72,0.32-.62-6.22-.19-1.92-.41-3.3-1.43-1.63-.18-1.57.95-1.28-3L401,105.82l-1.74-1.18,0.09-1.17-0.24-1.06-1.69-.21,0-.17,0.67-.86,0.26-.25-1.25-2.08-1.87-1.4-2.21-.67-2.24.1-5.09.93-1.4.82-3.9,3.79-1.52,1.09-1.33.9-0.17.12-1.16,1.1L375.49,107,375,110.23l-0.28.53-0.44.21-1.34.37,0.46,0.86,2.41,1.72L374,115.69l-0.51.68h2.21l-0.12.29,0.41,0,0.62,0.15,0.24,0.13,0.27,0.21,0.2,0.33,0.18,0.37,0.14,0.55,0,0.58-0.44,1.27-0.13.52v0.52l0,0.4-0.16.9,0,0.52,0,0.76-0.06.82,0.07,0.26,0.14,0.21,1.14,0.91,1.26,0.69,0.38,0.36,0.3,0.54,0.14,0.69-0.15.86-1,1.64-0.12.56,0.08,1.92-0.1.44-0.66,1.2-0.16.57,0,0.59,0.24,0.64,1.6,2.09,1.43,1.34,1.22,1.48,0.44,0.28,0.6,0.16,7.61,0.5,0.22,1.22L391.45,146,389.59,156l-0.27,4.08,0.79,3.2-0.17,1-0.78,1.69L384,174.78l-10.81,17.37-0.43.44-0.39.18L364.23,189l-0.32.09-10.38,6.5-0.18,0-6.85,1-0.43.48-0.41.79-0.76,2.1L344.25,201l-0.61.71-0.89.58-0.15.54,0.07,0.79,0.69,1.48,0.57,1,0.41,1.17,0.14,0.84-0.9,2.72,0,1.58,0,0.43-0.11.81-0.29.69-0.93.78-4.62,3L335,220.47l-0.48,1.15,0,3.11,1.79,4,4.34,5.87,1.69,1.67,1.15,0.46,0.4,0.23,0.47,0.37,2.44,2.26,0.19,0.13,0.21,0.09,0.25,0h0.26l0.52-.06,0.47-.13h0.28l0.34,0.1,0.64,0.44,1.2,0.6,0.29,0.2,0.17,0.29,0.11,0.78,0.16,0.17,1,0.13,0.61,0.86,2.62,1.11,0.9,0.12,2.22-.54,2.44-1.14,0.83-.64,0.74-.85,1.06-2.21,1-3,0.69-1.58,1.1-1.58,2.16-1.28,2.84-.26,5.65,0.12,1.31-.13,0.77-.31,7.72-7.24,0.36,0.1,0.29,0.32,0.5,0.89,8.5,10.84,1.56,2.36,22-2.69,11.87-.05,1.68-.22,1.06-.38,1-1.14,0.9-.59,0.64-.21,0.55,0,0.65,0.07,0.46,0.12,0.54,0.26,0.58,0.38,1,0.29,0.83,0,5.13-1.44,1.15-.15,0.67,0.18,0.22,0.43,1.64,5.18,0.35,0.63,0.48,0.55,0.55,0.11,0.73,0.36,2.06-.62,1.34,0.26-0.26-.39-0.46-.88-0.44-.47,1.61,0.3,1.31,0.5,1-.21,0.71-1.84,0.58,0.4,0.39,0,0.77-.44h0.58l0.77,0.47,0.33-.38-0.09-.87-0.48-1,0.89,0.16,0.35,0.23,1.29,0.11,6.9,0.28,1.64,0.26,0.87,0.36,0.67,0.4,0.89,0.37,1.47,0.41,0.66,0.33,0.32,0.4-0.05.49-0.19.5-0.31.52-1.61,2-0.31.5-0.19.5-0.06.49,0.07,0.46,0.25,0.39,0.37,0.35,6.4,4.69,8.38,4.91,1.56,0.52,3.47-.16,4.27,0.27,1.56-.2h0L499.91,237l-0.48-1.07,0.63-.55-0.6-1.21L499.3,232l0.94-11.26,1.52-5.78,1.78-4.36,0-1.67,0.35-2.09-0.12-4.29,2-10,3.28-11.06,2-8.14,1.18-2.79,1.71-2.43,4.05-2.85,0.6-1.07,0.44-1.45,3.05-3.72,7.07-11.45,2.31-5.54,0.41-3-0.44-3.45-4.13-12.05-0.71-4.2-0.8-1.64-0.18-.49-3.33-15.42-0.76-.76-0.62.62,0.06,2-0.7-1.19-0.89-.87-1-.29-1,.54,0.72,0.3,1.57,1,0.62,0.54-1.31,1.63-1.29-.42-1.23-1.19-1.12-.68-0.57-.81L514,98.6l-1.17-.94-0.28.38-0.83.88,0.89-2.09L516.35,92,518,90.39l1-.63,1.38-.52,1.22,0.29,0.53,1.76,0.23,1.77,0.91,2.28L523.37,97l-0.65-.84-0.85-.32-1,.13-1,.48V97l0.76,0.48,0.27-.07,0.66-.41V97.6L521.5,98l-0.17.4-0.29.49V98.27l-0.72.86-0.24.42-0.21.53,2.93-1.17,1-.78,0.7-1.1,0.21-.87,0.16-1.88,0.22-.86,0.44-.63,1.08-1.07,0.23-.41,0.3-1.22,0.77-1.49,1-1.27,1.09-.53,0.63-1,0.82-1.87,1-1,1.25,1.49,0.77-.83,1.56-.73,0.62-.91-1.12.19ZM519.25,138l2.08,0.72,0.86,0.49,0.54,0.62h0.64l-0.43-.65-1.14-1.06-0.23-.44,0.23-1.11,0.56-.05,0.68,0.54,1.42,1.6,0.8,1.24,0.36,1.24-0.51,1.09v0.54l1,1.22,0.6,1.63,0.09,1.73-0.54,1.47L525,149.91l-0.84-.57-0.83-1.24-1.22-1-0.4.44-0.39.05-1-.49L520,145.91l-0.11-.54v-0.7l0.21-.75,0.39-.49,0.38-.36,0.19-.26,0-1.5-0.44-1-1.33-1.6V138Zm26.8-12.56V125.4l-0.17.08,0.09,0.13h0l0,0.05,0.1-.05,0-.16Zm-3.9,15.14,0,0.17,0.06,0.13,0.17-.09,0.1-.21-0.06-.18Zm24.95-25.93-0.53.47,0.58,0.58Zm18,5.24h0l0,0.05,0.1-.05,0-.15,0,0V119.7l-0.17.08ZM585,144.68h0.13l-0.07-.15Zm-14.47-24.39,0,0.05,0.1-.05,0-.16,0,0v-0.06l-0.17.08,0.09,0.13h0ZM543.33,133.1l0,0.05,0.1-.06,0-.15,0,0V132.9l-0.17.08,0.09,0.13h0Zm16-4.67-0.28.05,0,0.1ZM542.5,140.9l0.16,0-0.12-.21Zm2.17,1,0.19-.28-0.27.2Zm-0.34-.8,0,0.08,0.13,0,0-.28Zm0.21-5.56,0,0.28,0.13-.08Zm0.42,5.8,0.18,0.05,0.05-.19-0.18-.11Zm0.4-9.57h0.1l-0.07-.12Zm-1.21,9.65,0.2,0.2,0.08,0v-0.23Zm-0.7-.05-0.19.11,0.08,0.09Zm0,0.63V142l-0.17.08,0.09,0.13h0l0,0.05,0.11-.06,0-.15Zm0.07-8.69h0.13l-0.09-.16Zm0.56,8.2v-0.06l-0.17.08L544,141.7h0l0,0,0.1-.05,0-.15Zm-0.37.06h0.08l-0.11-.33Zm14.58-11.94,0.1,0,0-.09-0.25-.05Zm17-17.16,0.42,0.29,0.08-.08-0.2-.26ZM574,130.35l0,0.05h0.11l-0.06-.15Zm0.08-.5L574,130h0.1v-0.11Zm2-12.93h0.08l0.08-.16-0.14,0Zm-0.1-3.46v-0.06l-0.17.08,0.09,0.13h0l0,0,0.11-.06,0-.15Zm-2-14.79-0.08-.16-0.09.23,0.17,0.1V98.66Zm-1,31.46,0.1-.13h-0.24Zm-0.12-.53,0,0v-0.06l-0.17.07,0.09,0.13h0l0,0.05,0.11-.05Zm-0.3,1.4,0.11-.12-0.15-.06ZM577,120.9l0.5,0.73,0.32,0.27-0.48-1.7Zm-3.16-2.62H574l0.1-.19h-0.21Zm0.1,11.67,0-.17-0.14.05Zm10.55,14.48v0.08h0.08l0.08-.08-0.08-.08Zm-0.64-23.57,0.06-.08-0.27-.16Zm0.37,0,0.25-.06-0.27-.23ZM585,148.7l0.09,0.41,0.32-.29Zm-0.13-29.47v0.27l0.15,0Zm-3.15,22.24,0.24,0.64,0.85-1.3-0.64.09Zm-0.13-1.5-0.53.65,0.79,0.22Zm-2.86-25.36v-0.06l-0.17.08,0.09,0.13h0l0,0.05,0.11-.05,0-.15Zm4.68,6.3,0,0,0-.14,0,0v-0.06l-0.17.08,0.09,0.13h0l0,0Zm0.28-1.17,0,0.05,0.1-.05,0-.15,0,0v-0.06l-0.17.08,0.09,0.13h0Zm-0.26,1.19-0.08.21h0.2l-0.08-.21ZM558.67,133l0.9-.34-0.9-.68v1Zm4.19,20.73,0.06-.08-0.15-.13Zm0-26.7h0.06l0.11-.19-0.23,0Zm0.21-.54h0.11l-0.07-.2Zm-0.43-.44,0.1,0.27,0.09-.08ZM563,153.15v-0.06l-0.17.08,0.09,0.13h0l0,0.05,0.11-.05,0-.15ZM559.78,144l0.21-.08h-0.25Zm-0.85.17,0.11,0v-0.11l-0.11-.05v0.12Zm0.16,0.21h0.1v-0.13Zm3.55-17.52v-0.06l-0.17.08,0.09,0.13h0l0,0,0.1-.05,0-.15Zm1.54,27.8v-0.06l-0.17.08,0.09,0.13h0l0,0.05,0.11-.05,0-.15Zm-2.12-28.18v-0.06l-0.17.08,0.09,0.13h0l0,0.05,0.11-.05,0-.15Zm4.83,30.48v-0.06l-0.17.07,0.09,0.13h0l0,0,0.11-.05,0-.16Zm2.89-1.8-0.27.11,0.25,0.06Zm0.38-22.59H569l-1.39.69L567,134l-0.3,1-0.56,1-1.37.77,0,0.35-0.1.21-0.18,0h-0.39l0.37,0,4.52,0.39,1.56-.71,0.58-2.45-0.28-1.44Zm-0.59,23.09,0.23,0.1,0.06-.13-0.28-.15v0.18Zm2-24.73,0.11,0,0-.18-0.14.06v0.14Zm0.48-1.33,0.1,0.06,0.08-.08,0-.19-0.18,0Zm0.42,0.23,0-.08-0.08,0Zm-3.4,27.74,0.21-.1,0-.09Zm-4.23-1.66,0.25,0.07v-0.11L565,155.7Zm-0.34-1.18h-0.1l0.1,0.12v-0.11Zm3.45,2.12v-0.16l-0.12.11Zm-3.45-1.75V155l-0.17.08,0.09,0.13h0l0,0.05,0.11-.05,0-.15Z" transform="translate(-148.82 -78.8)"/><polygon id="Matagalpa" class="cls-6" points="249.93 159.48 246.26 164.42 245.98 164.88 245.72 165.47 245.9 165.55 246.07 165.65 246.69 166.24 246.89 166.35 247.1 166.44 247.33 166.5 247.54 166.59 247.73 166.71 248.07 166.98 248.73 167.84 248.83 168.04 249.36 169.74 250.6 172.3 250.84 172.64 251.12 172.96 251.29 173.1 251.49 173.21 251.71 173.28 251.98 173.33 252.26 173.33 252.52 173.29 252.75 173.23 253.7 172.66 253.91 172.57 254.15 172.52 254.38 172.5 254.61 172.53 254.55 172.59 254.23 172.8 253.66 173.26 253.6 173.3 251.81 175.29 251.45 176.03 250.91 178.94 250.82 180.2 250.73 180.5 250.37 181.37 250.2 182.67 249.96 182.75 249.59 182.67 249.12 182.86 248.22 183.56 247.77 183.51 247.26 183.14 246.17 182.86 244.99 182.91 243.39 183.35 242.39 183.46 241.13 184.31 239.35 186.04 237.42 187.37 235.7 187.04 235.09 188.48 234.22 189.8 233.7 190.28 232.65 190.98 232.32 191.37 231.21 191.02 226.16 190.14 225.31 190.24 222.98 190.94 221.79 191.16 220.76 191.2 219.83 191.09 218.32 190.63 217.59 190.49 216.73 190.61 216.44 191.03 216.46 192.41 216.16 193.25 215.2 194.12 214.37 194.4 213.35 194.37 212.41 194.24 211.16 194.34 210.41 194.72 209.84 195.3 209.51 195.99 209.37 196.84 209.46 197.66 210.28 199.33 210.65 200.31 211.31 203.26 213.51 208 213.58 208.95 213.49 209.78 213.26 210.49 212.93 211.04 212.35 211.04 211.93 210.66 211.14 210.12 210.37 209.82 210.03 210.14 209.78 211 209.23 210.85 206.57 207.86 205.61 207.71 204.16 208.65 203.58 208.65 204.04 206.46 204.16 206.22 203.54 205.74 202.19 205.66 200.58 204.79 197.77 203.82 197.18 203.51 196.89 202.67 196.17 201.8 195.31 201.13 194.57 200.85 194.06 200.75 193.42 201.24 193.29 201.41 193.15 201.76 192.96 202.15 192.69 202.5 192.53 202.65 192.16 202.88 191.77 203.07 191.1 203.27 190.89 203.38 190.74 203.54 190.65 203.74 190.17 203.9 189.31 203.99 183.86 203.7 183.58 203.75 183.36 203.85 183.19 203.99 183.06 204.16 181.95 206.38 181.7 206.75 181.37 206.88 180.86 206.95 179.22 206.96 178.82 207.03 178.06 207.44 176.32 207.77 175.31 207.96 174.27 208.83 173.93 208.99 173.69 208.98 173.19 208.71 171.84 208.45 170.72 208.15 155.92 211.25 154.54 211.95 153.04 215.1 148.97 217.38 148.51 217.74 146 220.05 144.61 219.77 139.35 217.74 138.53 217.17 137.6 216.41 136.3 214.94 135.03 213.77 133.51 213.29 119.05 210.07 119.91 202.38 120.92 193.73 121.17 191.56 121.65 188.42 123 185.6 123.3 185.24 123.96 184.6 125.85 183.52 126.85 183.17 129.03 182.69 130.11 182.31 130.82 181.81 131.2 181.34 131.4 180.87 131.96 178.62 135.16 174.23 135.6 174.24 136.76 174.21 137.53 174.54 138.76 175.28 140.08 176.62 143 178.86 144.12 177.49 144.54 177.28 145.56 177.12 148.65 177.24 149.73 177.09 150.59 176.8 152.45 175.48 157.28 170.91 161.22 167.5 162.15 166.95 165.34 164.16 171.55 156.84 173.04 154.28 174.29 152.27 175.48 150.9 177.26 149.68 179.26 149.68 180.92 149.03 185.66 145.93 187.45 149.92 191.78 155.78 193.47 157.45 194.62 157.91 195.02 158.14 195.49 158.51 197.93 160.77 198.13 160.9 198.34 160.99 198.59 161.02 198.85 161.03 199.37 160.97 199.84 160.84 200.12 160.84 200.46 160.95 201.11 161.39 202.3 161.99 202.6 162.19 202.77 162.48 202.87 163.26 203.03 163.43 204.04 163.56 204.65 164.42 207.28 165.52 208.18 165.65 210.4 165.1 212.84 163.96 213.67 163.32 214.41 162.47 215.46 160.26 216.47 157.23 217.16 155.65 218.26 154.08 220.43 152.79 223.26 152.53 228.91 152.66 230.23 152.53 231 152.22 238.72 144.97 239.07 145.07 239.36 145.39 239.86 146.28 248.37 157.12 249.93 159.48"/><polygon id="Masaya" class="cls-6" points="143.59 253.01 146.42 256.24 146.7 257.58 143.26 265.17 140.2 271.98 139.91 272.63 139.09 274.43 137.47 278.04 136.73 277.84 132.2 276.49 132.01 276.28 130.89 274.72 128.39 273.54 120.61 270.38 119.68 269.27 121.69 266.79 124.02 268.6 124.61 268.87 125.63 269.14 126.3 269.08 127.09 268.86 127.77 268.49 128.3 268 128.78 267.43 129.73 265.88 129.84 263.94 129.61 263.42 129.15 262.77 127.92 261.5 127.64 260.39 132.81 255.26 134.35 254.1 136.82 253.66 139.74 252.48 141.19 252.27 141.46 252.31 141.61 252.36 142.07 252.62 143.59 253.01"/><polygon id="Managua" class="cls-7" points="158.09 242.88 150.65 235.82 150.38 235.36 150.23 234.74 150.25 233.28 150.43 231.57 150.32 231.03 150.03 230.55 147.88 228.2 146.8 226.75 146.22 225.75 145.82 224.51 145.48 221.58 146 220.05 144.61 219.77 139.35 217.74 138.53 217.17 137.6 216.41 136.3 214.94 135.03 213.77 133.51 213.29 119.05 210.07 115.69 212.15 114.47 213.32 113.76 214.29 113.53 214.79 113.43 215.23 113.45 215.54 113.3 216.44 113.3 216.75 113.35 217 113.32 217.4 113.21 217.95 112.7 219.49 112.61 219.9 112.66 220.14 112.81 220.59 112.9 220.79 113.72 221.96 113.74 221.99 114.24 222.44 114.35 222.6 114.41 222.82 114.43 223.38 114.47 223.66 114.48 223.67 115.51 222.67 116.49 221.95 117.87 222.36 118.41 221.95 118.98 221.85 119.6 222 120.19 222.36 120.75 227.06 120.49 227.78 120.79 228.31 123.22 230.78 123.97 231.34 124.87 232.65 126.41 239.09 126.59 241.45 128.49 239.68 130.72 237.11 133.08 235.55 135.36 236.75 135.91 238.42 135.85 240.37 134.92 246.88 134.37 248.65 133.6 249.83 130.96 250.83 118.04 251.19 116.79 250.86 116.53 250.88 116.34 250.86 116.06 250.47 115.96 250.01 116 249.4 116.15 248.86 116.39 248.65 117.59 248.24 118.48 247.17 118.98 245.65 119.02 243.88 117.77 240.99 115.34 239.99 112.56 240.5 110.2 242.12 109.23 243.27 108.43 244.04 107.42 244.06 104.69 242.12 99.27 239.86 98.96 240.3 98.82 241.66 98.81 247.83 98.92 248.42 99.16 248.93 99.51 249.23 99.94 249.48 100.48 250.13 100.6 251.69 99.52 254.12 97.86 256.04 94.65 258.5 94.17 258.74 93.92 258.75 92.71 258.49 91.5 258.04 91.34 258.01 91.13 258 90.89 258.03 90.66 258.09 89.38 258.55 88.78 258.68 88.47 258.82 88.24 258.97 88.12 259.15 88.03 259.36 88.02 259.61 88.06 259.86 88.19 260.33 88.78 261.54 89.19 262.02 89.29 262.21 89.37 262.52 89.37 262.73 89.33 262.95 88.96 263.6 88.66 263.95 86.55 265.48 86.54 265.49 86.9 265.94 88.99 267.57 89.97 268.58 90.39 269.8 90.67 271.09 92.12 273.82 93.44 275.73 95.69 278 96.54 278.46 97.46 279.25 99.74 284.4 100.87 285.82 100.88 285.81 103.02 283.73 103.86 283.21 104.54 283.18 105.06 283.11 106.03 282.87 106.49 282.69 106.83 282.53 107.89 281.5 108.77 280.2 111.08 278.48 111.69 277.87 113.34 275.17 118.67 270.82 119.68 269.27 121.69 266.79 124.02 268.6 124.61 268.87 125.63 269.14 126.3 269.08 127.09 268.86 127.77 268.49 128.3 268 128.78 267.43 129.73 265.88 129.84 263.94 129.61 263.42 129.15 262.77 127.92 261.5 127.64 260.39 132.81 255.26 134.35 254.1 136.82 253.66 139.74 252.48 141.19 252.27 141.46 252.31 141.61 252.36 142.07 252.62 143.59 253.01 150.75 249.79 153.42 247.84 154.13 247.58 154.76 247.59 156.28 248.22 156.72 245.83 158.12 243.68 158.27 243.17 158.09 242.88"/><polygon id="Madriz" class="cls-6" points="95.67 128.52 97 127.86 97.86 127.03 99.78 126.53 100.62 126.43 106.74 126.53 111.49 128.07 114.22 128.03 117.75 127.58 118.75 127.72 120.07 128.11 121.72 129.13 124.32 130.29 125.09 129.32 125.6 126.84 125.87 126.27 126.11 125.88 127.98 125.13 129.64 124.58 132.58 126.99 133.27 127.69 134.1 128.72 135.99 132.09 138.56 135.19 137.74 136.18 134.43 138.83 133.62 139.77 132.57 139.32 131.38 139.37 130.02 139.62 128.64 140.84 125.51 144.2 124.82 143.03 123.98 141.11 123.64 140.54 122.03 140.02 117.3 140.25 110.77 142.37 107.17 142.97 103.52 141.24 102.28 140.63 101.39 140.34 99.13 140.69 95.73 143.64 92.23 149.8 91.51 151.34 89.92 153.6 82.78 160.82 83.55 158.33 83.64 158.12 83.77 157.65 83.82 157.12 83.71 156.47 83.46 155.73 82.97 155.35 81.36 155.01 81.26 154.87 81.88 154.44 83.04 153.36 83.7 152.21 83.89 150.87 83.38 148.36 83.2 147.83 82.59 146.72 82.04 146.22 81.45 146.08 80.95 145.81 80.62 144.94 80.76 143.69 81.84 141.27 81.98 139.91 79.23 129.41 79.19 127.92 79.71 125.11 79.66 123.71 79.33 123.14 78.59 122.58 79.3 122.05 79.95 121.15 80.21 120.87 80.6 120.58 82.48 120.61 88.45 121.71 90.13 124.23 90.5 124.97 91.26 125.8 92.19 126.47 93.63 127.01 94.6 127.59 95.67 128.52"/><polygon id="León" class="cls-4" points="110.75 188.53 107.89 187.09 107.04 185.56 107.01 184.82 107.13 183.81 109 180.47 109.18 177.73 108.59 175.55 108.14 174.8 107.28 173.62 105.04 169.89 103.5 168.33 102.86 168 101.82 167.71 97.06 168.73 91.45 170.62 89.72 171 88.71 171.08 87.06 170.27 85.7 169.81 84.58 169.78 83.76 169.85 82.28 170.45 83.11 173.41 84.91 177.58 86.07 179.47 87.12 181.9 87.91 192.46 87.66 195.19 86.6 197.66 85.08 198.6 84.41 198.86 83.2 199.18 77.06 199.98 76.13 200.5 75.52 201.09 74.33 203.39 72.7 205.37 71.04 206.13 68.95 208.4 66.79 210.75 65.14 212.33 64.8 212.9 64.14 214.62 62.43 217.4 58.02 222 57.2 222.5 55.76 223.35 54.3 224.01 50.11 224.47 48.23 225.6 48.22 225.6 50.18 227.77 48.33 227.41 46.38 226.61 44.71 225.5 43.73 224.2 43.95 226.21 49.83 228.87 52.43 231.68 57.23 234.45 58.32 235.8 75.75 246.5 77.87 248.34 78.71 249.66 81.7 257.85 84.91 263.44 86.54 265.49 86.55 265.48 88.66 263.95 88.96 263.6 89.33 262.95 89.37 262.73 89.37 262.52 89.29 262.21 89.19 262.02 88.78 261.54 88.19 260.33 88.06 259.86 88.02 259.61 88.03 259.36 88.12 259.15 88.24 258.97 88.47 258.82 88.78 258.68 89.38 258.55 90.66 258.09 90.89 258.03 91.13 258 91.34 258.01 91.5 258.04 92.71 258.49 93.92 258.75 94.17 258.74 94.65 258.5 97.86 256.04 99.52 254.12 100.6 251.69 100.48 250.13 99.94 249.48 99.51 249.23 99.16 248.93 98.92 248.42 98.81 247.83 98.82 241.66 98.96 240.3 99.27 239.86 97.12 238.96 94.61 237.55 93.07 235.42 92.77 231.93 92.83 230.19 92.97 229.55 93.35 228.96 93.94 228.6 94.5 228.67 94.93 229.08 95.09 229.83 95.74 230.65 97.31 231.24 99.22 231.5 100.9 231.34 102.88 229.98 104.16 227.98 105.63 226.18 108.22 225.39 109.49 225.21 111.43 224.39 112.87 224.21 114.47 223.67 114.48 223.67 114.47 223.66 114.43 223.38 114.41 222.82 114.35 222.6 114.24 222.44 113.74 221.99 113.72 221.96 112.9 220.79 112.81 220.59 112.66 220.14 112.61 219.9 112.7 219.49 113.21 217.95 113.32 217.4 113.35 217 113.3 216.75 113.3 216.44 113.45 215.54 113.43 215.23 113.53 214.79 113.76 214.29 114.47 213.32 115.69 212.15 119.05 210.07 119.91 202.38 120.92 193.73 121.17 191.56 110.75 188.53"/><polygon id="Jinotega" class="cls-2" points="223.54 113.98 215.41 110.21 215.09 110.3 204.71 116.8 204.53 116.84 197.69 117.8 197.26 118.27 196.85 119.07 196.09 121.17 195.43 122.22 194.82 122.93 193.94 123.51 193.79 124.05 193.86 124.83 194.55 126.32 195.12 127.3 195.53 128.47 195.67 129.31 194.77 132.02 194.73 133.61 194.77 134.04 194.66 134.85 194.37 135.54 193.43 136.32 188.81 139.31 186.16 141.68 185.68 142.83 185.66 145.93 180.92 149.03 179.26 149.68 177.26 149.68 175.48 150.9 174.29 152.27 173.04 154.28 171.55 156.84 165.34 164.16 162.15 166.95 161.22 167.5 157.28 170.91 152.45 175.48 150.59 176.8 149.73 177.09 148.65 177.24 145.56 177.12 144.54 177.28 144.12 177.49 143 178.86 140.08 176.62 138.76 175.28 137.53 174.54 136.76 174.21 135.6 174.24 135.16 174.23 133.83 172.6 130.1 170.38 123.68 163.95 123.08 163.03 122.54 161.8 123.53 160.14 123.79 158.69 123.57 157.6 124.8 153.96 124.02 150.21 124.05 148.34 124.29 146.88 124.78 145.52 125.51 144.2 128.64 140.84 130.02 139.62 131.38 139.37 132.57 139.32 133.62 139.77 134.43 138.83 137.74 136.18 138.56 135.19 139.38 134.19 140.33 133.81 141.23 134.93 142.06 134.54 146.51 134.16 147.98 134.26 148.93 134.81 149.65 135.47 150.44 135.9 151.57 135.76 152.18 135.32 153.61 133.28 155.51 131.86 157.07 131.08 158 129.93 157.85 124.72 158.12 122.54 158.9 120.52 161.36 116.28 161.73 115.22 161.98 114.06 162.1 109.91 162.62 108.48 163.46 107.48 165.5 106.22 165.56 106.25 165.75 106.08 166.33 105.54 167.04 104.12 167.22 102.77 166.73 101.75 165.46 101.35 165.14 100.58 165.49 98.89 166.33 96.26 166.43 94.33 166.85 93.85 167.73 94.06 169.24 94.16 170.32 93.65 172.05 92.15 172.78 92.36 173.31 92.36 173.26 91.95 173.4 91.85 173.63 91.86 173.89 91.77 173.61 90.85 176.6 89.93 177.43 89.07 178.23 87.85 180.1 87.23 180.82 87.1 182.23 86.84 183.82 86.32 184.62 85.12 184.8 83.72 185.29 82.56 188.36 81.71 189.81 80.86 192.01 79.13 193 77.9 193.94 76.2 194.64 74.53 195.26 72.29 196.07 70.91 197.05 69.62 197.87 68.83 198.24 68.76 199.16 68.91 199.51 68.83 199.75 68.54 200 67.9 200.6 67.17 200.94 66.58 201.41 66.09 202.21 65.88 204.23 64.87 205.12 64.68 208.34 64.68 210.44 64.31 212.57 63.6 214.32 62.53 215.31 61.09 215.23 59.08 214.13 57.33 212.61 55.94 211.24 55.03 213.57 53.23 213.67 52.67 213.47 51.33 213.57 50.77 215.54 48.67 215.84 48.1 216.01 43.66 216.38 41.22 217.06 39.97 218.61 40.36 219.97 41.87 221.41 42.95 223.21 42.1 226.24 39.05 226.75 37.85 227.16 37.9 227.78 38.05 228.02 38.18 228.29 38.39 228.49 38.71 228.67 39.08 228.81 39.63 228.83 40.22 228.39 41.48 228.26 42 228.27 42.52 228.24 42.93 228.08 43.83 228.03 44.35 228.06 45.11 228 45.93 228.07 46.19 228.21 46.4 229.35 47.3 230.62 47.99 231 48.35 231.3 48.89 231.44 49.58 231.29 50.44 230.33 52.08 230.22 52.64 230.3 54.56 230.2 55 229.54 56.2 229.38 56.77 229.41 57.36 229.65 57.99 231.25 60.09 232.68 61.42 233.9 62.91 234.34 63.19 234.94 63.35 242.55 63.85 242.77 65.07 242.63 67.2 240.77 77.25 240.51 81.33 241.29 84.53 241.12 85.56 240.34 87.25 235.17 95.98 224.36 113.36 223.93 113.8 223.54 113.98"/><path id="Granada" class="cls-1" d="M304,370.33h-0.58l-0.08,1.07,0.08,0.59h0.73l0.28-.26,0.08-.41-0.18-.46Zm-2.28-11.16L301.12,357l-1.52-.95-1-.84,0.75-1.54,1.22-.64,0.48,1.84h0.59l-0.85-2.59-0.81-.77-1.57-.26-0.59-.72L297.73,349l0.15-1.77,0.24-1.2,1-2.74,2.71-5.43,1.62-2,2.28,0.72L308,336l1.89-1.26,0.85-.43-2.29-2-1.37-.54-0.72-.52-0.45-.56-0.14-.66-0.13-1.32L305.1,327l-1.52-.63h-0.64l-0.7.26-2.67,1.94-7.15,3.22,2.83,3.23,0.28,1.33-3.44,7.6L289,350.78l-0.3.65-0.81,1.8-1.63,3.61-0.42.93-1.74,3.18-0.48,2.18,0.3,2.14,0.37,1.47v1l-0.2.77-1,1.41-0.79,1.6L282,374.22l0.1,1.26,0.22,0.79,1.51,1.91,2,0.53,0.64-.09,0.3-.31,2.36-1.2,0.32-.22,0.93-1.53,1.33-2.86,0.25-.25,0.24-.15,0.21,0h0.15l0.43,0.11,0.37,0.23,0.33,0.35,0.84,0.87,0.4,0.14,3.77-1,2.78-.81h0.34l-1.88-2-0.56-1.15,0.25-.79,0.6-.87,0.68-.69,1.37-.74v-1l-0.58-1.61Zm8.44,5.89-0.61-.67-2,.61-1,.08-0.83-.69-2.32,1.82-0.23.87,0.13,0.61,0.46,0.64,0.8,0.87-0.53.05-1.23.49,8.19-.28-0.4-2.84Zm11.53-24.77h-0.16v0l0.32,0.42Z" transform="translate(-148.82 -78.8)"/><polygon id="Estelí" class="cls-7" points="125.51 144.2 124.78 145.52 124.29 146.88 124.05 148.34 124.02 150.21 124.8 153.96 123.57 157.6 123.79 158.69 123.53 160.14 122.54 161.8 123.08 163.03 123.68 163.95 130.1 170.38 133.83 172.6 135.16 174.23 131.96 178.62 131.4 180.87 131.2 181.34 130.82 181.81 130.11 182.31 129.03 182.69 126.85 183.17 125.85 183.52 123.96 184.6 123.3 185.24 123 185.6 121.65 188.42 121.17 191.56 110.75 188.53 107.89 187.09 107.04 185.56 107.01 184.82 107.13 183.81 109 180.47 109.18 177.73 108.59 175.55 108.14 174.8 107.28 173.62 105.04 169.89 103.5 168.33 102.86 168 101.82 167.71 97.06 168.73 91.45 170.62 89.72 171 88.71 171.08 87.06 170.27 85.7 169.81 84.58 169.78 83.76 169.85 82.28 170.45 81.3 165.25 81.58 162.53 81.8 161.73 81.88 161.63 82.78 160.82 89.92 153.6 91.51 151.34 92.23 149.8 95.73 143.64 99.13 140.69 101.39 140.34 102.28 140.63 103.52 141.24 107.17 142.97 110.77 142.37 117.3 140.25 122.03 140.02 123.64 140.54 123.98 141.11 124.82 143.03 125.51 144.2"/><polygon id="Chontales" class="cls-7" points="261.14 274.89 261.05 274.64 260.98 274.26 261.66 273.67 264.98 272.27 254.1 267.03 253.51 266.14 248.12 252.47 246.98 247.27 246.86 244.4 247.4 242.44 247.13 241.12 244.12 235.75 243.62 235.2 243 234.69 242.42 234.05 241.79 233 241.35 231.58 241 228.76 241.1 227.28 241.33 226.21 241.82 225.03 241.93 224.52 241.76 223.93 241.22 223.01 240.09 221.9 238.31 219.2 236.45 215.04 235.95 214.2 233.49 211.92 231.44 208.93 230.36 211.12 227.12 215.9 226.79 216.59 226.58 217.3 226.46 218.27 226.41 221.48 226.17 222.45 225.73 223.44 224.31 225.24 223.38 226.17 222.13 227.13 219.62 228.37 218.4 228.57 217.89 228.59 217.02 228.48 216.11 228.69 214.83 229.21 209.85 232.65 208.83 233.22 205.35 234.4 200.75 234.92 194.64 236.02 190.99 235.86 188.51 235.82 186.41 235.47 185.47 235.44 184.26 235.81 181.04 237.39 178.85 239 178.45 239.4 177.76 240.33 177.59 240.76 177.5 241.32 177.51 243.43 177.71 245.02 177.69 245.6 177.51 246.2 175.8 250.14 175.71 250.28 175.61 250.45 175.49 250.61 174.69 251.9 174.28 252.74 172.87 261.49 173.03 261.94 173.1 262.03 173.99 262.16 174.96 262.06 175.62 261.78 175.62 262.37 176.14 262.37 178.11 260.98 180.83 263.06 184.65 267.72 185.26 268.28 186.91 270.85 187.86 273.15 191.94 277.27 193.85 275.43 197.48 276.17 201.25 278.07 203.57 279.65 204.27 280.73 204.85 282.14 205.6 283.34 206.85 283.85 207.85 284.03 208.53 284.49 209.72 285.9 210.41 286.28 212.26 286.62 212.92 286.82 216.22 291.97 219.37 295.73 219.57 296.06 219.78 296.7 219.94 296.98 220.21 297.16 220.34 297.2 221.67 294.91 221.88 294.66 222.24 294.33 223.56 293.67 225.26 292.46 226.04 292.03 226.58 291.82 226.97 291.97 227.19 292.03 227.6 291.98 229.19 291.38 229.7 291.08 229.98 290.87 230.26 290.39 230.65 289.88 231.25 289.24 231.37 289.08 231.45 288.89 231.58 288.68 231.94 288.29 232.1 288.03 232.19 287.68 232.19 287.58 232.43 287.01 233.69 285.05 237.33 284.25 239.47 282.84 245.09 277.64 245.37 277.22 245.78 277.1 246.22 277.03 252.49 277.11 254.23 276.8 254.6 276.8 255.32 277 255.67 277.03 256.95 276.9 257.24 276.94 257.56 277.01 257.97 277.18 258.93 277.39 262.19 277.49 261.75 276.04 261.14 274.89"/><polygon id="Chinandega" class="cls-2" points="79.85 155.49 80.66 155.28 81.26 154.87 81.36 155.01 82.97 155.35 83.46 155.73 83.71 156.47 83.82 157.12 83.77 157.65 83.64 158.12 83.55 158.33 82.78 160.82 81.88 161.63 81.8 161.73 81.58 162.53 81.3 165.25 82.28 170.45 83.11 173.41 84.91 177.58 86.07 179.47 87.12 181.9 87.91 192.46 87.66 195.19 86.6 197.66 85.08 198.6 84.41 198.86 83.2 199.18 77.06 199.98 76.13 200.5 75.52 201.09 74.33 203.39 72.7 205.37 71.04 206.13 68.95 208.4 66.79 210.75 65.14 212.33 64.8 212.9 64.14 214.62 62.43 217.4 58.02 222 57.2 222.5 55.76 223.35 54.3 224.01 50.11 224.47 48.23 225.6 48.22 225.6 48.06 225.43 46.97 224.55 45.8 224.2 45.07 223.63 43.15 219.97 42.62 219.97 43.49 223.2 42.1 221.98 39.88 219.16 38.24 217.59 37.19 217.15 31.86 213.01 31.16 212.27 30.77 211.37 30.31 209.85 30.07 210.32 29.41 211.15 29.15 211.58 19.79 200.71 18.69 198.42 19.05 198.84 19.41 199.08 20.43 199.62 20.43 199.07 20.02 198.93 19.27 198.42 19.27 197.88 19.05 196.99 17.63 195.8 15.7 194.76 13.99 194.3 13.99 194.84 16.25 196.34 17.43 197.44 17.47 198.42 16.61 198.3 15.35 197.34 13.46 195.5 3.47 189.48 1.39 187.64 0.14 185.47 0.13 182.91 1.73 179.88 4.13 177.77 6.58 176.23 8.39 174.28 8.8 170.94 9.34 170.94 9.1 172.81 8.8 173.32 9.76 173.32 10.91 173.48 11.89 173.78 12.3 174.19 12.7 174.45 14.86 176.31 15.4 176.61 16.94 178.69 17.32 178.98 18.41 179.64 18.69 179.88 18.76 180.45 18.58 181.77 18.69 182.33 21.47 185.11 25.1 185.9 33.86 185.36 33.86 184.71 29.42 184.82 27.2 184.58 26.24 183.79 27.1 182.39 31.22 180.33 31.77 179.94 31.77 179.94 51.3 178.69 52.56 178.82 54.52 180.03 55.52 180.1 55.99 178.68 57.76 177.8 59.94 176.42 60.91 175.37 62.9 172.24 63.38 171.86 64.64 171.24 65.07 170.78 65.3 169.93 64.96 169.61 64.48 169.4 64.27 168.85 65 164.25 64.85 164.03 64.21 162.63 64.05 162.12 64.19 161.89 64.81 159.42 65.42 158.25 66.1 157.39 70.19 153.86 71.32 153.09 72.69 152.69 74.15 152.81 79.05 155.24 79.85 155.49"/><polygon id="Carazo" class="cls-2" points="137.47 278.04 137.05 278.97 135.31 282.15 134.83 284.33 135.13 286.47 135.49 287.94 135.5 288.96 135.31 289.73 134.29 291.14 133.5 292.74 133.15 295.43 133.25 296.68 133.47 297.47 134.98 299.38 132.01 301.37 131.74 301.7 131.19 302.76 128.73 307.3 128.72 307.31 128.64 307.06 126 305.88 122.83 302.79 114.99 299.33 113.66 298.35 112.53 297.02 111.58 294.28 101.38 286.46 100.87 285.82 100.88 285.81 103.02 283.73 103.86 283.21 104.54 283.18 105.06 283.11 106.03 282.87 106.49 282.69 106.83 282.53 107.89 281.5 108.77 280.2 111.08 278.48 111.69 277.87 113.34 275.17 118.67 270.82 119.68 269.27 120.61 270.38 128.39 273.54 130.89 274.72 132.01 276.28 132.2 276.49 136.73 277.84 137.47 278.04"/><polygon id="Boaco" class="cls-2" points="231 208.49 230.02 207.98 229.92 207.69 229.88 207.3 230.13 205.95 230.02 204.34 229.65 203.24 228.92 201.85 228.4 201.24 227.9 200.78 227.13 200.37 226.46 199.29 226.04 199.11 223.54 197.21 221.96 196.35 220.37 196.39 218.74 197.87 218.3 198.91 218 201.36 217.63 202.64 217.38 202.61 216.68 203.04 216.06 203.58 216.1 203.83 215.81 204 214.68 205.08 215.54 206.49 215.63 207.78 214.95 208.46 213.51 208 213.58 208.95 213.49 209.78 213.26 210.49 212.93 211.04 212.35 211.04 211.93 210.66 211.14 210.12 210.37 209.82 210.03 210.14 209.78 211 209.23 210.85 206.57 207.86 205.61 207.71 204.16 208.65 203.58 208.65 204.04 206.46 204.16 206.22 203.54 205.74 202.19 205.66 200.58 204.79 197.77 203.82 197.18 203.51 196.89 202.67 196.17 201.8 195.31 201.13 194.57 200.85 194.06 200.75 193.42 201.24 193.29 201.41 193.15 201.76 192.96 202.15 192.69 202.5 192.53 202.65 192.16 202.88 191.77 203.07 191.1 203.27 190.89 203.38 190.74 203.54 190.65 203.74 190.17 203.9 189.31 203.99 183.86 203.7 183.58 203.75 183.36 203.85 183.19 203.99 183.06 204.16 181.95 206.38 181.7 206.75 181.37 206.88 180.86 206.95 179.22 206.96 178.82 207.03 178.06 207.44 176.32 207.77 175.31 207.96 174.27 208.83 173.93 208.99 173.69 208.98 173.19 208.71 171.84 208.45 170.72 208.15 155.92 211.25 154.54 211.95 153.04 215.1 148.97 217.38 148.51 217.74 146 220.05 145.48 221.58 145.82 224.51 146.22 225.75 146.8 226.75 147.88 228.2 150.03 230.55 150.32 231.03 150.43 231.57 150.25 233.28 150.23 234.74 150.38 235.36 150.65 235.82 158.09 242.88 158.27 243.17 158.12 243.68 156.72 245.83 156.28 248.22 156.81 249.9 156.94 251.22 157.08 251.89 157.53 252.44 158.25 252.97 159.62 253.51 161.91 255.5 162.74 255.09 162.77 255.24 164.1 256.27 169.75 259.34 171.76 260.06 172.45 260.55 172.7 261.5 172.87 261.49 174.28 252.74 174.69 251.9 175.49 250.61 175.61 250.45 175.71 250.28 175.8 250.14 177.51 246.2 177.69 245.6 177.71 245.02 177.51 243.43 177.5 241.32 177.59 240.76 177.76 240.33 178.45 239.4 178.85 239 181.04 237.39 184.26 235.81 185.47 235.44 186.41 235.47 188.51 235.82 190.99 235.86 194.64 236.02 200.75 234.92 205.35 234.4 208.83 233.22 209.85 232.65 214.83 229.21 216.11 228.69 217.02 228.48 217.89 228.59 218.4 228.57 219.62 228.37 222.13 227.13 223.38 226.17 224.31 225.24 225.73 223.44 226.17 222.45 226.41 221.48 226.46 218.27 226.58 217.3 226.79 216.59 227.12 215.9 230.36 211.12 231.44 208.93 231 208.49"/></svg>