<?xml version="1.0" encoding="utf-8"?>
<!-- Generator: Adobe Illustrator 24.0.2, SVG Export Plug-In . SVG Version: 6.00 Build 0)  -->
<!DOCTYPE svg PUBLIC "-//W3C//DTD SVG 1.1//EN" "http://www.w3.org/Graphics/SVG/1.1/DTD/svg11.dtd" [
	<!ENTITY ns_extend "http://ns.adobe.com/Extensibility/1.0/">
	<!ENTITY ns_ai "http://ns.adobe.com/AdobeIllustrator/10.0/">
	<!ENTITY ns_graphs "http://ns.adobe.com/Graphs/1.0/">
	<!ENTITY ns_vars "http://ns.adobe.com/Variables/1.0/">
	<!ENTITY ns_imrep "http://ns.adobe.com/ImageReplacement/1.0/">
	<!ENTITY ns_sfw "http://ns.adobe.com/SaveForWeb/1.0/">
	<!ENTITY ns_custom "http://ns.adobe.com/GenericCustomNamespace/1.0/">
	<!ENTITY ns_adobe_xpath "http://ns.adobe.com/XPath/1.0/">
]>
<svg version="1.1" id="Layer_1" xmlns:x="&ns_extend;" xmlns:i="&ns_ai;" xmlns:graph="&ns_graphs;"
	 xmlns="http://www.w3.org/2000/svg" xmlns:xlink="http://www.w3.org/1999/xlink" x="0px" y="0px" viewBox="0 0 565.3 140"
	 style="enable-background:new 0 0 565.3 140;" xml:space="preserve">
<style type="text/css">
	.st0{fill:url(#SVGID_1_);}
	.st1{fill:#FFFFFF;}
	.st2{fill:#FFFFFF;stroke:#FFFFFF;stroke-width:3.0633;stroke-miterlimit:10;}
	.st3{fill:#1B75BC;}
</style>
<metadata>
	<sfw  xmlns="&ns_sfw;">
		<slices></slices>
		<sliceSourceBounds  bottomLeftOrigin="true" height="112.7" width="538.2" x="105.4" y="-432.7"></sliceSourceBounds>
	</sfw>
</metadata>
<g>
	<linearGradient id="SVGID_1_" gradientUnits="userSpaceOnUse" x1="285.7826" y1="192.2321" x2="285.7826" y2="-13.917">
		<stop  offset="0.3172" style="stop-color:#20A9E5"/>
		<stop  offset="0.672" style="stop-color:#1686C3"/>
	</linearGradient>
	<polygon class="st0" points="518.8,114.9 48.2,114.9 17.2,17.9 554.4,17.9 	"/>
</g>
<rect x="177" y="17.9" class="st1" width="5.3" height="97"/>
<g>
	<path class="st1" d="M213.9,66.3c0,2.9-0.5,5.5-1.5,7.7s-2.5,3.9-4.4,5.1s-4.1,1.8-6.6,1.8c-2.5,0-4.6-0.6-6.6-1.8
		c-1.9-1.2-3.4-2.9-4.5-5.1s-1.6-4.7-1.6-7.6V65c0-2.9,0.5-5.5,1.6-7.7c1.1-2.2,2.5-3.9,4.5-5.1c1.9-1.2,4.1-1.8,6.6-1.8
		c2.5,0,4.7,0.6,6.6,1.8c1.9,1.2,3.4,2.9,4.5,5.1c1.1,2.2,1.6,4.8,1.6,7.7V66.3z M207.7,65c0-3.1-0.6-5.5-1.7-7.1
		c-1.1-1.6-2.7-2.4-4.8-2.4c-2,0-3.6,0.8-4.7,2.4c-1.1,1.6-1.7,3.9-1.7,7v1.4c0,3,0.6,5.4,1.7,7c1.1,1.7,2.7,2.5,4.8,2.5
		c2,0,3.6-0.8,4.7-2.4s1.7-3.9,1.7-7V65z"/>
	<path class="st1" d="M219.6,80.5V62.8h-3.3v-4.3h3.3v-1.9c0-2.5,0.7-4.4,2.1-5.7c1.4-1.4,3.4-2,5.9-2c0.8,0,1.8,0.1,3,0.4l-0.1,4.6
		c-0.5-0.1-1.1-0.2-1.8-0.2c-2.2,0-3.3,1-3.3,3.1v1.8h4.4v4.3h-4.4v17.7H219.6z"/>
	<path class="st1" d="M242.5,80.9c-3.2,0-5.9-1-7.9-3s-3-4.6-3-7.9v-0.6c0-2.2,0.4-4.2,1.3-5.9c0.9-1.7,2.1-3.1,3.6-4
		s3.4-1.4,5.4-1.4c3,0,5.4,0.9,7.1,2.8c1.7,1.9,2.6,4.6,2.6,8.1v2.4h-14c0.2,1.4,0.8,2.6,1.7,3.5c1,0.9,2.2,1.3,3.6,1.3
		c2.3,0,4-0.8,5.3-2.5l2.9,3.2c-0.9,1.2-2.1,2.2-3.6,2.9S244.4,80.9,242.5,80.9z M241.9,62.8c-1.2,0-2.1,0.4-2.8,1.2
		c-0.7,0.8-1.2,1.9-1.4,3.4h8.2v-0.5c0-1.3-0.4-2.3-1.1-3C244.1,63.2,243.1,62.8,241.9,62.8z"/>
	<path class="st1" d="M267.3,64c-0.8-0.1-1.5-0.2-2.1-0.2c-2.2,0-3.7,0.8-4.4,2.3v14.4h-5.9v-22h5.6l0.2,2.6c1.2-2,2.8-3,4.9-3
		c0.7,0,1.3,0.1,1.8,0.3L267.3,64z"/>
	<path class="st1" d="M278.2,53.1v5.4h3.8v4.3h-3.8v11c0,0.8,0.2,1.4,0.5,1.7s0.9,0.5,1.8,0.5c0.7,0,1.2,0,1.7-0.1v4.5
		c-1.2,0.4-2.3,0.5-3.6,0.5c-4.1,0-6.2-2.1-6.3-6.2V62.8h-3.2v-4.3h3.2v-5.4H278.2z"/>
	<path class="st1" d="M298,80.5c-0.3-0.5-0.5-1.2-0.6-2c-1.4,1.6-3.3,2.4-5.6,2.4c-2.2,0-3.9-0.6-5.4-1.9c-1.4-1.2-2.1-2.8-2.1-4.7
		c0-2.3,0.9-4.1,2.6-5.4s4.2-1.9,7.5-1.9h2.7v-1.3c0-1-0.3-1.8-0.8-2.4s-1.3-0.9-2.5-0.9c-1,0-1.8,0.2-2.3,0.7
		c-0.6,0.5-0.8,1.1-0.8,2h-5.9c0-1.3,0.4-2.5,1.2-3.5c0.8-1.1,1.9-1.9,3.3-2.6c1.4-0.6,3.1-0.9,4.8-0.9c2.7,0,4.9,0.7,6.5,2
		c1.6,1.4,2.4,3.3,2.4,5.7v9.5c0,2.1,0.3,3.7,0.9,4.7v0.3H298z M293.1,76.4c0.9,0,1.7-0.2,2.4-0.6c0.7-0.4,1.3-0.9,1.6-1.6v-3.8
		h-2.2c-2.9,0-4.5,1-4.7,3.1l0,0.3c0,0.7,0.3,1.3,0.8,1.8C291.5,76.2,292.2,76.4,293.1,76.4z"/>
	<path class="st1" d="M335,74.4h-10.7l-2,6.1h-6.5l11-29.6h5.7l11.1,29.6h-6.5L335,74.4z M326,69.4h7.4l-3.7-11.1L326,69.4z"/>
	<path class="st1" d="M355.1,76.2c1.1,0,2-0.3,2.6-0.9c0.7-0.6,1-1.4,1.1-2.4h5.5c0,1.5-0.4,2.9-1.2,4.1s-1.9,2.2-3.3,2.9
		s-2.9,1-4.6,1c-3.1,0-5.6-1-7.4-3c-1.8-2-2.7-4.8-2.7-8.3v-0.4c0-3.4,0.9-6.1,2.7-8.1c1.8-2,4.3-3,7.4-3c2.8,0,5,0.8,6.6,2.3
		c1.7,1.6,2.5,3.7,2.5,6.3h-5.5c0-1.1-0.4-2.1-1.1-2.8c-0.7-0.7-1.6-1.1-2.7-1.1c-1.4,0-2.4,0.5-3.1,1.5c-0.7,1-1,2.6-1,4.9v0.6
		c0,2.3,0.3,3.9,1,4.9S353.7,76.2,355.1,76.2z"/>
	<path class="st1" d="M380.4,80.5c-0.3-0.5-0.5-1.2-0.6-2c-1.4,1.6-3.3,2.4-5.6,2.4c-2.2,0-3.9-0.6-5.4-1.9s-2.1-2.8-2.1-4.7
		c0-2.3,0.9-4.1,2.6-5.4s4.2-1.9,7.5-1.9h2.7v-1.3c0-1-0.3-1.8-0.8-2.4c-0.5-0.6-1.3-0.9-2.5-0.9c-1,0-1.8,0.2-2.3,0.7
		s-0.8,1.1-0.8,2h-5.9c0-1.3,0.4-2.5,1.2-3.5c0.8-1.1,1.9-1.9,3.3-2.6c1.4-0.6,3.1-0.9,4.8-0.9c2.7,0,4.9,0.7,6.5,2
		c1.6,1.4,2.4,3.3,2.4,5.7v9.5c0,2.1,0.3,3.7,0.9,4.7v0.3H380.4z M375.5,76.4c0.9,0,1.7-0.2,2.4-0.6c0.7-0.4,1.3-0.9,1.6-1.6v-3.8
		h-2.2c-2.9,0-4.5,1-4.7,3.1l0,0.3c0,0.7,0.3,1.3,0.8,1.8C373.9,76.2,374.6,76.4,375.5,76.4z"/>
	<path class="st1" d="M389.1,69.3c0-3.4,0.8-6.2,2.3-8.2c1.5-2,3.6-3,6.3-3c2.1,0,3.9,0.8,5.3,2.4V49.2h5.9v31.2h-5.3l-0.3-2.3
		c-1.5,1.8-3.3,2.7-5.7,2.7c-2.6,0-4.7-1-6.2-3.1C389.8,75.8,389.1,73,389.1,69.3z M394.9,69.8c0,2.1,0.4,3.6,1.1,4.7
		s1.8,1.6,3.1,1.6c1.8,0,3.1-0.8,3.8-2.3v-8.7c-0.7-1.5-2-2.3-3.8-2.3C396.4,62.9,394.9,65.2,394.9,69.8z"/>
	<path class="st1" d="M423.6,80.9c-3.2,0-5.9-1-7.9-3c-2-2-3-4.6-3-7.9v-0.6c0-2.2,0.4-4.2,1.3-5.9c0.9-1.7,2.1-3.1,3.6-4
		c1.6-0.9,3.4-1.4,5.4-1.4c3,0,5.4,0.9,7.1,2.8s2.6,4.6,2.6,8.1v2.4h-14c0.2,1.4,0.8,2.6,1.7,3.5c1,0.9,2.2,1.3,3.6,1.3
		c2.3,0,4-0.8,5.3-2.5l2.9,3.2c-0.9,1.2-2.1,2.2-3.6,2.9S425.4,80.9,423.6,80.9z M422.9,62.8c-1.2,0-2.1,0.4-2.8,1.2
		c-0.7,0.8-1.2,1.9-1.4,3.4h8.2v-0.5c0-1.3-0.4-2.3-1.1-3C425.1,63.2,424.1,62.8,422.9,62.8z M423.4,49.2h6.4l-5.6,6.3h-4.8
		L423.4,49.2z"/>
	<path class="st1" d="M441.5,58.5l0.2,2.5c1.6-1.9,3.7-2.9,6.3-2.9c2.8,0,4.8,1.1,5.8,3.4c1.5-2.2,3.7-3.4,6.6-3.4
		c2.4,0,4.2,0.7,5.3,2.1s1.7,3.5,1.7,6.3v14.1h-5.9v-14c0-1.2-0.2-2.2-0.7-2.7c-0.5-0.6-1.3-0.9-2.6-0.9c-1.8,0-3,0.8-3.7,2.5
		l0,15.1h-5.9v-14c0-1.3-0.3-2.2-0.8-2.8c-0.5-0.6-1.4-0.9-2.6-0.9c-1.7,0-2.9,0.7-3.6,2.1v15.6H436v-22H441.5z"/>
	<path class="st1" d="M472,52.8c0-0.9,0.3-1.6,0.9-2.2s1.4-0.9,2.4-0.9c1,0,1.8,0.3,2.4,0.9c0.6,0.6,0.9,1.3,0.9,2.2
		c0,0.9-0.3,1.6-0.9,2.2s-1.4,0.9-2.4,0.9c-1,0-1.8-0.3-2.4-0.9C472.3,54.4,472,53.7,472,52.8z M478.2,80.5h-5.9v-22h5.9V80.5z"/>
	<path class="st1" d="M492.2,76.2c1.1,0,2-0.3,2.6-0.9c0.7-0.6,1-1.4,1.1-2.4h5.5c0,1.5-0.4,2.9-1.2,4.1s-1.9,2.2-3.3,2.9
		s-2.9,1-4.6,1c-3.1,0-5.6-1-7.4-3c-1.8-2-2.7-4.8-2.7-8.3v-0.4c0-3.4,0.9-6.1,2.7-8.1c1.8-2,4.3-3,7.4-3c2.8,0,5,0.8,6.6,2.3
		c1.7,1.6,2.5,3.7,2.5,6.3h-5.5c0-1.1-0.4-2.1-1.1-2.8c-0.7-0.7-1.6-1.1-2.7-1.1c-1.4,0-2.4,0.5-3.1,1.5c-0.7,1-1,2.6-1,4.9v0.6
		c0,2.3,0.3,3.9,1,4.9S490.8,76.2,492.2,76.2z"/>
	<path class="st1" d="M517.5,80.5c-0.3-0.5-0.5-1.2-0.6-2c-1.4,1.6-3.3,2.4-5.6,2.4c-2.2,0-3.9-0.6-5.4-1.9s-2.1-2.8-2.1-4.7
		c0-2.3,0.9-4.1,2.6-5.4s4.2-1.9,7.5-1.9h2.7v-1.3c0-1-0.3-1.8-0.8-2.4c-0.5-0.6-1.3-0.9-2.5-0.9c-1,0-1.8,0.2-2.3,0.7
		s-0.8,1.1-0.8,2h-5.9c0-1.3,0.4-2.5,1.2-3.5c0.8-1.1,1.9-1.9,3.3-2.6c1.4-0.6,3.1-0.9,4.8-0.9c2.7,0,4.9,0.7,6.5,2
		c1.6,1.4,2.4,3.3,2.4,5.7v9.5c0,2.1,0.3,3.7,0.9,4.7v0.3H517.5z M512.7,76.4c0.9,0,1.7-0.2,2.4-0.6c0.7-0.4,1.3-0.9,1.6-1.6v-3.8
		h-2.2c-2.9,0-4.5,1-4.7,3.1l0,0.3c0,0.7,0.3,1.3,0.8,1.8C511.1,76.2,511.8,76.4,512.7,76.4z"/>
</g>
<g>
	<path class="st1" d="M131.1,74c-2.4,0-4.7,0-7.1,0c-1.7,0-2.7-0.9-2.7-2.5c0-1.5,1-2.5,2.7-2.5c4.4,0,8.8,0,13.1,0
		c5,0,8.7-3.5,8.9-8.4c0.1-4.9-3.3-8.6-8.3-8.9c-1.8-0.1-2.5-0.8-2.8-2.8c-1.3-9.1-8-16.6-16.6-18.8c-9-2.2-18.4,1.4-23.6,9.3
		c-1.3,2-2.7,2.8-5.1,2.8c-6.6,0-11.9,4.9-12.8,11.7C76,60.5,80,66.9,86.2,68.5c2.1,0.5,4.3,0.5,6.4,0.5c2.2,0.1,4.3,0,6.5,0
		c1.4,0,2.3,1,2.3,2.4c0,1.4-0.8,2.5-2.2,2.5c-4.1,0-8.2,0.3-12.2-0.3c-9.3-1.2-15.7-9.6-15.2-19.3c0.5-9.2,7.8-16.6,17-17.1
		c1-0.1,1.5-0.4,2.1-1.2c6.7-9,15.6-13.1,26.7-11.1c11.3,2.1,18.4,9.3,21.6,20.3c0.3,1.1,0.7,1.6,1.9,1.9c6.4,1.5,10.6,7.8,9.8,14.5
		c-0.7,6.8-6.2,12-12.8,12.2C135.7,74,133.4,74,131.1,74C131.1,74,131.1,74,131.1,74z"/>
	<path class="st1" d="M108.9,84.9c0-0.5,0-1.1,0-1.6c0-8.6,0-17.3,0-25.9c0-1.4,0.4-2.6,1.8-3c1.6-0.5,3.1,0.7,3.1,2.6
		c0,4.6,0,9.2,0,13.7c0,4.7,0,9.5,0,14.4c0.4-0.3,0.8-0.5,1-0.8c1.6-1.6,3.2-3.2,4.8-4.8c1-0.9,2.4-0.8,3.3,0.1
		c1,0.9,1.1,2.3,0.2,3.3c-3.3,3.4-6.7,6.8-10.2,10.2c-1.1,1-2.4,1-3.5-0.1c-3.3-3.2-6.6-6.5-9.8-9.8c-1.1-1.1-1-2.6,0-3.6
		c1-1,2.4-1,3.6,0.2c1.8,1.8,3.5,3.6,5.2,5.4C108.6,85.1,108.7,85,108.9,84.9z"/>
	<path class="st1" d="M111.2,103.7c-3.9,0-7.8,0-11.7,0c-1.9,0-2.9-0.9-2.9-2.4c0-1.6,1-2.5,3-2.5c7.9,0,15.8,0,23.8,0
		c1.9,0,2.9,0.9,2.9,2.4c0,1.6-1,2.5-3,2.5C119.2,103.7,115.2,103.7,111.2,103.7z"/>
	<path class="st1" d="M115.9,35.4c5.9,0.1,11.1,4.5,12.1,10.3c0.3,1.8-0.5,3-2,3.2c-1.4,0.2-2.5-0.6-2.9-2.2c-0.9-3.9-3.3-6-7.4-6.4
		c-1.8-0.2-2.8-1.2-2.7-2.7C113.1,36.2,114.2,35.4,115.9,35.4z"/>
</g>
<g id="XMLID_590_">
	<path id="XMLID_614_" class="st2" d="M19.3,114.5c-1-3.4-0.6-6.9,0.9-10.1l7.7-15.6c0.7-1.3,2.5-1.8,3.8-1c0.7,0.4,1.2,1,1.4,1.7
		c0.2,0.7,0.1,1.5-0.2,2.2l-0.1,0.2c-0.4,0.8-0.1,1.7,0.6,2.1c0.7,0.4,1.7,0.2,2.1-0.6c0,0,0,0,0,0l0,0c0,0,0,0,0,0c0,0,0,0,0,0l0,0
		c0,0,0,0,0,0l2.2-4.1c0.8-1.4,2.5-1.9,3.9-1.1c1.4,0.8,1.9,2.5,1.1,3.9l-2.2,4c-0.2,0.4-0.2,0.8-0.1,1.2c0.1,0.4,0.4,0.7,0.7,0.9
		c0.8,0.4,1.7,0.1,2.1-0.6l4.4-7.9c0.8-1.4,2.5-1.9,3.9-1.1c1.4,0.8,1.9,2.5,1.1,3.9l-4.4,7.9c-0.2,0.4-0.2,0.8-0.1,1.2
		c0.1,0.4,0.4,0.7,0.7,0.9c0.8,0.4,1.7,0.1,2.1-0.6l10.7-19.3c0.4-0.7,1-1.2,1.7-1.4c0.7-0.2,1.5-0.1,2.2,0.2
		c1.4,0.8,1.9,2.5,1.1,3.9l-16,29c-0.3,0.5-0.3,1.1,0.1,1.6c0.3,0.5,0.9,0.7,1.5,0.7l15.7-2c1.9-0.3,3.7,0.9,4.2,2.7
		c0.2,0.8-0.2,1.7-1.1,1.9l-28.3,8.2c-3.6,1-7.4,0.6-10.7-1.2l-6.1-3.4C22.7,121.1,20.3,118.2,19.3,114.5z"/>
	<g id="XMLID_592_">
		<path class="st3" d="M38.8,130.7c-2.8,0-5.6-0.7-8-2.1l-6.1-3.4c-3.9-2.1-6.7-5.7-7.9-9.9c-1.1-4-0.8-8.2,1.1-11.9l7.7-15.7
			c0.9-1.7,2.8-2.8,4.7-2.8c0.9,0,1.8,0.2,2.6,0.7c0.8,0.4,1.5,1.1,2,1.9c0.1,0.2,0.3,0.2,0.4,0.3c0,0,0,0,0,0
			c0.2,0,0.3-0.1,0.4-0.2c1-1.4,2.6-2.2,4.4-2.2c0.9,0,1.8,0.2,2.6,0.7c0.8,0.4,1.5,1.1,2,1.9c0.1,0.2,0.3,0.2,0.4,0.3c0,0,0,0,0,0
			c0.2,0,0.3-0.1,0.4-0.2c1-1.4,2.6-2.2,4.4-2.2c0.9,0,1.8,0.2,2.6,0.7c0.8,0.4,1.5,1.1,1.9,1.8c0.1,0.2,0.3,0.2,0.5,0.2
			c0,0,0,0,0,0c0.2,0,0.4-0.1,0.5-0.3l3.8-6.9c1-1.7,2.8-2.8,4.8-2.8c0.9,0,1.8,0.2,2.6,0.7c1.3,0.7,2.2,1.9,2.6,3.2
			c0.4,1.4,0.2,2.9-0.5,4.1l-14.6,26.3c-0.1,0.2-0.1,0.4,0,0.6c0.1,0.1,0.3,0.2,0.4,0.2c0,0,0,0,0.1,0l12.7-1.6
			c0.3,0,0.6-0.1,0.9-0.1c2.9,0,5.4,1.9,6.2,4.6c0.3,1.1,0.2,2.2-0.4,3.2c-0.5,1-1.4,1.7-2.5,2L43.5,130
			C42,130.4,40.4,130.7,38.8,130.7L38.8,130.7z M30.3,86.9c-1.2,0-2.3,0.6-2.9,1.7l-7.7,15.6c-1.6,3.3-1.9,7-0.9,10.5
			c1.1,3.7,3.5,6.8,7,8.7l6.1,3.4c2.2,1.2,4.6,1.8,7,1.8c1.4,0,2.7-0.2,4.1-0.6l28.3-8.2c0.5-0.2,1-0.5,1.3-1
			c0.3-0.5,0.3-1.1,0.2-1.6c-0.5-1.9-2.3-3.2-4.2-3.2c-0.2,0-0.4,0-0.6,0l-15.7,2c0,0-0.1,0-0.1,0c-0.3,0-0.7-0.2-0.9-0.5
			c-0.2-0.3-0.2-0.7,0-1.1l16-29c0.9-1.6,0.3-3.7-1.3-4.6c-0.5-0.3-1.1-0.4-1.6-0.4c-0.3,0-0.6,0-0.9,0.1c-0.9,0.2-1.6,0.8-2,1.6
			l-10.7,19.3c-0.2,0.3-0.5,0.5-0.9,0.5c-0.2,0-0.3,0-0.5-0.1c-0.2-0.1-0.4-0.4-0.5-0.6c-0.1-0.3,0-0.5,0.1-0.8l4.4-7.9
			c0.4-0.8,0.5-1.7,0.3-2.6s-0.8-1.6-1.6-2c-0.5-0.3-1.1-0.4-1.6-0.4c-1.2,0-2.4,0.7-3,1.7l-4.4,7.9c-0.2,0.3-0.5,0.5-0.9,0.5
			c-0.2,0-0.3,0-0.5-0.1c-0.2-0.1-0.4-0.4-0.5-0.6c-0.1-0.3,0-0.5,0.1-0.8l2.2-4c0.9-1.6,0.3-3.7-1.3-4.6c-0.5-0.3-1.1-0.4-1.6-0.4
			c-1.2,0-2.4,0.7-3,1.7c0,0-2.2,4.1-2.2,4.1v0c-0.2,0.3-0.5,0.5-0.9,0.5c-0.2,0-0.3,0-0.5-0.1c-0.2-0.1-0.4-0.4-0.5-0.6
			c-0.1-0.3,0-0.5,0.1-0.8l0.1-0.2c0.4-0.8,0.5-1.7,0.3-2.6s-0.8-1.6-1.6-2C31.5,87.1,30.9,86.9,30.3,86.9z M72.2,94.5
			c-0.3,0-0.6-0.1-0.8-0.4c-0.4-0.4-0.3-1.1,0.1-1.4c3.4-2.9,4.9-7.6,3.6-11.9c-1.4-4.9-5.9-8.3-11-8.3c-1.1,0-2.1,0.2-3.2,0.4
			c-4.3,1.2-7.5,4.9-8.2,9.4c-0.1,0.5-0.5,0.9-1,0.9l0,0c-0.1,0-0.1,0-0.2,0c-0.3,0-0.5-0.2-0.7-0.4s-0.2-0.5-0.2-0.8
			c0.8-5.3,4.5-9.6,9.6-11.1c1.2-0.4,2.5-0.5,3.7-0.5c6,0,11.3,4,13,9.8c1.5,5.1-0.2,10.6-4.3,14c-0.1,0.1-0.2,0.2-0.4,0.2
			C72.4,94.5,72.3,94.5,72.2,94.5z"/>
	</g>
</g>
</svg>
