<?xml version="1.0" encoding="utf-8"?>
<!-- Generator: Adobe Illustrator 24.0.0, SVG Export Plug-In . SVG Version: 6.00 Build 0)  -->
<svg version="1.1" id="Capa_1" xmlns="http://www.w3.org/2000/svg" xmlns:xlink="http://www.w3.org/1999/xlink" x="0px" y="0px"
	 viewBox="0 0 342 501" style="enable-background:new 0 0 342 501;" xml:space="preserve">
<style type="text/css">
	.st0{opacity:0.05;}
	.st1{fill:#008AB5;}
	.st2{fill:#00AEEF;}
	.st3{fill:#43DCFF;}
	.st4{fill:#961864;}
	.st5{fill:#E00C7D;}
	.st6{fill:#F25AB8;}
	.st7{fill:#022456;}
	.st8{fill:#043284;}
	.st9{fill:#1A58A3;}
</style>
<g id="pin_x5F_cnu_x5F_mapa">
	<ellipse class="st0" cx="180.05" cy="485.07" rx="85.43" ry="15.43"/>
	<g>
		<g>
			<path class="st7" d="M26.48,203.13c0,0,103.01,57.91,138.22,231.94c2.87,14.19,22.83,15.44,27.49,1.72
				c26.58-78.35,79.42-215.69,144.65-289.86"/>
			<ellipse class="st7" cx="178.23" cy="166.52" rx="162.89" ry="161.77"/>
			<ellipse class="st8" cx="163.77" cy="162.27" rx="162.89" ry="161.77"/>
			<path class="st8" d="M12.88,203.13c0,0,107.81,55.57,145.68,224.74c3.16,14.12,23.12,14.83,27.09,0.91
				c22.72-79.69,68.58-212.17,137.59-281.84"/>
		</g>
		<g>
			<ellipse class="st8" cx="163.77" cy="163.12" rx="136.75" ry="135.8"/>
			<path class="st9" d="M163.77,309.13c-81.07,0-147.04-65.5-147.04-146.02S82.69,17.1,163.77,17.1S310.8,82.6,310.8,163.12
				S244.84,309.13,163.77,309.13z M163.77,37.54c-69.73,0-126.46,56.33-126.46,125.58S94.04,288.7,163.77,288.7
				s126.46-56.33,126.46-125.58S233.5,37.54,163.77,37.54z"/>
		</g>
	</g>
</g>
</svg>
