<?xml version="1.0" encoding="utf-8"?>
<!-- Generator: Adobe Illustrator 24.0.0, SVG Export Plug-In . SVG Version: 6.00 Build 0)  -->
<svg version="1.1" id="Capa_1" xmlns="http://www.w3.org/2000/svg" xmlns:xlink="http://www.w3.org/1999/xlink" x="0px" y="0px"
	 viewBox="0 0 342 501" style="enable-background:new 0 0 342 501;" xml:space="preserve">
<style type="text/css">
	.st0{opacity:0.05;}
	.st1{fill:#008AB5;}
	.st2{fill:#00AEEF;}
	.st3{fill:#43DCFF;}
	.st4{fill:#961864;}
	.st5{fill:#E00C7D;}
	.st6{fill:#F25AB8;}
	.st7{fill:#022456;}
	.st8{fill:#043284;}
	.st9{fill:#1A58A3;}
</style>
<g id="pin_x5F_inatec_x5F_mapa">
	<ellipse class="st0" cx="180.36" cy="484.97" rx="85.43" ry="15.53"/>
	<g>
		<g>
			<path class="st4" d="M26.48,204.55c0,0,103.01,58.31,138.22,233.56c2.87,14.29,22.83,15.54,27.49,1.73
				c26.58-78.89,79.42-217.2,144.65-291.88"/>
			<circle class="st4" cx="178.23" cy="167.68" r="162.89"/>
			<circle class="st5" cx="163.77" cy="163.39" r="162.89"/>
			<path class="st5" d="M12.88,204.55c0,0,107.81,55.95,145.68,226.31c3.16,14.22,23.12,14.93,27.09,0.92
				c22.72-80.25,68.58-213.66,137.59-283.81"/>
		</g>
		<g>
			<circle class="st5" cx="163.77" cy="164.25" r="136.75"/>
			<path class="st6" d="M163.77,311.29c-81.08,0-147.04-65.96-147.04-147.04S82.69,17.22,163.77,17.22S310.8,83.18,310.8,164.25
				S244.84,311.29,163.77,311.29z M163.77,37.8c-69.73,0-126.46,56.73-126.46,126.46s56.73,126.46,126.46,126.46
				s126.46-56.73,126.46-126.46S233.5,37.8,163.77,37.8z"/>
		</g>
	</g>
</g>
</svg>
